<?xml version="1.0" standalone="no"?>
<!DOCTYPE svg PUBLIC "-//W3C//DTD SVG 20010904//EN"
 "http://www.w3.org/TR/2001/REC-SVG-20010904/DTD/svg10.dtd">
<svg version="1.0" xmlns="http://www.w3.org/2000/svg"
 width="260.000000pt" height="260.000000pt" viewBox="0 0 260.000000 260.000000"
 preserveAspectRatio="xMidYMid meet">
<metadata>
Created by potrace 1.14, written by Peter Selinger 2001-2017
</metadata>
<g transform="translate(0.000000,260.000000) scale(0.100000,-0.100000)"
fill="#000000" stroke="none">
<path d="M397 1903 l-58 -4 3 -32 c3 -28 7 -32 43 -39 22 -4 50 -10 63 -13
l22 -5 0 -429 0 -429 -65 -13 c-64 -13 -65 -13 -65 -46 l0 -33 205 0 205 0 0
33 0 34 -77 14 -78 14 -2 184 -3 184 95 -5 c135 -7 147 -18 242 -217 42 -86
84 -175 94 -198 l18 -43 97 0 c95 0 96 0 90 23 -3 12 -6 27 -6 33 0 7 -20 17
-45 23 l-45 11 -74 148 c-81 162 -111 204 -163 231 l-35 17 59 17 c122 33 196
137 196 272 0 90 -23 144 -81 195 -72 64 -114 72 -362 75 -118 1 -241 0 -273
-2z m484 -106 c46 -19 96 -78 105 -122 19 -104 -24 -191 -114 -233 -48 -22
-75 -27 -169 -30 l-111 -4 0 198 c0 109 2 202 5 207 8 13 247 0 284 -16z"/>
<path d="M1372 1902 c-42 -3 -43 -4 -40 -35 3 -33 -1 -31 106 -53 l22 -4 0
-429 0 -429 -65 -12 -65 -12 0 -35 0 -35 268 4 c245 4 272 7 329 27 133 48
238 155 282 286 18 54 25 100 29 201 5 149 -6 203 -65 317 -56 105 -139 167
-272 199 -63 15 -110 18 -281 16 -113 -2 -224 -4 -248 -6z m458 -93 c148 -30
232 -116 266 -274 25 -115 11 -295 -31 -392 -26 -59 -87 -123 -142 -152 -53
-27 -140 -41 -250 -41 l-93 0 0 433 0 434 98 1 c53 1 122 -3 152 -9z"/>
</g>
</svg>
