<?xml version="1.0" standalone="no"?>
<!DOCTYPE svg PUBLIC "-//W3C//DTD SVG 20010904//EN"
 "http://www.w3.org/TR/2001/REC-SVG-20010904/DTD/svg10.dtd">
<svg version="1.0" xmlns="http://www.w3.org/2000/svg"
 width="260.000000pt" height="260.000000pt" viewBox="0 0 260.000000 260.000000"
 preserveAspectRatio="xMidYMid meet">
<metadata>
Created by potrace 1.14, written by Peter Selinger 2001-2017
</metadata>
<g transform="translate(0.000000,260.000000) scale(0.100000,-0.100000)"
fill="#000000" stroke="none">
<path d="M1183 2013 l-73 -4 0 -34 c0 -29 4 -34 30 -39 17 -3 44 -9 60 -12
l30 -6 0 -483 0 -484 -60 -12 c-59 -11 -60 -12 -60 -45 l0 -34 175 0 175 0 0
33 c0 33 -2 34 -55 46 l-55 12 0 535 0 534 -47 -2 c-27 -1 -81 -4 -120 -5z"/>
<path d="M246 1869 c-4 -23 -4 -81 0 -130 l7 -89 33 0 c31 0 33 2 43 50 6 28
11 61 11 73 0 40 11 44 128 45 l112 0 0 -432 0 -433 -72 -14 c-72 -14 -73 -15
-76 -46 l-3 -33 216 0 216 0 -3 32 c-3 32 -4 33 -75 47 l-73 13 0 428 c0 381
2 429 16 434 9 3 60 6 114 6 l98 0 6 -27 c3 -16 8 -46 12 -68 11 -72 13 -75
50 -75 l34 0 0 130 0 130 -394 0 -393 0 -7 -41z"/>
<path d="M1971 1659 c-55 -11 -119 -41 -168 -80 l-38 -31 -8 53 c-4 29 -9 54
-11 56 -1 2 -49 0 -104 -3 l-102 -7 0 -32 c0 -30 2 -31 60 -43 l60 -13 -2
-477 c-3 -468 -3 -477 -23 -480 -79 -14 -95 -22 -95 -52 0 -30 1 -30 58 -31
31 -1 116 -1 187 0 l130 1 3 29 c3 28 1 30 -55 41 -32 6 -64 13 -70 15 -10 3
-13 39 -13 135 0 121 1 131 18 126 46 -15 148 -22 205 -14 132 18 225 88 284
214 26 56 28 67 27 199 0 120 -3 149 -22 199 -54 144 -183 223 -321 195z m102
-109 c34 -17 91 -101 108 -160 18 -67 16 -205 -4 -274 -22 -71 -93 -148 -153
-165 -50 -14 -158 -14 -206 0 l-38 10 0 258 c0 292 -5 273 89 322 75 39 134
41 204 9z"/>
</g>
</svg>
