<?xml version="1.0" standalone="no"?>
<!DOCTYPE svg PUBLIC "-//W3C//DTD SVG 20010904//EN"
 "http://www.w3.org/TR/2001/REC-SVG-20010904/DTD/svg10.dtd">
<svg version="1.0" xmlns="http://www.w3.org/2000/svg"
 width="96.000000pt" height="96.000000pt" viewBox="0 0 96.000000 96.000000"
 preserveAspectRatio="xMidYMid meet">
<metadata>
Created by potrace 1.14, written by Peter Selinger 2001-2017
</metadata>
<g transform="translate(0.000000,96.000000) scale(0.100000,-0.100000)"
fill="#000000" stroke="none">
<path d="M190 798 c-22 -11 -46 -34 -59 -59 -20 -36 -23 -52 -20 -147 1 -59
-1 -172 -6 -252 -11 -215 -17 -211 341 -232 241 -14 303 -6 356 41 l31 27 3
296 c4 279 3 297 -15 319 l-19 24 -287 1 c-259 0 -291 -2 -325 -18z m186 -10
c3 -4 -7 -25 -22 -47 -22 -34 -32 -41 -60 -41 -39 0 -89 -38 -98 -75 -17 -68
55 -133 137 -122 79 11 116 63 83 120 -17 30 -16 31 22 94 l39 64 64 3 c35 2
102 7 149 11 134 11 126 32 122 -307 -1 -156 -5 -291 -8 -301 -3 -9 -22 -26
-42 -36 -42 -21 -138 -36 -146 -23 -7 12 43 58 76 71 34 13 68 65 68 104 0 58
-54 117 -107 117 -61 0 -120 -82 -109 -150 5 -33 2 -40 -49 -90 l-54 -54 -128
13 c-70 7 -140 19 -155 27 -37 19 -41 51 -28 211 6 75 9 172 5 215 -14 152 40
212 182 204 29 -1 56 -5 59 -8z m74 -2 c0 -2 -16 -30 -36 -62 -24 -40 -33 -66
-30 -81 4 -13 9 -34 12 -48 10 -41 -19 -65 -79 -65 -59 0 -97 27 -97 70 0 40
20 59 75 73 43 10 54 19 85 64 19 29 43 52 53 53 9 0 17 -2 17 -4z m260 -416
c43 -43 14 -150 -39 -150 -18 0 -68 -48 -88 -85 -7 -12 -18 -14 -51 -9 l-41 6
39 47 c36 43 40 53 40 103 0 45 5 60 25 82 30 33 85 36 115 6z"/>
<path d="M580 681 c-16 -16 -32 -41 -36 -57 -4 -17 -41 -64 -92 -116 -75 -76
-91 -88 -120 -88 -67 0 -101 -34 -102 -101 0 -57 26 -94 77 -108 91 -26 176
37 160 117 -5 25 4 38 81 115 75 74 92 87 120 87 47 0 92 46 92 93 0 81 -120
119 -180 58z m120 -6 c16 -8 31 -24 35 -35 13 -40 -37 -90 -88 -90 -23 0 -47
-18 -118 -90 -88 -89 -89 -91 -89 -139 0 -42 -4 -53 -26 -70 -47 -37 -131 -23
-153 26 -29 64 0 112 74 121 47 5 56 11 137 91 63 62 89 95 94 119 7 36 55 82
85 82 11 0 33 -7 49 -15z"/>
<path d="M618 634 c-14 -31 -1 -57 31 -62 46 -7 72 56 32 78 -32 16 -51 12
-63 -16z m55 -19 c1 -5 -6 -11 -15 -13 -11 -2 -18 3 -18 13 0 17 30 18 33 0z"/>
<path d="M310 340 c-16 -16 -18 -25 -10 -40 18 -34 48 -44 76 -25 28 18 31 46
8 69 -21 22 -50 20 -74 -4z m63 -16 c11 -11 -5 -34 -23 -34 -22 0 -34 15 -25
30 7 11 38 14 48 4z"/>
<path d="M272 618 c-30 -30 -3 -72 44 -66 34 4 53 31 38 56 -13 21 -64 28 -82
10z m58 -29 c0 -14 -5 -19 -17 -17 -26 5 -29 38 -4 38 15 0 21 -6 21 -21z"/>
<path d="M616 328 c-13 -19 -14 -25 -2 -43 17 -26 49 -31 70 -10 20 21 20 39
0 59 -22 22 -50 20 -68 -6z m54 -24 c0 -8 -9 -14 -20 -14 -22 0 -28 26 -7 33
16 6 27 -1 27 -19z"/>
</g>
</svg>
