<?xml version="1.0" encoding="UTF-8" standalone="no"?><!DOCTYPE svg PUBLIC "-//W3C//DTD SVG 1.1//EN" "http://www.w3.org/Graphics/SVG/1.1/DTD/svg11.dtd"><svg width="100%" height="100%" viewBox="0 0 700 234" version="1.1" xmlns="http://www.w3.org/2000/svg" xmlns:xlink="http://www.w3.org/1999/xlink" xml:space="preserve" xmlns:serif="http://www.serif.com/" style="fill-rule:evenodd;clip-rule:evenodd;stroke-linejoin:round;stroke-miterlimit:2;"><path d="M43.745,107.248c-0,2.078 -0.37,3.965 -1.108,5.662c-0.739,1.696 -1.789,3.139 -3.151,4.328c-1.362,1.189 -2.978,2.06 -4.848,2.614c1.062,0.347 1.985,1.051 2.77,2.113c0.785,1.061 1.42,2.216 1.904,3.462l3.602,9.349c0.577,1.524 1.067,2.62 1.471,3.29c0.404,0.669 0.883,1.223 1.437,1.662c-0.369,0.6 -0.923,1.039 -1.662,1.316c-0.739,0.277 -1.408,0.415 -2.008,0.415c-1.062,0 -1.847,-0.3 -2.355,-0.9c-0.508,-0.6 -0.981,-1.466 -1.419,-2.597l-3.983,-10.526c-0.692,-1.801 -1.558,-3.307 -2.597,-4.519c-1.038,-1.212 -2.724,-1.818 -5.055,-1.818l-9.384,-0l0,-4.363c1.085,-0.046 2.286,-0.087 3.601,-0.121c1.316,-0.035 2.643,-0.058 3.982,-0.07c1.339,-0.011 2.563,-0.017 3.671,-0.017c2.539,0 4.501,-0.473 5.886,-1.42c1.385,-0.946 2.338,-2.129 2.857,-3.549c0.519,-1.419 0.779,-2.856 0.779,-4.311c0,-1.5 -0.26,-2.96 -0.779,-4.38c-0.519,-1.42 -1.472,-2.591 -2.857,-3.515c-1.385,-0.923 -3.347,-1.385 -5.886,-1.385l-2.788,0c-1.096,0 -2.204,-0.005 -3.324,-0.017c-1.119,-0.012 -2.095,-0.029 -2.926,-0.052l0,43.145c-0.392,0.069 -0.819,0.121 -1.281,0.156c-0.462,0.034 -0.946,0.052 -1.454,0.052c-0.462,-0 -0.924,-0.018 -1.385,-0.052c-0.462,-0.035 -0.866,-0.087 -1.212,-0.156l-0,-46.885l0.45,-0.415c2.401,-0.046 4.778,-0.093 7.133,-0.139c2.355,-0.046 4.64,-0.069 6.856,-0.069c3.209,0 5.933,0.554 8.172,1.662c2.239,1.108 3.947,2.684 5.125,4.727c1.177,2.043 1.766,4.484 1.766,7.323Z" style="fill:#5e5e5e;fill-rule:nonzero;"/><path d="M79.341,124.042c-0,3.463 -0.543,6.533 -1.628,9.211c-1.085,2.678 -2.7,4.784 -4.847,6.319c-2.147,1.535 -4.802,2.303 -7.964,2.303c-3.186,-0 -5.841,-0.773 -7.965,-2.32c-2.123,-1.547 -3.716,-3.665 -4.778,-6.354c-1.062,-2.689 -1.593,-5.742 -1.593,-9.159c0,-3.416 0.537,-6.463 1.61,-9.141c1.074,-2.678 2.678,-4.79 4.813,-6.337c2.136,-1.547 4.773,-2.32 7.913,-2.32c3.208,0 5.88,0.773 8.016,2.32c2.135,1.547 3.739,3.665 4.813,6.354c1.073,2.689 1.61,5.731 1.61,9.124Zm-23.477,0c-0,2.309 0.277,4.513 0.831,6.614c0.554,2.101 1.495,3.826 2.822,5.177c1.327,1.35 3.145,2.025 5.454,2.025c2.285,0 4.086,-0.675 5.402,-2.025c1.315,-1.351 2.25,-3.076 2.804,-5.177c0.554,-2.101 0.831,-4.305 0.831,-6.614c0,-2.262 -0.277,-4.449 -0.831,-6.562c-0.554,-2.112 -1.489,-3.855 -2.804,-5.228c-1.316,-1.374 -3.117,-2.061 -5.402,-2.061c-2.309,0 -4.127,0.687 -5.454,2.061c-1.327,1.373 -2.268,3.116 -2.822,5.228c-0.554,2.113 -0.831,4.3 -0.831,6.562Z" style="fill:#5e5e5e;fill-rule:nonzero;"/><path d="M94.057,139.312l-5.021,0l0,-48.754l0.416,-0.415l1.87,-0c1.154,-0 1.898,0.294 2.233,0.883c0.335,0.588 0.502,1.46 0.502,2.614l0,45.672Zm21.607,-15.685c0,4.201 -0.704,7.617 -2.112,10.249c-1.408,2.632 -3.226,4.565 -5.454,5.8c-2.227,1.235 -4.565,1.853 -7.012,1.853c-2.054,-0 -4.086,-0.191 -6.094,-0.572c-2.008,-0.381 -3.994,-0.929 -5.956,-1.645l2.632,-4.155c1.5,0.854 2.972,1.472 4.415,1.853c1.443,0.381 3.099,0.571 4.969,0.571c1.685,0 3.243,-0.502 4.674,-1.506c1.432,-1.004 2.58,-2.534 3.446,-4.588c0.865,-2.055 1.298,-4.663 1.298,-7.826c0,-4.501 -0.744,-7.739 -2.233,-9.713c-1.489,-1.973 -3.203,-2.96 -5.142,-2.96c-2.101,-0 -4.092,0.664 -5.973,1.991c-1.882,1.327 -3.33,2.926 -4.346,4.796l-0.796,-4.571c0.577,-0.877 1.425,-1.835 2.545,-2.874c1.119,-1.039 2.47,-1.933 4.051,-2.684c1.581,-0.75 3.341,-1.125 5.281,-1.125c2.585,0 4.755,0.727 6.509,2.182c1.755,1.454 3.076,3.468 3.965,6.042c0.889,2.574 1.333,5.534 1.333,8.882Z" style="fill:#5e5e5e;fill-rule:nonzero;"/><path d="M125.879,125.635l0,-3.947l18.906,-0l0,-0.97c0,-1.916 -0.271,-3.67 -0.814,-5.263c-0.542,-1.593 -1.413,-2.869 -2.614,-3.827c-1.2,-0.958 -2.782,-1.437 -4.744,-1.437c-2.747,0 -4.836,1.16 -6.267,3.48c-1.431,2.32 -2.147,5.373 -2.147,9.159l0,1.628c0,2.493 0.271,4.715 0.814,6.665c0.542,1.951 1.46,3.48 2.753,4.588c1.292,1.108 3.07,1.662 5.332,1.662c1.847,0 3.607,-0.277 5.281,-0.831c1.673,-0.554 3.26,-1.258 4.761,-2.112c0.485,0.439 0.9,1.004 1.246,1.697c0.347,0.692 0.554,1.316 0.624,1.87c-1.593,1.131 -3.498,2.06 -5.714,2.787c-2.216,0.727 -4.513,1.091 -6.89,1.091c-2.586,-0 -4.756,-0.479 -6.51,-1.437c-1.755,-0.958 -3.157,-2.274 -4.207,-3.948c-1.051,-1.673 -1.801,-3.578 -2.251,-5.713c-0.45,-2.135 -0.675,-4.392 -0.675,-6.769c-0,-3.417 0.536,-6.464 1.61,-9.142c1.073,-2.678 2.643,-4.784 4.709,-6.319c2.066,-1.535 4.577,-2.303 7.531,-2.303c2.955,0 5.425,0.664 7.41,1.991c1.986,1.327 3.475,3.111 4.467,5.35c0.993,2.239 1.489,4.721 1.489,7.445c0,0.877 -0.023,1.65 -0.069,2.32c-0.046,0.669 -0.127,1.431 -0.242,2.285l-23.789,-0Z" style="fill:#5e5e5e;fill-rule:nonzero;"/><path d="M177.854,106.867c-0,0.808 -0.087,1.657 -0.26,2.545c-0.173,0.889 -0.491,1.668 -0.952,2.338c-0.393,-0.046 -0.791,-0.075 -1.195,-0.087c-0.404,-0.011 -0.802,-0.017 -1.195,-0.017c-1.546,-0 -2.874,0.329 -3.982,0.987c-1.108,0.658 -2.031,1.483 -2.77,2.475c-0.738,0.993 -1.333,2.032 -1.783,3.117c-0.45,1.085 -0.779,2.066 -0.987,2.943l-0.935,-1.143c0,-1.477 0.202,-3.001 0.606,-4.57c0.404,-1.57 1.039,-3.024 1.905,-4.363c0.865,-1.339 1.985,-2.424 3.358,-3.255c1.374,-0.831 3.042,-1.247 5.004,-1.247c0.369,0 0.825,0.023 1.368,0.07c0.542,0.046 1.148,0.115 1.818,0.207Zm-19.668,2.563c0.161,-0.462 0.45,-0.981 0.865,-1.559c0.416,-0.577 0.866,-1.004 1.351,-1.281c1.823,0.624 3.162,1.761 4.017,3.411c0.854,1.651 1.315,3.653 1.385,6.008l-0,25.035c-0.324,0.069 -0.705,0.121 -1.143,0.156c-0.439,0.034 -0.9,0.052 -1.385,0.052c-0.508,-0 -0.981,-0.018 -1.42,-0.052c-0.438,-0.035 -0.819,-0.087 -1.143,-0.156l0,-24.516c0,-1.731 -0.265,-3.191 -0.796,-4.38c-0.531,-1.189 -1.108,-2.095 -1.731,-2.718Z" style="fill:#5e5e5e;fill-rule:nonzero;"/><path d="M186.476,99.838c-0,-1.131 0.167,-1.997 0.502,-2.597c0.334,-0.6 1.079,-0.9 2.233,-0.9l1.87,-0l0.416,0.45l-0,37.431c-0,0.831 0.202,1.512 0.606,2.043c0.403,0.531 1.113,0.797 2.129,0.797l5.263,-0c0.277,0.762 0.416,1.685 0.416,2.77l-0,0.554c-0,0.185 -0.023,0.358 -0.069,0.519c-1.085,0.139 -2.193,0.243 -3.325,0.312c-1.131,0.069 -2.366,0.104 -3.705,0.104c-1.939,-0 -3.48,-0.491 -4.622,-1.472c-1.143,-0.981 -1.714,-2.406 -1.714,-4.276l-0,-35.735Zm13.781,7.168c0.162,0.715 0.242,1.373 0.242,1.974c0,0.669 -0.08,1.327 -0.242,1.973l-10.457,-0.138l-8.207,0.138c-0.138,-0.646 -0.207,-1.304 -0.207,-1.973c-0,-0.601 0.069,-1.259 0.207,-1.974l8.172,0.138l10.492,-0.138Z" style="fill:#5e5e5e;fill-rule:nonzero;"/><path d="M257.841,117.428c0,2.701 -0.173,5.281 -0.519,7.74c-0.346,2.458 -1.027,4.749 -2.043,6.873c-1.016,2.124 -2.528,4.04 -4.536,5.748c-0.97,0.831 -2.147,1.506 -3.532,2.026c-1.385,0.519 -2.799,0.9 -4.242,1.142c-1.443,0.243 -2.753,0.364 -3.93,0.364c-1.801,-0 -3.382,-0.012 -4.744,-0.035c-1.362,-0.023 -2.747,-0.058 -4.155,-0.104c-1.408,-0.046 -3.117,-0.092 -5.125,-0.138l-0.45,-0.416l-0,-46.469l0.45,-0.415c1.985,-0.069 3.688,-0.121 5.108,-0.156c1.419,-0.035 2.81,-0.052 4.172,-0.052l4.744,0c1.177,0 2.487,0.121 3.93,0.364c1.443,0.242 2.857,0.623 4.242,1.142c1.385,0.52 2.562,1.195 3.532,2.026c1.985,1.708 3.485,3.63 4.501,5.765c1.016,2.136 1.703,4.433 2.06,6.891c0.358,2.459 0.537,5.027 0.537,7.704Zm-5.609,0c-0,-2.239 -0.156,-4.501 -0.468,-6.786c-0.311,-2.286 -0.917,-4.386 -1.818,-6.302c-0.9,-1.916 -2.233,-3.452 -3.999,-4.606c-1.766,-1.154 -4.092,-1.731 -6.977,-1.731c-1.593,-0 -3.059,-0.012 -4.398,-0.035c-1.339,-0.023 -2.897,-0.034 -4.675,-0.034l0,38.851c1.778,-0 3.336,0.011 4.675,0.034c1.339,0.023 2.805,0.035 4.398,0.035c2.885,-0 5.211,-0.583 6.977,-1.749c1.766,-1.165 3.099,-2.706 3.999,-4.622c0.901,-1.916 1.507,-4.017 1.818,-6.302c0.312,-2.286 0.468,-4.536 0.468,-6.753Z" style="fill:#5e5e5e;fill-rule:nonzero;"/><path d="M273.666,141.044c-0.347,0.069 -0.733,0.121 -1.16,0.156c-0.427,0.034 -0.883,0.052 -1.368,0.052c-0.508,-0 -0.981,-0.018 -1.42,-0.052c-0.438,-0.035 -0.819,-0.087 -1.143,-0.156l0,-26.732c0,-1.27 -0.207,-2.147 -0.623,-2.632c-0.415,-0.484 -1.166,-0.727 -2.251,-0.727l-0.657,0c-0.139,-0.646 -0.208,-1.281 -0.208,-1.904c-0,-0.323 0.017,-0.629 0.052,-0.918c0.034,-0.288 0.086,-0.617 0.156,-0.987c0.784,-0.115 1.471,-0.19 2.06,-0.225c0.588,-0.034 1.067,-0.052 1.437,-0.052l0.588,0c1.432,0 2.546,0.439 3.342,1.316c0.796,0.877 1.195,2.089 1.195,3.636l-0,29.225Zm-7.272,-42.937c-0,-1.039 0.173,-1.905 0.519,-2.597c0.324,-0.208 0.785,-0.375 1.385,-0.502c0.601,-0.127 1.166,-0.191 1.697,-0.191c0.485,0 1.05,0.064 1.697,0.191c0.646,0.127 1.108,0.294 1.385,0.502c0.162,0.3 0.288,0.698 0.381,1.194c0.092,0.497 0.138,0.964 0.138,1.403c0,1.039 -0.173,1.893 -0.519,2.562c-0.254,0.208 -0.71,0.381 -1.368,0.52c-0.658,0.138 -1.229,0.207 -1.714,0.207c-0.531,0 -1.096,-0.069 -1.697,-0.207c-0.6,-0.139 -1.061,-0.312 -1.385,-0.52c-0.346,-0.669 -0.519,-1.523 -0.519,-2.562Z" style="fill:#5e5e5e;fill-rule:nonzero;"/><path d="M283.188,131.833c-0,-2.562 0.542,-4.663 1.627,-6.302c1.085,-1.639 2.603,-2.857 4.554,-3.653c1.95,-0.796 4.218,-1.195 6.804,-1.195c1.431,0 2.978,0.075 4.64,0.225c1.662,0.15 3.232,0.41 4.709,0.78l0,3.67c-1.362,-0.323 -2.862,-0.543 -4.501,-0.658c-1.639,-0.115 -3.232,-0.173 -4.779,-0.173c-2.424,-0 -4.34,0.606 -5.748,1.818c-1.408,1.212 -2.112,2.914 -2.112,5.107c-0,1.685 0.467,3.117 1.402,4.294c0.935,1.177 2.303,1.766 4.104,1.766c1.823,-0 3.797,-0.635 5.921,-1.905c2.123,-1.269 3.912,-3.197 5.367,-5.782l0.865,4.674c-0.784,0.947 -1.806,1.991 -3.064,3.134c-1.258,1.143 -2.707,2.135 -4.346,2.978c-1.639,0.843 -3.451,1.264 -5.436,1.264c-2.262,-0 -4.132,-0.496 -5.61,-1.489c-1.477,-0.993 -2.579,-2.257 -3.306,-3.792c-0.728,-1.535 -1.091,-3.122 -1.091,-4.761Zm27.493,7.029c-0.161,0.485 -0.461,0.987 -0.9,1.507c-0.438,0.519 -0.912,0.906 -1.42,1.16c-1.154,-0.416 -2.06,-0.993 -2.718,-1.732c-0.658,-0.738 -1.131,-1.61 -1.419,-2.614c-0.289,-1.004 -0.445,-2.107 -0.468,-3.307l0,-16.067c0,-2.562 -0.565,-4.38 -1.697,-5.453c-1.131,-1.074 -2.654,-1.61 -4.57,-1.61c-1.87,-0 -3.757,0.277 -5.662,0.831c-1.904,0.554 -3.78,1.235 -5.627,2.043c-0.461,-0.393 -0.871,-0.982 -1.229,-1.766c-0.358,-0.785 -0.537,-1.536 -0.537,-2.251c1.155,-0.508 2.476,-1.01 3.965,-1.506c1.489,-0.497 3.059,-0.906 4.709,-1.23c1.651,-0.323 3.284,-0.484 4.9,-0.484c2.401,-0 4.398,0.438 5.991,1.315c1.592,0.878 2.781,2.17 3.566,3.879c0.785,1.708 1.177,3.808 1.177,6.302l0,14.266c0,1.454 0.11,2.735 0.329,3.843c0.22,1.108 0.756,2.066 1.61,2.874Z" style="fill:#5e5e5e;fill-rule:nonzero;"/><path d="M325.675,139.312l-5.021,0l-0,-48.754l0.415,-0.415l1.87,-0c1.154,-0 1.899,0.294 2.234,0.883c0.334,0.588 0.502,1.46 0.502,2.614l-0,45.672Zm21.607,-15.685c-0,4.201 -0.704,7.617 -2.112,10.249c-1.409,2.632 -3.226,4.565 -5.454,5.8c-2.228,1.235 -4.565,1.853 -7.012,1.853c-2.055,-0 -4.086,-0.191 -6.094,-0.572c-2.009,-0.381 -3.994,-0.929 -5.956,-1.645l2.632,-4.155c1.5,0.854 2.972,1.472 4.414,1.853c1.443,0.381 3.1,0.571 4.969,0.571c1.686,0 3.244,-0.502 4.675,-1.506c1.431,-1.004 2.58,-2.534 3.445,-4.588c0.866,-2.055 1.299,-4.663 1.299,-7.826c-0,-4.501 -0.745,-7.739 -2.234,-9.713c-1.489,-1.973 -3.203,-2.96 -5.142,-2.96c-2.1,-0 -4.091,0.664 -5.973,1.991c-1.881,1.327 -3.33,2.926 -4.345,4.796l-0.797,-4.571c0.577,-0.877 1.426,-1.835 2.545,-2.874c1.12,-1.039 2.47,-1.933 4.052,-2.684c1.581,-0.75 3.341,-1.125 5.28,-1.125c2.586,0 4.756,0.727 6.51,2.182c1.754,1.454 3.076,3.468 3.965,6.042c0.888,2.574 1.333,5.534 1.333,8.882Z" style="fill:#5e5e5e;fill-rule:nonzero;"/></svg>