<?xml version="1.0" encoding="UTF-8" standalone="no"?><!DOCTYPE svg PUBLIC "-//W3C//DTD SVG 1.1//EN" "http://www.w3.org/Graphics/SVG/1.1/DTD/svg11.dtd"><svg width="100%" height="100%" viewBox="0 0 700 234" version="1.1" xmlns="http://www.w3.org/2000/svg" xmlns:xlink="http://www.w3.org/1999/xlink" xml:space="preserve" xmlns:serif="http://www.serif.com/" style="fill-rule:evenodd;clip-rule:evenodd;stroke-linejoin:round;stroke-miterlimit:2;"><g transform="matrix(2.20687,0,0,2.20687,-176.345,-242.804)"><g transform="matrix(31.3808,0,0,31.3808,83.2705,173.934)"><path d="M0.525,-0.488c-0.001,0.03 -0.006,0.057 -0.016,0.082c-0.011,0.024 -0.026,0.045 -0.046,0.062c-0.02,0.017 -0.043,0.03 -0.07,0.038c0.015,0.005 0.029,0.015 0.04,0.03c0.011,0.016 0.021,0.033 0.028,0.051l0.051,0.135c0.009,0.022 0.016,0.037 0.022,0.047c0.006,0.01 0.012,0.018 0.02,0.024c-0.005,0.009 -0.013,0.015 -0.024,0.019c-0.01,0.004 -0.02,0.006 -0.028,0.006c-0.016,0 -0.027,-0.004 -0.034,-0.013c-0.008,-0.009 -0.015,-0.021 -0.021,-0.037l-0.057,-0.152c-0.01,-0.026 -0.023,-0.048 -0.038,-0.066c-0.015,-0.017 -0.039,-0.026 -0.073,-0.026l-0.135,0l-0,-0.063c0.015,-0.001 0.033,-0.001 0.052,-0.002c0.019,-0 0.038,-0.001 0.057,-0.001c0.019,0 0.037,0 0.053,0c0.037,0 0.065,-0.007 0.085,-0.02c0.02,-0.014 0.034,-0.031 0.041,-0.052c0.008,-0.02 0.012,-0.041 0.012,-0.062c-0,-0.022 -0.004,-0.043 -0.012,-0.063c-0.007,-0.021 -0.021,-0.038 -0.041,-0.051c-0.02,-0.013 -0.048,-0.02 -0.085,-0.02l-0.04,0c-0.016,0 -0.032,-0 -0.048,-0c-0.016,-0 -0.03,-0.001 -0.042,-0.001l-0,0.623c-0.006,0.001 -0.012,0.002 -0.019,0.002c-0.007,0.001 -0.014,0.001 -0.021,0.001c-0.007,0 -0.013,-0 -0.02,-0.001c-0.007,-0 -0.012,-0.001 -0.017,-0.002l-0,-0.677l0.006,-0.006c0.035,-0.001 0.069,-0.001 0.103,-0.002c0.034,-0.001 0.067,-0.001 0.099,-0.001c0.046,0 0.086,0.008 0.118,0.024c0.032,0.016 0.057,0.039 0.074,0.068c0.017,0.03 0.025,0.065 0.025,0.106Z" style="fill:#5e5e5e;fill-rule:nonzero;"/></g><g transform="matrix(31.3808,0,0,31.3808,101.189,173.934)"><path d="M0.468,-0.246c-0.001,0.05 -0.008,0.095 -0.024,0.134c-0.016,0.038 -0.039,0.069 -0.07,0.091c-0.031,0.022 -0.069,0.033 -0.115,0.033c-0.046,-0 -0.084,-0.011 -0.115,-0.034c-0.031,-0.022 -0.054,-0.052 -0.069,-0.091c-0.015,-0.039 -0.023,-0.083 -0.023,-0.133c0,-0.049 0.008,-0.093 0.023,-0.132c0.016,-0.038 0.039,-0.069 0.07,-0.091c0.031,-0.022 0.069,-0.034 0.114,-0.034c0.046,0 0.085,0.012 0.116,0.034c0.031,0.022 0.054,0.053 0.069,0.092c0.016,0.039 0.024,0.083 0.024,0.132Zm-0.34,-0.001c0.001,0.034 0.005,0.066 0.013,0.096c0.007,0.03 0.021,0.055 0.04,0.075c0.019,0.019 0.046,0.029 0.079,0.029c0.033,-0 0.059,-0.01 0.078,-0.029c0.019,-0.02 0.032,-0.045 0.04,-0.075c0.009,-0.03 0.013,-0.062 0.013,-0.096c-0.001,-0.032 -0.005,-0.064 -0.013,-0.094c-0.008,-0.031 -0.021,-0.056 -0.04,-0.076c-0.019,-0.02 -0.045,-0.03 -0.078,-0.03c-0.033,0 -0.06,0.01 -0.079,0.03c-0.019,0.02 -0.033,0.045 -0.04,0.076c-0.008,0.03 -0.012,0.062 -0.012,0.094Z" style="fill:#5e5e5e;fill-rule:nonzero;"/></g><g transform="matrix(31.3808,0,0,31.3808,117.476,173.934)"><path d="M0.161,-0.025l-0.073,0l0,-0.704l0.006,-0.006l0.027,0c0.017,0 0.028,0.004 0.033,0.013c0.005,0.008 0.007,0.021 0.007,0.037l-0,0.66Zm0.312,-0.227c0,0.061 -0.01,0.11 -0.031,0.148c-0.02,0.038 -0.046,0.066 -0.078,0.084c-0.032,0.018 -0.066,0.027 -0.102,0.027c-0.029,-0 -0.058,-0.003 -0.087,-0.008c-0.029,-0.006 -0.058,-0.014 -0.086,-0.024l0.038,-0.06c0.021,0.012 0.042,0.021 0.063,0.027c0.021,0.005 0.045,0.008 0.072,0.008c0.024,-0 0.047,-0.007 0.068,-0.022c0.02,-0.014 0.037,-0.036 0.049,-0.066c0.013,-0.03 0.019,-0.067 0.019,-0.113c-0,-0.065 -0.011,-0.112 -0.032,-0.14c-0.022,-0.029 -0.046,-0.043 -0.075,-0.043c-0.03,-0 -0.059,0.01 -0.086,0.029c-0.027,0.019 -0.048,0.042 -0.062,0.069l-0.012,-0.066c0.008,-0.013 0.021,-0.027 0.037,-0.042c0.016,-0.015 0.035,-0.027 0.058,-0.038c0.023,-0.011 0.049,-0.017 0.077,-0.017c0.037,0 0.068,0.011 0.094,0.032c0.025,0.021 0.044,0.05 0.057,0.087c0.013,0.037 0.019,0.08 0.019,0.128Z" style="fill:#5e5e5e;fill-rule:nonzero;"/></g><g transform="matrix(31.3808,0,0,31.3808,133.903,173.934)"><path d="M0.097,-0.223l0,-0.057l0.273,0.001l0,-0.014c-0,-0.028 -0.004,-0.053 -0.012,-0.076c-0.008,-0.023 -0.02,-0.042 -0.037,-0.056c-0.018,-0.014 -0.041,-0.02 -0.069,-0.02c-0.04,-0 -0.07,0.016 -0.091,0.05c-0.02,0.033 -0.031,0.077 -0.031,0.132l0.001,0.024c-0.001,0.036 0.003,0.068 0.011,0.096c0.008,0.028 0.021,0.05 0.04,0.066c0.019,0.016 0.044,0.024 0.077,0.024c0.027,0 0.052,-0.004 0.076,-0.012c0.024,-0.008 0.047,-0.018 0.069,-0.03c0.007,0.006 0.013,0.014 0.018,0.024c0.005,0.01 0.008,0.019 0.009,0.027c-0.023,0.016 -0.05,0.03 -0.083,0.04c-0.032,0.011 -0.065,0.016 -0.099,0.016c-0.037,0 -0.069,-0.007 -0.094,-0.021c-0.025,-0.014 -0.046,-0.033 -0.061,-0.057c-0.015,-0.024 -0.026,-0.051 -0.032,-0.082c-0.007,-0.031 -0.01,-0.064 -0.01,-0.098c-0,-0.049 0.008,-0.093 0.023,-0.132c0.016,-0.039 0.038,-0.069 0.068,-0.091c0.03,-0.022 0.066,-0.033 0.109,-0.033c0.043,-0 0.078,0.009 0.107,0.028c0.029,0.019 0.05,0.045 0.065,0.078c0.014,0.032 0.021,0.068 0.021,0.107c0,0.013 -0,0.024 -0.001,0.034c-0.001,0.009 -0.002,0.02 -0.004,0.033l-0.343,-0Z" style="fill:#5e5e5e;fill-rule:nonzero;"/></g><g transform="matrix(31.3808,0,0,31.3808,149.672,173.934)"><path d="M0.345,-0.494c0,0.012 -0.001,0.024 -0.004,0.037c-0.002,0.013 -0.007,0.024 -0.014,0.034c-0.005,-0.001 -0.011,-0.001 -0.017,-0.001c-0.006,-0 -0.011,-0 -0.017,-0c-0.022,-0 -0.041,0.004 -0.057,0.014c-0.016,0.009 -0.03,0.021 -0.04,0.036c-0.011,0.014 -0.02,0.029 -0.026,0.044c-0.007,0.016 -0.011,0.03 -0.014,0.043l-0.014,-0.016c0,-0.022 0.003,-0.044 0.009,-0.066c0.006,-0.023 0.015,-0.044 0.027,-0.063c0.013,-0.02 0.029,-0.035 0.049,-0.047c0.02,-0.012 0.044,-0.018 0.072,-0.018c0.005,-0 0.012,-0 0.02,0.001c0.008,0 0.016,0.001 0.026,0.003Zm-0.284,0.037c0.002,-0.007 0.007,-0.015 0.012,-0.023c0.007,-0.008 0.013,-0.014 0.02,-0.018c0.026,0.009 0.046,0.025 0.058,0.049c0.012,0.024 0.019,0.053 0.02,0.087l0,0.361c-0.005,0.001 -0.01,0.002 -0.016,0.002c-0.007,0.001 -0.013,0.001 -0.02,0.001c-0.008,0 -0.015,-0 -0.021,-0.001c-0.006,-0 -0.012,-0.001 -0.016,-0.002l-0,-0.354c-0,-0.025 -0.004,-0.046 -0.012,-0.063c-0.008,-0.017 -0.016,-0.03 -0.025,-0.039Z" style="fill:#5e5e5e;fill-rule:nonzero;"/></g><g transform="matrix(31.3808,0,0,31.3808,161.095,173.934)"><path d="M0.106,-0.595c-0.001,-0.016 0.002,-0.029 0.007,-0.038c0.005,-0.008 0.015,-0.012 0.032,-0.012l0.027,-0l0.006,0.006l-0,0.541c0,0.011 0.003,0.021 0.009,0.029c0.006,0.008 0.016,0.011 0.03,0.011l0.076,0c0.004,0.011 0.006,0.025 0.006,0.04l0,0.008c0,0.003 0,0.006 -0.001,0.008c-0.015,0.002 -0.031,0.003 -0.048,0.004c-0.016,0.001 -0.034,0.002 -0.053,0.002c-0.028,-0 -0.05,-0.007 -0.067,-0.021c-0.016,-0.014 -0.025,-0.035 -0.025,-0.062l0,-0.516Zm0.199,0.103c0.003,0.011 0.004,0.02 0.004,0.029c-0,0.01 -0.001,0.019 -0.004,0.028l-0.151,-0.002l-0.118,0.002c-0.002,-0.009 -0.003,-0.018 -0.003,-0.028c-0,-0.009 0.001,-0.018 0.003,-0.029l0.118,0.003l0.151,-0.003Z" style="fill:#5e5e5e;fill-rule:nonzero;"/></g><g transform="matrix(31.3808,0,0,31.3808,178.574,173.934)"><path d="M0.579,-0.341c0,0.039 -0.003,0.076 -0.007,0.112c-0.005,0.035 -0.015,0.068 -0.03,0.099c-0.015,0.031 -0.036,0.058 -0.065,0.083c-0.014,0.012 -0.031,0.022 -0.051,0.029c-0.02,0.008 -0.041,0.013 -0.062,0.017c-0.021,0.003 -0.039,0.005 -0.056,0.005c-0.026,0 -0.049,-0 -0.069,-0c-0.02,-0.001 -0.04,-0.001 -0.06,-0.002c-0.02,-0.001 -0.045,-0.001 -0.074,-0.002l-0.006,-0.006l-0,-0.671l0.006,-0.006c0.029,-0.001 0.053,-0.002 0.074,-0.002c0.02,-0.001 0.04,-0.001 0.06,-0.001l0.069,0c0.017,0 0.035,0.002 0.056,0.005c0.021,0.004 0.042,0.009 0.062,0.017c0.02,0.007 0.037,0.017 0.051,0.029c0.028,0.025 0.05,0.052 0.065,0.083c0.014,0.031 0.024,0.064 0.029,0.1c0.005,0.035 0.008,0.072 0.008,0.111Zm-0.081,0c0,-0.032 -0.002,-0.065 -0.007,-0.098c-0.004,-0.033 -0.013,-0.063 -0.026,-0.091c-0.013,-0.028 -0.032,-0.05 -0.058,-0.067c-0.025,-0.016 -0.059,-0.025 -0.1,-0.025c-0.023,0 -0.045,0 -0.064,0c-0.019,-0 -0.042,-0.001 -0.067,-0.001l-0,0.562c0.025,-0.001 0.048,-0 0.067,-0c0.019,0 0.041,0 0.064,0c0.041,0 0.075,-0.008 0.1,-0.025c0.026,-0.017 0.045,-0.039 0.058,-0.067c0.013,-0.027 0.022,-0.058 0.026,-0.091c0.005,-0.033 0.007,-0.065 0.007,-0.097Z" style="fill:#5e5e5e;fill-rule:nonzero;"/></g><g transform="matrix(31.3808,0,0,31.3808,198.579,173.934)"><path d="M0.17,-0c-0.005,0.001 -0.011,0.002 -0.017,0.002c-0.006,0.001 -0.013,0.001 -0.02,0.001c-0.007,0 -0.014,-0 -0.02,-0.001c-0.006,-0 -0.012,-0.001 -0.017,-0.002l0,-0.386c0,-0.018 -0.003,-0.031 -0.009,-0.038c-0.006,-0.007 -0.016,-0.011 -0.032,-0.011l-0.01,0.001c-0.002,-0.01 -0.003,-0.019 -0.003,-0.028c0,-0.005 0.001,-0.009 0.001,-0.013c0.001,-0.004 0.001,-0.009 0.002,-0.014c0.012,-0.002 0.022,-0.003 0.03,-0.004c0.009,-0 0.016,-0 0.021,-0l0.008,-0c0.021,-0 0.037,0.006 0.049,0.019c0.011,0.012 0.017,0.03 0.017,0.052l-0,0.422Zm-0.105,-0.62c-0,-0.015 0.002,-0.027 0.007,-0.037c0.005,-0.003 0.012,-0.006 0.02,-0.008c0.009,-0.002 0.017,-0.002 0.025,-0.002c0.007,-0 0.015,0 0.024,0.002c0.01,0.002 0.016,0.005 0.02,0.008c0.003,0.004 0.005,0.01 0.006,0.017c0.001,0.007 0.002,0.014 0.002,0.02c-0,0.015 -0.003,0.027 -0.008,0.037c-0.003,0.003 -0.01,0.006 -0.019,0.008c-0.01,0.002 -0.018,0.003 -0.025,0.003c-0.008,-0 -0.016,-0.001 -0.025,-0.003c-0.008,-0.002 -0.015,-0.005 -0.02,-0.008c-0.005,-0.01 -0.007,-0.022 -0.007,-0.037Z" style="fill:#5e5e5e;fill-rule:nonzero;"/></g><g transform="matrix(31.3808,0,0,31.3808,206.629,173.934)"><path d="M0.051,-0.133c0,-0.037 0.008,-0.067 0.023,-0.091c0.016,-0.024 0.038,-0.041 0.066,-0.053c0.028,-0.011 0.061,-0.017 0.099,-0.017c0.02,0 0.043,0.001 0.066,0.003c0.024,0.002 0.047,0.006 0.068,0.012l0,0.053c-0.019,-0.005 -0.041,-0.008 -0.065,-0.01c-0.023,-0.002 -0.046,-0.002 -0.069,-0.002c-0.035,-0 -0.062,0.008 -0.083,0.026c-0.02,0.017 -0.03,0.042 -0.03,0.074c-0,0.024 0.007,0.045 0.02,0.062c0.014,0.017 0.033,0.025 0.059,0.025c0.027,0 0.055,-0.009 0.086,-0.027c0.031,-0.019 0.056,-0.047 0.077,-0.084l0.013,0.068c-0.011,0.013 -0.026,0.028 -0.044,0.045c-0.018,0.016 -0.039,0.031 -0.063,0.043c-0.024,0.012 -0.05,0.018 -0.079,0.018c-0.032,0 -0.059,-0.007 -0.081,-0.021c-0.021,-0.015 -0.037,-0.033 -0.047,-0.055c-0.011,-0.022 -0.016,-0.045 -0.016,-0.069Zm0.397,0.102c-0.002,0.007 -0.007,0.014 -0.013,0.021c-0.006,0.008 -0.013,0.013 -0.021,0.017c-0.016,-0.006 -0.029,-0.014 -0.039,-0.025c-0.009,-0.011 -0.016,-0.023 -0.02,-0.038c-0.004,-0.014 -0.007,-0.03 -0.007,-0.047l0,-0.232c0,-0.037 -0.008,-0.064 -0.025,-0.079c-0.016,-0.016 -0.038,-0.023 -0.066,-0.023c-0.026,-0 -0.054,0.004 -0.081,0.012c-0.028,0.008 -0.055,0.017 -0.081,0.029c-0.007,-0.006 -0.013,-0.014 -0.018,-0.025c-0.005,-0.012 -0.008,-0.023 -0.008,-0.033c0.017,-0.007 0.036,-0.015 0.057,-0.022c0.022,-0.007 0.044,-0.013 0.068,-0.017c0.024,-0.005 0.048,-0.007 0.071,-0.007c0.035,-0 0.064,0.006 0.087,0.019c0.022,0.012 0.04,0.031 0.051,0.056c0.011,0.024 0.017,0.055 0.017,0.091l-0,0.206c-0,0.021 0.002,0.039 0.005,0.055c0.003,0.016 0.011,0.03 0.023,0.042Z" style="fill:#5e5e5e;fill-rule:nonzero;"/></g><g transform="matrix(31.3808,0,0,31.3808,222.429,173.934)"><path d="M0.161,-0.025l-0.073,0l0,-0.704l0.006,-0.006l0.027,0c0.017,0 0.028,0.004 0.033,0.013c0.005,0.008 0.007,0.021 0.007,0.037l-0,0.66Zm0.312,-0.227c0,0.061 -0.01,0.11 -0.031,0.148c-0.02,0.038 -0.046,0.066 -0.078,0.084c-0.032,0.018 -0.066,0.027 -0.102,0.027c-0.029,-0 -0.058,-0.003 -0.087,-0.008c-0.029,-0.006 -0.058,-0.014 -0.086,-0.024l0.038,-0.06c0.021,0.012 0.042,0.021 0.063,0.027c0.021,0.005 0.045,0.008 0.072,0.008c0.024,-0 0.047,-0.007 0.068,-0.022c0.02,-0.014 0.037,-0.036 0.049,-0.066c0.013,-0.03 0.019,-0.067 0.019,-0.113c-0,-0.065 -0.011,-0.112 -0.032,-0.14c-0.022,-0.029 -0.046,-0.043 -0.075,-0.043c-0.03,-0 -0.059,0.01 -0.086,0.029c-0.027,0.019 -0.048,0.042 -0.062,0.069l-0.012,-0.066c0.008,-0.013 0.021,-0.027 0.037,-0.042c0.016,-0.015 0.035,-0.027 0.058,-0.038c0.023,-0.011 0.049,-0.017 0.077,-0.017c0.037,0 0.068,0.011 0.094,0.032c0.025,0.021 0.044,0.05 0.057,0.087c0.013,0.037 0.019,0.08 0.019,0.128Z" style="fill:#5e5e5e;fill-rule:nonzero;"/></g><g transform="matrix(31.3808,0,0,31.3808,245.76,173.934)"><path d="M0.089,-0.775c0.004,-0.001 0.01,-0.002 0.016,-0.002c0.006,-0.001 0.012,-0.001 0.018,-0.001c0.007,0 0.013,0 0.019,0.001c0.006,0 0.011,0.001 0.017,0.002l0,0.915c-0.006,0.001 -0.011,0.002 -0.017,0.003c-0.006,0 -0.012,0.001 -0.019,0.001c-0.006,-0.001 -0.012,-0.001 -0.018,-0.002c-0.006,-0 -0.011,-0.001 -0.016,-0.002l-0,-0.915Z" style="fill:#ffd800;fill-rule:nonzero;"/></g><g transform="matrix(31.3808,0,0,31.3808,260.431,173.934)"><path d="M0.525,-0.488c-0.001,0.03 -0.006,0.057 -0.016,0.082c-0.011,0.024 -0.026,0.045 -0.046,0.062c-0.02,0.017 -0.043,0.03 -0.07,0.038c0.015,0.005 0.029,0.015 0.04,0.03c0.011,0.016 0.021,0.033 0.028,0.051l0.051,0.135c0.009,0.022 0.016,0.037 0.022,0.047c0.006,0.01 0.012,0.018 0.02,0.024c-0.005,0.009 -0.013,0.015 -0.024,0.019c-0.01,0.004 -0.02,0.006 -0.028,0.006c-0.016,0 -0.027,-0.004 -0.034,-0.013c-0.008,-0.009 -0.015,-0.021 -0.021,-0.037l-0.057,-0.152c-0.01,-0.026 -0.023,-0.048 -0.038,-0.066c-0.015,-0.017 -0.039,-0.026 -0.073,-0.026l-0.135,0l-0,-0.063c0.015,-0.001 0.033,-0.001 0.052,-0.002c0.019,-0 0.038,-0.001 0.057,-0.001c0.019,0 0.037,0 0.053,0c0.037,0 0.065,-0.007 0.085,-0.02c0.02,-0.014 0.034,-0.031 0.041,-0.052c0.008,-0.02 0.012,-0.041 0.012,-0.062c-0,-0.022 -0.004,-0.043 -0.012,-0.063c-0.007,-0.021 -0.021,-0.038 -0.041,-0.051c-0.02,-0.013 -0.048,-0.02 -0.085,-0.02l-0.04,0c-0.016,0 -0.032,-0 -0.048,-0c-0.016,-0 -0.03,-0.001 -0.042,-0.001l-0,0.623c-0.006,0.001 -0.012,0.002 -0.019,0.002c-0.007,0.001 -0.014,0.001 -0.021,0.001c-0.007,0 -0.013,-0 -0.02,-0.001c-0.007,-0 -0.012,-0.001 -0.017,-0.002l-0,-0.677l0.006,-0.006c0.035,-0.001 0.069,-0.001 0.103,-0.002c0.034,-0.001 0.067,-0.001 0.099,-0.001c0.046,0 0.086,0.008 0.118,0.024c0.032,0.016 0.057,0.039 0.074,0.068c0.017,0.03 0.025,0.065 0.025,0.106Z" style="fill:#333;fill-rule:nonzero;"/></g><g transform="matrix(31.3808,0,0,31.3808,277.785,173.934)"><path d="M0.097,-0.223l0,-0.057l0.273,0.001l0,-0.014c-0,-0.028 -0.004,-0.053 -0.012,-0.076c-0.008,-0.023 -0.02,-0.042 -0.037,-0.056c-0.018,-0.014 -0.041,-0.02 -0.069,-0.02c-0.04,-0 -0.07,0.016 -0.091,0.05c-0.02,0.033 -0.031,0.077 -0.031,0.132l0.001,0.024c-0.001,0.036 0.003,0.068 0.011,0.096c0.008,0.028 0.021,0.05 0.04,0.066c0.019,0.016 0.044,0.024 0.077,0.024c0.027,0 0.052,-0.004 0.076,-0.012c0.024,-0.008 0.047,-0.018 0.069,-0.03c0.007,0.006 0.013,0.014 0.018,0.024c0.005,0.01 0.008,0.019 0.009,0.027c-0.023,0.016 -0.05,0.03 -0.083,0.04c-0.032,0.011 -0.065,0.016 -0.099,0.016c-0.037,0 -0.069,-0.007 -0.094,-0.021c-0.025,-0.014 -0.046,-0.033 -0.061,-0.057c-0.015,-0.024 -0.026,-0.051 -0.032,-0.082c-0.007,-0.031 -0.01,-0.064 -0.01,-0.098c-0,-0.049 0.008,-0.093 0.023,-0.132c0.016,-0.039 0.038,-0.069 0.068,-0.091c0.03,-0.022 0.066,-0.033 0.109,-0.033c0.043,-0 0.078,0.009 0.107,0.028c0.029,0.019 0.05,0.045 0.065,0.078c0.014,0.032 0.021,0.068 0.021,0.107c0,0.013 -0,0.024 -0.001,0.034c-0.001,0.009 -0.002,0.02 -0.004,0.033l-0.343,-0Z" style="fill:#333;fill-rule:nonzero;"/></g><g transform="matrix(31.3808,0,0,31.3808,292.989,173.934)"><path d="M0.037,-0.038c0.001,-0.009 0.004,-0.018 0.01,-0.029c0.005,-0.011 0.012,-0.019 0.019,-0.025c0.02,0.012 0.043,0.022 0.067,0.032c0.024,0.009 0.049,0.014 0.075,0.014c0.032,-0 0.057,-0.007 0.076,-0.022c0.019,-0.014 0.029,-0.033 0.03,-0.055c-0,-0.017 -0.006,-0.033 -0.019,-0.047c-0.013,-0.014 -0.031,-0.026 -0.054,-0.035l-0.059,-0.022c-0.023,-0.008 -0.044,-0.018 -0.063,-0.03c-0.019,-0.012 -0.035,-0.027 -0.047,-0.045c-0.012,-0.018 -0.018,-0.039 -0.018,-0.063c0,-0.029 0.008,-0.053 0.023,-0.074c0.015,-0.02 0.036,-0.036 0.061,-0.047c0.025,-0.011 0.053,-0.017 0.084,-0.017c0.025,0 0.051,0.004 0.079,0.01c0.028,0.006 0.052,0.014 0.072,0.023c0,0.007 -0,0.014 -0.002,0.02c-0.002,0.007 -0.005,0.014 -0.008,0.021c-0.003,0.006 -0.008,0.012 -0.013,0.017c-0.015,-0.007 -0.035,-0.014 -0.058,-0.021c-0.023,-0.006 -0.047,-0.01 -0.072,-0.01c-0.026,0 -0.048,0.007 -0.064,0.02c-0.017,0.013 -0.025,0.031 -0.025,0.053c-0,0.017 0.006,0.031 0.019,0.042c0.012,0.011 0.031,0.022 0.055,0.031l0.062,0.023c0.037,0.014 0.067,0.032 0.09,0.055c0.023,0.024 0.034,0.054 0.034,0.09c0,0.044 -0.017,0.079 -0.052,0.104c-0.035,0.025 -0.079,0.037 -0.133,0.037c-0.035,-0 -0.067,-0.005 -0.095,-0.015c-0.029,-0.01 -0.053,-0.022 -0.074,-0.035Z" style="fill:#333;fill-rule:nonzero;"/></g><g transform="matrix(31.3808,0,0,31.3808,306.059,173.934)"><path d="M0.097,-0.223l0,-0.057l0.273,0.001l0,-0.014c-0,-0.028 -0.004,-0.053 -0.012,-0.076c-0.008,-0.023 -0.02,-0.042 -0.037,-0.056c-0.018,-0.014 -0.041,-0.02 -0.069,-0.02c-0.04,-0 -0.07,0.016 -0.091,0.05c-0.02,0.033 -0.031,0.077 -0.031,0.132l0.001,0.024c-0.001,0.036 0.003,0.068 0.011,0.096c0.008,0.028 0.021,0.05 0.04,0.066c0.019,0.016 0.044,0.024 0.077,0.024c0.027,0 0.052,-0.004 0.076,-0.012c0.024,-0.008 0.047,-0.018 0.069,-0.03c0.007,0.006 0.013,0.014 0.018,0.024c0.005,0.01 0.008,0.019 0.009,0.027c-0.023,0.016 -0.05,0.03 -0.083,0.04c-0.032,0.011 -0.065,0.016 -0.099,0.016c-0.037,0 -0.069,-0.007 -0.094,-0.021c-0.025,-0.014 -0.046,-0.033 -0.061,-0.057c-0.015,-0.024 -0.026,-0.051 -0.032,-0.082c-0.007,-0.031 -0.01,-0.064 -0.01,-0.098c-0,-0.049 0.008,-0.093 0.023,-0.132c0.016,-0.039 0.038,-0.069 0.068,-0.091c0.03,-0.022 0.066,-0.033 0.109,-0.033c0.043,-0 0.078,0.009 0.107,0.028c0.029,0.019 0.05,0.045 0.065,0.078c0.014,0.032 0.021,0.068 0.021,0.107c0,0.013 -0,0.024 -0.001,0.034c-0.001,0.009 -0.002,0.02 -0.004,0.033l-0.343,-0Z" style="fill:#333;fill-rule:nonzero;"/></g><g transform="matrix(31.3808,0,0,31.3808,321.263,173.934)"><path d="M0.051,-0.133c0,-0.037 0.008,-0.067 0.023,-0.091c0.016,-0.024 0.038,-0.041 0.066,-0.053c0.028,-0.011 0.061,-0.017 0.099,-0.017c0.02,0 0.043,0.001 0.066,0.003c0.024,0.002 0.047,0.006 0.068,0.012l0,0.053c-0.019,-0.005 -0.041,-0.008 -0.065,-0.01c-0.023,-0.002 -0.046,-0.002 -0.069,-0.002c-0.035,-0 -0.062,0.008 -0.083,0.026c-0.02,0.017 -0.03,0.042 -0.03,0.074c-0,0.024 0.007,0.045 0.02,0.062c0.014,0.017 0.033,0.025 0.059,0.025c0.027,0 0.055,-0.009 0.086,-0.027c0.031,-0.019 0.056,-0.047 0.077,-0.084l0.013,0.068c-0.011,0.013 -0.026,0.028 -0.044,0.045c-0.018,0.016 -0.039,0.031 -0.063,0.043c-0.024,0.012 -0.05,0.018 -0.079,0.018c-0.032,0 -0.059,-0.007 -0.081,-0.021c-0.021,-0.015 -0.037,-0.033 -0.047,-0.055c-0.011,-0.022 -0.016,-0.045 -0.016,-0.069Zm0.397,0.102c-0.002,0.007 -0.007,0.014 -0.013,0.021c-0.006,0.008 -0.013,0.013 -0.021,0.017c-0.016,-0.006 -0.029,-0.014 -0.039,-0.025c-0.009,-0.011 -0.016,-0.023 -0.02,-0.038c-0.004,-0.014 -0.007,-0.03 -0.007,-0.047l0,-0.232c0,-0.037 -0.008,-0.064 -0.025,-0.079c-0.016,-0.016 -0.038,-0.023 -0.066,-0.023c-0.026,-0 -0.054,0.004 -0.081,0.012c-0.028,0.008 -0.055,0.017 -0.081,0.029c-0.007,-0.006 -0.013,-0.014 -0.018,-0.025c-0.005,-0.012 -0.008,-0.023 -0.008,-0.033c0.017,-0.007 0.036,-0.015 0.057,-0.022c0.022,-0.007 0.044,-0.013 0.068,-0.017c0.024,-0.005 0.048,-0.007 0.071,-0.007c0.035,-0 0.064,0.006 0.087,0.019c0.022,0.012 0.04,0.031 0.051,0.056c0.011,0.024 0.017,0.055 0.017,0.091l-0,0.206c-0,0.021 0.002,0.039 0.005,0.055c0.003,0.016 0.011,0.03 0.023,0.042Z" style="fill:#333;fill-rule:nonzero;"/></g><g transform="matrix(31.3808,0,0,31.3808,336.498,173.934)"><path d="M0.345,-0.494c0,0.012 -0.001,0.024 -0.004,0.037c-0.002,0.013 -0.007,0.024 -0.014,0.034c-0.005,-0.001 -0.011,-0.001 -0.017,-0.001c-0.006,-0 -0.011,-0 -0.017,-0c-0.022,-0 -0.041,0.004 -0.057,0.014c-0.016,0.009 -0.03,0.021 -0.04,0.036c-0.011,0.014 -0.02,0.029 -0.026,0.044c-0.007,0.016 -0.011,0.03 -0.014,0.043l-0.014,-0.016c0,-0.022 0.003,-0.044 0.009,-0.066c0.006,-0.023 0.015,-0.044 0.027,-0.063c0.013,-0.02 0.029,-0.035 0.049,-0.047c0.02,-0.012 0.044,-0.018 0.072,-0.018c0.005,-0 0.012,-0 0.02,0.001c0.008,0 0.016,0.001 0.026,0.003Zm-0.284,0.037c0.002,-0.007 0.007,-0.015 0.012,-0.023c0.007,-0.008 0.013,-0.014 0.02,-0.018c0.026,0.009 0.046,0.025 0.058,0.049c0.012,0.024 0.019,0.053 0.02,0.087l0,0.361c-0.005,0.001 -0.01,0.002 -0.016,0.002c-0.007,0.001 -0.013,0.001 -0.02,0.001c-0.008,0 -0.015,-0 -0.021,-0.001c-0.006,-0 -0.012,-0.001 -0.016,-0.002l-0,-0.354c-0,-0.025 -0.004,-0.046 -0.012,-0.063c-0.008,-0.017 -0.016,-0.03 -0.025,-0.039Z" style="fill:#333;fill-rule:nonzero;"/></g><g transform="matrix(31.3808,0,0,31.3808,346.32,173.934)"><path d="M0.356,-0.317c0.001,-0.019 -0.002,-0.039 -0.007,-0.058c-0.006,-0.02 -0.017,-0.036 -0.032,-0.049c-0.016,-0.013 -0.038,-0.02 -0.066,-0.02c-0.036,0.001 -0.066,0.018 -0.088,0.052c-0.022,0.034 -0.033,0.084 -0.033,0.151c-0,0.064 0.011,0.111 0.034,0.142c0.022,0.031 0.053,0.047 0.093,0.047c0.025,-0 0.048,-0.006 0.069,-0.017c0.021,-0.012 0.041,-0.025 0.059,-0.038c0.007,0.004 0.015,0.011 0.022,0.02c0.007,0.009 0.012,0.018 0.014,0.027c-0.024,0.022 -0.049,0.039 -0.078,0.052c-0.029,0.013 -0.061,0.02 -0.096,0.02c-0.036,0 -0.066,-0.007 -0.091,-0.021c-0.025,-0.015 -0.045,-0.034 -0.06,-0.058c-0.015,-0.025 -0.026,-0.052 -0.033,-0.082c-0.007,-0.03 -0.011,-0.061 -0.011,-0.092c0,-0.045 0.006,-0.084 0.017,-0.117c0.011,-0.033 0.026,-0.061 0.045,-0.082c0.019,-0.021 0.04,-0.037 0.064,-0.047c0.024,-0.01 0.049,-0.016 0.075,-0.016c0.032,0 0.059,0.005 0.081,0.015c0.022,0.01 0.04,0.022 0.053,0.037c0.014,0.015 0.024,0.03 0.03,0.046c0.006,0.017 0.01,0.032 0.009,0.045c0.001,0.013 -0.002,0.024 -0.007,0.033c-0.005,0.009 -0.016,0.014 -0.032,0.014c-0.005,-0 -0.011,-0.001 -0.016,-0.001c-0.005,-0.001 -0.01,-0.002 -0.016,-0.003Z" style="fill:#333;fill-rule:nonzero;"/></g><g transform="matrix(31.3808,0,0,31.3808,360.489,173.934)"><path d="M0.161,-0c-0.01,0.002 -0.022,0.003 -0.037,0.003c-0.014,0 -0.026,-0.001 -0.036,-0.003l0.001,-0.729l0.006,-0.006l0.026,0c0.017,0 0.028,0.004 0.033,0.013c0.005,0.008 0.007,0.021 0.007,0.037l0,0.685Zm0.301,-0.095c-0,0.016 0,0.032 0.002,0.046c0.001,0.015 0.004,0.028 0.009,0.039c-0.005,0.005 -0.012,0.009 -0.021,0.012c-0.009,0.003 -0.017,0.004 -0.025,0.004c-0.014,-0 -0.024,-0.004 -0.03,-0.012c-0.006,-0.008 -0.009,-0.02 -0.009,-0.037l-0,-0.276c-0,-0.04 -0.005,-0.068 -0.015,-0.086c-0.01,-0.018 -0.03,-0.027 -0.058,-0.027c-0.021,0 -0.042,0.005 -0.065,0.015c-0.023,0.009 -0.044,0.022 -0.063,0.038c-0.02,0.016 -0.035,0.033 -0.046,0.052l0,-0.078c0.022,-0.027 0.05,-0.049 0.085,-0.067c0.035,-0.018 0.07,-0.027 0.107,-0.027c0.031,0.001 0.056,0.008 0.075,0.022c0.019,0.014 0.033,0.033 0.041,0.056c0.008,0.024 0.013,0.05 0.013,0.078l-0,0.248Z" style="fill:#333;fill-rule:nonzero;"/></g></g></svg>