<?xml version="1.0" encoding="UTF-8" standalone="no"?><!DOCTYPE svg PUBLIC "-//W3C//DTD SVG 1.1//EN" "http://www.w3.org/Graphics/SVG/1.1/DTD/svg11.dtd"><svg width="100%" height="100%" viewBox="0 0 600 200" version="1.1" xmlns="http://www.w3.org/2000/svg" xmlns:xlink="http://www.w3.org/1999/xlink" xml:space="preserve" xmlns:serif="http://www.serif.com/" style="fill-rule:evenodd;clip-rule:evenodd;stroke-linejoin:round;stroke-miterlimit:2;"><g transform="matrix(1.22394,0,0,1.22394,-24.3553,-185.308)"><g transform="matrix(62.5,0,0,62.5,93.8273,205.053)"><path d="M0.366,-0.352l0.006,-0.009c0.045,0.001 0.084,0.008 0.115,0.021c0.031,0.014 0.055,0.034 0.071,0.059c0.015,0.025 0.023,0.056 0.023,0.092c-0,0.037 -0.009,0.07 -0.027,0.098c-0.017,0.029 -0.045,0.051 -0.083,0.067c-0.037,0.016 -0.085,0.024 -0.144,0.024l-0.278,-0l0,-0.043l0.099,-0.021l-0.013,0.018l0,-0.604l0.016,0.019l-0.102,-0.019l0,-0.043l0.165,-0.005l0.124,-0c0.048,-0 0.088,0.007 0.12,0.02c0.032,0.013 0.056,0.033 0.072,0.058c0.016,0.025 0.024,0.056 0.024,0.093c0,0.048 -0.015,0.087 -0.044,0.117c-0.029,0.03 -0.077,0.049 -0.144,0.058Zm-0.045,-0.286l-0.119,-0l0.015,-0.015l-0,0.281l-0.015,-0.014l0.094,-0c0.039,-0 0.072,-0.005 0.098,-0.015c0.026,-0.01 0.045,-0.025 0.058,-0.044c0.013,-0.019 0.019,-0.043 0.019,-0.071c0,-0.027 -0.006,-0.05 -0.017,-0.068c-0.011,-0.018 -0.028,-0.032 -0.05,-0.041c-0.022,-0.009 -0.05,-0.013 -0.083,-0.013Zm0,0.578c0.039,-0 0.072,-0.005 0.098,-0.016c0.026,-0.011 0.045,-0.026 0.058,-0.046c0.013,-0.019 0.02,-0.043 0.02,-0.072c0,-0.028 -0.006,-0.052 -0.018,-0.072c-0.011,-0.019 -0.028,-0.034 -0.051,-0.045c-0.022,-0.011 -0.049,-0.016 -0.08,-0.016l-0.146,-0l0.015,-0.016l-0,0.297l-0.015,-0.014l0.119,-0Z" style="fill:#808080;fill-rule:nonzero;"/></g><g transform="matrix(62.5,0,0,62.5,132.89,205.053)"><path d="M0.196,-0.051l-0.009,-0.011l0.087,0.019l0,0.043l-0.236,-0l-0,-0.043l0.087,-0.019l-0.009,0.011l0,-0.422l0.008,0.009l-0.086,-0.018l0,-0.043l0.158,-0.006l0,0.48Zm-0.046,-0.588c-0.015,0 -0.028,-0.005 -0.038,-0.015c-0.01,-0.01 -0.015,-0.024 -0.015,-0.041c0,-0.018 0.005,-0.032 0.015,-0.041c0.011,-0.01 0.024,-0.015 0.039,-0.015c0.016,0 0.029,0.005 0.039,0.014c0.01,0.009 0.015,0.023 0.015,0.042c-0,0.018 -0.005,0.032 -0.016,0.042c-0.011,0.009 -0.024,0.014 -0.039,0.014Z" style="fill:#808080;fill-rule:nonzero;"/></g><g transform="matrix(62.5,0,0,62.5,151.515,205.053)"><path d="M0.038,-0l0,-0.043l0.09,-0.02l-0.012,0.015l0,-0.43l0.012,0.015l-0.09,-0.019l-0,-0.043l0.14,-0.007l0.011,0.098l-0.011,-0.004c0.033,-0.034 0.068,-0.059 0.105,-0.075c0.036,-0.016 0.07,-0.024 0.103,-0.024c0.044,0 0.08,0.014 0.109,0.041c0.03,0.027 0.044,0.068 0.043,0.125l0,0.323l-0.01,-0.014l0.088,0.019l0,0.043l-0.233,0l0,-0.043l0.087,-0.019l-0.012,0.015l0,-0.307c0,-0.041 -0.009,-0.072 -0.028,-0.091c-0.019,-0.019 -0.044,-0.029 -0.075,-0.029c-0.025,0 -0.051,0.007 -0.08,0.02c-0.029,0.013 -0.058,0.034 -0.086,0.062l0.007,-0.016l0,0.361l-0.01,-0.014l0.085,0.018l0,0.043l-0.233,0Z" style="fill:#808080;fill-rule:nonzero;"/></g><g transform="matrix(62.5,0,0,62.5,191.077,205.053)"><path d="M0.449,-0.045l-0.013,-0.018l0.092,0.018l0,0.044l-0.14,0.006l-0.012,-0.096l0.007,0.003c-0.029,0.032 -0.061,0.056 -0.095,0.073c-0.034,0.016 -0.067,0.024 -0.099,0.024c-0.039,0 -0.071,-0.012 -0.098,-0.037c-0.027,-0.025 -0.04,-0.062 -0.04,-0.112c-0,-0.039 0.008,-0.07 0.025,-0.091c0.017,-0.02 0.04,-0.035 0.069,-0.044c0.029,-0.009 0.063,-0.013 0.102,-0.013l0.131,0l-0.009,0.01l0,-0.096c0,-0.037 -0.01,-0.063 -0.029,-0.079c-0.019,-0.015 -0.046,-0.023 -0.08,-0.023c-0.018,0 -0.037,0.002 -0.057,0.006c-0.021,0.003 -0.042,0.009 -0.065,0.017l0.012,-0.013l-0.01,0.091l-0.053,0l-0.008,-0.124c0.038,-0.013 0.074,-0.022 0.107,-0.028c0.033,-0.007 0.064,-0.01 0.092,-0.01c0.053,0 0.095,0.012 0.126,0.035c0.03,0.024 0.045,0.062 0.045,0.114l0,0.343Zm-0.317,-0.102c0,0.033 0.008,0.057 0.024,0.072c0.015,0.015 0.035,0.023 0.059,0.023c0.023,-0 0.049,-0.007 0.078,-0.022c0.028,-0.014 0.055,-0.033 0.082,-0.058l-0.006,0.021l0,-0.134l0.009,0.009l-0.119,-0c-0.047,-0 -0.08,0.007 -0.099,0.021c-0.019,0.015 -0.028,0.037 -0.028,0.068Z" style="fill:#808080;fill-rule:nonzero;"/></g><g transform="matrix(62.5,0,0,62.5,225.265,205.053)"><path d="M0.038,-0l0,-0.043l0.088,-0.019l-0.01,0.015l0,-0.431l0.011,0.015l-0.089,-0.019l-0,-0.043l0.14,-0.007l0.011,0.098l-0.011,-0.004c0.03,-0.031 0.059,-0.056 0.088,-0.073c0.029,-0.017 0.06,-0.026 0.094,-0.026c0.021,0 0.044,0.003 0.067,0.01l-0.006,0.146l-0.05,0l-0.012,-0.105l0.009,0.018c-0.005,-0.001 -0.01,-0.002 -0.015,-0.003c-0.005,-0.001 -0.011,-0.001 -0.016,-0.001c-0.027,-0 -0.052,0.008 -0.077,0.024c-0.025,0.016 -0.049,0.037 -0.072,0.062l0.008,-0.024l0,0.363l-0.012,-0.015l0.109,0.019l0,0.043l-0.255,-0Z" style="fill:#808080;fill-rule:nonzero;"/></g><g transform="matrix(62.5,0,0,62.5,253.702,205.053)"><path d="M0.015,0.234l0.007,-0.059c0.008,0.001 0.016,0.002 0.023,0.003c0.006,0.001 0.013,0.001 0.019,0.001c0.033,-0 0.059,-0.008 0.08,-0.023c0.02,-0.015 0.037,-0.037 0.051,-0.067c0.014,-0.03 0.028,-0.067 0.043,-0.112l-0.003,0.03l-0.187,-0.487l0.011,0.009l-0.065,-0.011l-0,-0.043l0.219,-0.007l-0,0.044l-0.09,0.015l0.006,-0.009l0.149,0.425l-0.018,-0.004l0.143,-0.419l0.006,0.009l-0.088,-0.011l-0,-0.043l0.212,-0.007l0,0.044l-0.07,0.016l0.014,-0.009l-0.176,0.483c-0.012,0.033 -0.025,0.064 -0.038,0.093c-0.013,0.029 -0.027,0.054 -0.044,0.076c-0.017,0.021 -0.037,0.038 -0.061,0.05c-0.024,0.012 -0.053,0.018 -0.087,0.018c-0.015,0 -0.034,-0.002 -0.056,-0.005Z" style="fill:#808080;fill-rule:nonzero;"/></g><g transform="matrix(62.5,0,0,62.5,299.265,205.053)"><path d="M0.35,0.009c-0.053,0 -0.102,-0.014 -0.146,-0.041c-0.044,-0.027 -0.079,-0.067 -0.105,-0.12c-0.025,-0.053 -0.038,-0.117 -0.038,-0.194c-0,-0.075 0.013,-0.14 0.039,-0.194c0.026,-0.054 0.062,-0.095 0.109,-0.124c0.047,-0.029 0.101,-0.043 0.163,-0.043c0.033,0 0.068,0.004 0.104,0.012c0.036,0.008 0.073,0.021 0.112,0.038l-0.007,0.157l-0.049,0l-0.018,-0.124l0.015,0.016c-0.027,-0.011 -0.054,-0.02 -0.081,-0.026c-0.027,-0.005 -0.052,-0.008 -0.075,-0.008c-0.046,0 -0.086,0.011 -0.119,0.034c-0.033,0.023 -0.059,0.056 -0.078,0.099c-0.018,0.043 -0.027,0.094 -0.027,0.153c0,0.064 0.01,0.118 0.029,0.162c0.019,0.044 0.046,0.077 0.08,0.1c0.033,0.023 0.071,0.035 0.113,0.035c0.031,-0 0.063,-0.007 0.097,-0.02c0.033,-0.013 0.066,-0.034 0.097,-0.061l0.033,0.049c-0.039,0.034 -0.08,0.059 -0.123,0.075c-0.043,0.017 -0.084,0.025 -0.125,0.025Z" style="fill:#808080;fill-rule:nonzero;"/></g><g transform="matrix(62.5,0,0,62.5,337.89,205.053)"><path d="M0.294,-0.537c0.073,0 0.131,0.023 0.173,0.069c0.041,0.046 0.062,0.111 0.062,0.195c0,0.057 -0.01,0.106 -0.03,0.149c-0.021,0.042 -0.05,0.075 -0.087,0.098c-0.037,0.023 -0.082,0.035 -0.135,0.035c-0.072,0 -0.128,-0.022 -0.169,-0.067c-0.041,-0.045 -0.061,-0.11 -0.061,-0.195c0,-0.059 0.01,-0.109 0.03,-0.152c0.019,-0.042 0.048,-0.075 0.085,-0.098c0.037,-0.023 0.081,-0.034 0.132,-0.034Zm-0.004,0.059c-0.051,0 -0.091,0.019 -0.118,0.058c-0.027,0.039 -0.041,0.093 -0.041,0.163c0,0.069 0.013,0.12 0.039,0.155c0.026,0.035 0.063,0.052 0.112,0.052c0.035,-0 0.065,-0.009 0.09,-0.026c0.024,-0.018 0.042,-0.043 0.055,-0.076c0.012,-0.033 0.018,-0.072 0.018,-0.117c0,-0.068 -0.013,-0.12 -0.04,-0.155c-0.027,-0.036 -0.066,-0.054 -0.115,-0.054Z" style="fill:#808080;fill-rule:nonzero;"/></g><g transform="matrix(62.5,0,0,62.5,373.827,205.053)"><path d="M0.245,0.009c-0.037,0 -0.07,-0.01 -0.1,-0.031c-0.03,-0.02 -0.054,-0.05 -0.071,-0.09c-0.017,-0.039 -0.026,-0.087 -0.026,-0.144c0,-0.093 0.024,-0.163 0.071,-0.21c0.047,-0.047 0.112,-0.071 0.195,-0.071c0.017,-0 0.035,0.001 0.054,0.004c0.02,0.003 0.039,0.007 0.059,0.012l-0.016,0.009l0,-0.201l0.009,0.011l-0.092,-0.02l0,-0.043l0.163,-0.007l0,0.723l-0.012,-0.014l0.09,0.018l0,0.044l-0.14,0.006l-0.012,-0.086l0.01,0.004c-0.03,0.029 -0.06,0.05 -0.09,0.064c-0.031,0.015 -0.061,0.022 -0.092,0.022Zm0.028,-0.061c0.023,-0 0.048,-0.006 0.073,-0.019c0.025,-0.012 0.05,-0.03 0.075,-0.055l-0.01,0.027l0,-0.379l0.011,0.02c-0.041,-0.013 -0.078,-0.02 -0.111,-0.02c-0.059,-0 -0.103,0.019 -0.134,0.057c-0.031,0.038 -0.046,0.091 -0.046,0.158c0,0.044 0.006,0.082 0.018,0.113c0.013,0.032 0.03,0.056 0.051,0.073c0.022,0.017 0.046,0.025 0.073,0.025Z" style="fill:#808080;fill-rule:nonzero;"/></g><g transform="matrix(62.5,0,0,62.5,410.89,205.053)"><path d="M0.276,0.009c-0.045,0 -0.084,-0.01 -0.119,-0.031c-0.034,-0.02 -0.061,-0.05 -0.08,-0.089c-0.019,-0.039 -0.029,-0.087 -0.029,-0.144c-0,-0.058 0.01,-0.108 0.03,-0.15c0.02,-0.042 0.048,-0.075 0.085,-0.098c0.037,-0.023 0.08,-0.034 0.129,-0.034c0.047,0 0.085,0.01 0.115,0.029c0.031,0.02 0.053,0.047 0.069,0.082c0.014,0.035 0.022,0.074 0.022,0.119c-0,0.007 -0,0.015 -0.001,0.022c-0.001,0.007 -0.002,0.016 -0.003,0.027l-0.385,-0l-0,-0.057l0.315,-0l-0.009,0.006c0.001,-0.03 -0.003,-0.058 -0.011,-0.083c-0.008,-0.025 -0.022,-0.046 -0.041,-0.061c-0.019,-0.015 -0.045,-0.023 -0.077,-0.023c-0.034,-0 -0.063,0.009 -0.086,0.027c-0.023,0.018 -0.041,0.043 -0.052,0.074c-0.011,0.031 -0.017,0.068 -0.017,0.109c0,0.044 0.006,0.082 0.019,0.113c0.013,0.032 0.031,0.057 0.056,0.074c0.024,0.017 0.054,0.026 0.089,0.026c0.025,-0 0.052,-0.005 0.081,-0.015c0.029,-0.009 0.06,-0.024 0.091,-0.044l0.029,0.045c-0.037,0.025 -0.075,0.044 -0.112,0.057c-0.037,0.013 -0.073,0.019 -0.108,0.019Z" style="fill:#808080;fill-rule:nonzero;"/></g><g transform="matrix(24.2805,0,0,24.2805,48.8762,247.544)"><path d="M0.278,-0.044l-0.018,-0.022l0.134,0.021l0,0.045l-0.339,-0l0,-0.045l0.159,-0.02l-0.018,0.021l0,-0.585l0.022,0.002l-0.174,0.101l-0.027,-0.051l0.194,-0.124l0.067,0l0,0.657Z" style="fill:#ffd800;fill-rule:nonzero;"/></g><g transform="matrix(24.2805,0,0,24.2805,58.7341,247.544)"><path d="M0.316,0.009c-0.057,0 -0.103,-0.013 -0.14,-0.039c-0.038,-0.026 -0.065,-0.065 -0.082,-0.117c-0.018,-0.052 -0.027,-0.117 -0.027,-0.196c0,-0.081 0.009,-0.149 0.028,-0.202c0.019,-0.054 0.048,-0.094 0.087,-0.121c0.039,-0.027 0.089,-0.041 0.148,-0.041c0.058,0 0.105,0.012 0.141,0.037c0.035,0.025 0.061,0.062 0.078,0.113c0.016,0.051 0.024,0.115 0.024,0.193c0,0.083 -0.009,0.152 -0.028,0.207c-0.019,0.055 -0.047,0.097 -0.085,0.125c-0.039,0.027 -0.087,0.041 -0.144,0.041Zm0.003,-0.064c0.039,0 0.07,-0.011 0.095,-0.033c0.025,-0.022 0.043,-0.055 0.055,-0.099c0.012,-0.045 0.018,-0.101 0.019,-0.169c0.001,-0.071 -0.005,-0.127 -0.017,-0.168c-0.012,-0.042 -0.03,-0.072 -0.054,-0.091c-0.024,-0.019 -0.054,-0.028 -0.09,-0.028c-0.04,0 -0.073,0.011 -0.099,0.032c-0.026,0.022 -0.045,0.055 -0.057,0.099c-0.013,0.043 -0.019,0.098 -0.019,0.165c0,0.067 0.006,0.121 0.018,0.164c0.012,0.043 0.03,0.075 0.055,0.096c0.025,0.021 0.056,0.032 0.094,0.032Z" style="fill:#ffd800;fill-rule:nonzero;"/></g><g transform="matrix(24.2805,0,0,24.2805,74.225,247.544)"><path d="M0.278,-0.044l-0.018,-0.022l0.134,0.021l0,0.045l-0.339,-0l0,-0.045l0.159,-0.02l-0.018,0.021l0,-0.585l0.022,0.002l-0.174,0.101l-0.027,-0.051l0.194,-0.124l0.067,0l0,0.657Z" style="fill:#ffd800;fill-rule:nonzero;"/></g><g transform="matrix(24.2805,0,0,24.2805,84.0829,247.544)"><path d="M0.316,0.009c-0.057,0 -0.103,-0.013 -0.14,-0.039c-0.038,-0.026 -0.065,-0.065 -0.082,-0.117c-0.018,-0.052 -0.027,-0.117 -0.027,-0.196c0,-0.081 0.009,-0.149 0.028,-0.202c0.019,-0.054 0.048,-0.094 0.087,-0.121c0.039,-0.027 0.089,-0.041 0.148,-0.041c0.058,0 0.105,0.012 0.141,0.037c0.035,0.025 0.061,0.062 0.078,0.113c0.016,0.051 0.024,0.115 0.024,0.193c0,0.083 -0.009,0.152 -0.028,0.207c-0.019,0.055 -0.047,0.097 -0.085,0.125c-0.039,0.027 -0.087,0.041 -0.144,0.041Zm0.003,-0.064c0.039,0 0.07,-0.011 0.095,-0.033c0.025,-0.022 0.043,-0.055 0.055,-0.099c0.012,-0.045 0.018,-0.101 0.019,-0.169c0.001,-0.071 -0.005,-0.127 -0.017,-0.168c-0.012,-0.042 -0.03,-0.072 -0.054,-0.091c-0.024,-0.019 -0.054,-0.028 -0.09,-0.028c-0.04,0 -0.073,0.011 -0.099,0.032c-0.026,0.022 -0.045,0.055 -0.057,0.099c-0.013,0.043 -0.019,0.098 -0.019,0.165c0,0.067 0.006,0.121 0.018,0.164c0.012,0.043 0.03,0.075 0.055,0.096c0.025,0.021 0.056,0.032 0.094,0.032Z" style="fill:#ffd800;fill-rule:nonzero;"/></g><g transform="matrix(24.2805,0,0,24.2805,99.5738,247.544)"><path d="M0.278,-0.044l-0.018,-0.022l0.134,0.021l0,0.045l-0.339,-0l0,-0.045l0.159,-0.02l-0.018,0.021l0,-0.585l0.022,0.002l-0.174,0.101l-0.027,-0.051l0.194,-0.124l0.067,0l0,0.657Z" style="fill:#ffd800;fill-rule:nonzero;"/></g><g transform="matrix(24.2805,0,0,24.2805,109.432,247.544)"><path d="M0.278,-0.044l-0.018,-0.022l0.134,0.021l0,0.045l-0.339,-0l0,-0.045l0.159,-0.02l-0.018,0.021l0,-0.585l0.022,0.002l-0.174,0.101l-0.027,-0.051l0.194,-0.124l0.067,0l0,0.657Z" style="fill:#ffd800;fill-rule:nonzero;"/></g><g transform="matrix(24.2805,0,0,24.2805,119.29,247.544)"><path d="M0.316,0.009c-0.057,0 -0.103,-0.013 -0.14,-0.039c-0.038,-0.026 -0.065,-0.065 -0.082,-0.117c-0.018,-0.052 -0.027,-0.117 -0.027,-0.196c0,-0.081 0.009,-0.149 0.028,-0.202c0.019,-0.054 0.048,-0.094 0.087,-0.121c0.039,-0.027 0.089,-0.041 0.148,-0.041c0.058,0 0.105,0.012 0.141,0.037c0.035,0.025 0.061,0.062 0.078,0.113c0.016,0.051 0.024,0.115 0.024,0.193c0,0.083 -0.009,0.152 -0.028,0.207c-0.019,0.055 -0.047,0.097 -0.085,0.125c-0.039,0.027 -0.087,0.041 -0.144,0.041Zm0.003,-0.064c0.039,0 0.07,-0.011 0.095,-0.033c0.025,-0.022 0.043,-0.055 0.055,-0.099c0.012,-0.045 0.018,-0.101 0.019,-0.169c0.001,-0.071 -0.005,-0.127 -0.017,-0.168c-0.012,-0.042 -0.03,-0.072 -0.054,-0.091c-0.024,-0.019 -0.054,-0.028 -0.09,-0.028c-0.04,0 -0.073,0.011 -0.099,0.032c-0.026,0.022 -0.045,0.055 -0.057,0.099c-0.013,0.043 -0.019,0.098 -0.019,0.165c0,0.067 0.006,0.121 0.018,0.164c0.012,0.043 0.03,0.075 0.055,0.096c0.025,0.021 0.056,0.032 0.094,0.032Z" style="fill:#ffd800;fill-rule:nonzero;"/></g><g transform="matrix(24.2805,0,0,24.2805,134.853,247.544)"><path d="M0.316,0.009c-0.057,0 -0.103,-0.013 -0.14,-0.039c-0.038,-0.026 -0.065,-0.065 -0.082,-0.117c-0.018,-0.052 -0.027,-0.117 -0.027,-0.196c0,-0.081 0.009,-0.149 0.028,-0.202c0.019,-0.054 0.048,-0.094 0.087,-0.121c0.039,-0.027 0.089,-0.041 0.148,-0.041c0.058,0 0.105,0.012 0.141,0.037c0.035,0.025 0.061,0.062 0.078,0.113c0.016,0.051 0.024,0.115 0.024,0.193c0,0.083 -0.009,0.152 -0.028,0.207c-0.019,0.055 -0.047,0.097 -0.085,0.125c-0.039,0.027 -0.087,0.041 -0.144,0.041Zm0.003,-0.064c0.039,0 0.07,-0.011 0.095,-0.033c0.025,-0.022 0.043,-0.055 0.055,-0.099c0.012,-0.045 0.018,-0.101 0.019,-0.169c0.001,-0.071 -0.005,-0.127 -0.017,-0.168c-0.012,-0.042 -0.03,-0.072 -0.054,-0.091c-0.024,-0.019 -0.054,-0.028 -0.09,-0.028c-0.04,0 -0.073,0.011 -0.099,0.032c-0.026,0.022 -0.045,0.055 -0.057,0.099c-0.013,0.043 -0.019,0.098 -0.019,0.165c0,0.067 0.006,0.121 0.018,0.164c0.012,0.043 0.03,0.075 0.055,0.096c0.025,0.021 0.056,0.032 0.094,0.032Z" style="fill:#ffd800;fill-rule:nonzero;"/></g><g transform="matrix(24.2805,0,0,24.2805,150.344,247.544)"><path d="M0.278,-0.044l-0.018,-0.022l0.134,0.021l0,0.045l-0.339,-0l0,-0.045l0.159,-0.02l-0.018,0.021l0,-0.585l0.022,0.002l-0.174,0.101l-0.027,-0.051l0.194,-0.124l0.067,0l0,0.657Z" style="fill:#ffd800;fill-rule:nonzero;"/></g><g transform="matrix(24.2805,0,0,24.2805,160.202,247.544)"><path d="M0.278,-0.044l-0.018,-0.022l0.134,0.021l0,0.045l-0.339,-0l0,-0.045l0.159,-0.02l-0.018,0.021l0,-0.585l0.022,0.002l-0.174,0.101l-0.027,-0.051l0.194,-0.124l0.067,0l0,0.657Z" style="fill:#ffd800;fill-rule:nonzero;"/></g><g transform="matrix(24.2805,0,0,24.2805,170.06,247.544)"><path d="M0.316,0.009c-0.057,0 -0.103,-0.013 -0.14,-0.039c-0.038,-0.026 -0.065,-0.065 -0.082,-0.117c-0.018,-0.052 -0.027,-0.117 -0.027,-0.196c0,-0.081 0.009,-0.149 0.028,-0.202c0.019,-0.054 0.048,-0.094 0.087,-0.121c0.039,-0.027 0.089,-0.041 0.148,-0.041c0.058,0 0.105,0.012 0.141,0.037c0.035,0.025 0.061,0.062 0.078,0.113c0.016,0.051 0.024,0.115 0.024,0.193c0,0.083 -0.009,0.152 -0.028,0.207c-0.019,0.055 -0.047,0.097 -0.085,0.125c-0.039,0.027 -0.087,0.041 -0.144,0.041Zm0.003,-0.064c0.039,0 0.07,-0.011 0.095,-0.033c0.025,-0.022 0.043,-0.055 0.055,-0.099c0.012,-0.045 0.018,-0.101 0.019,-0.169c0.001,-0.071 -0.005,-0.127 -0.017,-0.168c-0.012,-0.042 -0.03,-0.072 -0.054,-0.091c-0.024,-0.019 -0.054,-0.028 -0.09,-0.028c-0.04,0 -0.073,0.011 -0.099,0.032c-0.026,0.022 -0.045,0.055 -0.057,0.099c-0.013,0.043 -0.019,0.098 -0.019,0.165c0,0.067 0.006,0.121 0.018,0.164c0.012,0.043 0.03,0.075 0.055,0.096c0.025,0.021 0.056,0.032 0.094,0.032Z" style="fill:#ffd800;fill-rule:nonzero;"/></g><g transform="matrix(24.2805,0,0,24.2805,185.551,247.544)"><path d="M0.278,-0.044l-0.018,-0.022l0.134,0.021l0,0.045l-0.339,-0l0,-0.045l0.159,-0.02l-0.018,0.021l0,-0.585l0.022,0.002l-0.174,0.101l-0.027,-0.051l0.194,-0.124l0.067,0l0,0.657Z" style="fill:#ffd800;fill-rule:nonzero;"/></g><g transform="matrix(24.2805,0,0,24.2805,195.409,247.544)"><path d="M0.316,0.009c-0.057,0 -0.103,-0.013 -0.14,-0.039c-0.038,-0.026 -0.065,-0.065 -0.082,-0.117c-0.018,-0.052 -0.027,-0.117 -0.027,-0.196c0,-0.081 0.009,-0.149 0.028,-0.202c0.019,-0.054 0.048,-0.094 0.087,-0.121c0.039,-0.027 0.089,-0.041 0.148,-0.041c0.058,0 0.105,0.012 0.141,0.037c0.035,0.025 0.061,0.062 0.078,0.113c0.016,0.051 0.024,0.115 0.024,0.193c0,0.083 -0.009,0.152 -0.028,0.207c-0.019,0.055 -0.047,0.097 -0.085,0.125c-0.039,0.027 -0.087,0.041 -0.144,0.041Zm0.003,-0.064c0.039,0 0.07,-0.011 0.095,-0.033c0.025,-0.022 0.043,-0.055 0.055,-0.099c0.012,-0.045 0.018,-0.101 0.019,-0.169c0.001,-0.071 -0.005,-0.127 -0.017,-0.168c-0.012,-0.042 -0.03,-0.072 -0.054,-0.091c-0.024,-0.019 -0.054,-0.028 -0.09,-0.028c-0.04,0 -0.073,0.011 -0.099,0.032c-0.026,0.022 -0.045,0.055 -0.057,0.099c-0.013,0.043 -0.019,0.098 -0.019,0.165c0,0.067 0.006,0.121 0.018,0.164c0.012,0.043 0.03,0.075 0.055,0.096c0.025,0.021 0.056,0.032 0.094,0.032Z" style="fill:#ffd800;fill-rule:nonzero;"/></g><g transform="matrix(24.2805,0,0,24.2805,210.9,247.544)"><path d="M0.278,-0.044l-0.018,-0.022l0.134,0.021l0,0.045l-0.339,-0l0,-0.045l0.159,-0.02l-0.018,0.021l0,-0.585l0.022,0.002l-0.174,0.101l-0.027,-0.051l0.194,-0.124l0.067,0l0,0.657Z" style="fill:#ffd800;fill-rule:nonzero;"/></g><g transform="matrix(24.2805,0,0,24.2805,220.758,247.544)"><path d="M0.316,0.009c-0.057,0 -0.103,-0.013 -0.14,-0.039c-0.038,-0.026 -0.065,-0.065 -0.082,-0.117c-0.018,-0.052 -0.027,-0.117 -0.027,-0.196c0,-0.081 0.009,-0.149 0.028,-0.202c0.019,-0.054 0.048,-0.094 0.087,-0.121c0.039,-0.027 0.089,-0.041 0.148,-0.041c0.058,0 0.105,0.012 0.141,0.037c0.035,0.025 0.061,0.062 0.078,0.113c0.016,0.051 0.024,0.115 0.024,0.193c0,0.083 -0.009,0.152 -0.028,0.207c-0.019,0.055 -0.047,0.097 -0.085,0.125c-0.039,0.027 -0.087,0.041 -0.144,0.041Zm0.003,-0.064c0.039,0 0.07,-0.011 0.095,-0.033c0.025,-0.022 0.043,-0.055 0.055,-0.099c0.012,-0.045 0.018,-0.101 0.019,-0.169c0.001,-0.071 -0.005,-0.127 -0.017,-0.168c-0.012,-0.042 -0.03,-0.072 -0.054,-0.091c-0.024,-0.019 -0.054,-0.028 -0.09,-0.028c-0.04,0 -0.073,0.011 -0.099,0.032c-0.026,0.022 -0.045,0.055 -0.057,0.099c-0.013,0.043 -0.019,0.098 -0.019,0.165c0,0.067 0.006,0.121 0.018,0.164c0.012,0.043 0.03,0.075 0.055,0.096c0.025,0.021 0.056,0.032 0.094,0.032Z" style="fill:#ffd800;fill-rule:nonzero;"/></g><g transform="matrix(24.2805,0,0,24.2805,236.249,247.544)"><path d="M0.278,-0.044l-0.018,-0.022l0.134,0.021l0,0.045l-0.339,-0l0,-0.045l0.159,-0.02l-0.018,0.021l0,-0.585l0.022,0.002l-0.174,0.101l-0.027,-0.051l0.194,-0.124l0.067,0l0,0.657Z" style="fill:#ffd800;fill-rule:nonzero;"/></g><g transform="matrix(24.2805,0,0,24.2805,246.107,247.544)"><path d="M0.316,0.009c-0.057,0 -0.103,-0.013 -0.14,-0.039c-0.038,-0.026 -0.065,-0.065 -0.082,-0.117c-0.018,-0.052 -0.027,-0.117 -0.027,-0.196c0,-0.081 0.009,-0.149 0.028,-0.202c0.019,-0.054 0.048,-0.094 0.087,-0.121c0.039,-0.027 0.089,-0.041 0.148,-0.041c0.058,0 0.105,0.012 0.141,0.037c0.035,0.025 0.061,0.062 0.078,0.113c0.016,0.051 0.024,0.115 0.024,0.193c0,0.083 -0.009,0.152 -0.028,0.207c-0.019,0.055 -0.047,0.097 -0.085,0.125c-0.039,0.027 -0.087,0.041 -0.144,0.041Zm0.003,-0.064c0.039,0 0.07,-0.011 0.095,-0.033c0.025,-0.022 0.043,-0.055 0.055,-0.099c0.012,-0.045 0.018,-0.101 0.019,-0.169c0.001,-0.071 -0.005,-0.127 -0.017,-0.168c-0.012,-0.042 -0.03,-0.072 -0.054,-0.091c-0.024,-0.019 -0.054,-0.028 -0.09,-0.028c-0.04,0 -0.073,0.011 -0.099,0.032c-0.026,0.022 -0.045,0.055 -0.057,0.099c-0.013,0.043 -0.019,0.098 -0.019,0.165c0,0.067 0.006,0.121 0.018,0.164c0.012,0.043 0.03,0.075 0.055,0.096c0.025,0.021 0.056,0.032 0.094,0.032Z" style="fill:#ffd800;fill-rule:nonzero;"/></g><g transform="matrix(24.2805,0,0,24.2805,261.67,247.544)"><path d="M0.316,0.009c-0.057,0 -0.103,-0.013 -0.14,-0.039c-0.038,-0.026 -0.065,-0.065 -0.082,-0.117c-0.018,-0.052 -0.027,-0.117 -0.027,-0.196c0,-0.081 0.009,-0.149 0.028,-0.202c0.019,-0.054 0.048,-0.094 0.087,-0.121c0.039,-0.027 0.089,-0.041 0.148,-0.041c0.058,0 0.105,0.012 0.141,0.037c0.035,0.025 0.061,0.062 0.078,0.113c0.016,0.051 0.024,0.115 0.024,0.193c0,0.083 -0.009,0.152 -0.028,0.207c-0.019,0.055 -0.047,0.097 -0.085,0.125c-0.039,0.027 -0.087,0.041 -0.144,0.041Zm0.003,-0.064c0.039,0 0.07,-0.011 0.095,-0.033c0.025,-0.022 0.043,-0.055 0.055,-0.099c0.012,-0.045 0.018,-0.101 0.019,-0.169c0.001,-0.071 -0.005,-0.127 -0.017,-0.168c-0.012,-0.042 -0.03,-0.072 -0.054,-0.091c-0.024,-0.019 -0.054,-0.028 -0.09,-0.028c-0.04,0 -0.073,0.011 -0.099,0.032c-0.026,0.022 -0.045,0.055 -0.057,0.099c-0.013,0.043 -0.019,0.098 -0.019,0.165c0,0.067 0.006,0.121 0.018,0.164c0.012,0.043 0.03,0.075 0.055,0.096c0.025,0.021 0.056,0.032 0.094,0.032Z" style="fill:#ffd800;fill-rule:nonzero;"/></g><g transform="matrix(24.2805,0,0,24.2805,277.161,247.544)"><path d="M0.278,-0.044l-0.018,-0.022l0.134,0.021l0,0.045l-0.339,-0l0,-0.045l0.159,-0.02l-0.018,0.021l0,-0.585l0.022,0.002l-0.174,0.101l-0.027,-0.051l0.194,-0.124l0.067,0l0,0.657Z" style="fill:#ffd800;fill-rule:nonzero;"/></g><g transform="matrix(24.2805,0,0,24.2805,287.019,247.544)"><path d="M0.278,-0.044l-0.018,-0.022l0.134,0.021l0,0.045l-0.339,-0l0,-0.045l0.159,-0.02l-0.018,0.021l0,-0.585l0.022,0.002l-0.174,0.101l-0.027,-0.051l0.194,-0.124l0.067,0l0,0.657Z" style="fill:#ffd800;fill-rule:nonzero;"/></g><g transform="matrix(24.2805,0,0,24.2805,296.877,247.544)"><path d="M0.316,0.009c-0.057,0 -0.103,-0.013 -0.14,-0.039c-0.038,-0.026 -0.065,-0.065 -0.082,-0.117c-0.018,-0.052 -0.027,-0.117 -0.027,-0.196c0,-0.081 0.009,-0.149 0.028,-0.202c0.019,-0.054 0.048,-0.094 0.087,-0.121c0.039,-0.027 0.089,-0.041 0.148,-0.041c0.058,0 0.105,0.012 0.141,0.037c0.035,0.025 0.061,0.062 0.078,0.113c0.016,0.051 0.024,0.115 0.024,0.193c0,0.083 -0.009,0.152 -0.028,0.207c-0.019,0.055 -0.047,0.097 -0.085,0.125c-0.039,0.027 -0.087,0.041 -0.144,0.041Zm0.003,-0.064c0.039,0 0.07,-0.011 0.095,-0.033c0.025,-0.022 0.043,-0.055 0.055,-0.099c0.012,-0.045 0.018,-0.101 0.019,-0.169c0.001,-0.071 -0.005,-0.127 -0.017,-0.168c-0.012,-0.042 -0.03,-0.072 -0.054,-0.091c-0.024,-0.019 -0.054,-0.028 -0.09,-0.028c-0.04,0 -0.073,0.011 -0.099,0.032c-0.026,0.022 -0.045,0.055 -0.057,0.099c-0.013,0.043 -0.019,0.098 -0.019,0.165c0,0.067 0.006,0.121 0.018,0.164c0.012,0.043 0.03,0.075 0.055,0.096c0.025,0.021 0.056,0.032 0.094,0.032Z" style="fill:#ffd800;fill-rule:nonzero;"/></g><g transform="matrix(24.2805,0,0,24.2805,312.441,247.544)"><path d="M0.316,0.009c-0.057,0 -0.103,-0.013 -0.14,-0.039c-0.038,-0.026 -0.065,-0.065 -0.082,-0.117c-0.018,-0.052 -0.027,-0.117 -0.027,-0.196c0,-0.081 0.009,-0.149 0.028,-0.202c0.019,-0.054 0.048,-0.094 0.087,-0.121c0.039,-0.027 0.089,-0.041 0.148,-0.041c0.058,0 0.105,0.012 0.141,0.037c0.035,0.025 0.061,0.062 0.078,0.113c0.016,0.051 0.024,0.115 0.024,0.193c0,0.083 -0.009,0.152 -0.028,0.207c-0.019,0.055 -0.047,0.097 -0.085,0.125c-0.039,0.027 -0.087,0.041 -0.144,0.041Zm0.003,-0.064c0.039,0 0.07,-0.011 0.095,-0.033c0.025,-0.022 0.043,-0.055 0.055,-0.099c0.012,-0.045 0.018,-0.101 0.019,-0.169c0.001,-0.071 -0.005,-0.127 -0.017,-0.168c-0.012,-0.042 -0.03,-0.072 -0.054,-0.091c-0.024,-0.019 -0.054,-0.028 -0.09,-0.028c-0.04,0 -0.073,0.011 -0.099,0.032c-0.026,0.022 -0.045,0.055 -0.057,0.099c-0.013,0.043 -0.019,0.098 -0.019,0.165c0,0.067 0.006,0.121 0.018,0.164c0.012,0.043 0.03,0.075 0.055,0.096c0.025,0.021 0.056,0.032 0.094,0.032Z" style="fill:#ffd800;fill-rule:nonzero;"/></g><g transform="matrix(24.2805,0,0,24.2805,327.932,247.544)"><path d="M0.278,-0.044l-0.018,-0.022l0.134,0.021l0,0.045l-0.339,-0l0,-0.045l0.159,-0.02l-0.018,0.021l0,-0.585l0.022,0.002l-0.174,0.101l-0.027,-0.051l0.194,-0.124l0.067,0l0,0.657Z" style="fill:#ffd800;fill-rule:nonzero;"/></g><g transform="matrix(24.2805,0,0,24.2805,337.79,247.544)"><path d="M0.278,-0.044l-0.018,-0.022l0.134,0.021l0,0.045l-0.339,-0l0,-0.045l0.159,-0.02l-0.018,0.021l0,-0.585l0.022,0.002l-0.174,0.101l-0.027,-0.051l0.194,-0.124l0.067,0l0,0.657Z" style="fill:#ffd800;fill-rule:nonzero;"/></g><g transform="matrix(24.2805,0,0,24.2805,347.648,247.544)"><path d="M0.316,0.009c-0.057,0 -0.103,-0.013 -0.14,-0.039c-0.038,-0.026 -0.065,-0.065 -0.082,-0.117c-0.018,-0.052 -0.027,-0.117 -0.027,-0.196c0,-0.081 0.009,-0.149 0.028,-0.202c0.019,-0.054 0.048,-0.094 0.087,-0.121c0.039,-0.027 0.089,-0.041 0.148,-0.041c0.058,0 0.105,0.012 0.141,0.037c0.035,0.025 0.061,0.062 0.078,0.113c0.016,0.051 0.024,0.115 0.024,0.193c0,0.083 -0.009,0.152 -0.028,0.207c-0.019,0.055 -0.047,0.097 -0.085,0.125c-0.039,0.027 -0.087,0.041 -0.144,0.041Zm0.003,-0.064c0.039,0 0.07,-0.011 0.095,-0.033c0.025,-0.022 0.043,-0.055 0.055,-0.099c0.012,-0.045 0.018,-0.101 0.019,-0.169c0.001,-0.071 -0.005,-0.127 -0.017,-0.168c-0.012,-0.042 -0.03,-0.072 -0.054,-0.091c-0.024,-0.019 -0.054,-0.028 -0.09,-0.028c-0.04,0 -0.073,0.011 -0.099,0.032c-0.026,0.022 -0.045,0.055 -0.057,0.099c-0.013,0.043 -0.019,0.098 -0.019,0.165c0,0.067 0.006,0.121 0.018,0.164c0.012,0.043 0.03,0.075 0.055,0.096c0.025,0.021 0.056,0.032 0.094,0.032Z" style="fill:#ffd800;fill-rule:nonzero;"/></g><g transform="matrix(24.2805,0,0,24.2805,363.139,247.544)"><path d="M0.278,-0.044l-0.018,-0.022l0.134,0.021l0,0.045l-0.339,-0l0,-0.045l0.159,-0.02l-0.018,0.021l0,-0.585l0.022,0.002l-0.174,0.101l-0.027,-0.051l0.194,-0.124l0.067,0l0,0.657Z" style="fill:#ffd800;fill-rule:nonzero;"/></g><g transform="matrix(24.2805,0,0,24.2805,372.996,247.544)"><path d="M0.316,0.009c-0.057,0 -0.103,-0.013 -0.14,-0.039c-0.038,-0.026 -0.065,-0.065 -0.082,-0.117c-0.018,-0.052 -0.027,-0.117 -0.027,-0.196c0,-0.081 0.009,-0.149 0.028,-0.202c0.019,-0.054 0.048,-0.094 0.087,-0.121c0.039,-0.027 0.089,-0.041 0.148,-0.041c0.058,0 0.105,0.012 0.141,0.037c0.035,0.025 0.061,0.062 0.078,0.113c0.016,0.051 0.024,0.115 0.024,0.193c0,0.083 -0.009,0.152 -0.028,0.207c-0.019,0.055 -0.047,0.097 -0.085,0.125c-0.039,0.027 -0.087,0.041 -0.144,0.041Zm0.003,-0.064c0.039,0 0.07,-0.011 0.095,-0.033c0.025,-0.022 0.043,-0.055 0.055,-0.099c0.012,-0.045 0.018,-0.101 0.019,-0.169c0.001,-0.071 -0.005,-0.127 -0.017,-0.168c-0.012,-0.042 -0.03,-0.072 -0.054,-0.091c-0.024,-0.019 -0.054,-0.028 -0.09,-0.028c-0.04,0 -0.073,0.011 -0.099,0.032c-0.026,0.022 -0.045,0.055 -0.057,0.099c-0.013,0.043 -0.019,0.098 -0.019,0.165c0,0.067 0.006,0.121 0.018,0.164c0.012,0.043 0.03,0.075 0.055,0.096c0.025,0.021 0.056,0.032 0.094,0.032Z" style="fill:#ffd800;fill-rule:nonzero;"/></g><g transform="matrix(24.2805,0,0,24.2805,388.56,247.544)"><path d="M0.316,0.009c-0.057,0 -0.103,-0.013 -0.14,-0.039c-0.038,-0.026 -0.065,-0.065 -0.082,-0.117c-0.018,-0.052 -0.027,-0.117 -0.027,-0.196c0,-0.081 0.009,-0.149 0.028,-0.202c0.019,-0.054 0.048,-0.094 0.087,-0.121c0.039,-0.027 0.089,-0.041 0.148,-0.041c0.058,0 0.105,0.012 0.141,0.037c0.035,0.025 0.061,0.062 0.078,0.113c0.016,0.051 0.024,0.115 0.024,0.193c0,0.083 -0.009,0.152 -0.028,0.207c-0.019,0.055 -0.047,0.097 -0.085,0.125c-0.039,0.027 -0.087,0.041 -0.144,0.041Zm0.003,-0.064c0.039,0 0.07,-0.011 0.095,-0.033c0.025,-0.022 0.043,-0.055 0.055,-0.099c0.012,-0.045 0.018,-0.101 0.019,-0.169c0.001,-0.071 -0.005,-0.127 -0.017,-0.168c-0.012,-0.042 -0.03,-0.072 -0.054,-0.091c-0.024,-0.019 -0.054,-0.028 -0.09,-0.028c-0.04,0 -0.073,0.011 -0.099,0.032c-0.026,0.022 -0.045,0.055 -0.057,0.099c-0.013,0.043 -0.019,0.098 -0.019,0.165c0,0.067 0.006,0.121 0.018,0.164c0.012,0.043 0.03,0.075 0.055,0.096c0.025,0.021 0.056,0.032 0.094,0.032Z" style="fill:#ffd800;fill-rule:nonzero;"/></g><g transform="matrix(24.2805,0,0,24.2805,404.051,247.544)"><path d="M0.278,-0.044l-0.018,-0.022l0.134,0.021l0,0.045l-0.339,-0l0,-0.045l0.159,-0.02l-0.018,0.021l0,-0.585l0.022,0.002l-0.174,0.101l-0.027,-0.051l0.194,-0.124l0.067,0l0,0.657Z" style="fill:#ffd800;fill-rule:nonzero;"/></g><g transform="matrix(24.2805,0,0,24.2805,413.909,247.544)"><path d="M0.316,0.009c-0.057,0 -0.103,-0.013 -0.14,-0.039c-0.038,-0.026 -0.065,-0.065 -0.082,-0.117c-0.018,-0.052 -0.027,-0.117 -0.027,-0.196c0,-0.081 0.009,-0.149 0.028,-0.202c0.019,-0.054 0.048,-0.094 0.087,-0.121c0.039,-0.027 0.089,-0.041 0.148,-0.041c0.058,0 0.105,0.012 0.141,0.037c0.035,0.025 0.061,0.062 0.078,0.113c0.016,0.051 0.024,0.115 0.024,0.193c0,0.083 -0.009,0.152 -0.028,0.207c-0.019,0.055 -0.047,0.097 -0.085,0.125c-0.039,0.027 -0.087,0.041 -0.144,0.041Zm0.003,-0.064c0.039,0 0.07,-0.011 0.095,-0.033c0.025,-0.022 0.043,-0.055 0.055,-0.099c0.012,-0.045 0.018,-0.101 0.019,-0.169c0.001,-0.071 -0.005,-0.127 -0.017,-0.168c-0.012,-0.042 -0.03,-0.072 -0.054,-0.091c-0.024,-0.019 -0.054,-0.028 -0.09,-0.028c-0.04,0 -0.073,0.011 -0.099,0.032c-0.026,0.022 -0.045,0.055 -0.057,0.099c-0.013,0.043 -0.019,0.098 -0.019,0.165c0,0.067 0.006,0.121 0.018,0.164c0.012,0.043 0.03,0.075 0.055,0.096c0.025,0.021 0.056,0.032 0.094,0.032Z" style="fill:#ffd800;fill-rule:nonzero;"/></g><g transform="matrix(24.2805,0,0,24.2805,429.4,247.544)"><path d="M0.278,-0.044l-0.018,-0.022l0.134,0.021l0,0.045l-0.339,-0l0,-0.045l0.159,-0.02l-0.018,0.021l0,-0.585l0.022,0.002l-0.174,0.101l-0.027,-0.051l0.194,-0.124l0.067,0l0,0.657Z" style="fill:#ffd800;fill-rule:nonzero;"/></g><g transform="matrix(24.2805,0,0,24.2805,439.258,247.544)"><path d="M0.278,-0.044l-0.018,-0.022l0.134,0.021l0,0.045l-0.339,-0l0,-0.045l0.159,-0.02l-0.018,0.021l0,-0.585l0.022,0.002l-0.174,0.101l-0.027,-0.051l0.194,-0.124l0.067,0l0,0.657Z" style="fill:#ffd800;fill-rule:nonzero;"/></g><g transform="matrix(24.2805,0,0,24.2805,449.116,247.544)"><path d="M0.316,0.009c-0.057,0 -0.103,-0.013 -0.14,-0.039c-0.038,-0.026 -0.065,-0.065 -0.082,-0.117c-0.018,-0.052 -0.027,-0.117 -0.027,-0.196c0,-0.081 0.009,-0.149 0.028,-0.202c0.019,-0.054 0.048,-0.094 0.087,-0.121c0.039,-0.027 0.089,-0.041 0.148,-0.041c0.058,0 0.105,0.012 0.141,0.037c0.035,0.025 0.061,0.062 0.078,0.113c0.016,0.051 0.024,0.115 0.024,0.193c0,0.083 -0.009,0.152 -0.028,0.207c-0.019,0.055 -0.047,0.097 -0.085,0.125c-0.039,0.027 -0.087,0.041 -0.144,0.041Zm0.003,-0.064c0.039,0 0.07,-0.011 0.095,-0.033c0.025,-0.022 0.043,-0.055 0.055,-0.099c0.012,-0.045 0.018,-0.101 0.019,-0.169c0.001,-0.071 -0.005,-0.127 -0.017,-0.168c-0.012,-0.042 -0.03,-0.072 -0.054,-0.091c-0.024,-0.019 -0.054,-0.028 -0.09,-0.028c-0.04,0 -0.073,0.011 -0.099,0.032c-0.026,0.022 -0.045,0.055 -0.057,0.099c-0.013,0.043 -0.019,0.098 -0.019,0.165c0,0.067 0.006,0.121 0.018,0.164c0.012,0.043 0.03,0.075 0.055,0.096c0.025,0.021 0.056,0.032 0.094,0.032Z" style="fill:#ffd800;fill-rule:nonzero;"/></g><g transform="matrix(24.2805,0,0,24.2805,464.68,247.544)"><path d="M0.316,0.009c-0.057,0 -0.103,-0.013 -0.14,-0.039c-0.038,-0.026 -0.065,-0.065 -0.082,-0.117c-0.018,-0.052 -0.027,-0.117 -0.027,-0.196c0,-0.081 0.009,-0.149 0.028,-0.202c0.019,-0.054 0.048,-0.094 0.087,-0.121c0.039,-0.027 0.089,-0.041 0.148,-0.041c0.058,0 0.105,0.012 0.141,0.037c0.035,0.025 0.061,0.062 0.078,0.113c0.016,0.051 0.024,0.115 0.024,0.193c0,0.083 -0.009,0.152 -0.028,0.207c-0.019,0.055 -0.047,0.097 -0.085,0.125c-0.039,0.027 -0.087,0.041 -0.144,0.041Zm0.003,-0.064c0.039,0 0.07,-0.011 0.095,-0.033c0.025,-0.022 0.043,-0.055 0.055,-0.099c0.012,-0.045 0.018,-0.101 0.019,-0.169c0.001,-0.071 -0.005,-0.127 -0.017,-0.168c-0.012,-0.042 -0.03,-0.072 -0.054,-0.091c-0.024,-0.019 -0.054,-0.028 -0.09,-0.028c-0.04,0 -0.073,0.011 -0.099,0.032c-0.026,0.022 -0.045,0.055 -0.057,0.099c-0.013,0.043 -0.019,0.098 -0.019,0.165c0,0.067 0.006,0.121 0.018,0.164c0.012,0.043 0.03,0.075 0.055,0.096c0.025,0.021 0.056,0.032 0.094,0.032Z" style="fill:#ffd800;fill-rule:nonzero;"/></g><g transform="matrix(24.2805,0,0,24.2805,480.17,247.544)"><path d="M0.278,-0.044l-0.018,-0.022l0.134,0.021l0,0.045l-0.339,-0l0,-0.045l0.159,-0.02l-0.018,0.021l0,-0.585l0.022,0.002l-0.174,0.101l-0.027,-0.051l0.194,-0.124l0.067,0l0,0.657Z" style="fill:#ffd800;fill-rule:nonzero;"/></g><g transform="matrix(56.375,0,0,56.375,116.028,303.919)"><path d="M0.049,-0l0,-0.043l0.099,-0.021l-0.013,0.018l0,-0.604l0.017,0.019l-0.103,-0.019l-0,-0.043l0.171,-0.005l0.117,0c0.075,0 0.132,0.016 0.171,0.047c0.039,0.031 0.058,0.077 0.058,0.136c0,0.055 -0.017,0.099 -0.052,0.134c-0.034,0.035 -0.086,0.056 -0.156,0.063l-0.001,-0.01c0.026,0.003 0.047,0.009 0.064,0.018c0.016,0.009 0.03,0.02 0.041,0.035c0.011,0.016 0.022,0.034 0.033,0.056l0.084,0.17l-0.025,-0.017l0.084,0.023l0,0.043l-0.123,0l-0.092,-0.197c-0.013,-0.029 -0.025,-0.051 -0.036,-0.067c-0.012,-0.015 -0.026,-0.026 -0.043,-0.033c-0.017,-0.007 -0.042,-0.01 -0.073,-0.01l-0.069,0.001l0.015,-0.014l0,0.274l-0.013,-0.018l0.116,0.021l0,0.043l-0.271,0Zm0.168,-0.344l-0.015,-0.022l0.095,0c0.059,0 0.105,-0.012 0.137,-0.036c0.032,-0.025 0.048,-0.061 0.048,-0.108c0,-0.041 -0.013,-0.073 -0.039,-0.094c-0.026,-0.022 -0.065,-0.033 -0.116,-0.033l-0.125,0l0.015,-0.015l0,0.308Z" style="fill:#333;fill-rule:nonzero;"/></g><g transform="matrix(56.375,0,0,56.375,150.867,303.919)"><path d="M0.294,-0.537c0.073,0 0.131,0.023 0.173,0.069c0.041,0.046 0.062,0.111 0.062,0.195c0,0.057 -0.01,0.106 -0.03,0.149c-0.021,0.042 -0.05,0.075 -0.087,0.098c-0.037,0.023 -0.082,0.035 -0.135,0.035c-0.072,0 -0.128,-0.022 -0.169,-0.067c-0.041,-0.045 -0.061,-0.11 -0.061,-0.195c0,-0.059 0.01,-0.109 0.03,-0.152c0.019,-0.042 0.048,-0.075 0.085,-0.098c0.037,-0.023 0.081,-0.034 0.132,-0.034Zm-0.004,0.059c-0.051,0 -0.091,0.019 -0.118,0.058c-0.027,0.039 -0.041,0.093 -0.041,0.163c0,0.069 0.013,0.12 0.039,0.155c0.026,0.035 0.063,0.052 0.112,0.052c0.035,-0 0.065,-0.009 0.09,-0.026c0.024,-0.018 0.042,-0.043 0.055,-0.076c0.012,-0.033 0.018,-0.072 0.018,-0.117c0,-0.068 -0.013,-0.12 -0.04,-0.155c-0.027,-0.036 -0.066,-0.054 -0.115,-0.054Z" style="fill:#333;fill-rule:nonzero;"/></g><g transform="matrix(56.375,0,0,56.375,182.268,303.919)"><path d="M0.25,0.009c-0.024,0 -0.049,-0.002 -0.076,-0.005c-0.027,-0.003 -0.056,-0.008 -0.086,-0.015l0,-0.714l0.016,0.023l-0.094,-0.02l0,-0.043l0.158,-0.007l0,0.329l-0.011,-0.012c0.028,-0.027 0.057,-0.047 0.087,-0.061c0.03,-0.014 0.06,-0.021 0.09,-0.021c0.037,0 0.071,0.01 0.101,0.031c0.029,0.021 0.053,0.051 0.07,0.09c0.017,0.039 0.026,0.088 0.026,0.145c0,0.043 -0.005,0.082 -0.016,0.117c-0.011,0.035 -0.028,0.064 -0.051,0.088c-0.023,0.024 -0.052,0.043 -0.087,0.056c-0.035,0.013 -0.078,0.019 -0.127,0.019Zm0.015,-0.059c0.059,0 0.105,-0.018 0.136,-0.055c0.031,-0.037 0.047,-0.09 0.047,-0.16c0,-0.044 -0.006,-0.082 -0.018,-0.113c-0.013,-0.031 -0.03,-0.055 -0.051,-0.073c-0.021,-0.017 -0.046,-0.025 -0.073,-0.025c-0.023,0 -0.047,0.006 -0.072,0.019c-0.025,0.012 -0.051,0.031 -0.076,0.056l0.01,-0.029l0,0.386l-0.011,-0.022c0.041,0.011 0.077,0.016 0.108,0.016Z" style="fill:#333;fill-rule:nonzero;"/></g><g transform="matrix(56.375,0,0,56.375,213.895,303.919)"><path d="M0.276,0.009c-0.045,0 -0.084,-0.01 -0.119,-0.031c-0.034,-0.02 -0.061,-0.05 -0.08,-0.089c-0.019,-0.039 -0.029,-0.087 -0.029,-0.144c-0,-0.058 0.01,-0.108 0.03,-0.15c0.02,-0.042 0.048,-0.075 0.085,-0.098c0.037,-0.023 0.08,-0.034 0.129,-0.034c0.047,0 0.085,0.01 0.115,0.029c0.031,0.02 0.053,0.047 0.069,0.082c0.014,0.035 0.022,0.074 0.022,0.119c-0,0.007 -0,0.015 -0.001,0.022c-0.001,0.007 -0.002,0.016 -0.003,0.027l-0.385,-0l-0,-0.057l0.315,-0l-0.009,0.006c0.001,-0.03 -0.003,-0.058 -0.011,-0.083c-0.008,-0.025 -0.022,-0.046 -0.041,-0.061c-0.019,-0.015 -0.045,-0.023 -0.077,-0.023c-0.034,-0 -0.063,0.009 -0.086,0.027c-0.023,0.018 -0.041,0.043 -0.052,0.074c-0.011,0.031 -0.017,0.068 -0.017,0.109c0,0.044 0.006,0.082 0.019,0.113c0.013,0.032 0.031,0.057 0.056,0.074c0.024,0.017 0.054,0.026 0.089,0.026c0.025,-0 0.052,-0.005 0.081,-0.015c0.029,-0.009 0.06,-0.024 0.091,-0.044l0.029,0.045c-0.037,0.025 -0.075,0.044 -0.112,0.057c-0.037,0.013 -0.073,0.019 -0.108,0.019Z" style="fill:#333;fill-rule:nonzero;"/></g><g transform="matrix(56.375,0,0,56.375,243.717,303.919)"><path d="M0.038,-0l0,-0.043l0.088,-0.019l-0.01,0.015l0,-0.431l0.011,0.015l-0.089,-0.019l-0,-0.043l0.14,-0.007l0.011,0.098l-0.011,-0.004c0.03,-0.031 0.059,-0.056 0.088,-0.073c0.029,-0.017 0.06,-0.026 0.094,-0.026c0.021,0 0.044,0.003 0.067,0.01l-0.006,0.146l-0.05,0l-0.012,-0.105l0.009,0.018c-0.005,-0.001 -0.01,-0.002 -0.015,-0.003c-0.005,-0.001 -0.011,-0.001 -0.016,-0.001c-0.027,-0 -0.052,0.008 -0.077,0.024c-0.025,0.016 -0.049,0.037 -0.072,0.062l0.008,-0.024l0,0.363l-0.012,-0.015l0.109,0.019l0,0.043l-0.255,-0Z" style="fill:#333;fill-rule:nonzero;"/></g><g transform="matrix(56.375,0,0,56.375,270.382,303.919)"><path d="M0.215,0.009c-0.035,0 -0.062,-0.011 -0.082,-0.033c-0.02,-0.021 -0.03,-0.054 -0.03,-0.098l0,-0.363l0.013,0.013l-0.103,-0l0,-0.044l0.104,-0.015l-0.014,0.016l0,-0.132l0.08,-0.013l0,0.145l-0.011,-0.013l0.157,0l-0.003,0.056l-0.154,0l0.011,-0.013l0,0.352c0,0.028 0.006,0.048 0.017,0.061c0.011,0.013 0.026,0.019 0.046,0.019c0.012,0 0.025,-0.002 0.039,-0.006c0.014,-0.004 0.029,-0.01 0.045,-0.017l0.017,0.046c-0.047,0.026 -0.091,0.039 -0.132,0.039Z" style="fill:#333;fill-rule:nonzero;"/></g><g transform="matrix(56.375,0,0,56.375,303.813,303.919)"><path d="M0.347,-0.698c0.045,0 0.086,0.007 0.124,0.021c0.037,0.013 0.07,0.034 0.098,0.062c0.028,0.027 0.05,0.062 0.066,0.104c0.016,0.043 0.024,0.093 0.024,0.151c0,0.079 -0.014,0.145 -0.042,0.198c-0.029,0.053 -0.068,0.094 -0.117,0.121c-0.049,0.027 -0.106,0.041 -0.169,0.041l-0.282,-0l0,-0.043l0.1,-0.021l-0.014,0.018l0,-0.604l0.014,0.019l-0.1,-0.019l0,-0.043l0.188,-0.005l0.11,-0Zm-0.013,0.637c0.031,-0 0.06,-0.005 0.088,-0.015c0.028,-0.01 0.053,-0.026 0.076,-0.049c0.023,-0.022 0.041,-0.052 0.054,-0.09c0.013,-0.037 0.019,-0.083 0.019,-0.138c0,-0.054 -0.006,-0.099 -0.019,-0.136c-0.013,-0.036 -0.03,-0.065 -0.051,-0.087c-0.021,-0.021 -0.045,-0.037 -0.072,-0.047c-0.027,-0.009 -0.055,-0.014 -0.084,-0.014l-0.143,0l0.015,-0.015l0,0.606l-0.015,-0.015l0.132,0Z" style="fill:#333;fill-rule:nonzero;"/></g><g transform="matrix(56.375,0,0,56.375,343.332,303.919)"><path d="M0.196,-0.051l-0.009,-0.011l0.087,0.019l0,0.043l-0.236,-0l-0,-0.043l0.087,-0.019l-0.009,0.011l0,-0.422l0.008,0.009l-0.086,-0.018l0,-0.043l0.158,-0.006l0,0.48Zm-0.046,-0.588c-0.015,0 -0.028,-0.005 -0.038,-0.015c-0.01,-0.01 -0.015,-0.024 -0.015,-0.041c0,-0.018 0.005,-0.032 0.015,-0.041c0.011,-0.01 0.024,-0.015 0.039,-0.015c0.016,0 0.029,0.005 0.039,0.014c0.01,0.009 0.015,0.023 0.015,0.042c-0,0.018 -0.005,0.032 -0.016,0.042c-0.011,0.009 -0.024,0.014 -0.039,0.014Z" style="fill:#333;fill-rule:nonzero;"/></g><g transform="matrix(56.375,0,0,56.375,359.399,303.919)"><path d="M0.449,-0.045l-0.013,-0.018l0.092,0.018l0,0.044l-0.14,0.006l-0.012,-0.096l0.007,0.003c-0.029,0.032 -0.061,0.056 -0.095,0.073c-0.034,0.016 -0.067,0.024 -0.099,0.024c-0.039,0 -0.071,-0.012 -0.098,-0.037c-0.027,-0.025 -0.04,-0.062 -0.04,-0.112c-0,-0.039 0.008,-0.07 0.025,-0.091c0.017,-0.02 0.04,-0.035 0.069,-0.044c0.029,-0.009 0.063,-0.013 0.102,-0.013l0.131,0l-0.009,0.01l0,-0.096c0,-0.037 -0.01,-0.063 -0.029,-0.079c-0.019,-0.015 -0.046,-0.023 -0.08,-0.023c-0.018,0 -0.037,0.002 -0.057,0.006c-0.021,0.003 -0.042,0.009 -0.065,0.017l0.012,-0.013l-0.01,0.091l-0.053,0l-0.008,-0.124c0.038,-0.013 0.074,-0.022 0.107,-0.028c0.033,-0.007 0.064,-0.01 0.092,-0.01c0.053,0 0.095,0.012 0.126,0.035c0.03,0.024 0.045,0.062 0.045,0.114l0,0.343Zm-0.317,-0.102c0,0.033 0.008,0.057 0.024,0.072c0.015,0.015 0.035,0.023 0.059,0.023c0.023,-0 0.049,-0.007 0.078,-0.022c0.028,-0.014 0.055,-0.033 0.082,-0.058l-0.006,0.021l0,-0.134l0.009,0.009l-0.119,-0c-0.047,-0 -0.08,0.007 -0.099,0.021c-0.019,0.015 -0.028,0.037 -0.028,0.068Z" style="fill:#333;fill-rule:nonzero;"/></g><g transform="matrix(56.375,0,0,56.375,390.236,303.919)"><path d="M0.25,0.009c-0.024,0 -0.049,-0.002 -0.076,-0.005c-0.027,-0.003 -0.056,-0.008 -0.086,-0.015l0,-0.714l0.016,0.023l-0.094,-0.02l0,-0.043l0.158,-0.007l0,0.329l-0.011,-0.012c0.028,-0.027 0.057,-0.047 0.087,-0.061c0.03,-0.014 0.06,-0.021 0.09,-0.021c0.037,0 0.071,0.01 0.101,0.031c0.029,0.021 0.053,0.051 0.07,0.09c0.017,0.039 0.026,0.088 0.026,0.145c0,0.043 -0.005,0.082 -0.016,0.117c-0.011,0.035 -0.028,0.064 -0.051,0.088c-0.023,0.024 -0.052,0.043 -0.087,0.056c-0.035,0.013 -0.078,0.019 -0.127,0.019Zm0.015,-0.059c0.059,0 0.105,-0.018 0.136,-0.055c0.031,-0.037 0.047,-0.09 0.047,-0.16c0,-0.044 -0.006,-0.082 -0.018,-0.113c-0.013,-0.031 -0.03,-0.055 -0.051,-0.073c-0.021,-0.017 -0.046,-0.025 -0.073,-0.025c-0.023,0 -0.047,0.006 -0.072,0.019c-0.025,0.012 -0.051,0.031 -0.076,0.056l0.01,-0.029l0,0.386l-0.011,-0.022c0.041,0.011 0.077,0.016 0.108,0.016Z" style="fill:#333;fill-rule:nonzero;"/></g></g></svg>