<?xml version="1.0" encoding="UTF-8" standalone="no"?><!DOCTYPE svg PUBLIC "-//W3C//DTD SVG 1.1//EN" "http://www.w3.org/Graphics/SVG/1.1/DTD/svg11.dtd"><svg width="100%" height="100%" viewBox="0 0 600 200" version="1.1" xmlns="http://www.w3.org/2000/svg" xmlns:xlink="http://www.w3.org/1999/xlink" xml:space="preserve" xmlns:serif="http://www.serif.com/" style="fill-rule:evenodd;clip-rule:evenodd;stroke-linejoin:round;stroke-miterlimit:2;"><g transform="matrix(1.30395,0,0,1.30395,-25.82,-199.783)"><g transform="matrix(62.5,0,0,62.5,137.153,205.053)"><path d="M0.773,-0.693l0.246,-0.005l0,0.043l-0.096,0.021l0.021,-0.022l-0.186,0.657l-0.079,-0l-0.175,-0.598l0.015,0.001l-0.185,0.597l-0.079,-0l-0.172,-0.652l0.011,0.016l-0.089,-0.015l-0,-0.043l0.255,-0.005l-0,0.043l-0.105,0.021l0.012,-0.017l0.143,0.576l-0.017,-0l0.186,-0.619l0.075,-0.004l0.178,0.621l-0.017,-0l0.156,-0.573l0.009,0.016l-0.107,-0.016l-0,-0.043Z" style="fill:#808080;fill-rule:nonzero;"/></g><g transform="matrix(62.5,0,0,62.5,198.34,205.053)"><path d="M0.038,-0l0,-0.043l0.088,-0.019l-0.01,0.015l0,-0.431l0.011,0.015l-0.089,-0.019l-0,-0.043l0.14,-0.007l0.011,0.098l-0.011,-0.004c0.03,-0.031 0.059,-0.056 0.088,-0.073c0.029,-0.017 0.06,-0.026 0.094,-0.026c0.021,0 0.044,0.003 0.067,0.01l-0.006,0.146l-0.05,0l-0.012,-0.105l0.009,0.018c-0.005,-0.001 -0.01,-0.002 -0.015,-0.003c-0.005,-0.001 -0.011,-0.001 -0.016,-0.001c-0.027,-0 -0.052,0.008 -0.077,0.024c-0.025,0.016 -0.049,0.037 -0.072,0.062l0.008,-0.024l0,0.363l-0.012,-0.015l0.109,0.019l0,0.043l-0.255,-0Z" style="fill:#808080;fill-rule:nonzero;"/></g><g transform="matrix(62.5,0,0,62.5,225.153,205.053)"><path d="M0.196,-0.051l-0.009,-0.011l0.087,0.019l0,0.043l-0.236,-0l-0,-0.043l0.087,-0.019l-0.009,0.011l0,-0.422l0.008,0.009l-0.086,-0.018l0,-0.043l0.158,-0.006l0,0.48Zm-0.046,-0.588c-0.015,0 -0.028,-0.005 -0.038,-0.015c-0.01,-0.01 -0.015,-0.024 -0.015,-0.041c0,-0.018 0.005,-0.032 0.015,-0.041c0.011,-0.01 0.024,-0.015 0.039,-0.015c0.016,0 0.029,0.005 0.039,0.014c0.01,0.009 0.015,0.023 0.015,0.042c-0,0.018 -0.005,0.032 -0.016,0.042c-0.011,0.009 -0.024,0.014 -0.039,0.014Z" style="fill:#808080;fill-rule:nonzero;"/></g><g transform="matrix(62.5,0,0,62.5,243.778,205.053)"><path d="M0.215,0.009c-0.035,0 -0.062,-0.011 -0.082,-0.033c-0.02,-0.021 -0.03,-0.054 -0.03,-0.098l0,-0.363l0.013,0.013l-0.103,-0l0,-0.044l0.104,-0.015l-0.014,0.016l0,-0.132l0.08,-0.013l0,0.145l-0.011,-0.013l0.157,0l-0.003,0.056l-0.154,0l0.011,-0.013l0,0.352c0,0.028 0.006,0.048 0.017,0.061c0.011,0.013 0.026,0.019 0.046,0.019c0.012,0 0.025,-0.002 0.039,-0.006c0.014,-0.004 0.029,-0.01 0.045,-0.017l0.017,0.046c-0.047,0.026 -0.091,0.039 -0.132,0.039Z" style="fill:#808080;fill-rule:nonzero;"/></g><g transform="matrix(62.5,0,0,62.5,266.403,205.053)"><path d="M0.196,-0.051l-0.009,-0.011l0.087,0.019l0,0.043l-0.236,-0l-0,-0.043l0.087,-0.019l-0.009,0.011l0,-0.422l0.008,0.009l-0.086,-0.018l0,-0.043l0.158,-0.006l0,0.48Zm-0.046,-0.588c-0.015,0 -0.028,-0.005 -0.038,-0.015c-0.01,-0.01 -0.015,-0.024 -0.015,-0.041c0,-0.018 0.005,-0.032 0.015,-0.041c0.011,-0.01 0.024,-0.015 0.039,-0.015c0.016,0 0.029,0.005 0.039,0.014c0.01,0.009 0.015,0.023 0.015,0.042c-0,0.018 -0.005,0.032 -0.016,0.042c-0.011,0.009 -0.024,0.014 -0.039,0.014Z" style="fill:#808080;fill-rule:nonzero;"/></g><g transform="matrix(62.5,0,0,62.5,285.028,205.053)"><path d="M0.038,-0l0,-0.043l0.09,-0.02l-0.012,0.015l0,-0.43l0.012,0.015l-0.09,-0.019l-0,-0.043l0.14,-0.007l0.011,0.098l-0.011,-0.004c0.033,-0.034 0.068,-0.059 0.105,-0.075c0.036,-0.016 0.07,-0.024 0.103,-0.024c0.044,0 0.08,0.014 0.109,0.041c0.03,0.027 0.044,0.068 0.043,0.125l0,0.323l-0.01,-0.014l0.088,0.019l0,0.043l-0.233,0l0,-0.043l0.087,-0.019l-0.012,0.015l0,-0.307c0,-0.041 -0.009,-0.072 -0.028,-0.091c-0.019,-0.019 -0.044,-0.029 -0.075,-0.029c-0.025,0 -0.051,0.007 -0.08,0.02c-0.029,0.013 -0.058,0.034 -0.086,0.062l0.007,-0.016l0,0.361l-0.01,-0.014l0.085,0.018l0,0.043l-0.233,0Z" style="fill:#808080;fill-rule:nonzero;"/></g><g transform="matrix(62.5,0,0,62.5,324.59,205.053)"><path d="M0.264,0.239c-0.078,0 -0.136,-0.011 -0.175,-0.034c-0.039,-0.023 -0.058,-0.055 -0.058,-0.098c0,-0.03 0.01,-0.057 0.03,-0.08c0.02,-0.023 0.049,-0.044 0.088,-0.061l0.001,0.016c-0.021,-0.001 -0.038,-0.006 -0.049,-0.014c-0.011,-0.007 -0.017,-0.018 -0.017,-0.032c0,-0.005 0.001,-0.011 0.002,-0.016c0.001,-0.005 0.004,-0.013 0.008,-0.023c0.003,-0.009 0.009,-0.022 0.017,-0.039c0.007,-0.016 0.017,-0.037 0.029,-0.064l0.002,0.014c-0.029,-0.015 -0.051,-0.036 -0.066,-0.063c-0.015,-0.026 -0.023,-0.057 -0.023,-0.093c-0,-0.058 0.019,-0.104 0.057,-0.138c0.039,-0.034 0.092,-0.051 0.159,-0.051c0.045,0 0.084,0.008 0.117,0.024l-0.022,-0.005l0.157,-0.007l0.001,0.048l-0.093,0.018l0.007,-0.012c0.014,0.013 0.025,0.03 0.032,0.049c0.007,0.019 0.011,0.041 0.011,0.066c-0,0.059 -0.02,0.105 -0.059,0.139c-0.039,0.034 -0.092,0.051 -0.157,0.051c-0.037,0 -0.072,-0.006 -0.103,-0.019l0.018,-0.009l-0.026,0.131l-0.017,-0.01l0.196,0c0.064,0 0.113,0.013 0.146,0.038c0.033,0.025 0.05,0.06 0.05,0.107c-0,0.054 -0.022,0.095 -0.067,0.124c-0.044,0.029 -0.109,0.043 -0.196,0.043Zm0.007,-0.061c0.061,0 0.106,-0.008 0.135,-0.025c0.029,-0.017 0.044,-0.042 0.044,-0.075c-0,-0.029 -0.011,-0.052 -0.033,-0.067c-0.022,-0.014 -0.055,-0.022 -0.099,-0.022l-0.159,0l0.023,-0.005c-0.053,0.033 -0.08,0.069 -0.08,0.108c-0,0.029 0.014,0.05 0.041,0.065c0.028,0.014 0.071,0.021 0.128,0.021Zm-0.008,-0.4c0.043,0 0.076,-0.011 0.1,-0.034c0.024,-0.024 0.036,-0.056 0.036,-0.098c-0,-0.042 -0.011,-0.074 -0.034,-0.095c-0.023,-0.021 -0.055,-0.032 -0.097,-0.032c-0.043,-0 -0.076,0.011 -0.099,0.033c-0.023,0.023 -0.035,0.055 -0.035,0.098c-0,0.041 0.011,0.073 0.033,0.095c0.023,0.022 0.055,0.033 0.096,0.033Z" style="fill:#808080;fill-rule:nonzero;"/></g><g transform="matrix(20.7703,0,0,20.7703,61.0958,244.996)"><path d="M0.316,0.009c-0.057,0 -0.103,-0.013 -0.14,-0.039c-0.038,-0.026 -0.065,-0.065 -0.082,-0.117c-0.018,-0.052 -0.027,-0.117 -0.027,-0.196c0,-0.081 0.009,-0.149 0.028,-0.202c0.019,-0.054 0.048,-0.094 0.087,-0.121c0.039,-0.027 0.089,-0.041 0.148,-0.041c0.058,0 0.105,0.012 0.141,0.037c0.035,0.025 0.061,0.062 0.078,0.113c0.016,0.051 0.024,0.115 0.024,0.193c0,0.083 -0.009,0.152 -0.028,0.207c-0.019,0.055 -0.047,0.097 -0.085,0.125c-0.039,0.027 -0.087,0.041 -0.144,0.041Zm0.003,-0.064c0.039,0 0.07,-0.011 0.095,-0.033c0.025,-0.022 0.043,-0.055 0.055,-0.099c0.012,-0.045 0.018,-0.101 0.019,-0.169c0.001,-0.071 -0.005,-0.127 -0.017,-0.168c-0.012,-0.042 -0.03,-0.072 -0.054,-0.091c-0.024,-0.019 -0.054,-0.028 -0.09,-0.028c-0.04,0 -0.073,0.011 -0.099,0.032c-0.026,0.022 -0.045,0.055 -0.057,0.099c-0.013,0.043 -0.019,0.098 -0.019,0.165c0,0.067 0.006,0.121 0.018,0.164c0.012,0.043 0.03,0.075 0.055,0.096c0.025,0.021 0.056,0.032 0.094,0.032Z" style="fill:#ffd800;fill-rule:nonzero;"/></g><g transform="matrix(20.7703,0,0,20.7703,74.3473,244.996)"><path d="M0.278,-0.044l-0.018,-0.022l0.134,0.021l0,0.045l-0.339,-0l0,-0.045l0.159,-0.02l-0.018,0.021l0,-0.585l0.022,0.002l-0.174,0.101l-0.027,-0.051l0.194,-0.124l0.067,0l0,0.657Z" style="fill:#ffd800;fill-rule:nonzero;"/></g><g transform="matrix(20.7703,0,0,20.7703,82.78,244.996)"><path d="M0.278,-0.044l-0.018,-0.022l0.134,0.021l0,0.045l-0.339,-0l0,-0.045l0.159,-0.02l-0.018,0.021l0,-0.585l0.022,0.002l-0.174,0.101l-0.027,-0.051l0.194,-0.124l0.067,0l0,0.657Z" style="fill:#ffd800;fill-rule:nonzero;"/></g><g transform="matrix(20.7703,0,0,20.7703,91.2128,244.996)"><path d="M0.316,0.009c-0.057,0 -0.103,-0.013 -0.14,-0.039c-0.038,-0.026 -0.065,-0.065 -0.082,-0.117c-0.018,-0.052 -0.027,-0.117 -0.027,-0.196c0,-0.081 0.009,-0.149 0.028,-0.202c0.019,-0.054 0.048,-0.094 0.087,-0.121c0.039,-0.027 0.089,-0.041 0.148,-0.041c0.058,0 0.105,0.012 0.141,0.037c0.035,0.025 0.061,0.062 0.078,0.113c0.016,0.051 0.024,0.115 0.024,0.193c0,0.083 -0.009,0.152 -0.028,0.207c-0.019,0.055 -0.047,0.097 -0.085,0.125c-0.039,0.027 -0.087,0.041 -0.144,0.041Zm0.003,-0.064c0.039,0 0.07,-0.011 0.095,-0.033c0.025,-0.022 0.043,-0.055 0.055,-0.099c0.012,-0.045 0.018,-0.101 0.019,-0.169c0.001,-0.071 -0.005,-0.127 -0.017,-0.168c-0.012,-0.042 -0.03,-0.072 -0.054,-0.091c-0.024,-0.019 -0.054,-0.028 -0.09,-0.028c-0.04,0 -0.073,0.011 -0.099,0.032c-0.026,0.022 -0.045,0.055 -0.057,0.099c-0.013,0.043 -0.019,0.098 -0.019,0.165c0,0.067 0.006,0.121 0.018,0.164c0.012,0.043 0.03,0.075 0.055,0.096c0.025,0.021 0.056,0.032 0.094,0.032Z" style="fill:#ffd800;fill-rule:nonzero;"/></g><g transform="matrix(20.7703,0,0,20.7703,104.527,244.996)"><path d="M0.316,0.009c-0.057,0 -0.103,-0.013 -0.14,-0.039c-0.038,-0.026 -0.065,-0.065 -0.082,-0.117c-0.018,-0.052 -0.027,-0.117 -0.027,-0.196c0,-0.081 0.009,-0.149 0.028,-0.202c0.019,-0.054 0.048,-0.094 0.087,-0.121c0.039,-0.027 0.089,-0.041 0.148,-0.041c0.058,0 0.105,0.012 0.141,0.037c0.035,0.025 0.061,0.062 0.078,0.113c0.016,0.051 0.024,0.115 0.024,0.193c0,0.083 -0.009,0.152 -0.028,0.207c-0.019,0.055 -0.047,0.097 -0.085,0.125c-0.039,0.027 -0.087,0.041 -0.144,0.041Zm0.003,-0.064c0.039,0 0.07,-0.011 0.095,-0.033c0.025,-0.022 0.043,-0.055 0.055,-0.099c0.012,-0.045 0.018,-0.101 0.019,-0.169c0.001,-0.071 -0.005,-0.127 -0.017,-0.168c-0.012,-0.042 -0.03,-0.072 -0.054,-0.091c-0.024,-0.019 -0.054,-0.028 -0.09,-0.028c-0.04,0 -0.073,0.011 -0.099,0.032c-0.026,0.022 -0.045,0.055 -0.057,0.099c-0.013,0.043 -0.019,0.098 -0.019,0.165c0,0.067 0.006,0.121 0.018,0.164c0.012,0.043 0.03,0.075 0.055,0.096c0.025,0.021 0.056,0.032 0.094,0.032Z" style="fill:#ffd800;fill-rule:nonzero;"/></g><g transform="matrix(20.7703,0,0,20.7703,117.84,244.996)"><path d="M0.316,0.009c-0.057,0 -0.103,-0.013 -0.14,-0.039c-0.038,-0.026 -0.065,-0.065 -0.082,-0.117c-0.018,-0.052 -0.027,-0.117 -0.027,-0.196c0,-0.081 0.009,-0.149 0.028,-0.202c0.019,-0.054 0.048,-0.094 0.087,-0.121c0.039,-0.027 0.089,-0.041 0.148,-0.041c0.058,0 0.105,0.012 0.141,0.037c0.035,0.025 0.061,0.062 0.078,0.113c0.016,0.051 0.024,0.115 0.024,0.193c0,0.083 -0.009,0.152 -0.028,0.207c-0.019,0.055 -0.047,0.097 -0.085,0.125c-0.039,0.027 -0.087,0.041 -0.144,0.041Zm0.003,-0.064c0.039,0 0.07,-0.011 0.095,-0.033c0.025,-0.022 0.043,-0.055 0.055,-0.099c0.012,-0.045 0.018,-0.101 0.019,-0.169c0.001,-0.071 -0.005,-0.127 -0.017,-0.168c-0.012,-0.042 -0.03,-0.072 -0.054,-0.091c-0.024,-0.019 -0.054,-0.028 -0.09,-0.028c-0.04,0 -0.073,0.011 -0.099,0.032c-0.026,0.022 -0.045,0.055 -0.057,0.099c-0.013,0.043 -0.019,0.098 -0.019,0.165c0,0.067 0.006,0.121 0.018,0.164c0.012,0.043 0.03,0.075 0.055,0.096c0.025,0.021 0.056,0.032 0.094,0.032Z" style="fill:#ffd800;fill-rule:nonzero;"/></g><g transform="matrix(20.7703,0,0,20.7703,131.092,244.996)"><path d="M0.278,-0.044l-0.018,-0.022l0.134,0.021l0,0.045l-0.339,-0l0,-0.045l0.159,-0.02l-0.018,0.021l0,-0.585l0.022,0.002l-0.174,0.101l-0.027,-0.051l0.194,-0.124l0.067,0l0,0.657Z" style="fill:#ffd800;fill-rule:nonzero;"/></g><g transform="matrix(20.7703,0,0,20.7703,139.524,244.996)"><path d="M0.316,0.009c-0.057,0 -0.103,-0.013 -0.14,-0.039c-0.038,-0.026 -0.065,-0.065 -0.082,-0.117c-0.018,-0.052 -0.027,-0.117 -0.027,-0.196c0,-0.081 0.009,-0.149 0.028,-0.202c0.019,-0.054 0.048,-0.094 0.087,-0.121c0.039,-0.027 0.089,-0.041 0.148,-0.041c0.058,0 0.105,0.012 0.141,0.037c0.035,0.025 0.061,0.062 0.078,0.113c0.016,0.051 0.024,0.115 0.024,0.193c0,0.083 -0.009,0.152 -0.028,0.207c-0.019,0.055 -0.047,0.097 -0.085,0.125c-0.039,0.027 -0.087,0.041 -0.144,0.041Zm0.003,-0.064c0.039,0 0.07,-0.011 0.095,-0.033c0.025,-0.022 0.043,-0.055 0.055,-0.099c0.012,-0.045 0.018,-0.101 0.019,-0.169c0.001,-0.071 -0.005,-0.127 -0.017,-0.168c-0.012,-0.042 -0.03,-0.072 -0.054,-0.091c-0.024,-0.019 -0.054,-0.028 -0.09,-0.028c-0.04,0 -0.073,0.011 -0.099,0.032c-0.026,0.022 -0.045,0.055 -0.057,0.099c-0.013,0.043 -0.019,0.098 -0.019,0.165c0,0.067 0.006,0.121 0.018,0.164c0.012,0.043 0.03,0.075 0.055,0.096c0.025,0.021 0.056,0.032 0.094,0.032Z" style="fill:#ffd800;fill-rule:nonzero;"/></g><g transform="matrix(20.7703,0,0,20.7703,156.992,244.996)"><path d="M0.316,0.009c-0.057,0 -0.103,-0.013 -0.14,-0.039c-0.038,-0.026 -0.065,-0.065 -0.082,-0.117c-0.018,-0.052 -0.027,-0.117 -0.027,-0.196c0,-0.081 0.009,-0.149 0.028,-0.202c0.019,-0.054 0.048,-0.094 0.087,-0.121c0.039,-0.027 0.089,-0.041 0.148,-0.041c0.058,0 0.105,0.012 0.141,0.037c0.035,0.025 0.061,0.062 0.078,0.113c0.016,0.051 0.024,0.115 0.024,0.193c0,0.083 -0.009,0.152 -0.028,0.207c-0.019,0.055 -0.047,0.097 -0.085,0.125c-0.039,0.027 -0.087,0.041 -0.144,0.041Zm0.003,-0.064c0.039,0 0.07,-0.011 0.095,-0.033c0.025,-0.022 0.043,-0.055 0.055,-0.099c0.012,-0.045 0.018,-0.101 0.019,-0.169c0.001,-0.071 -0.005,-0.127 -0.017,-0.168c-0.012,-0.042 -0.03,-0.072 -0.054,-0.091c-0.024,-0.019 -0.054,-0.028 -0.09,-0.028c-0.04,0 -0.073,0.011 -0.099,0.032c-0.026,0.022 -0.045,0.055 -0.057,0.099c-0.013,0.043 -0.019,0.098 -0.019,0.165c0,0.067 0.006,0.121 0.018,0.164c0.012,0.043 0.03,0.075 0.055,0.096c0.025,0.021 0.056,0.032 0.094,0.032Z" style="fill:#ffd800;fill-rule:nonzero;"/></g><g transform="matrix(20.7703,0,0,20.7703,170.244,244.996)"><path d="M0.278,-0.044l-0.018,-0.022l0.134,0.021l0,0.045l-0.339,-0l0,-0.045l0.159,-0.02l-0.018,0.021l0,-0.585l0.022,0.002l-0.174,0.101l-0.027,-0.051l0.194,-0.124l0.067,0l0,0.657Z" style="fill:#ffd800;fill-rule:nonzero;"/></g><g transform="matrix(20.7703,0,0,20.7703,178.676,244.996)"><path d="M0.278,-0.044l-0.018,-0.022l0.134,0.021l0,0.045l-0.339,-0l0,-0.045l0.159,-0.02l-0.018,0.021l0,-0.585l0.022,0.002l-0.174,0.101l-0.027,-0.051l0.194,-0.124l0.067,0l0,0.657Z" style="fill:#ffd800;fill-rule:nonzero;"/></g><g transform="matrix(20.7703,0,0,20.7703,187.109,244.996)"><path d="M0.316,0.009c-0.057,0 -0.103,-0.013 -0.14,-0.039c-0.038,-0.026 -0.065,-0.065 -0.082,-0.117c-0.018,-0.052 -0.027,-0.117 -0.027,-0.196c0,-0.081 0.009,-0.149 0.028,-0.202c0.019,-0.054 0.048,-0.094 0.087,-0.121c0.039,-0.027 0.089,-0.041 0.148,-0.041c0.058,0 0.105,0.012 0.141,0.037c0.035,0.025 0.061,0.062 0.078,0.113c0.016,0.051 0.024,0.115 0.024,0.193c0,0.083 -0.009,0.152 -0.028,0.207c-0.019,0.055 -0.047,0.097 -0.085,0.125c-0.039,0.027 -0.087,0.041 -0.144,0.041Zm0.003,-0.064c0.039,0 0.07,-0.011 0.095,-0.033c0.025,-0.022 0.043,-0.055 0.055,-0.099c0.012,-0.045 0.018,-0.101 0.019,-0.169c0.001,-0.071 -0.005,-0.127 -0.017,-0.168c-0.012,-0.042 -0.03,-0.072 -0.054,-0.091c-0.024,-0.019 -0.054,-0.028 -0.09,-0.028c-0.04,0 -0.073,0.011 -0.099,0.032c-0.026,0.022 -0.045,0.055 -0.057,0.099c-0.013,0.043 -0.019,0.098 -0.019,0.165c0,0.067 0.006,0.121 0.018,0.164c0.012,0.043 0.03,0.075 0.055,0.096c0.025,0.021 0.056,0.032 0.094,0.032Z" style="fill:#ffd800;fill-rule:nonzero;"/></g><g transform="matrix(20.7703,0,0,20.7703,200.361,244.996)"><path d="M0.278,-0.044l-0.018,-0.022l0.134,0.021l0,0.045l-0.339,-0l0,-0.045l0.159,-0.02l-0.018,0.021l0,-0.585l0.022,0.002l-0.174,0.101l-0.027,-0.051l0.194,-0.124l0.067,0l0,0.657Z" style="fill:#ffd800;fill-rule:nonzero;"/></g><g transform="matrix(20.7703,0,0,20.7703,208.793,244.996)"><path d="M0.316,0.009c-0.057,0 -0.103,-0.013 -0.14,-0.039c-0.038,-0.026 -0.065,-0.065 -0.082,-0.117c-0.018,-0.052 -0.027,-0.117 -0.027,-0.196c0,-0.081 0.009,-0.149 0.028,-0.202c0.019,-0.054 0.048,-0.094 0.087,-0.121c0.039,-0.027 0.089,-0.041 0.148,-0.041c0.058,0 0.105,0.012 0.141,0.037c0.035,0.025 0.061,0.062 0.078,0.113c0.016,0.051 0.024,0.115 0.024,0.193c0,0.083 -0.009,0.152 -0.028,0.207c-0.019,0.055 -0.047,0.097 -0.085,0.125c-0.039,0.027 -0.087,0.041 -0.144,0.041Zm0.003,-0.064c0.039,0 0.07,-0.011 0.095,-0.033c0.025,-0.022 0.043,-0.055 0.055,-0.099c0.012,-0.045 0.018,-0.101 0.019,-0.169c0.001,-0.071 -0.005,-0.127 -0.017,-0.168c-0.012,-0.042 -0.03,-0.072 -0.054,-0.091c-0.024,-0.019 -0.054,-0.028 -0.09,-0.028c-0.04,0 -0.073,0.011 -0.099,0.032c-0.026,0.022 -0.045,0.055 -0.057,0.099c-0.013,0.043 -0.019,0.098 -0.019,0.165c0,0.067 0.006,0.121 0.018,0.164c0.012,0.043 0.03,0.075 0.055,0.096c0.025,0.021 0.056,0.032 0.094,0.032Z" style="fill:#ffd800;fill-rule:nonzero;"/></g><g transform="matrix(20.7703,0,0,20.7703,222.107,244.996)"><path d="M0.316,0.009c-0.057,0 -0.103,-0.013 -0.14,-0.039c-0.038,-0.026 -0.065,-0.065 -0.082,-0.117c-0.018,-0.052 -0.027,-0.117 -0.027,-0.196c0,-0.081 0.009,-0.149 0.028,-0.202c0.019,-0.054 0.048,-0.094 0.087,-0.121c0.039,-0.027 0.089,-0.041 0.148,-0.041c0.058,0 0.105,0.012 0.141,0.037c0.035,0.025 0.061,0.062 0.078,0.113c0.016,0.051 0.024,0.115 0.024,0.193c0,0.083 -0.009,0.152 -0.028,0.207c-0.019,0.055 -0.047,0.097 -0.085,0.125c-0.039,0.027 -0.087,0.041 -0.144,0.041Zm0.003,-0.064c0.039,0 0.07,-0.011 0.095,-0.033c0.025,-0.022 0.043,-0.055 0.055,-0.099c0.012,-0.045 0.018,-0.101 0.019,-0.169c0.001,-0.071 -0.005,-0.127 -0.017,-0.168c-0.012,-0.042 -0.03,-0.072 -0.054,-0.091c-0.024,-0.019 -0.054,-0.028 -0.09,-0.028c-0.04,0 -0.073,0.011 -0.099,0.032c-0.026,0.022 -0.045,0.055 -0.057,0.099c-0.013,0.043 -0.019,0.098 -0.019,0.165c0,0.067 0.006,0.121 0.018,0.164c0.012,0.043 0.03,0.075 0.055,0.096c0.025,0.021 0.056,0.032 0.094,0.032Z" style="fill:#ffd800;fill-rule:nonzero;"/></g><g transform="matrix(20.7703,0,0,20.7703,235.359,244.996)"><path d="M0.278,-0.044l-0.018,-0.022l0.134,0.021l0,0.045l-0.339,-0l0,-0.045l0.159,-0.02l-0.018,0.021l0,-0.585l0.022,0.002l-0.174,0.101l-0.027,-0.051l0.194,-0.124l0.067,0l0,0.657Z" style="fill:#ffd800;fill-rule:nonzero;"/></g><g transform="matrix(20.7703,0,0,20.7703,247.945,244.996)"><path d="M0.316,0.009c-0.057,0 -0.103,-0.013 -0.14,-0.039c-0.038,-0.026 -0.065,-0.065 -0.082,-0.117c-0.018,-0.052 -0.027,-0.117 -0.027,-0.196c0,-0.081 0.009,-0.149 0.028,-0.202c0.019,-0.054 0.048,-0.094 0.087,-0.121c0.039,-0.027 0.089,-0.041 0.148,-0.041c0.058,0 0.105,0.012 0.141,0.037c0.035,0.025 0.061,0.062 0.078,0.113c0.016,0.051 0.024,0.115 0.024,0.193c0,0.083 -0.009,0.152 -0.028,0.207c-0.019,0.055 -0.047,0.097 -0.085,0.125c-0.039,0.027 -0.087,0.041 -0.144,0.041Zm0.003,-0.064c0.039,0 0.07,-0.011 0.095,-0.033c0.025,-0.022 0.043,-0.055 0.055,-0.099c0.012,-0.045 0.018,-0.101 0.019,-0.169c0.001,-0.071 -0.005,-0.127 -0.017,-0.168c-0.012,-0.042 -0.03,-0.072 -0.054,-0.091c-0.024,-0.019 -0.054,-0.028 -0.09,-0.028c-0.04,0 -0.073,0.011 -0.099,0.032c-0.026,0.022 -0.045,0.055 -0.057,0.099c-0.013,0.043 -0.019,0.098 -0.019,0.165c0,0.067 0.006,0.121 0.018,0.164c0.012,0.043 0.03,0.075 0.055,0.096c0.025,0.021 0.056,0.032 0.094,0.032Z" style="fill:#ffd800;fill-rule:nonzero;"/></g><g transform="matrix(20.7703,0,0,20.7703,261.197,244.996)"><path d="M0.278,-0.044l-0.018,-0.022l0.134,0.021l0,0.045l-0.339,-0l0,-0.045l0.159,-0.02l-0.018,0.021l0,-0.585l0.022,0.002l-0.174,0.101l-0.027,-0.051l0.194,-0.124l0.067,0l0,0.657Z" style="fill:#ffd800;fill-rule:nonzero;"/></g><g transform="matrix(20.7703,0,0,20.7703,269.63,244.996)"><path d="M0.278,-0.044l-0.018,-0.022l0.134,0.021l0,0.045l-0.339,-0l0,-0.045l0.159,-0.02l-0.018,0.021l0,-0.585l0.022,0.002l-0.174,0.101l-0.027,-0.051l0.194,-0.124l0.067,0l0,0.657Z" style="fill:#ffd800;fill-rule:nonzero;"/></g><g transform="matrix(20.7703,0,0,20.7703,278.062,244.996)"><path d="M0.316,0.009c-0.057,0 -0.103,-0.013 -0.14,-0.039c-0.038,-0.026 -0.065,-0.065 -0.082,-0.117c-0.018,-0.052 -0.027,-0.117 -0.027,-0.196c0,-0.081 0.009,-0.149 0.028,-0.202c0.019,-0.054 0.048,-0.094 0.087,-0.121c0.039,-0.027 0.089,-0.041 0.148,-0.041c0.058,0 0.105,0.012 0.141,0.037c0.035,0.025 0.061,0.062 0.078,0.113c0.016,0.051 0.024,0.115 0.024,0.193c0,0.083 -0.009,0.152 -0.028,0.207c-0.019,0.055 -0.047,0.097 -0.085,0.125c-0.039,0.027 -0.087,0.041 -0.144,0.041Zm0.003,-0.064c0.039,0 0.07,-0.011 0.095,-0.033c0.025,-0.022 0.043,-0.055 0.055,-0.099c0.012,-0.045 0.018,-0.101 0.019,-0.169c0.001,-0.071 -0.005,-0.127 -0.017,-0.168c-0.012,-0.042 -0.03,-0.072 -0.054,-0.091c-0.024,-0.019 -0.054,-0.028 -0.09,-0.028c-0.04,0 -0.073,0.011 -0.099,0.032c-0.026,0.022 -0.045,0.055 -0.057,0.099c-0.013,0.043 -0.019,0.098 -0.019,0.165c0,0.067 0.006,0.121 0.018,0.164c0.012,0.043 0.03,0.075 0.055,0.096c0.025,0.021 0.056,0.032 0.094,0.032Z" style="fill:#ffd800;fill-rule:nonzero;"/></g><g transform="matrix(20.7703,0,0,20.7703,291.376,244.996)"><path d="M0.316,0.009c-0.057,0 -0.103,-0.013 -0.14,-0.039c-0.038,-0.026 -0.065,-0.065 -0.082,-0.117c-0.018,-0.052 -0.027,-0.117 -0.027,-0.196c0,-0.081 0.009,-0.149 0.028,-0.202c0.019,-0.054 0.048,-0.094 0.087,-0.121c0.039,-0.027 0.089,-0.041 0.148,-0.041c0.058,0 0.105,0.012 0.141,0.037c0.035,0.025 0.061,0.062 0.078,0.113c0.016,0.051 0.024,0.115 0.024,0.193c0,0.083 -0.009,0.152 -0.028,0.207c-0.019,0.055 -0.047,0.097 -0.085,0.125c-0.039,0.027 -0.087,0.041 -0.144,0.041Zm0.003,-0.064c0.039,0 0.07,-0.011 0.095,-0.033c0.025,-0.022 0.043,-0.055 0.055,-0.099c0.012,-0.045 0.018,-0.101 0.019,-0.169c0.001,-0.071 -0.005,-0.127 -0.017,-0.168c-0.012,-0.042 -0.03,-0.072 -0.054,-0.091c-0.024,-0.019 -0.054,-0.028 -0.09,-0.028c-0.04,0 -0.073,0.011 -0.099,0.032c-0.026,0.022 -0.045,0.055 -0.057,0.099c-0.013,0.043 -0.019,0.098 -0.019,0.165c0,0.067 0.006,0.121 0.018,0.164c0.012,0.043 0.03,0.075 0.055,0.096c0.025,0.021 0.056,0.032 0.094,0.032Z" style="fill:#ffd800;fill-rule:nonzero;"/></g><g transform="matrix(20.7703,0,0,20.7703,304.69,244.996)"><path d="M0.316,0.009c-0.057,0 -0.103,-0.013 -0.14,-0.039c-0.038,-0.026 -0.065,-0.065 -0.082,-0.117c-0.018,-0.052 -0.027,-0.117 -0.027,-0.196c0,-0.081 0.009,-0.149 0.028,-0.202c0.019,-0.054 0.048,-0.094 0.087,-0.121c0.039,-0.027 0.089,-0.041 0.148,-0.041c0.058,0 0.105,0.012 0.141,0.037c0.035,0.025 0.061,0.062 0.078,0.113c0.016,0.051 0.024,0.115 0.024,0.193c0,0.083 -0.009,0.152 -0.028,0.207c-0.019,0.055 -0.047,0.097 -0.085,0.125c-0.039,0.027 -0.087,0.041 -0.144,0.041Zm0.003,-0.064c0.039,0 0.07,-0.011 0.095,-0.033c0.025,-0.022 0.043,-0.055 0.055,-0.099c0.012,-0.045 0.018,-0.101 0.019,-0.169c0.001,-0.071 -0.005,-0.127 -0.017,-0.168c-0.012,-0.042 -0.03,-0.072 -0.054,-0.091c-0.024,-0.019 -0.054,-0.028 -0.09,-0.028c-0.04,0 -0.073,0.011 -0.099,0.032c-0.026,0.022 -0.045,0.055 -0.057,0.099c-0.013,0.043 -0.019,0.098 -0.019,0.165c0,0.067 0.006,0.121 0.018,0.164c0.012,0.043 0.03,0.075 0.055,0.096c0.025,0.021 0.056,0.032 0.094,0.032Z" style="fill:#ffd800;fill-rule:nonzero;"/></g><g transform="matrix(20.7703,0,0,20.7703,318.004,244.996)"><path d="M0.316,0.009c-0.057,0 -0.103,-0.013 -0.14,-0.039c-0.038,-0.026 -0.065,-0.065 -0.082,-0.117c-0.018,-0.052 -0.027,-0.117 -0.027,-0.196c0,-0.081 0.009,-0.149 0.028,-0.202c0.019,-0.054 0.048,-0.094 0.087,-0.121c0.039,-0.027 0.089,-0.041 0.148,-0.041c0.058,0 0.105,0.012 0.141,0.037c0.035,0.025 0.061,0.062 0.078,0.113c0.016,0.051 0.024,0.115 0.024,0.193c0,0.083 -0.009,0.152 -0.028,0.207c-0.019,0.055 -0.047,0.097 -0.085,0.125c-0.039,0.027 -0.087,0.041 -0.144,0.041Zm0.003,-0.064c0.039,0 0.07,-0.011 0.095,-0.033c0.025,-0.022 0.043,-0.055 0.055,-0.099c0.012,-0.045 0.018,-0.101 0.019,-0.169c0.001,-0.071 -0.005,-0.127 -0.017,-0.168c-0.012,-0.042 -0.03,-0.072 -0.054,-0.091c-0.024,-0.019 -0.054,-0.028 -0.09,-0.028c-0.04,0 -0.073,0.011 -0.099,0.032c-0.026,0.022 -0.045,0.055 -0.057,0.099c-0.013,0.043 -0.019,0.098 -0.019,0.165c0,0.067 0.006,0.121 0.018,0.164c0.012,0.043 0.03,0.075 0.055,0.096c0.025,0.021 0.056,0.032 0.094,0.032Z" style="fill:#ffd800;fill-rule:nonzero;"/></g><g transform="matrix(20.7703,0,0,20.7703,331.255,244.996)"><path d="M0.278,-0.044l-0.018,-0.022l0.134,0.021l0,0.045l-0.339,-0l0,-0.045l0.159,-0.02l-0.018,0.021l0,-0.585l0.022,0.002l-0.174,0.101l-0.027,-0.051l0.194,-0.124l0.067,0l0,0.657Z" style="fill:#ffd800;fill-rule:nonzero;"/></g><g transform="matrix(20.7703,0,0,20.7703,343.842,244.996)"><path d="M0.316,0.009c-0.057,0 -0.103,-0.013 -0.14,-0.039c-0.038,-0.026 -0.065,-0.065 -0.082,-0.117c-0.018,-0.052 -0.027,-0.117 -0.027,-0.196c0,-0.081 0.009,-0.149 0.028,-0.202c0.019,-0.054 0.048,-0.094 0.087,-0.121c0.039,-0.027 0.089,-0.041 0.148,-0.041c0.058,0 0.105,0.012 0.141,0.037c0.035,0.025 0.061,0.062 0.078,0.113c0.016,0.051 0.024,0.115 0.024,0.193c0,0.083 -0.009,0.152 -0.028,0.207c-0.019,0.055 -0.047,0.097 -0.085,0.125c-0.039,0.027 -0.087,0.041 -0.144,0.041Zm0.003,-0.064c0.039,0 0.07,-0.011 0.095,-0.033c0.025,-0.022 0.043,-0.055 0.055,-0.099c0.012,-0.045 0.018,-0.101 0.019,-0.169c0.001,-0.071 -0.005,-0.127 -0.017,-0.168c-0.012,-0.042 -0.03,-0.072 -0.054,-0.091c-0.024,-0.019 -0.054,-0.028 -0.09,-0.028c-0.04,0 -0.073,0.011 -0.099,0.032c-0.026,0.022 -0.045,0.055 -0.057,0.099c-0.013,0.043 -0.019,0.098 -0.019,0.165c0,0.067 0.006,0.121 0.018,0.164c0.012,0.043 0.03,0.075 0.055,0.096c0.025,0.021 0.056,0.032 0.094,0.032Z" style="fill:#ffd800;fill-rule:nonzero;"/></g><g transform="matrix(20.7703,0,0,20.7703,357.093,244.996)"><path d="M0.278,-0.044l-0.018,-0.022l0.134,0.021l0,0.045l-0.339,-0l0,-0.045l0.159,-0.02l-0.018,0.021l0,-0.585l0.022,0.002l-0.174,0.101l-0.027,-0.051l0.194,-0.124l0.067,0l0,0.657Z" style="fill:#ffd800;fill-rule:nonzero;"/></g><g transform="matrix(20.7703,0,0,20.7703,365.526,244.996)"><path d="M0.278,-0.044l-0.018,-0.022l0.134,0.021l0,0.045l-0.339,-0l0,-0.045l0.159,-0.02l-0.018,0.021l0,-0.585l0.022,0.002l-0.174,0.101l-0.027,-0.051l0.194,-0.124l0.067,0l0,0.657Z" style="fill:#ffd800;fill-rule:nonzero;"/></g><g transform="matrix(20.7703,0,0,20.7703,373.959,244.996)"><path d="M0.316,0.009c-0.057,0 -0.103,-0.013 -0.14,-0.039c-0.038,-0.026 -0.065,-0.065 -0.082,-0.117c-0.018,-0.052 -0.027,-0.117 -0.027,-0.196c0,-0.081 0.009,-0.149 0.028,-0.202c0.019,-0.054 0.048,-0.094 0.087,-0.121c0.039,-0.027 0.089,-0.041 0.148,-0.041c0.058,0 0.105,0.012 0.141,0.037c0.035,0.025 0.061,0.062 0.078,0.113c0.016,0.051 0.024,0.115 0.024,0.193c0,0.083 -0.009,0.152 -0.028,0.207c-0.019,0.055 -0.047,0.097 -0.085,0.125c-0.039,0.027 -0.087,0.041 -0.144,0.041Zm0.003,-0.064c0.039,0 0.07,-0.011 0.095,-0.033c0.025,-0.022 0.043,-0.055 0.055,-0.099c0.012,-0.045 0.018,-0.101 0.019,-0.169c0.001,-0.071 -0.005,-0.127 -0.017,-0.168c-0.012,-0.042 -0.03,-0.072 -0.054,-0.091c-0.024,-0.019 -0.054,-0.028 -0.09,-0.028c-0.04,0 -0.073,0.011 -0.099,0.032c-0.026,0.022 -0.045,0.055 -0.057,0.099c-0.013,0.043 -0.019,0.098 -0.019,0.165c0,0.067 0.006,0.121 0.018,0.164c0.012,0.043 0.03,0.075 0.055,0.096c0.025,0.021 0.056,0.032 0.094,0.032Z" style="fill:#ffd800;fill-rule:nonzero;"/></g><g transform="matrix(20.7703,0,0,20.7703,387.272,244.996)"><path d="M0.316,0.009c-0.057,0 -0.103,-0.013 -0.14,-0.039c-0.038,-0.026 -0.065,-0.065 -0.082,-0.117c-0.018,-0.052 -0.027,-0.117 -0.027,-0.196c0,-0.081 0.009,-0.149 0.028,-0.202c0.019,-0.054 0.048,-0.094 0.087,-0.121c0.039,-0.027 0.089,-0.041 0.148,-0.041c0.058,0 0.105,0.012 0.141,0.037c0.035,0.025 0.061,0.062 0.078,0.113c0.016,0.051 0.024,0.115 0.024,0.193c0,0.083 -0.009,0.152 -0.028,0.207c-0.019,0.055 -0.047,0.097 -0.085,0.125c-0.039,0.027 -0.087,0.041 -0.144,0.041Zm0.003,-0.064c0.039,0 0.07,-0.011 0.095,-0.033c0.025,-0.022 0.043,-0.055 0.055,-0.099c0.012,-0.045 0.018,-0.101 0.019,-0.169c0.001,-0.071 -0.005,-0.127 -0.017,-0.168c-0.012,-0.042 -0.03,-0.072 -0.054,-0.091c-0.024,-0.019 -0.054,-0.028 -0.09,-0.028c-0.04,0 -0.073,0.011 -0.099,0.032c-0.026,0.022 -0.045,0.055 -0.057,0.099c-0.013,0.043 -0.019,0.098 -0.019,0.165c0,0.067 0.006,0.121 0.018,0.164c0.012,0.043 0.03,0.075 0.055,0.096c0.025,0.021 0.056,0.032 0.094,0.032Z" style="fill:#ffd800;fill-rule:nonzero;"/></g><g transform="matrix(20.7703,0,0,20.7703,400.586,244.996)"><path d="M0.316,0.009c-0.057,0 -0.103,-0.013 -0.14,-0.039c-0.038,-0.026 -0.065,-0.065 -0.082,-0.117c-0.018,-0.052 -0.027,-0.117 -0.027,-0.196c0,-0.081 0.009,-0.149 0.028,-0.202c0.019,-0.054 0.048,-0.094 0.087,-0.121c0.039,-0.027 0.089,-0.041 0.148,-0.041c0.058,0 0.105,0.012 0.141,0.037c0.035,0.025 0.061,0.062 0.078,0.113c0.016,0.051 0.024,0.115 0.024,0.193c0,0.083 -0.009,0.152 -0.028,0.207c-0.019,0.055 -0.047,0.097 -0.085,0.125c-0.039,0.027 -0.087,0.041 -0.144,0.041Zm0.003,-0.064c0.039,0 0.07,-0.011 0.095,-0.033c0.025,-0.022 0.043,-0.055 0.055,-0.099c0.012,-0.045 0.018,-0.101 0.019,-0.169c0.001,-0.071 -0.005,-0.127 -0.017,-0.168c-0.012,-0.042 -0.03,-0.072 -0.054,-0.091c-0.024,-0.019 -0.054,-0.028 -0.09,-0.028c-0.04,0 -0.073,0.011 -0.099,0.032c-0.026,0.022 -0.045,0.055 -0.057,0.099c-0.013,0.043 -0.019,0.098 -0.019,0.165c0,0.067 0.006,0.121 0.018,0.164c0.012,0.043 0.03,0.075 0.055,0.096c0.025,0.021 0.056,0.032 0.094,0.032Z" style="fill:#ffd800;fill-rule:nonzero;"/></g><g transform="matrix(20.7703,0,0,20.7703,413.838,244.996)"><path d="M0.278,-0.044l-0.018,-0.022l0.134,0.021l0,0.045l-0.339,-0l0,-0.045l0.159,-0.02l-0.018,0.021l0,-0.585l0.022,0.002l-0.174,0.101l-0.027,-0.051l0.194,-0.124l0.067,0l0,0.657Z" style="fill:#ffd800;fill-rule:nonzero;"/></g><g transform="matrix(20.7703,0,0,20.7703,422.27,244.996)"><path d="M0.316,0.009c-0.057,0 -0.103,-0.013 -0.14,-0.039c-0.038,-0.026 -0.065,-0.065 -0.082,-0.117c-0.018,-0.052 -0.027,-0.117 -0.027,-0.196c0,-0.081 0.009,-0.149 0.028,-0.202c0.019,-0.054 0.048,-0.094 0.087,-0.121c0.039,-0.027 0.089,-0.041 0.148,-0.041c0.058,0 0.105,0.012 0.141,0.037c0.035,0.025 0.061,0.062 0.078,0.113c0.016,0.051 0.024,0.115 0.024,0.193c0,0.083 -0.009,0.152 -0.028,0.207c-0.019,0.055 -0.047,0.097 -0.085,0.125c-0.039,0.027 -0.087,0.041 -0.144,0.041Zm0.003,-0.064c0.039,0 0.07,-0.011 0.095,-0.033c0.025,-0.022 0.043,-0.055 0.055,-0.099c0.012,-0.045 0.018,-0.101 0.019,-0.169c0.001,-0.071 -0.005,-0.127 -0.017,-0.168c-0.012,-0.042 -0.03,-0.072 -0.054,-0.091c-0.024,-0.019 -0.054,-0.028 -0.09,-0.028c-0.04,0 -0.073,0.011 -0.099,0.032c-0.026,0.022 -0.045,0.055 -0.057,0.099c-0.013,0.043 -0.019,0.098 -0.019,0.165c0,0.067 0.006,0.121 0.018,0.164c0.012,0.043 0.03,0.075 0.055,0.096c0.025,0.021 0.056,0.032 0.094,0.032Z" style="fill:#ffd800;fill-rule:nonzero;"/></g><g transform="matrix(56.375,0,0,56.375,94.9154,301.371)"><path d="M0.049,-0l0,-0.043l0.099,-0.021l-0.013,0.018l0,-0.604l0.017,0.019l-0.103,-0.019l-0,-0.043l0.171,-0.005l0.117,0c0.075,0 0.132,0.016 0.171,0.047c0.039,0.031 0.058,0.077 0.058,0.136c0,0.055 -0.017,0.099 -0.052,0.134c-0.034,0.035 -0.086,0.056 -0.156,0.063l-0.001,-0.01c0.026,0.003 0.047,0.009 0.064,0.018c0.016,0.009 0.03,0.02 0.041,0.035c0.011,0.016 0.022,0.034 0.033,0.056l0.084,0.17l-0.025,-0.017l0.084,0.023l0,0.043l-0.123,0l-0.092,-0.197c-0.013,-0.029 -0.025,-0.051 -0.036,-0.067c-0.012,-0.015 -0.026,-0.026 -0.043,-0.033c-0.017,-0.007 -0.042,-0.01 -0.073,-0.01l-0.069,0.001l0.015,-0.014l0,0.274l-0.013,-0.018l0.116,0.021l0,0.043l-0.271,0Zm0.168,-0.344l-0.015,-0.022l0.095,0c0.059,0 0.105,-0.012 0.137,-0.036c0.032,-0.025 0.048,-0.061 0.048,-0.108c0,-0.041 -0.013,-0.073 -0.039,-0.094c-0.026,-0.022 -0.065,-0.033 -0.116,-0.033l-0.125,0l0.015,-0.015l0,0.308Z" style="fill:#333;fill-rule:nonzero;"/></g><g transform="matrix(56.375,0,0,56.375,129.755,301.371)"><path d="M0.294,-0.537c0.073,0 0.131,0.023 0.173,0.069c0.041,0.046 0.062,0.111 0.062,0.195c0,0.057 -0.01,0.106 -0.03,0.149c-0.021,0.042 -0.05,0.075 -0.087,0.098c-0.037,0.023 -0.082,0.035 -0.135,0.035c-0.072,0 -0.128,-0.022 -0.169,-0.067c-0.041,-0.045 -0.061,-0.11 -0.061,-0.195c0,-0.059 0.01,-0.109 0.03,-0.152c0.019,-0.042 0.048,-0.075 0.085,-0.098c0.037,-0.023 0.081,-0.034 0.132,-0.034Zm-0.004,0.059c-0.051,0 -0.091,0.019 -0.118,0.058c-0.027,0.039 -0.041,0.093 -0.041,0.163c0,0.069 0.013,0.12 0.039,0.155c0.026,0.035 0.063,0.052 0.112,0.052c0.035,-0 0.065,-0.009 0.09,-0.026c0.024,-0.018 0.042,-0.043 0.055,-0.076c0.012,-0.033 0.018,-0.072 0.018,-0.117c0,-0.068 -0.013,-0.12 -0.04,-0.155c-0.027,-0.036 -0.066,-0.054 -0.115,-0.054Z" style="fill:#333;fill-rule:nonzero;"/></g><g transform="matrix(56.375,0,0,56.375,161.156,301.371)"><path d="M0.25,0.009c-0.024,0 -0.049,-0.002 -0.076,-0.005c-0.027,-0.003 -0.056,-0.008 -0.086,-0.015l0,-0.714l0.016,0.023l-0.094,-0.02l0,-0.043l0.158,-0.007l0,0.329l-0.011,-0.012c0.028,-0.027 0.057,-0.047 0.087,-0.061c0.03,-0.014 0.06,-0.021 0.09,-0.021c0.037,0 0.071,0.01 0.101,0.031c0.029,0.021 0.053,0.051 0.07,0.09c0.017,0.039 0.026,0.088 0.026,0.145c0,0.043 -0.005,0.082 -0.016,0.117c-0.011,0.035 -0.028,0.064 -0.051,0.088c-0.023,0.024 -0.052,0.043 -0.087,0.056c-0.035,0.013 -0.078,0.019 -0.127,0.019Zm0.015,-0.059c0.059,0 0.105,-0.018 0.136,-0.055c0.031,-0.037 0.047,-0.09 0.047,-0.16c0,-0.044 -0.006,-0.082 -0.018,-0.113c-0.013,-0.031 -0.03,-0.055 -0.051,-0.073c-0.021,-0.017 -0.046,-0.025 -0.073,-0.025c-0.023,0 -0.047,0.006 -0.072,0.019c-0.025,0.012 -0.051,0.031 -0.076,0.056l0.01,-0.029l0,0.386l-0.011,-0.022c0.041,0.011 0.077,0.016 0.108,0.016Z" style="fill:#333;fill-rule:nonzero;"/></g><g transform="matrix(56.375,0,0,56.375,192.782,301.371)"><path d="M0.276,0.009c-0.045,0 -0.084,-0.01 -0.119,-0.031c-0.034,-0.02 -0.061,-0.05 -0.08,-0.089c-0.019,-0.039 -0.029,-0.087 -0.029,-0.144c-0,-0.058 0.01,-0.108 0.03,-0.15c0.02,-0.042 0.048,-0.075 0.085,-0.098c0.037,-0.023 0.08,-0.034 0.129,-0.034c0.047,0 0.085,0.01 0.115,0.029c0.031,0.02 0.053,0.047 0.069,0.082c0.014,0.035 0.022,0.074 0.022,0.119c-0,0.007 -0,0.015 -0.001,0.022c-0.001,0.007 -0.002,0.016 -0.003,0.027l-0.385,-0l-0,-0.057l0.315,-0l-0.009,0.006c0.001,-0.03 -0.003,-0.058 -0.011,-0.083c-0.008,-0.025 -0.022,-0.046 -0.041,-0.061c-0.019,-0.015 -0.045,-0.023 -0.077,-0.023c-0.034,-0 -0.063,0.009 -0.086,0.027c-0.023,0.018 -0.041,0.043 -0.052,0.074c-0.011,0.031 -0.017,0.068 -0.017,0.109c0,0.044 0.006,0.082 0.019,0.113c0.013,0.032 0.031,0.057 0.056,0.074c0.024,0.017 0.054,0.026 0.089,0.026c0.025,-0 0.052,-0.005 0.081,-0.015c0.029,-0.009 0.06,-0.024 0.091,-0.044l0.029,0.045c-0.037,0.025 -0.075,0.044 -0.112,0.057c-0.037,0.013 -0.073,0.019 -0.108,0.019Z" style="fill:#333;fill-rule:nonzero;"/></g><g transform="matrix(56.375,0,0,56.375,222.605,301.371)"><path d="M0.038,-0l0,-0.043l0.088,-0.019l-0.01,0.015l0,-0.431l0.011,0.015l-0.089,-0.019l-0,-0.043l0.14,-0.007l0.011,0.098l-0.011,-0.004c0.03,-0.031 0.059,-0.056 0.088,-0.073c0.029,-0.017 0.06,-0.026 0.094,-0.026c0.021,0 0.044,0.003 0.067,0.01l-0.006,0.146l-0.05,0l-0.012,-0.105l0.009,0.018c-0.005,-0.001 -0.01,-0.002 -0.015,-0.003c-0.005,-0.001 -0.011,-0.001 -0.016,-0.001c-0.027,-0 -0.052,0.008 -0.077,0.024c-0.025,0.016 -0.049,0.037 -0.072,0.062l0.008,-0.024l0,0.363l-0.012,-0.015l0.109,0.019l0,0.043l-0.255,-0Z" style="fill:#333;fill-rule:nonzero;"/></g><g transform="matrix(56.375,0,0,56.375,249.27,301.371)"><path d="M0.215,0.009c-0.035,0 -0.062,-0.011 -0.082,-0.033c-0.02,-0.021 -0.03,-0.054 -0.03,-0.098l0,-0.363l0.013,0.013l-0.103,-0l0,-0.044l0.104,-0.015l-0.014,0.016l0,-0.132l0.08,-0.013l0,0.145l-0.011,-0.013l0.157,0l-0.003,0.056l-0.154,0l0.011,-0.013l0,0.352c0,0.028 0.006,0.048 0.017,0.061c0.011,0.013 0.026,0.019 0.046,0.019c0.012,0 0.025,-0.002 0.039,-0.006c0.014,-0.004 0.029,-0.01 0.045,-0.017l0.017,0.046c-0.047,0.026 -0.091,0.039 -0.132,0.039Z" style="fill:#333;fill-rule:nonzero;"/></g><g transform="matrix(56.375,0,0,56.375,282.701,301.371)"><path d="M0.347,-0.698c0.045,0 0.086,0.007 0.124,0.021c0.037,0.013 0.07,0.034 0.098,0.062c0.028,0.027 0.05,0.062 0.066,0.104c0.016,0.043 0.024,0.093 0.024,0.151c0,0.079 -0.014,0.145 -0.042,0.198c-0.029,0.053 -0.068,0.094 -0.117,0.121c-0.049,0.027 -0.106,0.041 -0.169,0.041l-0.282,-0l0,-0.043l0.1,-0.021l-0.014,0.018l0,-0.604l0.014,0.019l-0.1,-0.019l0,-0.043l0.188,-0.005l0.11,-0Zm-0.013,0.637c0.031,-0 0.06,-0.005 0.088,-0.015c0.028,-0.01 0.053,-0.026 0.076,-0.049c0.023,-0.022 0.041,-0.052 0.054,-0.09c0.013,-0.037 0.019,-0.083 0.019,-0.138c0,-0.054 -0.006,-0.099 -0.019,-0.136c-0.013,-0.036 -0.03,-0.065 -0.051,-0.087c-0.021,-0.021 -0.045,-0.037 -0.072,-0.047c-0.027,-0.009 -0.055,-0.014 -0.084,-0.014l-0.143,0l0.015,-0.015l0,0.606l-0.015,-0.015l0.132,0Z" style="fill:#333;fill-rule:nonzero;"/></g><g transform="matrix(56.375,0,0,56.375,322.219,301.371)"><path d="M0.196,-0.051l-0.009,-0.011l0.087,0.019l0,0.043l-0.236,-0l-0,-0.043l0.087,-0.019l-0.009,0.011l0,-0.422l0.008,0.009l-0.086,-0.018l0,-0.043l0.158,-0.006l0,0.48Zm-0.046,-0.588c-0.015,0 -0.028,-0.005 -0.038,-0.015c-0.01,-0.01 -0.015,-0.024 -0.015,-0.041c0,-0.018 0.005,-0.032 0.015,-0.041c0.011,-0.01 0.024,-0.015 0.039,-0.015c0.016,0 0.029,0.005 0.039,0.014c0.01,0.009 0.015,0.023 0.015,0.042c-0,0.018 -0.005,0.032 -0.016,0.042c-0.011,0.009 -0.024,0.014 -0.039,0.014Z" style="fill:#333;fill-rule:nonzero;"/></g><g transform="matrix(56.375,0,0,56.375,338.286,301.371)"><path d="M0.449,-0.045l-0.013,-0.018l0.092,0.018l0,0.044l-0.14,0.006l-0.012,-0.096l0.007,0.003c-0.029,0.032 -0.061,0.056 -0.095,0.073c-0.034,0.016 -0.067,0.024 -0.099,0.024c-0.039,0 -0.071,-0.012 -0.098,-0.037c-0.027,-0.025 -0.04,-0.062 -0.04,-0.112c-0,-0.039 0.008,-0.07 0.025,-0.091c0.017,-0.02 0.04,-0.035 0.069,-0.044c0.029,-0.009 0.063,-0.013 0.102,-0.013l0.131,0l-0.009,0.01l0,-0.096c0,-0.037 -0.01,-0.063 -0.029,-0.079c-0.019,-0.015 -0.046,-0.023 -0.08,-0.023c-0.018,0 -0.037,0.002 -0.057,0.006c-0.021,0.003 -0.042,0.009 -0.065,0.017l0.012,-0.013l-0.01,0.091l-0.053,0l-0.008,-0.124c0.038,-0.013 0.074,-0.022 0.107,-0.028c0.033,-0.007 0.064,-0.01 0.092,-0.01c0.053,0 0.095,0.012 0.126,0.035c0.03,0.024 0.045,0.062 0.045,0.114l0,0.343Zm-0.317,-0.102c0,0.033 0.008,0.057 0.024,0.072c0.015,0.015 0.035,0.023 0.059,0.023c0.023,-0 0.049,-0.007 0.078,-0.022c0.028,-0.014 0.055,-0.033 0.082,-0.058l-0.006,0.021l0,-0.134l0.009,0.009l-0.119,-0c-0.047,-0 -0.08,0.007 -0.099,0.021c-0.019,0.015 -0.028,0.037 -0.028,0.068Z" style="fill:#333;fill-rule:nonzero;"/></g><g transform="matrix(56.375,0,0,56.375,369.123,301.371)"><path d="M0.25,0.009c-0.024,0 -0.049,-0.002 -0.076,-0.005c-0.027,-0.003 -0.056,-0.008 -0.086,-0.015l0,-0.714l0.016,0.023l-0.094,-0.02l0,-0.043l0.158,-0.007l0,0.329l-0.011,-0.012c0.028,-0.027 0.057,-0.047 0.087,-0.061c0.03,-0.014 0.06,-0.021 0.09,-0.021c0.037,0 0.071,0.01 0.101,0.031c0.029,0.021 0.053,0.051 0.07,0.09c0.017,0.039 0.026,0.088 0.026,0.145c0,0.043 -0.005,0.082 -0.016,0.117c-0.011,0.035 -0.028,0.064 -0.051,0.088c-0.023,0.024 -0.052,0.043 -0.087,0.056c-0.035,0.013 -0.078,0.019 -0.127,0.019Zm0.015,-0.059c0.059,0 0.105,-0.018 0.136,-0.055c0.031,-0.037 0.047,-0.09 0.047,-0.16c0,-0.044 -0.006,-0.082 -0.018,-0.113c-0.013,-0.031 -0.03,-0.055 -0.051,-0.073c-0.021,-0.017 -0.046,-0.025 -0.073,-0.025c-0.023,0 -0.047,0.006 -0.072,0.019c-0.025,0.012 -0.051,0.031 -0.076,0.056l0.01,-0.029l0,0.386l-0.011,-0.022c0.041,0.011 0.077,0.016 0.108,0.016Z" style="fill:#333;fill-rule:nonzero;"/></g></g></svg>