<?xml version="1.0" encoding="UTF-8" standalone="no"?><!DOCTYPE svg PUBLIC "-//W3C//DTD SVG 1.1//EN" "http://www.w3.org/Graphics/SVG/1.1/DTD/svg11.dtd"><svg width="100%" height="100%" viewBox="0 0 700 234" version="1.1" xmlns="http://www.w3.org/2000/svg" xmlns:xlink="http://www.w3.org/1999/xlink" xml:space="preserve" xmlns:serif="http://www.serif.com/" style="fill-rule:evenodd;clip-rule:evenodd;stroke-linejoin:round;stroke-miterlimit:2;"><g transform="matrix(2.20687,0,0,2.20687,-176.345,-242.804)"><g transform="matrix(31.3808,0,0,31.3808,83.2705,173.934)"><path d="M0.049,-0l0,-0.043l0.099,-0.021l-0.013,0.018l0,-0.604l0.017,0.019l-0.103,-0.019l-0,-0.043l0.171,-0.005l0.117,0c0.075,0 0.132,0.016 0.171,0.047c0.039,0.031 0.058,0.077 0.058,0.136c0,0.055 -0.017,0.099 -0.052,0.134c-0.034,0.035 -0.086,0.056 -0.156,0.063l-0.001,-0.01c0.026,0.003 0.047,0.009 0.064,0.018c0.016,0.009 0.03,0.02 0.041,0.035c0.011,0.016 0.022,0.034 0.033,0.056l0.084,0.17l-0.025,-0.017l0.084,0.023l0,0.043l-0.123,0l-0.092,-0.197c-0.013,-0.029 -0.025,-0.051 -0.036,-0.067c-0.012,-0.015 -0.026,-0.026 -0.043,-0.033c-0.017,-0.007 -0.042,-0.01 -0.073,-0.01l-0.069,0.001l0.015,-0.014l0,0.274l-0.013,-0.018l0.116,0.021l0,0.043l-0.271,0Zm0.168,-0.344l-0.015,-0.022l0.095,0c0.059,0 0.105,-0.012 0.137,-0.036c0.032,-0.025 0.048,-0.061 0.048,-0.108c0,-0.041 -0.013,-0.073 -0.039,-0.094c-0.026,-0.022 -0.065,-0.033 -0.116,-0.033l-0.125,0l0.015,-0.015l0,0.308Z" style="fill:#5e5e5e;fill-rule:nonzero;"/></g><g transform="matrix(31.3808,0,0,31.3808,103.229,173.934)"><path d="M0.294,-0.537c0.073,0 0.131,0.023 0.173,0.069c0.041,0.046 0.062,0.111 0.062,0.195c0,0.057 -0.01,0.106 -0.03,0.149c-0.021,0.042 -0.05,0.075 -0.087,0.098c-0.037,0.023 -0.082,0.035 -0.135,0.035c-0.072,0 -0.128,-0.022 -0.169,-0.067c-0.041,-0.045 -0.061,-0.11 -0.061,-0.195c0,-0.059 0.01,-0.109 0.03,-0.152c0.019,-0.042 0.048,-0.075 0.085,-0.098c0.037,-0.023 0.081,-0.034 0.132,-0.034Zm-0.004,0.059c-0.051,0 -0.091,0.019 -0.118,0.058c-0.027,0.039 -0.041,0.093 -0.041,0.163c0,0.069 0.013,0.12 0.039,0.155c0.026,0.035 0.063,0.052 0.112,0.052c0.035,-0 0.065,-0.009 0.09,-0.026c0.024,-0.018 0.042,-0.043 0.055,-0.076c0.012,-0.033 0.018,-0.072 0.018,-0.117c0,-0.068 -0.013,-0.12 -0.04,-0.155c-0.027,-0.036 -0.066,-0.054 -0.115,-0.054Z" style="fill:#5e5e5e;fill-rule:nonzero;"/></g><g transform="matrix(31.3808,0,0,31.3808,121.273,173.934)"><path d="M0.25,0.009c-0.024,0 -0.049,-0.002 -0.076,-0.005c-0.027,-0.003 -0.056,-0.008 -0.086,-0.015l0,-0.714l0.016,0.023l-0.094,-0.02l0,-0.043l0.158,-0.007l0,0.329l-0.011,-0.012c0.028,-0.027 0.057,-0.047 0.087,-0.061c0.03,-0.014 0.06,-0.021 0.09,-0.021c0.037,0 0.071,0.01 0.101,0.031c0.029,0.021 0.053,0.051 0.07,0.09c0.017,0.039 0.026,0.088 0.026,0.145c0,0.043 -0.005,0.082 -0.016,0.117c-0.011,0.035 -0.028,0.064 -0.051,0.088c-0.023,0.024 -0.052,0.043 -0.087,0.056c-0.035,0.013 -0.078,0.019 -0.127,0.019Zm0.015,-0.059c0.059,0 0.105,-0.018 0.136,-0.055c0.031,-0.037 0.047,-0.09 0.047,-0.16c0,-0.044 -0.006,-0.082 -0.018,-0.113c-0.013,-0.031 -0.03,-0.055 -0.051,-0.073c-0.021,-0.017 -0.046,-0.025 -0.073,-0.025c-0.023,0 -0.047,0.006 -0.072,0.019c-0.025,0.012 -0.051,0.031 -0.076,0.056l0.01,-0.029l0,0.386l-0.011,-0.022c0.041,0.011 0.077,0.016 0.108,0.016Z" style="fill:#5e5e5e;fill-rule:nonzero;"/></g><g transform="matrix(31.3808,0,0,31.3808,139.442,173.934)"><path d="M0.276,0.009c-0.045,0 -0.084,-0.01 -0.119,-0.031c-0.034,-0.02 -0.061,-0.05 -0.08,-0.089c-0.019,-0.039 -0.029,-0.087 -0.029,-0.144c-0,-0.058 0.01,-0.108 0.03,-0.15c0.02,-0.042 0.048,-0.075 0.085,-0.098c0.037,-0.023 0.08,-0.034 0.129,-0.034c0.047,0 0.085,0.01 0.115,0.029c0.031,0.02 0.053,0.047 0.069,0.082c0.014,0.035 0.022,0.074 0.022,0.119c-0,0.007 -0,0.015 -0.001,0.022c-0.001,0.007 -0.002,0.016 -0.003,0.027l-0.385,-0l-0,-0.057l0.315,-0l-0.009,0.006c0.001,-0.03 -0.003,-0.058 -0.011,-0.083c-0.008,-0.025 -0.022,-0.046 -0.041,-0.061c-0.019,-0.015 -0.045,-0.023 -0.077,-0.023c-0.034,-0 -0.063,0.009 -0.086,0.027c-0.023,0.018 -0.041,0.043 -0.052,0.074c-0.011,0.031 -0.017,0.068 -0.017,0.109c0,0.044 0.006,0.082 0.019,0.113c0.013,0.032 0.031,0.057 0.056,0.074c0.024,0.017 0.054,0.026 0.089,0.026c0.025,-0 0.052,-0.005 0.081,-0.015c0.029,-0.009 0.06,-0.024 0.091,-0.044l0.029,0.045c-0.037,0.025 -0.075,0.044 -0.112,0.057c-0.037,0.013 -0.073,0.019 -0.108,0.019Z" style="fill:#5e5e5e;fill-rule:nonzero;"/></g><g transform="matrix(31.3808,0,0,31.3808,156.608,173.934)"><path d="M0.038,-0l0,-0.043l0.088,-0.019l-0.01,0.015l0,-0.431l0.011,0.015l-0.089,-0.019l-0,-0.043l0.14,-0.007l0.011,0.098l-0.011,-0.004c0.03,-0.031 0.059,-0.056 0.088,-0.073c0.029,-0.017 0.06,-0.026 0.094,-0.026c0.021,0 0.044,0.003 0.067,0.01l-0.006,0.146l-0.05,0l-0.012,-0.105l0.009,0.018c-0.005,-0.001 -0.01,-0.002 -0.015,-0.003c-0.005,-0.001 -0.011,-0.001 -0.016,-0.001c-0.027,-0 -0.052,0.008 -0.077,0.024c-0.025,0.016 -0.049,0.037 -0.072,0.062l0.008,-0.024l0,0.363l-0.012,-0.015l0.109,0.019l0,0.043l-0.255,-0Z" style="fill:#5e5e5e;fill-rule:nonzero;"/></g><g transform="matrix(31.3808,0,0,31.3808,170.478,173.934)"><path d="M0.215,0.009c-0.035,0 -0.062,-0.011 -0.082,-0.033c-0.02,-0.021 -0.03,-0.054 -0.03,-0.098l0,-0.363l0.013,0.013l-0.103,-0l0,-0.044l0.104,-0.015l-0.014,0.016l0,-0.132l0.08,-0.013l0,0.145l-0.011,-0.013l0.157,0l-0.003,0.056l-0.154,0l0.011,-0.013l0,0.352c0,0.028 0.006,0.048 0.017,0.061c0.011,0.013 0.026,0.019 0.046,0.019c0.012,0 0.025,-0.002 0.039,-0.006c0.014,-0.004 0.029,-0.01 0.045,-0.017l0.017,0.046c-0.047,0.026 -0.091,0.039 -0.132,0.039Z" style="fill:#5e5e5e;fill-rule:nonzero;"/></g><g transform="matrix(31.3808,0,0,31.3808,188.114,173.934)"><path d="M0.347,-0.698c0.045,0 0.086,0.007 0.124,0.021c0.037,0.013 0.07,0.034 0.098,0.062c0.028,0.027 0.05,0.062 0.066,0.104c0.016,0.043 0.024,0.093 0.024,0.151c0,0.079 -0.014,0.145 -0.042,0.198c-0.029,0.053 -0.068,0.094 -0.117,0.121c-0.049,0.027 -0.106,0.041 -0.169,0.041l-0.282,-0l0,-0.043l0.1,-0.021l-0.014,0.018l0,-0.604l0.014,0.019l-0.1,-0.019l0,-0.043l0.188,-0.005l0.11,-0Zm-0.013,0.637c0.031,-0 0.06,-0.005 0.088,-0.015c0.028,-0.01 0.053,-0.026 0.076,-0.049c0.023,-0.022 0.041,-0.052 0.054,-0.09c0.013,-0.037 0.019,-0.083 0.019,-0.138c0,-0.054 -0.006,-0.099 -0.019,-0.136c-0.013,-0.036 -0.03,-0.065 -0.051,-0.087c-0.021,-0.021 -0.045,-0.037 -0.072,-0.047c-0.027,-0.009 -0.055,-0.014 -0.084,-0.014l-0.143,0l0.015,-0.015l0,0.606l-0.015,-0.015l0.132,0Z" style="fill:#5e5e5e;fill-rule:nonzero;"/></g><g transform="matrix(31.3808,0,0,31.3808,210.112,173.934)"><path d="M0.196,-0.051l-0.009,-0.011l0.087,0.019l0,0.043l-0.236,-0l-0,-0.043l0.087,-0.019l-0.009,0.011l0,-0.422l0.008,0.009l-0.086,-0.018l0,-0.043l0.158,-0.006l0,0.48Zm-0.046,-0.588c-0.015,0 -0.028,-0.005 -0.038,-0.015c-0.01,-0.01 -0.015,-0.024 -0.015,-0.041c0,-0.018 0.005,-0.032 0.015,-0.041c0.011,-0.01 0.024,-0.015 0.039,-0.015c0.016,0 0.029,0.005 0.039,0.014c0.01,0.009 0.015,0.023 0.015,0.042c-0,0.018 -0.005,0.032 -0.016,0.042c-0.011,0.009 -0.024,0.014 -0.039,0.014Z" style="fill:#5e5e5e;fill-rule:nonzero;"/></g><g transform="matrix(31.3808,0,0,31.3808,219.055,173.934)"><path d="M0.449,-0.045l-0.013,-0.018l0.092,0.018l0,0.044l-0.14,0.006l-0.012,-0.096l0.007,0.003c-0.029,0.032 -0.061,0.056 -0.095,0.073c-0.034,0.016 -0.067,0.024 -0.099,0.024c-0.039,0 -0.071,-0.012 -0.098,-0.037c-0.027,-0.025 -0.04,-0.062 -0.04,-0.112c-0,-0.039 0.008,-0.07 0.025,-0.091c0.017,-0.02 0.04,-0.035 0.069,-0.044c0.029,-0.009 0.063,-0.013 0.102,-0.013l0.131,0l-0.009,0.01l0,-0.096c0,-0.037 -0.01,-0.063 -0.029,-0.079c-0.019,-0.015 -0.046,-0.023 -0.08,-0.023c-0.018,0 -0.037,0.002 -0.057,0.006c-0.021,0.003 -0.042,0.009 -0.065,0.017l0.012,-0.013l-0.01,0.091l-0.053,0l-0.008,-0.124c0.038,-0.013 0.074,-0.022 0.107,-0.028c0.033,-0.007 0.064,-0.01 0.092,-0.01c0.053,0 0.095,0.012 0.126,0.035c0.03,0.024 0.045,0.062 0.045,0.114l0,0.343Zm-0.317,-0.102c0,0.033 0.008,0.057 0.024,0.072c0.015,0.015 0.035,0.023 0.059,0.023c0.023,-0 0.049,-0.007 0.078,-0.022c0.028,-0.014 0.055,-0.033 0.082,-0.058l-0.006,0.021l0,-0.134l0.009,0.009l-0.119,-0c-0.047,-0 -0.08,0.007 -0.099,0.021c-0.019,0.015 -0.028,0.037 -0.028,0.068Z" style="fill:#5e5e5e;fill-rule:nonzero;"/></g><g transform="matrix(31.3808,0,0,31.3808,236.221,173.934)"><path d="M0.25,0.009c-0.024,0 -0.049,-0.002 -0.076,-0.005c-0.027,-0.003 -0.056,-0.008 -0.086,-0.015l0,-0.714l0.016,0.023l-0.094,-0.02l0,-0.043l0.158,-0.007l0,0.329l-0.011,-0.012c0.028,-0.027 0.057,-0.047 0.087,-0.061c0.03,-0.014 0.06,-0.021 0.09,-0.021c0.037,0 0.071,0.01 0.101,0.031c0.029,0.021 0.053,0.051 0.07,0.09c0.017,0.039 0.026,0.088 0.026,0.145c0,0.043 -0.005,0.082 -0.016,0.117c-0.011,0.035 -0.028,0.064 -0.051,0.088c-0.023,0.024 -0.052,0.043 -0.087,0.056c-0.035,0.013 -0.078,0.019 -0.127,0.019Zm0.015,-0.059c0.059,0 0.105,-0.018 0.136,-0.055c0.031,-0.037 0.047,-0.09 0.047,-0.16c0,-0.044 -0.006,-0.082 -0.018,-0.113c-0.013,-0.031 -0.03,-0.055 -0.051,-0.073c-0.021,-0.017 -0.046,-0.025 -0.073,-0.025c-0.023,0 -0.047,0.006 -0.072,0.019c-0.025,0.012 -0.051,0.031 -0.076,0.056l0.01,-0.029l0,0.386l-0.011,-0.022c0.041,0.011 0.077,0.016 0.108,0.016Z" style="fill:#5e5e5e;fill-rule:nonzero;"/></g><g transform="matrix(31.3808,0,0,31.3808,260.666,173.934)"><rect x="0.133" y="-0.803" width="0.064" height="0.902" style="fill:#ffd800;fill-rule:nonzero;"/></g><g transform="matrix(31.3808,0,0,31.3808,277.298,173.934)"><path d="M0.525,-0.488c-0.001,0.03 -0.006,0.057 -0.016,0.082c-0.011,0.024 -0.026,0.045 -0.046,0.062c-0.02,0.017 -0.043,0.03 -0.07,0.038c0.015,0.005 0.029,0.015 0.04,0.03c0.011,0.016 0.021,0.033 0.028,0.051l0.051,0.135c0.009,0.022 0.016,0.037 0.022,0.047c0.006,0.01 0.012,0.018 0.02,0.024c-0.005,0.009 -0.013,0.015 -0.024,0.019c-0.01,0.004 -0.02,0.006 -0.028,0.006c-0.016,0 -0.027,-0.004 -0.034,-0.013c-0.008,-0.009 -0.015,-0.021 -0.021,-0.037l-0.057,-0.152c-0.01,-0.026 -0.023,-0.048 -0.038,-0.066c-0.015,-0.017 -0.039,-0.026 -0.073,-0.026l-0.135,0l-0,-0.063c0.015,-0.001 0.033,-0.001 0.052,-0.002c0.019,-0 0.038,-0.001 0.057,-0.001c0.019,0 0.037,0 0.053,0c0.037,0 0.065,-0.007 0.085,-0.02c0.02,-0.014 0.034,-0.031 0.041,-0.052c0.008,-0.02 0.012,-0.041 0.012,-0.062c-0,-0.022 -0.004,-0.043 -0.012,-0.063c-0.007,-0.021 -0.021,-0.038 -0.041,-0.051c-0.02,-0.013 -0.048,-0.02 -0.085,-0.02l-0.04,0c-0.016,0 -0.032,-0 -0.048,-0c-0.016,-0 -0.03,-0.001 -0.042,-0.001l-0,0.623c-0.006,0.001 -0.012,0.002 -0.019,0.002c-0.007,0.001 -0.014,0.001 -0.021,0.001c-0.007,0 -0.013,-0 -0.02,-0.001c-0.007,-0 -0.012,-0.001 -0.017,-0.002l-0,-0.677l0.006,-0.006c0.035,-0.001 0.069,-0.001 0.103,-0.002c0.034,-0.001 0.067,-0.001 0.099,-0.001c0.046,0 0.086,0.008 0.118,0.024c0.032,0.016 0.057,0.039 0.074,0.068c0.017,0.03 0.025,0.065 0.025,0.106Z" style="fill:#333;fill-rule:nonzero;"/></g><g transform="matrix(31.3808,0,0,31.3808,294.652,173.934)"><path d="M0.097,-0.223l0,-0.057l0.273,0.001l0,-0.014c-0,-0.028 -0.004,-0.053 -0.012,-0.076c-0.008,-0.023 -0.02,-0.042 -0.037,-0.056c-0.018,-0.014 -0.041,-0.02 -0.069,-0.02c-0.04,-0 -0.07,0.016 -0.091,0.05c-0.02,0.033 -0.031,0.077 -0.031,0.132l0.001,0.024c-0.001,0.036 0.003,0.068 0.011,0.096c0.008,0.028 0.021,0.05 0.04,0.066c0.019,0.016 0.044,0.024 0.077,0.024c0.027,0 0.052,-0.004 0.076,-0.012c0.024,-0.008 0.047,-0.018 0.069,-0.03c0.007,0.006 0.013,0.014 0.018,0.024c0.005,0.01 0.008,0.019 0.009,0.027c-0.023,0.016 -0.05,0.03 -0.083,0.04c-0.032,0.011 -0.065,0.016 -0.099,0.016c-0.037,0 -0.069,-0.007 -0.094,-0.021c-0.025,-0.014 -0.046,-0.033 -0.061,-0.057c-0.015,-0.024 -0.026,-0.051 -0.032,-0.082c-0.007,-0.031 -0.01,-0.064 -0.01,-0.098c-0,-0.049 0.008,-0.093 0.023,-0.132c0.016,-0.039 0.038,-0.069 0.068,-0.091c0.03,-0.022 0.066,-0.033 0.109,-0.033c0.043,-0 0.078,0.009 0.107,0.028c0.029,0.019 0.05,0.045 0.065,0.078c0.014,0.032 0.021,0.068 0.021,0.107c0,0.013 -0,0.024 -0.001,0.034c-0.001,0.009 -0.002,0.02 -0.004,0.033l-0.343,-0Z" style="fill:#333;fill-rule:nonzero;"/></g><g transform="matrix(31.3808,0,0,31.3808,309.856,173.934)"><path d="M0.037,-0.038c0.001,-0.009 0.004,-0.018 0.01,-0.029c0.005,-0.011 0.012,-0.019 0.019,-0.025c0.02,0.012 0.043,0.022 0.067,0.032c0.024,0.009 0.049,0.014 0.075,0.014c0.032,-0 0.057,-0.007 0.076,-0.022c0.019,-0.014 0.029,-0.033 0.03,-0.055c-0,-0.017 -0.006,-0.033 -0.019,-0.047c-0.013,-0.014 -0.031,-0.026 -0.054,-0.035l-0.059,-0.022c-0.023,-0.008 -0.044,-0.018 -0.063,-0.03c-0.019,-0.012 -0.035,-0.027 -0.047,-0.045c-0.012,-0.018 -0.018,-0.039 -0.018,-0.063c0,-0.029 0.008,-0.053 0.023,-0.074c0.015,-0.02 0.036,-0.036 0.061,-0.047c0.025,-0.011 0.053,-0.017 0.084,-0.017c0.025,0 0.051,0.004 0.079,0.01c0.028,0.006 0.052,0.014 0.072,0.023c0,0.007 -0,0.014 -0.002,0.02c-0.002,0.007 -0.005,0.014 -0.008,0.021c-0.003,0.006 -0.008,0.012 -0.013,0.017c-0.015,-0.007 -0.035,-0.014 -0.058,-0.021c-0.023,-0.006 -0.047,-0.01 -0.072,-0.01c-0.026,0 -0.048,0.007 -0.064,0.02c-0.017,0.013 -0.025,0.031 -0.025,0.053c-0,0.017 0.006,0.031 0.019,0.042c0.012,0.011 0.031,0.022 0.055,0.031l0.062,0.023c0.037,0.014 0.067,0.032 0.09,0.055c0.023,0.024 0.034,0.054 0.034,0.09c0,0.044 -0.017,0.079 -0.052,0.104c-0.035,0.025 -0.079,0.037 -0.133,0.037c-0.035,-0 -0.067,-0.005 -0.095,-0.015c-0.029,-0.01 -0.053,-0.022 -0.074,-0.035Z" style="fill:#333;fill-rule:nonzero;"/></g><g transform="matrix(31.3808,0,0,31.3808,322.926,173.934)"><path d="M0.097,-0.223l0,-0.057l0.273,0.001l0,-0.014c-0,-0.028 -0.004,-0.053 -0.012,-0.076c-0.008,-0.023 -0.02,-0.042 -0.037,-0.056c-0.018,-0.014 -0.041,-0.02 -0.069,-0.02c-0.04,-0 -0.07,0.016 -0.091,0.05c-0.02,0.033 -0.031,0.077 -0.031,0.132l0.001,0.024c-0.001,0.036 0.003,0.068 0.011,0.096c0.008,0.028 0.021,0.05 0.04,0.066c0.019,0.016 0.044,0.024 0.077,0.024c0.027,0 0.052,-0.004 0.076,-0.012c0.024,-0.008 0.047,-0.018 0.069,-0.03c0.007,0.006 0.013,0.014 0.018,0.024c0.005,0.01 0.008,0.019 0.009,0.027c-0.023,0.016 -0.05,0.03 -0.083,0.04c-0.032,0.011 -0.065,0.016 -0.099,0.016c-0.037,0 -0.069,-0.007 -0.094,-0.021c-0.025,-0.014 -0.046,-0.033 -0.061,-0.057c-0.015,-0.024 -0.026,-0.051 -0.032,-0.082c-0.007,-0.031 -0.01,-0.064 -0.01,-0.098c-0,-0.049 0.008,-0.093 0.023,-0.132c0.016,-0.039 0.038,-0.069 0.068,-0.091c0.03,-0.022 0.066,-0.033 0.109,-0.033c0.043,-0 0.078,0.009 0.107,0.028c0.029,0.019 0.05,0.045 0.065,0.078c0.014,0.032 0.021,0.068 0.021,0.107c0,0.013 -0,0.024 -0.001,0.034c-0.001,0.009 -0.002,0.02 -0.004,0.033l-0.343,-0Z" style="fill:#333;fill-rule:nonzero;"/></g><g transform="matrix(31.3808,0,0,31.3808,338.13,173.934)"><path d="M0.051,-0.133c0,-0.037 0.008,-0.067 0.023,-0.091c0.016,-0.024 0.038,-0.041 0.066,-0.053c0.028,-0.011 0.061,-0.017 0.099,-0.017c0.02,0 0.043,0.001 0.066,0.003c0.024,0.002 0.047,0.006 0.068,0.012l0,0.053c-0.019,-0.005 -0.041,-0.008 -0.065,-0.01c-0.023,-0.002 -0.046,-0.002 -0.069,-0.002c-0.035,-0 -0.062,0.008 -0.083,0.026c-0.02,0.017 -0.03,0.042 -0.03,0.074c-0,0.024 0.007,0.045 0.02,0.062c0.014,0.017 0.033,0.025 0.059,0.025c0.027,0 0.055,-0.009 0.086,-0.027c0.031,-0.019 0.056,-0.047 0.077,-0.084l0.013,0.068c-0.011,0.013 -0.026,0.028 -0.044,0.045c-0.018,0.016 -0.039,0.031 -0.063,0.043c-0.024,0.012 -0.05,0.018 -0.079,0.018c-0.032,0 -0.059,-0.007 -0.081,-0.021c-0.021,-0.015 -0.037,-0.033 -0.047,-0.055c-0.011,-0.022 -0.016,-0.045 -0.016,-0.069Zm0.397,0.102c-0.002,0.007 -0.007,0.014 -0.013,0.021c-0.006,0.008 -0.013,0.013 -0.021,0.017c-0.016,-0.006 -0.029,-0.014 -0.039,-0.025c-0.009,-0.011 -0.016,-0.023 -0.02,-0.038c-0.004,-0.014 -0.007,-0.03 -0.007,-0.047l0,-0.232c0,-0.037 -0.008,-0.064 -0.025,-0.079c-0.016,-0.016 -0.038,-0.023 -0.066,-0.023c-0.026,-0 -0.054,0.004 -0.081,0.012c-0.028,0.008 -0.055,0.017 -0.081,0.029c-0.007,-0.006 -0.013,-0.014 -0.018,-0.025c-0.005,-0.012 -0.008,-0.023 -0.008,-0.033c0.017,-0.007 0.036,-0.015 0.057,-0.022c0.022,-0.007 0.044,-0.013 0.068,-0.017c0.024,-0.005 0.048,-0.007 0.071,-0.007c0.035,-0 0.064,0.006 0.087,0.019c0.022,0.012 0.04,0.031 0.051,0.056c0.011,0.024 0.017,0.055 0.017,0.091l-0,0.206c-0,0.021 0.002,0.039 0.005,0.055c0.003,0.016 0.011,0.03 0.023,0.042Z" style="fill:#333;fill-rule:nonzero;"/></g><g transform="matrix(31.3808,0,0,31.3808,353.365,173.934)"><path d="M0.345,-0.494c0,0.012 -0.001,0.024 -0.004,0.037c-0.002,0.013 -0.007,0.024 -0.014,0.034c-0.005,-0.001 -0.011,-0.001 -0.017,-0.001c-0.006,-0 -0.011,-0 -0.017,-0c-0.022,-0 -0.041,0.004 -0.057,0.014c-0.016,0.009 -0.03,0.021 -0.04,0.036c-0.011,0.014 -0.02,0.029 -0.026,0.044c-0.007,0.016 -0.011,0.03 -0.014,0.043l-0.014,-0.016c0,-0.022 0.003,-0.044 0.009,-0.066c0.006,-0.023 0.015,-0.044 0.027,-0.063c0.013,-0.02 0.029,-0.035 0.049,-0.047c0.02,-0.012 0.044,-0.018 0.072,-0.018c0.005,-0 0.012,-0 0.02,0.001c0.008,0 0.016,0.001 0.026,0.003Zm-0.284,0.037c0.002,-0.007 0.007,-0.015 0.012,-0.023c0.007,-0.008 0.013,-0.014 0.02,-0.018c0.026,0.009 0.046,0.025 0.058,0.049c0.012,0.024 0.019,0.053 0.02,0.087l0,0.361c-0.005,0.001 -0.01,0.002 -0.016,0.002c-0.007,0.001 -0.013,0.001 -0.02,0.001c-0.008,0 -0.015,-0 -0.021,-0.001c-0.006,-0 -0.012,-0.001 -0.016,-0.002l-0,-0.354c-0,-0.025 -0.004,-0.046 -0.012,-0.063c-0.008,-0.017 -0.016,-0.03 -0.025,-0.039Z" style="fill:#333;fill-rule:nonzero;"/></g><g transform="matrix(31.3808,0,0,31.3808,363.188,173.934)"><path d="M0.356,-0.317c0.001,-0.019 -0.002,-0.039 -0.007,-0.058c-0.006,-0.02 -0.017,-0.036 -0.032,-0.049c-0.016,-0.013 -0.038,-0.02 -0.066,-0.02c-0.036,0.001 -0.066,0.018 -0.088,0.052c-0.022,0.034 -0.033,0.084 -0.033,0.151c-0,0.064 0.011,0.111 0.034,0.142c0.022,0.031 0.053,0.047 0.093,0.047c0.025,-0 0.048,-0.006 0.069,-0.017c0.021,-0.012 0.041,-0.025 0.059,-0.038c0.007,0.004 0.015,0.011 0.022,0.02c0.007,0.009 0.012,0.018 0.014,0.027c-0.024,0.022 -0.049,0.039 -0.078,0.052c-0.029,0.013 -0.061,0.02 -0.096,0.02c-0.036,0 -0.066,-0.007 -0.091,-0.021c-0.025,-0.015 -0.045,-0.034 -0.06,-0.058c-0.015,-0.025 -0.026,-0.052 -0.033,-0.082c-0.007,-0.03 -0.011,-0.061 -0.011,-0.092c0,-0.045 0.006,-0.084 0.017,-0.117c0.011,-0.033 0.026,-0.061 0.045,-0.082c0.019,-0.021 0.04,-0.037 0.064,-0.047c0.024,-0.01 0.049,-0.016 0.075,-0.016c0.032,0 0.059,0.005 0.081,0.015c0.022,0.01 0.04,0.022 0.053,0.037c0.014,0.015 0.024,0.03 0.03,0.046c0.006,0.017 0.01,0.032 0.009,0.045c0.001,0.013 -0.002,0.024 -0.007,0.033c-0.005,0.009 -0.016,0.014 -0.032,0.014c-0.005,-0 -0.011,-0.001 -0.016,-0.001c-0.005,-0.001 -0.01,-0.002 -0.016,-0.003Z" style="fill:#333;fill-rule:nonzero;"/></g><g transform="matrix(31.3808,0,0,31.3808,377.356,173.934)"><path d="M0.161,-0c-0.01,0.002 -0.022,0.003 -0.037,0.003c-0.014,0 -0.026,-0.001 -0.036,-0.003l0.001,-0.729l0.006,-0.006l0.026,0c0.017,0 0.028,0.004 0.033,0.013c0.005,0.008 0.007,0.021 0.007,0.037l0,0.685Zm0.301,-0.095c-0,0.016 0,0.032 0.002,0.046c0.001,0.015 0.004,0.028 0.009,0.039c-0.005,0.005 -0.012,0.009 -0.021,0.012c-0.009,0.003 -0.017,0.004 -0.025,0.004c-0.014,-0 -0.024,-0.004 -0.03,-0.012c-0.006,-0.008 -0.009,-0.02 -0.009,-0.037l-0,-0.276c-0,-0.04 -0.005,-0.068 -0.015,-0.086c-0.01,-0.018 -0.03,-0.027 -0.058,-0.027c-0.021,0 -0.042,0.005 -0.065,0.015c-0.023,0.009 -0.044,0.022 -0.063,0.038c-0.02,0.016 -0.035,0.033 -0.046,0.052l0,-0.078c0.022,-0.027 0.05,-0.049 0.085,-0.067c0.035,-0.018 0.07,-0.027 0.107,-0.027c0.031,0.001 0.056,0.008 0.075,0.022c0.019,0.014 0.033,0.033 0.041,0.056c0.008,0.024 0.013,0.05 0.013,0.078l-0,0.248Z" style="fill:#333;fill-rule:nonzero;"/></g></g></svg>