<?xml version="1.0" encoding="UTF-8" standalone="no"?><!DOCTYPE svg PUBLIC "-//W3C//DTD SVG 1.1//EN" "http://www.w3.org/Graphics/SVG/1.1/DTD/svg11.dtd"><svg width="100%" height="100%" viewBox="0 0 700 234" version="1.1" xmlns="http://www.w3.org/2000/svg" xmlns:xlink="http://www.w3.org/1999/xlink" xml:space="preserve" xmlns:serif="http://www.serif.com/" style="fill-rule:evenodd;clip-rule:evenodd;stroke-linejoin:round;stroke-miterlimit:2;"><g transform="matrix(2.20687,0,0,2.20687,-176.345,-242.804)"><g transform="matrix(31.3808,0,0,31.3808,83.2705,173.934)"><path d="M0.049,-0l0,-0.043l0.099,-0.021l-0.013,0.018l0,-0.604l0.017,0.019l-0.103,-0.019l-0,-0.043l0.171,-0.005l0.117,0c0.075,0 0.132,0.016 0.171,0.047c0.039,0.031 0.058,0.077 0.058,0.136c0,0.055 -0.017,0.099 -0.052,0.134c-0.034,0.035 -0.086,0.056 -0.156,0.063l-0.001,-0.01c0.026,0.003 0.047,0.009 0.064,0.018c0.016,0.009 0.03,0.02 0.041,0.035c0.011,0.016 0.022,0.034 0.033,0.056l0.084,0.17l-0.025,-0.017l0.084,0.023l0,0.043l-0.123,0l-0.092,-0.197c-0.013,-0.029 -0.025,-0.051 -0.036,-0.067c-0.012,-0.015 -0.026,-0.026 -0.043,-0.033c-0.017,-0.007 -0.042,-0.01 -0.073,-0.01l-0.069,0.001l0.015,-0.014l0,0.274l-0.013,-0.018l0.116,0.021l0,0.043l-0.271,0Zm0.168,-0.344l-0.015,-0.022l0.095,0c0.059,0 0.105,-0.012 0.137,-0.036c0.032,-0.025 0.048,-0.061 0.048,-0.108c0,-0.041 -0.013,-0.073 -0.039,-0.094c-0.026,-0.022 -0.065,-0.033 -0.116,-0.033l-0.125,0l0.015,-0.015l0,0.308Z" style="fill:#5e5e5e;fill-rule:nonzero;"/></g><g transform="matrix(31.3808,0,0,31.3808,103.229,173.934)"><path d="M0.294,-0.537c0.073,0 0.131,0.023 0.173,0.069c0.041,0.046 0.062,0.111 0.062,0.195c0,0.057 -0.01,0.106 -0.03,0.149c-0.021,0.042 -0.05,0.075 -0.087,0.098c-0.037,0.023 -0.082,0.035 -0.135,0.035c-0.072,0 -0.128,-0.022 -0.169,-0.067c-0.041,-0.045 -0.061,-0.11 -0.061,-0.195c0,-0.059 0.01,-0.109 0.03,-0.152c0.019,-0.042 0.048,-0.075 0.085,-0.098c0.037,-0.023 0.081,-0.034 0.132,-0.034Zm-0.004,0.059c-0.051,0 -0.091,0.019 -0.118,0.058c-0.027,0.039 -0.041,0.093 -0.041,0.163c0,0.069 0.013,0.12 0.039,0.155c0.026,0.035 0.063,0.052 0.112,0.052c0.035,-0 0.065,-0.009 0.09,-0.026c0.024,-0.018 0.042,-0.043 0.055,-0.076c0.012,-0.033 0.018,-0.072 0.018,-0.117c0,-0.068 -0.013,-0.12 -0.04,-0.155c-0.027,-0.036 -0.066,-0.054 -0.115,-0.054Z" style="fill:#5e5e5e;fill-rule:nonzero;"/></g><g transform="matrix(31.3808,0,0,31.3808,121.273,173.934)"><path d="M0.25,0.009c-0.024,0 -0.049,-0.002 -0.076,-0.005c-0.027,-0.003 -0.056,-0.008 -0.086,-0.015l0,-0.714l0.016,0.023l-0.094,-0.02l0,-0.043l0.158,-0.007l0,0.329l-0.011,-0.012c0.028,-0.027 0.057,-0.047 0.087,-0.061c0.03,-0.014 0.06,-0.021 0.09,-0.021c0.037,0 0.071,0.01 0.101,0.031c0.029,0.021 0.053,0.051 0.07,0.09c0.017,0.039 0.026,0.088 0.026,0.145c0,0.043 -0.005,0.082 -0.016,0.117c-0.011,0.035 -0.028,0.064 -0.051,0.088c-0.023,0.024 -0.052,0.043 -0.087,0.056c-0.035,0.013 -0.078,0.019 -0.127,0.019Zm0.015,-0.059c0.059,0 0.105,-0.018 0.136,-0.055c0.031,-0.037 0.047,-0.09 0.047,-0.16c0,-0.044 -0.006,-0.082 -0.018,-0.113c-0.013,-0.031 -0.03,-0.055 -0.051,-0.073c-0.021,-0.017 -0.046,-0.025 -0.073,-0.025c-0.023,0 -0.047,0.006 -0.072,0.019c-0.025,0.012 -0.051,0.031 -0.076,0.056l0.01,-0.029l0,0.386l-0.011,-0.022c0.041,0.011 0.077,0.016 0.108,0.016Z" style="fill:#5e5e5e;fill-rule:nonzero;"/></g><g transform="matrix(31.3808,0,0,31.3808,139.442,173.934)"><path d="M0.276,0.009c-0.045,0 -0.084,-0.01 -0.119,-0.031c-0.034,-0.02 -0.061,-0.05 -0.08,-0.089c-0.019,-0.039 -0.029,-0.087 -0.029,-0.144c-0,-0.058 0.01,-0.108 0.03,-0.15c0.02,-0.042 0.048,-0.075 0.085,-0.098c0.037,-0.023 0.08,-0.034 0.129,-0.034c0.047,0 0.085,0.01 0.115,0.029c0.031,0.02 0.053,0.047 0.069,0.082c0.014,0.035 0.022,0.074 0.022,0.119c-0,0.007 -0,0.015 -0.001,0.022c-0.001,0.007 -0.002,0.016 -0.003,0.027l-0.385,-0l-0,-0.057l0.315,-0l-0.009,0.006c0.001,-0.03 -0.003,-0.058 -0.011,-0.083c-0.008,-0.025 -0.022,-0.046 -0.041,-0.061c-0.019,-0.015 -0.045,-0.023 -0.077,-0.023c-0.034,-0 -0.063,0.009 -0.086,0.027c-0.023,0.018 -0.041,0.043 -0.052,0.074c-0.011,0.031 -0.017,0.068 -0.017,0.109c0,0.044 0.006,0.082 0.019,0.113c0.013,0.032 0.031,0.057 0.056,0.074c0.024,0.017 0.054,0.026 0.089,0.026c0.025,-0 0.052,-0.005 0.081,-0.015c0.029,-0.009 0.06,-0.024 0.091,-0.044l0.029,0.045c-0.037,0.025 -0.075,0.044 -0.112,0.057c-0.037,0.013 -0.073,0.019 -0.108,0.019Z" style="fill:#5e5e5e;fill-rule:nonzero;"/></g><g transform="matrix(31.3808,0,0,31.3808,156.608,173.934)"><path d="M0.038,-0l0,-0.043l0.088,-0.019l-0.01,0.015l0,-0.431l0.011,0.015l-0.089,-0.019l-0,-0.043l0.14,-0.007l0.011,0.098l-0.011,-0.004c0.03,-0.031 0.059,-0.056 0.088,-0.073c0.029,-0.017 0.06,-0.026 0.094,-0.026c0.021,0 0.044,0.003 0.067,0.01l-0.006,0.146l-0.05,0l-0.012,-0.105l0.009,0.018c-0.005,-0.001 -0.01,-0.002 -0.015,-0.003c-0.005,-0.001 -0.011,-0.001 -0.016,-0.001c-0.027,-0 -0.052,0.008 -0.077,0.024c-0.025,0.016 -0.049,0.037 -0.072,0.062l0.008,-0.024l0,0.363l-0.012,-0.015l0.109,0.019l0,0.043l-0.255,-0Z" style="fill:#5e5e5e;fill-rule:nonzero;"/></g><g transform="matrix(31.3808,0,0,31.3808,170.478,173.934)"><path d="M0.215,0.009c-0.035,0 -0.062,-0.011 -0.082,-0.033c-0.02,-0.021 -0.03,-0.054 -0.03,-0.098l0,-0.363l0.013,0.013l-0.103,-0l0,-0.044l0.104,-0.015l-0.014,0.016l0,-0.132l0.08,-0.013l0,0.145l-0.011,-0.013l0.157,0l-0.003,0.056l-0.154,0l0.011,-0.013l0,0.352c0,0.028 0.006,0.048 0.017,0.061c0.011,0.013 0.026,0.019 0.046,0.019c0.012,0 0.025,-0.002 0.039,-0.006c0.014,-0.004 0.029,-0.01 0.045,-0.017l0.017,0.046c-0.047,0.026 -0.091,0.039 -0.132,0.039Z" style="fill:#5e5e5e;fill-rule:nonzero;"/></g><g transform="matrix(31.3808,0,0,31.3808,188.114,173.934)"><path d="M0.347,-0.698c0.045,0 0.086,0.007 0.124,0.021c0.037,0.013 0.07,0.034 0.098,0.062c0.028,0.027 0.05,0.062 0.066,0.104c0.016,0.043 0.024,0.093 0.024,0.151c0,0.079 -0.014,0.145 -0.042,0.198c-0.029,0.053 -0.068,0.094 -0.117,0.121c-0.049,0.027 -0.106,0.041 -0.169,0.041l-0.282,-0l0,-0.043l0.1,-0.021l-0.014,0.018l0,-0.604l0.014,0.019l-0.1,-0.019l0,-0.043l0.188,-0.005l0.11,-0Zm-0.013,0.637c0.031,-0 0.06,-0.005 0.088,-0.015c0.028,-0.01 0.053,-0.026 0.076,-0.049c0.023,-0.022 0.041,-0.052 0.054,-0.09c0.013,-0.037 0.019,-0.083 0.019,-0.138c0,-0.054 -0.006,-0.099 -0.019,-0.136c-0.013,-0.036 -0.03,-0.065 -0.051,-0.087c-0.021,-0.021 -0.045,-0.037 -0.072,-0.047c-0.027,-0.009 -0.055,-0.014 -0.084,-0.014l-0.143,0l0.015,-0.015l0,0.606l-0.015,-0.015l0.132,0Z" style="fill:#5e5e5e;fill-rule:nonzero;"/></g><g transform="matrix(31.3808,0,0,31.3808,210.112,173.934)"><path d="M0.196,-0.051l-0.009,-0.011l0.087,0.019l0,0.043l-0.236,-0l-0,-0.043l0.087,-0.019l-0.009,0.011l0,-0.422l0.008,0.009l-0.086,-0.018l0,-0.043l0.158,-0.006l0,0.48Zm-0.046,-0.588c-0.015,0 -0.028,-0.005 -0.038,-0.015c-0.01,-0.01 -0.015,-0.024 -0.015,-0.041c0,-0.018 0.005,-0.032 0.015,-0.041c0.011,-0.01 0.024,-0.015 0.039,-0.015c0.016,0 0.029,0.005 0.039,0.014c0.01,0.009 0.015,0.023 0.015,0.042c-0,0.018 -0.005,0.032 -0.016,0.042c-0.011,0.009 -0.024,0.014 -0.039,0.014Z" style="fill:#5e5e5e;fill-rule:nonzero;"/></g><g transform="matrix(31.3808,0,0,31.3808,219.055,173.934)"><path d="M0.449,-0.045l-0.013,-0.018l0.092,0.018l0,0.044l-0.14,0.006l-0.012,-0.096l0.007,0.003c-0.029,0.032 -0.061,0.056 -0.095,0.073c-0.034,0.016 -0.067,0.024 -0.099,0.024c-0.039,0 -0.071,-0.012 -0.098,-0.037c-0.027,-0.025 -0.04,-0.062 -0.04,-0.112c-0,-0.039 0.008,-0.07 0.025,-0.091c0.017,-0.02 0.04,-0.035 0.069,-0.044c0.029,-0.009 0.063,-0.013 0.102,-0.013l0.131,0l-0.009,0.01l0,-0.096c0,-0.037 -0.01,-0.063 -0.029,-0.079c-0.019,-0.015 -0.046,-0.023 -0.08,-0.023c-0.018,0 -0.037,0.002 -0.057,0.006c-0.021,0.003 -0.042,0.009 -0.065,0.017l0.012,-0.013l-0.01,0.091l-0.053,0l-0.008,-0.124c0.038,-0.013 0.074,-0.022 0.107,-0.028c0.033,-0.007 0.064,-0.01 0.092,-0.01c0.053,0 0.095,0.012 0.126,0.035c0.03,0.024 0.045,0.062 0.045,0.114l0,0.343Zm-0.317,-0.102c0,0.033 0.008,0.057 0.024,0.072c0.015,0.015 0.035,0.023 0.059,0.023c0.023,-0 0.049,-0.007 0.078,-0.022c0.028,-0.014 0.055,-0.033 0.082,-0.058l-0.006,0.021l0,-0.134l0.009,0.009l-0.119,-0c-0.047,-0 -0.08,0.007 -0.099,0.021c-0.019,0.015 -0.028,0.037 -0.028,0.068Z" style="fill:#5e5e5e;fill-rule:nonzero;"/></g><g transform="matrix(31.3808,0,0,31.3808,236.221,173.934)"><path d="M0.25,0.009c-0.024,0 -0.049,-0.002 -0.076,-0.005c-0.027,-0.003 -0.056,-0.008 -0.086,-0.015l0,-0.714l0.016,0.023l-0.094,-0.02l0,-0.043l0.158,-0.007l0,0.329l-0.011,-0.012c0.028,-0.027 0.057,-0.047 0.087,-0.061c0.03,-0.014 0.06,-0.021 0.09,-0.021c0.037,0 0.071,0.01 0.101,0.031c0.029,0.021 0.053,0.051 0.07,0.09c0.017,0.039 0.026,0.088 0.026,0.145c0,0.043 -0.005,0.082 -0.016,0.117c-0.011,0.035 -0.028,0.064 -0.051,0.088c-0.023,0.024 -0.052,0.043 -0.087,0.056c-0.035,0.013 -0.078,0.019 -0.127,0.019Zm0.015,-0.059c0.059,0 0.105,-0.018 0.136,-0.055c0.031,-0.037 0.047,-0.09 0.047,-0.16c0,-0.044 -0.006,-0.082 -0.018,-0.113c-0.013,-0.031 -0.03,-0.055 -0.051,-0.073c-0.021,-0.017 -0.046,-0.025 -0.073,-0.025c-0.023,0 -0.047,0.006 -0.072,0.019c-0.025,0.012 -0.051,0.031 -0.076,0.056l0.01,-0.029l0,0.386l-0.011,-0.022c0.041,0.011 0.077,0.016 0.108,0.016Z" style="fill:#5e5e5e;fill-rule:nonzero;"/></g><g transform="matrix(31.3808,0,0,31.3808,260.666,173.934)"><rect x="0.133" y="-0.803" width="0.064" height="0.902" style="fill:#ffd800;fill-rule:nonzero;"/></g><g transform="matrix(31.3808,0,0,31.3808,277.298,173.934)"><path d="M0.039,-0.68c0.008,-0.003 0.016,-0.006 0.023,-0.007c0.007,-0.001 0.014,-0.002 0.021,-0.002c0.012,0 0.021,0.003 0.027,0.009c0.006,0.006 0.01,0.017 0.013,0.032l0.074,0.384c0.003,0.014 0.006,0.034 0.011,0.057c0.004,0.024 0.008,0.049 0.012,0.073c0.005,0.024 0.008,0.045 0.011,0.061c0.001,0.005 0.002,0.008 0.003,0.009c0.001,0.001 0.003,0.001 0.005,0.001l0.124,-0.605c0.008,-0.001 0.016,-0.002 0.026,-0.003c0.01,-0 0.019,-0.001 0.025,-0.001c0.007,0 0.016,0.001 0.026,0.001c0.011,0.001 0.019,0.002 0.024,0.003l0.113,0.594c0.001,0.005 0.002,0.008 0.003,0.009c0.001,0.001 0.003,0.002 0.005,0.002c0.004,-0.022 0.008,-0.045 0.013,-0.071c0.005,-0.026 0.009,-0.05 0.014,-0.074c0.005,-0.023 0.009,-0.042 0.012,-0.057l0.088,-0.418c0.005,-0.001 0.011,-0.002 0.017,-0.002c0.006,-0.001 0.012,-0.001 0.018,-0.001c0.006,-0 0.012,0 0.019,0.001c0.006,0.001 0.012,0.002 0.018,0.003l0.004,0.005l-0.149,0.676c-0.01,0.002 -0.022,0.003 -0.036,0.004c-0.015,0.001 -0.027,0.001 -0.036,0.001c-0.012,-0 -0.022,-0.002 -0.031,-0.007c-0.008,-0.005 -0.014,-0.016 -0.017,-0.034l-0.056,-0.296c-0.005,-0.029 -0.012,-0.067 -0.021,-0.113c-0.009,-0.046 -0.017,-0.093 -0.026,-0.142l-0.006,-0c-0.009,0.049 -0.018,0.096 -0.027,0.142c-0.009,0.045 -0.016,0.083 -0.023,0.113l-0.071,0.333c-0.009,0.001 -0.021,0.002 -0.034,0.003c-0.013,0.001 -0.024,0.001 -0.033,0.001c-0.012,-0 -0.023,-0.003 -0.033,-0.008c-0.01,-0.005 -0.017,-0.016 -0.021,-0.034l-0.13,-0.642Z" style="fill:#333;fill-rule:nonzero;"/></g><g transform="matrix(31.3808,0,0,31.3808,301.995,173.934)"><path d="M0.345,-0.494c0,0.012 -0.001,0.024 -0.004,0.037c-0.002,0.013 -0.007,0.024 -0.014,0.034c-0.005,-0.001 -0.011,-0.001 -0.017,-0.001c-0.006,-0 -0.011,-0 -0.017,-0c-0.022,-0 -0.041,0.004 -0.057,0.014c-0.016,0.009 -0.03,0.021 -0.04,0.036c-0.011,0.014 -0.02,0.029 -0.026,0.044c-0.007,0.016 -0.011,0.03 -0.014,0.043l-0.014,-0.016c0,-0.022 0.003,-0.044 0.009,-0.066c0.006,-0.023 0.015,-0.044 0.027,-0.063c0.013,-0.02 0.029,-0.035 0.049,-0.047c0.02,-0.012 0.044,-0.018 0.072,-0.018c0.005,-0 0.012,-0 0.02,0.001c0.008,0 0.016,0.001 0.026,0.003Zm-0.284,0.037c0.002,-0.007 0.007,-0.015 0.012,-0.023c0.007,-0.008 0.013,-0.014 0.02,-0.018c0.026,0.009 0.046,0.025 0.058,0.049c0.012,0.024 0.019,0.053 0.02,0.087l0,0.361c-0.005,0.001 -0.01,0.002 -0.016,0.002c-0.007,0.001 -0.013,0.001 -0.02,0.001c-0.008,0 -0.015,-0 -0.021,-0.001c-0.006,-0 -0.012,-0.001 -0.016,-0.002l-0,-0.354c-0,-0.025 -0.004,-0.046 -0.012,-0.063c-0.008,-0.017 -0.016,-0.03 -0.025,-0.039Z" style="fill:#333;fill-rule:nonzero;"/></g><g transform="matrix(31.3808,0,0,31.3808,312.994,173.934)"><path d="M0.17,-0c-0.005,0.001 -0.011,0.002 -0.017,0.002c-0.006,0.001 -0.013,0.001 -0.02,0.001c-0.007,0 -0.014,-0 -0.02,-0.001c-0.006,-0 -0.012,-0.001 -0.017,-0.002l0,-0.386c0,-0.018 -0.003,-0.031 -0.009,-0.038c-0.006,-0.007 -0.016,-0.011 -0.032,-0.011l-0.01,0.001c-0.002,-0.01 -0.003,-0.019 -0.003,-0.028c0,-0.005 0.001,-0.009 0.001,-0.013c0.001,-0.004 0.001,-0.009 0.002,-0.014c0.012,-0.002 0.022,-0.003 0.03,-0.004c0.009,-0 0.016,-0 0.021,-0l0.008,-0c0.021,-0 0.037,0.006 0.049,0.019c0.011,0.012 0.017,0.03 0.017,0.052l-0,0.422Zm-0.105,-0.62c-0,-0.015 0.002,-0.027 0.007,-0.037c0.005,-0.003 0.012,-0.006 0.02,-0.008c0.009,-0.002 0.017,-0.002 0.025,-0.002c0.007,-0 0.015,0 0.024,0.002c0.01,0.002 0.016,0.005 0.02,0.008c0.003,0.004 0.005,0.01 0.006,0.017c0.001,0.007 0.002,0.014 0.002,0.02c-0,0.015 -0.003,0.027 -0.008,0.037c-0.003,0.003 -0.01,0.006 -0.019,0.008c-0.01,0.002 -0.018,0.003 -0.025,0.003c-0.008,-0 -0.016,-0.001 -0.025,-0.003c-0.008,-0.002 -0.015,-0.005 -0.02,-0.008c-0.005,-0.01 -0.007,-0.022 -0.007,-0.037Z" style="fill:#333;fill-rule:nonzero;"/></g><g transform="matrix(31.3808,0,0,31.3808,320.321,173.934)"><path d="M0.106,-0.595c-0.001,-0.016 0.002,-0.029 0.007,-0.038c0.005,-0.008 0.015,-0.012 0.032,-0.012l0.027,-0l0.006,0.006l-0,0.541c0,0.011 0.003,0.021 0.009,0.029c0.006,0.008 0.016,0.011 0.03,0.011l0.076,0c0.004,0.011 0.006,0.025 0.006,0.04l0,0.008c0,0.003 0,0.006 -0.001,0.008c-0.015,0.002 -0.031,0.003 -0.048,0.004c-0.016,0.001 -0.034,0.002 -0.053,0.002c-0.028,-0 -0.05,-0.007 -0.067,-0.021c-0.016,-0.014 -0.025,-0.035 -0.025,-0.062l0,-0.516Zm0.199,0.103c0.003,0.011 0.004,0.02 0.004,0.029c-0,0.01 -0.001,0.019 -0.004,0.028l-0.151,-0.002l-0.118,0.002c-0.002,-0.009 -0.003,-0.018 -0.003,-0.028c-0,-0.009 0.001,-0.018 0.003,-0.029l0.118,0.003l0.151,-0.003Z" style="fill:#333;fill-rule:nonzero;"/></g><g transform="matrix(31.3808,0,0,31.3808,330.677,173.934)"><path d="M0.17,-0c-0.005,0.001 -0.011,0.002 -0.017,0.002c-0.006,0.001 -0.013,0.001 -0.02,0.001c-0.007,0 -0.014,-0 -0.02,-0.001c-0.006,-0 -0.012,-0.001 -0.017,-0.002l0,-0.386c0,-0.018 -0.003,-0.031 -0.009,-0.038c-0.006,-0.007 -0.016,-0.011 -0.032,-0.011l-0.01,0.001c-0.002,-0.01 -0.003,-0.019 -0.003,-0.028c0,-0.005 0.001,-0.009 0.001,-0.013c0.001,-0.004 0.001,-0.009 0.002,-0.014c0.012,-0.002 0.022,-0.003 0.03,-0.004c0.009,-0 0.016,-0 0.021,-0l0.008,-0c0.021,-0 0.037,0.006 0.049,0.019c0.011,0.012 0.017,0.03 0.017,0.052l-0,0.422Zm-0.105,-0.62c-0,-0.015 0.002,-0.027 0.007,-0.037c0.005,-0.003 0.012,-0.006 0.02,-0.008c0.009,-0.002 0.017,-0.002 0.025,-0.002c0.007,-0 0.015,0 0.024,0.002c0.01,0.002 0.016,0.005 0.02,0.008c0.003,0.004 0.005,0.01 0.006,0.017c0.001,0.007 0.002,0.014 0.002,0.02c-0,0.015 -0.003,0.027 -0.008,0.037c-0.003,0.003 -0.01,0.006 -0.019,0.008c-0.01,0.002 -0.018,0.003 -0.025,0.003c-0.008,-0 -0.016,-0.001 -0.025,-0.003c-0.008,-0.002 -0.015,-0.005 -0.02,-0.008c-0.005,-0.01 -0.007,-0.022 -0.007,-0.037Z" style="fill:#333;fill-rule:nonzero;"/></g><g transform="matrix(31.3808,0,0,31.3808,338.161,173.934)"><path d="M0.122,-0.494c0.017,0.001 0.028,0.005 0.033,0.014c0.005,0.009 0.007,0.021 0.007,0.038l0,0.442c-0.005,0.001 -0.01,0.002 -0.017,0.002c-0.006,0.001 -0.013,0.001 -0.02,0.001c-0.007,0 -0.014,-0 -0.02,-0.001c-0.006,-0 -0.012,-0.001 -0.017,-0.002l0,-0.488l0.006,-0.006l0.028,0.001Zm0.341,0.398c-0.001,0.016 0,0.032 0.002,0.046c0.001,0.015 0.004,0.028 0.009,0.039c-0.005,0.005 -0.012,0.009 -0.021,0.012c-0.008,0.003 -0.017,0.004 -0.026,0.004c-0.014,-0 -0.023,-0.004 -0.029,-0.012c-0.006,-0.008 -0.009,-0.02 -0.009,-0.037l0,-0.277c0,-0.039 -0.005,-0.068 -0.015,-0.086c-0.01,-0.018 -0.029,-0.026 -0.058,-0.026c-0.021,-0 -0.042,0.004 -0.065,0.014c-0.023,0.009 -0.044,0.022 -0.063,0.038c-0.02,0.016 -0.035,0.033 -0.046,0.053l0,-0.079c0.022,-0.027 0.05,-0.049 0.085,-0.067c0.035,-0.018 0.07,-0.026 0.107,-0.026c0.032,-0 0.057,0.007 0.076,0.021c0.018,0.014 0.032,0.033 0.04,0.057c0.008,0.023 0.013,0.049 0.013,0.078l-0.001,0.248Z" style="fill:#333;fill-rule:nonzero;"/></g><g transform="matrix(31.3808,0,0,31.3808,354.699,173.934)"><path d="M0.465,-0.459c-0.013,0.012 -0.021,0.027 -0.024,0.046c-0.003,0.019 -0.005,0.04 -0.005,0.061l0.001,0.314c-0.001,0.034 -0.002,0.063 -0.005,0.087c-0.003,0.024 -0.008,0.045 -0.015,0.063c-0.007,0.017 -0.015,0.033 -0.026,0.046c-0.014,0.017 -0.033,0.031 -0.059,0.044c-0.026,0.012 -0.058,0.018 -0.094,0.018c-0.031,0 -0.061,-0.003 -0.09,-0.01c-0.029,-0.007 -0.054,-0.015 -0.075,-0.024c0,-0.01 0.002,-0.02 0.006,-0.031c0.004,-0.011 0.009,-0.02 0.015,-0.027c0.02,0.01 0.044,0.018 0.07,0.024c0.026,0.005 0.049,0.008 0.067,0.008c0.039,0 0.068,-0.007 0.087,-0.022c0.019,-0.015 0.032,-0.035 0.038,-0.059c0.006,-0.024 0.01,-0.051 0.01,-0.079l-0.001,-0.376c0.001,-0.027 0.005,-0.051 0.013,-0.074c0.009,-0.022 0.026,-0.038 0.052,-0.047c0.008,0.003 0.015,0.009 0.021,0.016c0.006,0.008 0.011,0.015 0.014,0.022Zm-0.414,0.214c0,-0.06 0.01,-0.109 0.029,-0.147c0.019,-0.038 0.042,-0.066 0.071,-0.084c0.028,-0.018 0.057,-0.027 0.086,-0.027c0.027,0 0.051,0.004 0.071,0.012c0.021,0.008 0.039,0.018 0.054,0.03c0.016,0.012 0.03,0.025 0.043,0.038l-0.008,0.067c-0.017,-0.022 -0.039,-0.042 -0.066,-0.058c-0.027,-0.016 -0.055,-0.025 -0.084,-0.025c-0.022,0 -0.042,0.007 -0.06,0.021c-0.018,0.013 -0.033,0.034 -0.044,0.062c-0.011,0.029 -0.017,0.066 -0.017,0.112c0,0.067 0.011,0.115 0.032,0.144c0.021,0.029 0.045,0.043 0.074,0.043c0.03,0 0.059,-0.009 0.087,-0.029c0.027,-0.019 0.048,-0.043 0.063,-0.07l0.012,0.064c-0.009,0.013 -0.021,0.027 -0.037,0.043c-0.017,0.016 -0.036,0.029 -0.059,0.04c-0.023,0.011 -0.048,0.017 -0.076,0.017c-0.038,-0 -0.07,-0.01 -0.095,-0.031c-0.025,-0.021 -0.044,-0.051 -0.057,-0.089c-0.013,-0.038 -0.019,-0.082 -0.019,-0.133Z" style="fill:#333;fill-rule:nonzero;"/></g></g></svg>