<?xml version="1.0" encoding="UTF-8" standalone="no"?><!DOCTYPE svg PUBLIC "-//W3C//DTD SVG 1.1//EN" "http://www.w3.org/Graphics/SVG/1.1/DTD/svg11.dtd"><svg width="100%" height="100%" viewBox="0 0 700 234" version="1.1" xmlns="http://www.w3.org/2000/svg" xmlns:xlink="http://www.w3.org/1999/xlink" xml:space="preserve" xmlns:serif="http://www.serif.com/" style="fill-rule:evenodd;clip-rule:evenodd;stroke-linejoin:round;stroke-miterlimit:2;"><path d="M10.815,141.044l-0,-2.978l6.856,-1.454l-0.901,1.246l0,-41.829l1.178,1.316l-7.133,-1.316l-0,-2.978l11.842,-0.346l8.103,0c5.217,0 9.164,1.085 11.842,3.255c2.678,2.17 4.017,5.309 4.017,9.418c-0,3.786 -1.189,6.88 -3.567,9.28c-2.378,2.401 -5.99,3.855 -10.838,4.363l-0.069,-0.692c1.8,0.184 3.266,0.588 4.397,1.212c1.131,0.623 2.089,1.454 2.874,2.493c0.785,1.039 1.547,2.32 2.286,3.843l5.817,11.773l-1.731,-1.177l5.817,1.593l-0,2.978l-8.518,-0l-6.372,-13.643c-0.877,-1.985 -1.719,-3.52 -2.527,-4.605c-0.808,-1.085 -1.801,-1.859 -2.978,-2.32c-1.178,-0.462 -2.851,-0.693 -5.021,-0.693l-4.779,0.069l1.039,-0.969l0,18.975l-0.9,-1.246l8.033,1.454l0,2.978l-18.767,-0Zm11.634,-23.823l-1.039,-1.524l6.58,0c4.109,0 7.271,-0.842 9.487,-2.528c2.216,-1.685 3.324,-4.166 3.324,-7.444c0,-2.863 -0.9,-5.044 -2.7,-6.545c-1.801,-1.5 -4.479,-2.251 -8.034,-2.251l-8.657,0l1.039,-1.038l0,21.33Z" style="fill:#5e5e5e;fill-rule:nonzero;"/><path d="M71.827,103.855c5.078,-0 9.06,1.593 11.946,4.778c2.886,3.186 4.328,7.687 4.328,13.505c0,3.924 -0.704,7.352 -2.112,10.284c-1.408,2.932 -3.405,5.205 -5.99,6.821c-2.586,1.616 -5.702,2.424 -9.349,2.424c-4.987,0 -8.888,-1.558 -11.704,-4.674c-2.817,-3.117 -4.225,-7.607 -4.225,-13.47c0,-4.063 0.681,-7.56 2.043,-10.492c1.362,-2.932 3.324,-5.194 5.887,-6.787c2.562,-1.593 5.621,-2.389 9.176,-2.389Zm-0.277,4.086c-3.555,-0 -6.279,1.339 -8.172,4.016c-1.893,2.678 -2.839,6.441 -2.839,11.289c-0,4.755 0.9,8.333 2.7,10.734c1.801,2.401 4.386,3.601 7.757,3.601c2.447,0 4.513,-0.612 6.198,-1.835c1.685,-1.224 2.955,-2.966 3.809,-5.229c0.854,-2.262 1.281,-4.963 1.281,-8.102c0,-4.71 -0.935,-8.299 -2.805,-10.769c-1.869,-2.47 -4.513,-3.705 -7.929,-3.705Z" style="fill:#5e5e5e;fill-rule:nonzero;"/><path d="M108.6,141.667c-1.662,0 -3.428,-0.115 -5.298,-0.346c-1.869,-0.231 -3.843,-0.577 -5.921,-1.039l0,-49.447l1.108,1.593l-6.509,-1.385l-0,-2.978l10.942,-0.485l-0,22.785l-0.762,-0.831c1.939,-1.847 3.947,-3.255 6.025,-4.225c2.077,-0.969 4.155,-1.454 6.233,-1.454c2.585,-0 4.905,0.715 6.96,2.147c2.054,1.431 3.682,3.508 4.882,6.232c1.2,2.724 1.801,6.072 1.801,10.042c-0,3.001 -0.381,5.702 -1.143,8.103c-0.762,2.401 -1.928,4.432 -3.497,6.094c-1.57,1.662 -3.579,2.943 -6.025,3.844c-2.447,0.9 -5.379,1.35 -8.796,1.35Zm1.039,-4.086c4.109,0 7.249,-1.269 9.419,-3.809c2.17,-2.539 3.255,-6.233 3.255,-11.08c-0,-3.047 -0.428,-5.656 -1.282,-7.826c-0.854,-2.17 -2.02,-3.843 -3.497,-5.021c-1.477,-1.177 -3.163,-1.766 -5.055,-1.766c-1.616,0 -3.29,0.427 -5.021,1.281c-1.732,0.855 -3.475,2.159 -5.229,3.913l0.693,-2.008l-0,26.732l-0.762,-1.524c2.816,0.739 5.309,1.108 7.479,1.108Z" style="fill:#5e5e5e;fill-rule:nonzero;"/><path d="M150.499,141.667c-3.094,0 -5.829,-0.704 -8.207,-2.112c-2.378,-1.408 -4.236,-3.474 -5.575,-6.198c-1.339,-2.724 -2.008,-6.048 -2.008,-9.973c-0,-4.016 0.692,-7.479 2.077,-10.388c1.386,-2.908 3.348,-5.159 5.887,-6.752c2.539,-1.593 5.517,-2.389 8.934,-2.389c3.231,-0 5.898,0.681 7.998,2.043c2.101,1.362 3.671,3.243 4.71,5.644c1.038,2.401 1.558,5.148 1.558,8.241c-0,0.508 -0.023,1.016 -0.069,1.524c-0.047,0.507 -0.116,1.131 -0.208,1.869l-26.663,0l0,-3.947l21.815,0l-0.623,0.416c0.046,-2.078 -0.208,-3.994 -0.762,-5.748c-0.554,-1.755 -1.5,-3.163 -2.839,-4.225c-1.339,-1.062 -3.117,-1.593 -5.333,-1.593c-2.354,0 -4.34,0.624 -5.956,1.87c-1.616,1.247 -2.816,2.955 -3.601,5.125c-0.785,2.17 -1.177,4.686 -1.177,7.548c-0,3.048 0.438,5.668 1.316,7.861c0.877,2.193 2.158,3.889 3.843,5.09c1.685,1.2 3.751,1.8 6.198,1.8c1.709,0 3.578,-0.334 5.61,-1.004c2.031,-0.669 4.132,-1.696 6.302,-3.082l2.008,3.117c-2.585,1.754 -5.171,3.07 -7.756,3.947c-2.586,0.877 -5.079,1.316 -7.479,1.316Z" style="fill:#5e5e5e;fill-rule:nonzero;"/><path d="M171.898,141.044l-0,-2.978l6.094,-1.316l-0.692,1.039l-0,-29.848l0.761,1.039l-6.163,-1.316l-0,-2.978l9.695,-0.485l0.762,6.787l-0.762,-0.277c2.078,-2.17 4.109,-3.855 6.095,-5.056c1.985,-1.2 4.155,-1.8 6.509,-1.8c1.478,-0 3.024,0.231 4.64,0.692l-0.415,10.111l-3.463,0l-0.831,-7.271l0.623,1.246c-0.323,-0.092 -0.669,-0.161 -1.038,-0.207c-0.37,-0.047 -0.739,-0.07 -1.108,-0.07c-1.847,0 -3.636,0.554 -5.368,1.662c-1.731,1.108 -3.381,2.54 -4.951,4.294l0.554,-1.662l-0,25.139l-0.831,-1.039l7.548,1.316l0,2.978l-17.659,-0Z" style="fill:#5e5e5e;fill-rule:nonzero;"/><path d="M214.766,141.667c-2.401,0 -4.294,-0.75 -5.679,-2.251c-1.385,-1.5 -2.078,-3.774 -2.078,-6.821l0,-25.139l0.901,0.9l-7.134,0l0,-3.047l7.203,-1.039l-0.97,1.108l0,-9.141l5.541,-0.9l-0,10.041l-0.762,-0.9l10.873,0l-0.208,3.878l-10.665,0l0.762,-0.9l-0,24.377c-0,1.939 0.38,3.347 1.142,4.225c0.762,0.877 1.835,1.315 3.22,1.315c0.832,0 1.732,-0.138 2.701,-0.415c0.97,-0.277 2.009,-0.67 3.117,-1.177l1.177,3.185c-3.278,1.801 -6.325,2.701 -9.141,2.701Z" style="fill:#5e5e5e;fill-rule:nonzero;"/><path d="M262.827,92.705c3.094,0 5.945,0.473 8.553,1.42c2.609,0.946 4.883,2.377 6.822,4.293c1.939,1.916 3.462,4.34 4.57,7.272c1.108,2.932 1.662,6.406 1.662,10.423c0,5.448 -0.981,10.018 -2.943,13.712c-1.962,3.693 -4.651,6.487 -8.068,8.379c-3.416,1.893 -7.318,2.84 -11.704,2.84l-19.529,-0l-0,-2.978l6.925,-1.454l-0.969,1.246l-0,-41.829l0.969,1.316l-6.925,-1.316l-0,-2.978l13.02,-0.346l7.617,0Zm-0.9,44.114c2.124,0 4.155,-0.346 6.094,-1.038c1.94,-0.693 3.694,-1.813 5.264,-3.359c1.569,-1.547 2.804,-3.624 3.705,-6.233c0.9,-2.609 1.35,-5.806 1.35,-9.592c0,-3.739 -0.438,-6.867 -1.316,-9.383c-0.877,-2.517 -2.054,-4.525 -3.532,-6.025c-1.477,-1.501 -3.139,-2.586 -4.986,-3.255c-1.847,-0.67 -3.786,-1.005 -5.817,-1.005l-9.903,0l1.038,-1.038l0,41.967l-1.038,-1.039l9.141,0Z" style="fill:#5e5e5e;fill-rule:nonzero;"/><path d="M300.917,137.512l-0.624,-0.762l6.025,1.316l0,2.978l-16.343,-0l-0,-2.978l6.025,-1.316l-0.624,0.762l0,-29.225l0.554,0.623l-5.955,-1.246l-0,-2.978l10.942,-0.416l-0,33.242Zm-3.186,-40.721c-1.062,-0 -1.939,-0.346 -2.632,-1.039c-0.692,-0.692 -1.038,-1.639 -1.038,-2.839c-0,-1.247 0.357,-2.205 1.073,-2.874c0.716,-0.67 1.604,-1.004 2.666,-1.004c1.108,-0 2.009,0.323 2.701,0.969c0.693,0.647 1.039,1.616 1.039,2.909c0,1.246 -0.369,2.204 -1.108,2.874c-0.739,0.669 -1.639,1.004 -2.701,1.004Z" style="fill:#5e5e5e;fill-rule:nonzero;"/><path d="M338.175,137.927l-0.9,-1.246l6.371,1.246l0,3.048l-9.695,0.415l-0.831,-6.648l0.484,0.208c-2.031,2.216 -4.224,3.889 -6.579,5.02c-2.354,1.132 -4.64,1.697 -6.856,1.697c-2.678,0 -4.94,-0.854 -6.787,-2.562c-1.846,-1.709 -2.77,-4.294 -2.77,-7.757c0,-2.724 0.577,-4.813 1.732,-6.267c1.154,-1.454 2.747,-2.482 4.778,-3.082c2.031,-0.6 4.386,-0.9 7.064,-0.9l9.072,-0l-0.623,0.692l-0,-6.648c-0,-2.539 -0.67,-4.351 -2.009,-5.436c-1.339,-1.085 -3.185,-1.628 -5.54,-1.628c-1.246,0 -2.574,0.127 -3.982,0.381c-1.408,0.254 -2.897,0.658 -4.467,1.212l0.831,-0.9l-0.692,6.302l-3.671,-0l-0.554,-8.588c2.632,-0.877 5.102,-1.535 7.41,-1.973c2.309,-0.439 4.433,-0.658 6.372,-0.658c3.693,-0 6.59,0.819 8.691,2.458c2.101,1.639 3.151,4.259 3.151,7.861l0,23.753Zm-21.953,-7.063c-0,2.262 0.542,3.924 1.627,4.986c1.085,1.062 2.459,1.593 4.121,1.593c1.616,-0 3.405,-0.497 5.367,-1.489c1.962,-0.993 3.867,-2.343 5.713,-4.052l-0.415,1.455l-0,-9.28l0.623,0.623l-8.241,0c-3.278,0 -5.563,0.496 -6.856,1.489c-1.293,0.993 -1.939,2.551 -1.939,4.675Z" style="fill:#5e5e5e;fill-rule:nonzero;"/><path d="M362.275,141.667c-1.662,0 -3.428,-0.115 -5.298,-0.346c-1.87,-0.231 -3.843,-0.577 -5.921,-1.039l0,-49.447l1.108,1.593l-6.51,-1.385l0,-2.978l10.942,-0.485l0,22.785l-0.761,-0.831c1.939,-1.847 3.947,-3.255 6.025,-4.225c2.077,-0.969 4.155,-1.454 6.232,-1.454c2.586,-0 4.906,0.715 6.96,2.147c2.055,1.431 3.682,3.508 4.883,6.232c1.2,2.724 1.8,6.072 1.8,10.042c0,3.001 -0.381,5.702 -1.142,8.103c-0.762,2.401 -1.928,4.432 -3.498,6.094c-1.569,1.662 -3.578,2.943 -6.025,3.844c-2.447,0.9 -5.378,1.35 -8.795,1.35Zm1.039,-4.086c4.109,0 7.248,-1.269 9.418,-3.809c2.17,-2.539 3.255,-6.233 3.255,-11.08c0,-3.047 -0.427,-5.656 -1.281,-7.826c-0.854,-2.17 -2.02,-3.843 -3.497,-5.021c-1.478,-1.177 -3.163,-1.766 -5.056,-1.766c-1.616,0 -3.289,0.427 -5.021,1.281c-1.731,0.855 -3.474,2.159 -5.228,3.913l0.692,-2.008l0,26.732l-0.761,-1.524c2.816,0.739 5.309,1.108 7.479,1.108Z" style="fill:#5e5e5e;fill-rule:nonzero;"/></svg>