<?xml version="1.0" encoding="UTF-8" standalone="no"?><!DOCTYPE svg PUBLIC "-//W3C//DTD SVG 1.1//EN" "http://www.w3.org/Graphics/SVG/1.1/DTD/svg11.dtd"><svg width="100%" height="100%" viewBox="0 0 700 234" version="1.1" xmlns="http://www.w3.org/2000/svg" xmlns:xlink="http://www.w3.org/1999/xlink" xml:space="preserve" xmlns:serif="http://www.serif.com/" style="fill-rule:evenodd;clip-rule:evenodd;stroke-linejoin:round;stroke-miterlimit:2;"><g transform="matrix(2.20687,0,0,2.20687,-176.345,-242.804)"><g transform="matrix(31.3808,0,0,31.3808,83.2705,173.934)"><path d="M0.05,-0.043l0.086,-0.009l0,-0.638l-0.08,-0.012l-0,-0.041l0.122,0c0.018,0 0.044,-0.001 0.077,-0.004c0.032,-0.003 0.056,-0.004 0.071,-0.004c0.095,0 0.163,0.016 0.204,0.048c0.041,0.032 0.061,0.081 0.061,0.148c0,0.049 -0.013,0.093 -0.04,0.132c-0.027,0.039 -0.064,0.066 -0.11,0.079c0.017,0.011 0.035,0.03 0.053,0.056c0.017,0.027 0.039,0.063 0.065,0.11c0.023,0.041 0.041,0.071 0.055,0.092c0.013,0.02 0.025,0.031 0.036,0.033l0.042,0.011l0,0.042l-0.117,0c-0.011,0 -0.023,-0.011 -0.037,-0.034c-0.014,-0.023 -0.034,-0.059 -0.059,-0.11c-0.027,-0.055 -0.05,-0.098 -0.068,-0.127c-0.017,-0.029 -0.035,-0.049 -0.052,-0.059c-0.081,0 -0.128,-0 -0.141,-0.001l-0,0.279l0.103,0.009l-0,0.043l-0.271,-0l-0,-0.043Zm0.303,-0.336c0.046,0 0.082,-0.014 0.109,-0.043c0.027,-0.029 0.04,-0.071 0.04,-0.126c0,-0.049 -0.014,-0.086 -0.041,-0.113c-0.027,-0.027 -0.075,-0.041 -0.143,-0.041c-0.023,0 -0.046,0.001 -0.069,0.004c-0.016,0.001 -0.026,0.002 -0.031,0.002l0,0.316c0.012,0.001 0.036,0.001 0.072,0.001l0.063,0Z" style="fill:#5e5e5e;fill-rule:nonzero;"/></g><g transform="matrix(31.3808,0,0,31.3808,105.017,173.934)"><path d="M0.045,-0.281c0,-0.058 0.012,-0.109 0.037,-0.153c0.024,-0.044 0.056,-0.078 0.096,-0.101c0.039,-0.023 0.081,-0.035 0.124,-0.035c0.084,0 0.146,0.027 0.187,0.082c0.04,0.055 0.06,0.125 0.06,0.21c0,0.058 -0.012,0.109 -0.036,0.153c-0.025,0.044 -0.057,0.078 -0.096,0.101c-0.04,0.023 -0.082,0.035 -0.125,0.035c-0.084,0 -0.146,-0.027 -0.186,-0.082c-0.041,-0.055 -0.061,-0.125 -0.061,-0.21Zm0.252,0.24c0.051,0 0.091,-0.02 0.119,-0.059c0.028,-0.039 0.042,-0.097 0.042,-0.172c0,-0.072 -0.013,-0.131 -0.039,-0.177c-0.026,-0.046 -0.066,-0.069 -0.121,-0.069c-0.051,0 -0.091,0.02 -0.119,0.059c-0.029,0.039 -0.043,0.097 -0.043,0.172c0,0.073 0.013,0.132 0.04,0.178c0.026,0.045 0.066,0.068 0.121,0.068Z" style="fill:#5e5e5e;fill-rule:nonzero;"/></g><g transform="matrix(31.3808,0,0,31.3808,123.689,173.934)"><path d="M-0.003,-0.802l0.146,-0.017l0.002,0l0.019,0.014l0,0.304c0.021,-0.019 0.046,-0.036 0.075,-0.049c0.029,-0.013 0.061,-0.02 0.096,-0.02c0.039,0 0.076,0.01 0.109,0.029c0.033,0.019 0.059,0.049 0.08,0.09c0.02,0.041 0.03,0.092 0.03,0.153c0,0.057 -0.012,0.11 -0.035,0.157c-0.023,0.047 -0.057,0.084 -0.1,0.111c-0.043,0.027 -0.093,0.041 -0.15,0.041c-0.041,0 -0.081,-0.004 -0.118,-0.013c-0.037,-0.009 -0.06,-0.017 -0.068,-0.025l0,-0.729l-0.086,-0.009l0,-0.037Zm0.305,0.293c-0.028,0 -0.054,0.007 -0.079,0.02c-0.025,0.013 -0.044,0.028 -0.059,0.044l0,0.37c0.005,0.011 0.018,0.019 0.04,0.026c0.021,0.006 0.045,0.009 0.072,0.009c0.057,0 0.103,-0.021 0.138,-0.063c0.035,-0.043 0.052,-0.105 0.052,-0.187c0,-0.073 -0.015,-0.128 -0.046,-0.164c-0.031,-0.037 -0.071,-0.055 -0.118,-0.055Z" style="fill:#5e5e5e;fill-rule:nonzero;"/></g><g transform="matrix(31.3808,0,0,31.3808,142.518,173.934)"><path d="M0.288,0.011c-0.077,0 -0.137,-0.027 -0.179,-0.08c-0.041,-0.052 -0.062,-0.123 -0.062,-0.211c-0,-0.057 0.011,-0.107 0.033,-0.151c0.022,-0.044 0.052,-0.078 0.091,-0.102c0.039,-0.025 0.083,-0.037 0.132,-0.037c0.059,0 0.105,0.017 0.138,0.051c0.033,0.034 0.051,0.083 0.054,0.147c-0,0.041 -0.002,0.071 -0.006,0.088l-0.356,0c-0,0.07 0.016,0.127 0.047,0.172c0.032,0.044 0.077,0.066 0.134,0.066c0.028,0 0.057,-0.005 0.086,-0.015c0.029,-0.01 0.052,-0.022 0.068,-0.036l0.016,0.037c-0.019,0.02 -0.048,0.037 -0.085,0.051c-0.037,0.013 -0.074,0.02 -0.111,0.02Zm0.117,-0.342c0.002,-0.014 0.003,-0.029 0.003,-0.044c-0.001,-0.044 -0.011,-0.079 -0.032,-0.105c-0.02,-0.026 -0.051,-0.039 -0.093,-0.039c-0.091,0 -0.141,0.063 -0.149,0.188l0.271,0Z" style="fill:#5e5e5e;fill-rule:nonzero;"/></g><g transform="matrix(31.3808,0,0,31.3808,159.463,173.934)"><path d="M0.049,-0.042l0.08,-0.006l0,-0.441l-0.077,-0.017l0,-0.045l0.127,-0.016l0.002,0l0.019,0.016l0,0.016l-0.002,0.076l0.002,0c0.001,-0.001 0.01,-0.011 0.027,-0.03c0.016,-0.02 0.04,-0.038 0.073,-0.055c0.032,-0.017 0.064,-0.026 0.097,-0.026c0.011,0 0.021,0.001 0.03,0.004l-0,0.088c-0.003,-0.002 -0.009,-0.004 -0.018,-0.006c-0.009,-0.002 -0.018,-0.003 -0.028,-0.003c-0.038,0 -0.07,0.006 -0.097,0.017c-0.027,0.011 -0.051,0.025 -0.074,0.042l-0,0.379l0.133,0.008l0,0.041l-0.294,0l-0,-0.042Z" style="fill:#5e5e5e;fill-rule:nonzero;"/></g><g transform="matrix(31.3808,0,0,31.3808,173.585,173.934)"><path d="M0.218,0.011c-0.035,0 -0.062,-0.008 -0.08,-0.025c-0.018,-0.016 -0.027,-0.045 -0.027,-0.087l-0,-0.395l-0.076,0l-0,-0.039c0.033,-0.007 0.053,-0.013 0.058,-0.016c0.01,-0.005 0.017,-0.016 0.022,-0.031c0.004,-0.01 0.009,-0.028 0.016,-0.054c0.007,-0.026 0.012,-0.046 0.015,-0.061l0.046,0l0,0.142l0.177,0l0,0.059l-0.177,0l0,0.324c0,0.039 0.001,0.066 0.004,0.082c0.003,0.015 0.008,0.025 0.016,0.03c0.008,0.005 0.022,0.007 0.042,0.007c0.019,0 0.041,-0.003 0.065,-0.008c0.024,-0.005 0.042,-0.011 0.054,-0.017l0.013,0.038c-0.015,0.012 -0.041,0.024 -0.076,0.035c-0.035,0.011 -0.066,0.016 -0.092,0.016Z" style="fill:#5e5e5e;fill-rule:nonzero;"/></g><g transform="matrix(31.3808,0,0,31.3808,193.762,173.934)"><path d="M0.136,-0.689l-0.08,-0.011l-0,-0.043l0.121,0c0.021,0 0.05,-0.001 0.089,-0.004c0.039,-0.003 0.068,-0.004 0.088,-0.004c0.125,0 0.217,0.032 0.277,0.095c0.059,0.063 0.089,0.15 0.089,0.262c0,0.079 -0.016,0.149 -0.047,0.21c-0.031,0.061 -0.075,0.108 -0.13,0.142c-0.056,0.033 -0.12,0.05 -0.192,0.05c-0.015,0 -0.041,-0.001 -0.077,-0.004c-0.041,-0.003 -0.073,-0.004 -0.096,-0.004l-0.128,0l0,-0.043l0.086,-0.009l0,-0.637Zm0.082,0.64c0.027,0.005 0.061,0.008 0.101,0.008l0.034,0c0.055,-0.001 0.103,-0.014 0.145,-0.04c0.042,-0.026 0.075,-0.064 0.099,-0.114c0.023,-0.05 0.035,-0.11 0.035,-0.181c0,-0.218 -0.101,-0.327 -0.304,-0.327c-0.022,0 -0.047,0.001 -0.075,0.004c-0.017,0.001 -0.029,0.002 -0.035,0.002l0,0.648Z" style="fill:#5e5e5e;fill-rule:nonzero;"/></g><g transform="matrix(31.3808,0,0,31.3808,217.486,173.934)"><path d="M0.162,-0.66c-0.036,0 -0.054,-0.019 -0.054,-0.057c-0,-0.019 0.006,-0.035 0.017,-0.047c0.011,-0.013 0.027,-0.019 0.046,-0.019c0.02,0 0.034,0.006 0.043,0.017c0.009,0.011 0.013,0.024 0.013,0.04c0,0.021 -0.006,0.037 -0.017,0.049c-0.011,0.011 -0.026,0.017 -0.047,0.017l-0.001,0Zm-0.032,0.171l-0.078,-0.017l-0,-0.045l0.137,-0.016l0.002,0l0.02,0.016l-0,0.501l0.087,0.007l-0,0.043l-0.256,0l-0,-0.043l0.088,-0.008l-0,-0.438Z" style="fill:#5e5e5e;fill-rule:nonzero;"/></g><g transform="matrix(31.3808,0,0,31.3808,227.654,173.934)"><path d="M0.051,-0.146c0,-0.065 0.032,-0.112 0.096,-0.141c0.064,-0.029 0.144,-0.044 0.239,-0.046l0,-0.031c-0,-0.034 -0.004,-0.061 -0.011,-0.081c-0.007,-0.019 -0.019,-0.033 -0.036,-0.042c-0.017,-0.01 -0.042,-0.014 -0.073,-0.014c-0.034,0 -0.065,0.005 -0.092,0.016c-0.028,0.01 -0.055,0.022 -0.081,0.037l-0.022,-0.044c0.007,-0.007 0.023,-0.016 0.046,-0.028c0.023,-0.012 0.05,-0.023 0.08,-0.032c0.03,-0.009 0.059,-0.014 0.087,-0.014c0.045,0 0.081,0.006 0.108,0.019c0.026,0.013 0.045,0.033 0.057,0.061c0.011,0.028 0.017,0.066 0.017,0.113l0,0.33l0.062,0l0,0.037c-0.037,0.01 -0.068,0.015 -0.093,0.015c-0.016,0 -0.027,-0.002 -0.033,-0.007c-0.006,-0.005 -0.009,-0.017 -0.009,-0.035l0,-0.037c-0.024,0.021 -0.05,0.04 -0.079,0.057c-0.028,0.016 -0.06,0.024 -0.096,0.024c-0.048,0 -0.088,-0.013 -0.119,-0.04c-0.032,-0.027 -0.048,-0.066 -0.048,-0.117Zm0.197,0.098c0.019,0 0.041,-0.006 0.067,-0.018c0.026,-0.012 0.05,-0.026 0.071,-0.043l0,-0.177c-0.081,0.001 -0.142,0.013 -0.184,0.036c-0.041,0.023 -0.062,0.055 -0.062,0.094c0,0.038 0.01,0.065 0.029,0.083c0.019,0.017 0.046,0.025 0.079,0.025Z" style="fill:#5e5e5e;fill-rule:nonzero;"/></g><g transform="matrix(31.3808,0,0,31.3808,245.133,173.934)"><path d="M-0.003,-0.802l0.146,-0.017l0.002,0l0.019,0.014l0,0.304c0.021,-0.019 0.046,-0.036 0.075,-0.049c0.029,-0.013 0.061,-0.02 0.096,-0.02c0.039,0 0.076,0.01 0.109,0.029c0.033,0.019 0.059,0.049 0.08,0.09c0.02,0.041 0.03,0.092 0.03,0.153c0,0.057 -0.012,0.11 -0.035,0.157c-0.023,0.047 -0.057,0.084 -0.1,0.111c-0.043,0.027 -0.093,0.041 -0.15,0.041c-0.041,0 -0.081,-0.004 -0.118,-0.013c-0.037,-0.009 -0.06,-0.017 -0.068,-0.025l0,-0.729l-0.086,-0.009l0,-0.037Zm0.305,0.293c-0.028,0 -0.054,0.007 -0.079,0.02c-0.025,0.013 -0.044,0.028 -0.059,0.044l0,0.37c0.005,0.011 0.018,0.019 0.04,0.026c0.021,0.006 0.045,0.009 0.072,0.009c0.057,0 0.103,-0.021 0.138,-0.063c0.035,-0.043 0.052,-0.105 0.052,-0.187c0,-0.073 -0.015,-0.128 -0.046,-0.164c-0.031,-0.037 -0.071,-0.055 -0.118,-0.055Z" style="fill:#5e5e5e;fill-rule:nonzero;"/></g><g transform="matrix(15.1044,0,0,15.1044,86.8502,198.478)"><path d="M0.265,0.011c-0.039,0 -0.076,-0.01 -0.109,-0.031c-0.033,-0.02 -0.06,-0.051 -0.08,-0.092c-0.02,-0.041 -0.03,-0.092 -0.03,-0.152c-0,-0.057 0.012,-0.109 0.035,-0.155c0.023,-0.047 0.056,-0.083 0.099,-0.11c0.043,-0.028 0.094,-0.041 0.151,-0.041c0.037,0 0.072,0.004 0.106,0.012l-0,-0.198l-0.104,-0.01l-0,-0.036l0.164,-0.017l0.002,0l0.019,0.014l-0,0.76l0.061,0l-0,0.039c-0.003,0.001 -0.015,0.003 -0.034,0.008c-0.019,0.005 -0.04,0.007 -0.062,0.007c-0.015,0 -0.026,-0.003 -0.033,-0.008c-0.006,-0.005 -0.009,-0.017 -0.009,-0.035l-0,-0.035c-0.021,0.023 -0.046,0.042 -0.076,0.057c-0.029,0.015 -0.063,0.023 -0.1,0.023Zm0.033,-0.063c0.029,0 0.056,-0.007 0.081,-0.02c0.026,-0.014 0.045,-0.029 0.058,-0.046l-0,-0.368c-0.005,-0.009 -0.019,-0.017 -0.042,-0.024c-0.022,-0.007 -0.046,-0.01 -0.071,-0.01c-0.057,0 -0.103,0.021 -0.138,0.062c-0.035,0.041 -0.052,0.103 -0.052,0.186c-0,0.075 0.015,0.13 0.046,0.166c0.031,0.036 0.07,0.054 0.118,0.054Z" style="fill:#808080;fill-rule:nonzero;"/></g><g transform="matrix(15.1044,0,0,15.1044,96.1847,198.478)"><path d="M0.288,0.011c-0.077,0 -0.137,-0.027 -0.179,-0.08c-0.041,-0.052 -0.062,-0.123 -0.062,-0.211c-0,-0.057 0.011,-0.107 0.033,-0.151c0.022,-0.044 0.052,-0.078 0.091,-0.102c0.039,-0.025 0.083,-0.037 0.132,-0.037c0.059,0 0.105,0.017 0.138,0.051c0.033,0.034 0.051,0.083 0.054,0.147c-0,0.041 -0.002,0.071 -0.006,0.088l-0.356,0c-0,0.07 0.016,0.127 0.047,0.172c0.032,0.044 0.077,0.066 0.134,0.066c0.028,0 0.057,-0.005 0.086,-0.015c0.029,-0.01 0.052,-0.022 0.068,-0.036l0.016,0.037c-0.019,0.02 -0.048,0.037 -0.085,0.051c-0.037,0.013 -0.074,0.02 -0.111,0.02Zm0.117,-0.342c0.002,-0.014 0.003,-0.029 0.003,-0.044c-0.001,-0.044 -0.011,-0.079 -0.032,-0.105c-0.02,-0.026 -0.051,-0.039 -0.093,-0.039c-0.091,0 -0.141,0.063 -0.149,0.188l0.271,0Z" style="fill:#808080;fill-rule:nonzero;"/></g><g transform="matrix(15.1044,0,0,15.1044,104.341,198.478)"><path d="M0.034,-0.274c0,-0.054 0.011,-0.103 0.032,-0.148c0.021,-0.045 0.052,-0.081 0.094,-0.108c0.041,-0.027 0.092,-0.04 0.152,-0.04c0.026,0 0.051,0.003 0.076,0.01c0.025,0.006 0.046,0.013 0.064,0.02l-0.004,0.143l-0.05,0l-0.021,-0.096c-0.004,-0.02 -0.033,-0.03 -0.086,-0.03c-0.052,0 -0.093,0.02 -0.124,0.06c-0.032,0.04 -0.047,0.095 -0.047,0.164c0,0.083 0.017,0.145 0.05,0.188c0.033,0.043 0.077,0.064 0.13,0.064c0.028,0 0.055,-0.005 0.082,-0.014c0.026,-0.009 0.048,-0.02 0.065,-0.032l0.016,0.033c-0.019,0.019 -0.046,0.036 -0.08,0.05c-0.034,0.014 -0.068,0.021 -0.101,0.021c-0.053,0 -0.098,-0.012 -0.135,-0.037c-0.037,-0.025 -0.066,-0.059 -0.085,-0.102c-0.019,-0.043 -0.028,-0.092 -0.028,-0.146Z" style="fill:#808080;fill-rule:nonzero;"/></g><g transform="matrix(15.1044,0,0,15.1044,112.029,198.478)"><path d="M0.162,-0.66c-0.036,0 -0.054,-0.019 -0.054,-0.057c-0,-0.019 0.006,-0.035 0.017,-0.047c0.011,-0.013 0.027,-0.019 0.046,-0.019c0.02,0 0.034,0.006 0.043,0.017c0.009,0.011 0.013,0.024 0.013,0.04c0,0.021 -0.006,0.037 -0.017,0.049c-0.011,0.011 -0.026,0.017 -0.047,0.017l-0.001,0Zm-0.032,0.171l-0.078,-0.017l-0,-0.045l0.137,-0.016l0.002,0l0.02,0.016l-0,0.501l0.087,0.007l-0,0.043l-0.256,0l-0,-0.043l0.088,-0.008l-0,-0.438Z" style="fill:#808080;fill-rule:nonzero;"/></g><g transform="matrix(15.1044,0,0,15.1044,116.923,198.478)"><path d="M0.578,-0.298c0,0.057 -0.012,0.109 -0.035,0.156c-0.023,0.047 -0.056,0.085 -0.099,0.112c-0.043,0.027 -0.093,0.041 -0.148,0.041c-0.019,-0 -0.038,-0.002 -0.059,-0.005c-0.021,-0.003 -0.038,-0.006 -0.051,-0.011l0.002,0.085l0,0.108l0.111,0.01l0,0.044l-0.268,-0l0,-0.044l0.077,-0.01l0,-0.677l-0.078,-0.017l0,-0.045l0.128,-0.016l0.002,0l0.018,0.016l0,0.061c0.021,-0.022 0.047,-0.041 0.078,-0.056c0.031,-0.016 0.065,-0.024 0.103,-0.024c0.039,0 0.075,0.01 0.108,0.029c0.033,0.019 0.06,0.049 0.081,0.09c0.02,0.041 0.03,0.092 0.03,0.153Zm-0.252,-0.211c-0.029,0 -0.055,0.006 -0.08,0.018c-0.025,0.012 -0.044,0.025 -0.058,0.04l0,0.381c0.005,0.009 0.019,0.017 0.041,0.024c0.021,0.007 0.045,0.01 0.071,0.01c0.057,0 0.104,-0.021 0.139,-0.064c0.035,-0.042 0.052,-0.104 0.052,-0.187c0,-0.074 -0.015,-0.13 -0.046,-0.166c-0.031,-0.037 -0.071,-0.056 -0.119,-0.056Z" style="fill:#808080;fill-rule:nonzero;"/></g><g transform="matrix(15.1044,0,0,15.1044,126.348,198.478)"><path d="M0.103,-0.756l-0.089,-0.009l-0,-0.037l0.148,-0.017l0.002,0l0.019,0.013l0,0.238l-0.002,0.083c0.021,-0.019 0.051,-0.038 0.09,-0.056c0.039,-0.018 0.077,-0.027 0.114,-0.027c0.042,0 0.075,0.008 0.098,0.024c0.023,0.016 0.04,0.041 0.049,0.075c0.009,0.033 0.014,0.079 0.014,0.136l0,0.282l0.073,0.008l0,0.043l-0.224,-0l0,-0.043l0.07,-0.008l0,-0.283c0,-0.043 -0.003,-0.076 -0.009,-0.1c-0.005,-0.024 -0.016,-0.042 -0.033,-0.054c-0.017,-0.012 -0.041,-0.018 -0.073,-0.018c-0.027,0 -0.055,0.007 -0.086,0.02c-0.031,0.012 -0.058,0.028 -0.081,0.046l0,0.389l0.074,0.008l0,0.043l-0.217,-0l-0,-0.043l0.063,-0.007l0,-0.706Z" style="fill:#808080;fill-rule:nonzero;"/></g><g transform="matrix(15.1044,0,0,15.1044,136.196,198.478)"><path d="M0.288,0.011c-0.077,0 -0.137,-0.027 -0.179,-0.08c-0.041,-0.052 -0.062,-0.123 -0.062,-0.211c-0,-0.057 0.011,-0.107 0.033,-0.151c0.022,-0.044 0.052,-0.078 0.091,-0.102c0.039,-0.025 0.083,-0.037 0.132,-0.037c0.059,0 0.105,0.017 0.138,0.051c0.033,0.034 0.051,0.083 0.054,0.147c-0,0.041 -0.002,0.071 -0.006,0.088l-0.356,0c-0,0.07 0.016,0.127 0.047,0.172c0.032,0.044 0.077,0.066 0.134,0.066c0.028,0 0.057,-0.005 0.086,-0.015c0.029,-0.01 0.052,-0.022 0.068,-0.036l0.016,0.037c-0.019,0.02 -0.048,0.037 -0.085,0.051c-0.037,0.013 -0.074,0.02 -0.111,0.02Zm0.117,-0.342c0.002,-0.014 0.003,-0.029 0.003,-0.044c-0.001,-0.044 -0.011,-0.079 -0.032,-0.105c-0.02,-0.026 -0.051,-0.039 -0.093,-0.039c-0.091,0 -0.141,0.063 -0.149,0.188l0.271,0Z" style="fill:#808080;fill-rule:nonzero;"/></g><g transform="matrix(15.1044,0,0,15.1044,144.353,198.478)"><path d="M0.049,-0.042l0.08,-0.006l0,-0.441l-0.077,-0.017l0,-0.045l0.127,-0.016l0.002,0l0.019,0.016l0,0.016l-0.002,0.076l0.002,0c0.001,-0.001 0.01,-0.011 0.027,-0.03c0.016,-0.02 0.04,-0.038 0.073,-0.055c0.032,-0.017 0.064,-0.026 0.097,-0.026c0.011,0 0.021,0.001 0.03,0.004l-0,0.088c-0.003,-0.002 -0.009,-0.004 -0.018,-0.006c-0.009,-0.002 -0.018,-0.003 -0.028,-0.003c-0.038,0 -0.07,0.006 -0.097,0.017c-0.027,0.011 -0.051,0.025 -0.074,0.042l-0,0.379l0.133,0.008l0,0.041l-0.294,0l-0,-0.042Z" style="fill:#808080;fill-rule:nonzero;"/></g><g transform="matrix(15.1044,0,0,15.1044,151.15,198.478)"><path d="M0.162,-0.66c-0.036,0 -0.054,-0.019 -0.054,-0.057c-0,-0.019 0.006,-0.035 0.017,-0.047c0.011,-0.013 0.027,-0.019 0.046,-0.019c0.02,0 0.034,0.006 0.043,0.017c0.009,0.011 0.013,0.024 0.013,0.04c0,0.021 -0.006,0.037 -0.017,0.049c-0.011,0.011 -0.026,0.017 -0.047,0.017l-0.001,0Zm-0.032,0.171l-0.078,-0.017l-0,-0.045l0.137,-0.016l0.002,0l0.02,0.016l-0,0.501l0.087,0.007l-0,0.043l-0.256,0l-0,-0.043l0.088,-0.008l-0,-0.438Z" style="fill:#808080;fill-rule:nonzero;"/></g><g transform="matrix(15.1044,0,0,15.1044,156.043,198.478)"><path d="M0.108,-0.489l-0.077,-0.017l0,-0.045l0.127,-0.016l0.003,0l0.019,0.016l0,0.044l-0.001,0.025c0.025,-0.021 0.057,-0.041 0.098,-0.059c0.041,-0.018 0.078,-0.027 0.113,-0.027c0.043,0 0.076,0.008 0.098,0.025c0.023,0.016 0.039,0.041 0.048,0.075c0.009,0.033 0.014,0.078 0.014,0.135l0,0.283l0.075,0.007l0,0.043l-0.223,-0l0,-0.043l0.067,-0.007l0,-0.284c0,-0.042 -0.003,-0.075 -0.009,-0.099c-0.005,-0.024 -0.016,-0.042 -0.033,-0.054c-0.016,-0.013 -0.04,-0.019 -0.071,-0.019c-0.027,0 -0.056,0.007 -0.087,0.02c-0.031,0.013 -0.057,0.029 -0.08,0.047l0,0.388l0.073,0.008l0,0.043l-0.221,-0l-0,-0.043l0.067,-0.008l-0,-0.438Z" style="fill:#808080;fill-rule:nonzero;"/></g><g transform="matrix(15.1044,0,0,15.1044,165.907,198.478)"><path d="M0.282,0.27c-0.157,0 -0.236,-0.05 -0.236,-0.15c-0,-0.03 0.009,-0.057 0.027,-0.082c0.019,-0.025 0.041,-0.044 0.066,-0.058c-0.031,-0.017 -0.047,-0.044 -0.047,-0.083c0,-0.025 0.007,-0.048 0.021,-0.07c0.014,-0.021 0.032,-0.038 0.054,-0.049c-0.031,-0.015 -0.056,-0.036 -0.074,-0.063c-0.017,-0.027 -0.026,-0.058 -0.026,-0.094c0,-0.039 0.011,-0.073 0.032,-0.101c0.021,-0.029 0.049,-0.052 0.083,-0.067c0.035,-0.015 0.071,-0.023 0.108,-0.023c0.062,-0 0.112,0.014 0.149,0.041c0.01,-0.009 0.026,-0.019 0.047,-0.028c0.021,-0.009 0.043,-0.013 0.067,-0.013l0.033,-0l0,0.074l-0.114,-0c0.019,0.027 0.029,0.059 0.029,0.097c0,0.039 -0.01,0.074 -0.03,0.104c-0.02,0.031 -0.047,0.054 -0.08,0.071c-0.034,0.017 -0.071,0.025 -0.112,0.025c-0.027,-0 -0.052,-0.003 -0.075,-0.009c-0.012,0.009 -0.021,0.02 -0.028,0.032c-0.007,0.013 -0.011,0.025 -0.011,0.038c0,0.025 0.008,0.043 0.025,0.053c0.016,0.01 0.044,0.015 0.085,0.015l0.118,-0c0.062,-0 0.108,0.012 0.138,0.036c0.029,0.024 0.044,0.058 0.044,0.101c0,0.036 -0.013,0.069 -0.039,0.1c-0.026,0.031 -0.061,0.056 -0.106,0.075c-0.045,0.019 -0.095,0.028 -0.148,0.028Zm0.007,-0.518c0.085,-0 0.127,-0.047 0.127,-0.14c0,-0.089 -0.044,-0.133 -0.132,-0.133c-0.088,-0 -0.132,0.044 -0.132,0.131c0,0.042 0.011,0.076 0.034,0.102c0.023,0.027 0.057,0.04 0.103,0.04Zm-0.002,0.467c0.036,-0 0.07,-0.005 0.103,-0.016c0.033,-0.01 0.059,-0.025 0.079,-0.045c0.02,-0.019 0.03,-0.042 0.03,-0.068c0,-0.021 -0.003,-0.037 -0.009,-0.05c-0.007,-0.013 -0.019,-0.023 -0.037,-0.03c-0.019,-0.007 -0.045,-0.01 -0.08,-0.01l-0.124,-0c-0.032,-0 -0.056,-0.002 -0.073,-0.006c-0.033,0.031 -0.049,0.068 -0.049,0.11c0,0.038 0.012,0.067 0.036,0.086c0.024,0.019 0.065,0.029 0.124,0.029Z" style="fill:#808080;fill-rule:nonzero;"/></g><g transform="matrix(15.1044,0,0,15.1044,178.504,198.478)"><path d="M0.051,-0.146c0,-0.065 0.032,-0.112 0.096,-0.141c0.064,-0.029 0.144,-0.044 0.239,-0.046l0,-0.031c-0,-0.034 -0.004,-0.061 -0.011,-0.081c-0.007,-0.019 -0.019,-0.033 -0.036,-0.042c-0.017,-0.01 -0.042,-0.014 -0.073,-0.014c-0.034,0 -0.065,0.005 -0.092,0.016c-0.028,0.01 -0.055,0.022 -0.081,0.037l-0.022,-0.044c0.007,-0.007 0.023,-0.016 0.046,-0.028c0.023,-0.012 0.05,-0.023 0.08,-0.032c0.03,-0.009 0.059,-0.014 0.087,-0.014c0.045,0 0.081,0.006 0.108,0.019c0.026,0.013 0.045,0.033 0.057,0.061c0.011,0.028 0.017,0.066 0.017,0.113l0,0.33l0.062,0l0,0.037c-0.037,0.01 -0.068,0.015 -0.093,0.015c-0.016,0 -0.027,-0.002 -0.033,-0.007c-0.006,-0.005 -0.009,-0.017 -0.009,-0.035l0,-0.037c-0.024,0.021 -0.05,0.04 -0.079,0.057c-0.028,0.016 -0.06,0.024 -0.096,0.024c-0.048,0 -0.088,-0.013 -0.119,-0.04c-0.032,-0.027 -0.048,-0.066 -0.048,-0.117Zm0.197,0.098c0.019,0 0.041,-0.006 0.067,-0.018c0.026,-0.012 0.05,-0.026 0.071,-0.043l0,-0.177c-0.081,0.001 -0.142,0.013 -0.184,0.036c-0.041,0.023 -0.062,0.055 -0.062,0.094c0,0.038 0.01,0.065 0.029,0.083c0.019,0.017 0.046,0.025 0.079,0.025Z" style="fill:#808080;fill-rule:nonzero;"/></g><g transform="matrix(15.1044,0,0,15.1044,186.917,198.478)"><path d="M0.127,-0.756l-0.085,-0.009l0,-0.037l0.146,-0.017l0.001,0l0.019,0.013l0,0.756l0.094,0.007l0,0.043l-0.263,0l0,-0.043l0.088,-0.008l0,-0.705Z" style="fill:#808080;fill-rule:nonzero;"/></g><g transform="matrix(15.1044,0,0,15.1044,191.886,198.478)"><path d="M0.127,-0.756l-0.085,-0.009l0,-0.037l0.146,-0.017l0.001,0l0.019,0.013l0,0.756l0.094,0.007l0,0.043l-0.263,0l0,-0.043l0.088,-0.008l0,-0.705Z" style="fill:#808080;fill-rule:nonzero;"/></g><g transform="matrix(15.1044,0,0,15.1044,200.435,198.478)"><path d="M0.218,0.011c-0.035,0 -0.062,-0.008 -0.08,-0.025c-0.018,-0.016 -0.027,-0.045 -0.027,-0.087l-0,-0.395l-0.076,0l-0,-0.039c0.033,-0.007 0.053,-0.013 0.058,-0.016c0.01,-0.005 0.017,-0.016 0.022,-0.031c0.004,-0.01 0.009,-0.028 0.016,-0.054c0.007,-0.026 0.012,-0.046 0.015,-0.061l0.046,0l0,0.142l0.177,0l0,0.059l-0.177,0l0,0.324c0,0.039 0.001,0.066 0.004,0.082c0.003,0.015 0.008,0.025 0.016,0.03c0.008,0.005 0.022,0.007 0.042,0.007c0.019,0 0.041,-0.003 0.065,-0.008c0.024,-0.005 0.042,-0.011 0.054,-0.017l0.013,0.038c-0.015,0.012 -0.041,0.024 -0.076,0.035c-0.035,0.011 -0.066,0.016 -0.092,0.016Z" style="fill:#808080;fill-rule:nonzero;"/></g><g transform="matrix(15.1044,0,0,15.1044,206.568,198.478)"><path d="M0.103,-0.756l-0.089,-0.009l-0,-0.037l0.148,-0.017l0.002,0l0.019,0.013l0,0.238l-0.002,0.083c0.021,-0.019 0.051,-0.038 0.09,-0.056c0.039,-0.018 0.077,-0.027 0.114,-0.027c0.042,0 0.075,0.008 0.098,0.024c0.023,0.016 0.04,0.041 0.049,0.075c0.009,0.033 0.014,0.079 0.014,0.136l0,0.282l0.073,0.008l0,0.043l-0.224,-0l0,-0.043l0.07,-0.008l0,-0.283c0,-0.043 -0.003,-0.076 -0.009,-0.1c-0.005,-0.024 -0.016,-0.042 -0.033,-0.054c-0.017,-0.012 -0.041,-0.018 -0.073,-0.018c-0.027,0 -0.055,0.007 -0.086,0.02c-0.031,0.012 -0.058,0.028 -0.081,0.046l0,0.389l0.074,0.008l0,0.043l-0.217,-0l-0,-0.043l0.063,-0.007l0,-0.706Z" style="fill:#808080;fill-rule:nonzero;"/></g><g transform="matrix(15.1044,0,0,15.1044,216.416,198.478)"><path d="M0.288,0.011c-0.077,0 -0.137,-0.027 -0.179,-0.08c-0.041,-0.052 -0.062,-0.123 -0.062,-0.211c-0,-0.057 0.011,-0.107 0.033,-0.151c0.022,-0.044 0.052,-0.078 0.091,-0.102c0.039,-0.025 0.083,-0.037 0.132,-0.037c0.059,0 0.105,0.017 0.138,0.051c0.033,0.034 0.051,0.083 0.054,0.147c-0,0.041 -0.002,0.071 -0.006,0.088l-0.356,0c-0,0.07 0.016,0.127 0.047,0.172c0.032,0.044 0.077,0.066 0.134,0.066c0.028,0 0.057,-0.005 0.086,-0.015c0.029,-0.01 0.052,-0.022 0.068,-0.036l0.016,0.037c-0.019,0.02 -0.048,0.037 -0.085,0.051c-0.037,0.013 -0.074,0.02 -0.111,0.02Zm0.117,-0.342c0.002,-0.014 0.003,-0.029 0.003,-0.044c-0.001,-0.044 -0.011,-0.079 -0.032,-0.105c-0.02,-0.026 -0.051,-0.039 -0.093,-0.039c-0.091,0 -0.141,0.063 -0.149,0.188l0.271,0Z" style="fill:#808080;fill-rule:nonzero;"/></g><g transform="matrix(15.1044,0,0,15.1044,228.152,198.478)"><path d="M0.034,-0.274c0,-0.054 0.011,-0.103 0.032,-0.148c0.021,-0.045 0.052,-0.081 0.094,-0.108c0.041,-0.027 0.092,-0.04 0.152,-0.04c0.026,0 0.051,0.003 0.076,0.01c0.025,0.006 0.046,0.013 0.064,0.02l-0.004,0.143l-0.05,0l-0.021,-0.096c-0.004,-0.02 -0.033,-0.03 -0.086,-0.03c-0.052,0 -0.093,0.02 -0.124,0.06c-0.032,0.04 -0.047,0.095 -0.047,0.164c0,0.083 0.017,0.145 0.05,0.188c0.033,0.043 0.077,0.064 0.13,0.064c0.028,0 0.055,-0.005 0.082,-0.014c0.026,-0.009 0.048,-0.02 0.065,-0.032l0.016,0.033c-0.019,0.019 -0.046,0.036 -0.08,0.05c-0.034,0.014 -0.068,0.021 -0.101,0.021c-0.053,0 -0.098,-0.012 -0.135,-0.037c-0.037,-0.025 -0.066,-0.059 -0.085,-0.102c-0.019,-0.043 -0.028,-0.092 -0.028,-0.146Z" style="fill:#808080;fill-rule:nonzero;"/></g><g transform="matrix(15.1044,0,0,15.1044,235.84,198.478)"><path d="M0.045,-0.281c0,-0.058 0.012,-0.109 0.037,-0.153c0.024,-0.044 0.056,-0.078 0.096,-0.101c0.039,-0.023 0.081,-0.035 0.124,-0.035c0.084,0 0.146,0.027 0.187,0.082c0.04,0.055 0.06,0.125 0.06,0.21c0,0.058 -0.012,0.109 -0.036,0.153c-0.025,0.044 -0.057,0.078 -0.096,0.101c-0.04,0.023 -0.082,0.035 -0.125,0.035c-0.084,0 -0.146,-0.027 -0.186,-0.082c-0.041,-0.055 -0.061,-0.125 -0.061,-0.21Zm0.252,0.24c0.051,0 0.091,-0.02 0.119,-0.059c0.028,-0.039 0.042,-0.097 0.042,-0.172c0,-0.072 -0.013,-0.131 -0.039,-0.177c-0.026,-0.046 -0.066,-0.069 -0.121,-0.069c-0.051,0 -0.091,0.02 -0.119,0.059c-0.029,0.039 -0.043,0.097 -0.043,0.172c0,0.073 0.013,0.132 0.04,0.178c0.026,0.045 0.066,0.068 0.121,0.068Z" style="fill:#808080;fill-rule:nonzero;"/></g><g transform="matrix(15.1044,0,0,15.1044,244.827,198.478)"><path d="M0.265,0.011c-0.039,0 -0.076,-0.01 -0.109,-0.031c-0.033,-0.02 -0.06,-0.051 -0.08,-0.092c-0.02,-0.041 -0.03,-0.092 -0.03,-0.152c-0,-0.057 0.012,-0.109 0.035,-0.155c0.023,-0.047 0.056,-0.083 0.099,-0.11c0.043,-0.028 0.094,-0.041 0.151,-0.041c0.037,0 0.072,0.004 0.106,0.012l-0,-0.198l-0.104,-0.01l-0,-0.036l0.164,-0.017l0.002,0l0.019,0.014l-0,0.76l0.061,0l-0,0.039c-0.003,0.001 -0.015,0.003 -0.034,0.008c-0.019,0.005 -0.04,0.007 -0.062,0.007c-0.015,0 -0.026,-0.003 -0.033,-0.008c-0.006,-0.005 -0.009,-0.017 -0.009,-0.035l-0,-0.035c-0.021,0.023 -0.046,0.042 -0.076,0.057c-0.029,0.015 -0.063,0.023 -0.1,0.023Zm0.033,-0.063c0.029,0 0.056,-0.007 0.081,-0.02c0.026,-0.014 0.045,-0.029 0.058,-0.046l-0,-0.368c-0.005,-0.009 -0.019,-0.017 -0.042,-0.024c-0.022,-0.007 -0.046,-0.01 -0.071,-0.01c-0.057,0 -0.103,0.021 -0.138,0.062c-0.035,0.041 -0.052,0.103 -0.052,0.186c-0,0.075 0.015,0.13 0.046,0.166c0.031,0.036 0.07,0.054 0.118,0.054Z" style="fill:#808080;fill-rule:nonzero;"/></g><g transform="matrix(15.1044,0,0,15.1044,254.161,198.478)"><path d="M0.288,0.011c-0.077,0 -0.137,-0.027 -0.179,-0.08c-0.041,-0.052 -0.062,-0.123 -0.062,-0.211c-0,-0.057 0.011,-0.107 0.033,-0.151c0.022,-0.044 0.052,-0.078 0.091,-0.102c0.039,-0.025 0.083,-0.037 0.132,-0.037c0.059,0 0.105,0.017 0.138,0.051c0.033,0.034 0.051,0.083 0.054,0.147c-0,0.041 -0.002,0.071 -0.006,0.088l-0.356,0c-0,0.07 0.016,0.127 0.047,0.172c0.032,0.044 0.077,0.066 0.134,0.066c0.028,0 0.057,-0.005 0.086,-0.015c0.029,-0.01 0.052,-0.022 0.068,-0.036l0.016,0.037c-0.019,0.02 -0.048,0.037 -0.085,0.051c-0.037,0.013 -0.074,0.02 -0.111,0.02Zm0.117,-0.342c0.002,-0.014 0.003,-0.029 0.003,-0.044c-0.001,-0.044 -0.011,-0.079 -0.032,-0.105c-0.02,-0.026 -0.051,-0.039 -0.093,-0.039c-0.091,0 -0.141,0.063 -0.149,0.188l0.271,0Z" style="fill:#808080;fill-rule:nonzero;"/></g></g></svg>