<?xml version="1.0" encoding="UTF-8" standalone="no"?><!DOCTYPE svg PUBLIC "-//W3C//DTD SVG 1.1//EN" "http://www.w3.org/Graphics/SVG/1.1/DTD/svg11.dtd"><svg width="100%" height="100%" viewBox="0 0 700 234" version="1.1" xmlns="http://www.w3.org/2000/svg" xmlns:xlink="http://www.w3.org/1999/xlink" xml:space="preserve" xmlns:serif="http://www.serif.com/" style="fill-rule:evenodd;clip-rule:evenodd;stroke-linejoin:round;stroke-miterlimit:2;"><g transform="matrix(2.20687,0,0,2.20687,-176.345,-242.804)"><g transform="matrix(31.3808,0,0,31.3808,83.2705,173.934)"><path d="M0.176,-0l-0.082,-0l0,-0.743l0.034,-0.001c0.008,0 0.012,-0 0.014,0c0.024,-0 0.051,-0.001 0.082,-0.003c0.031,-0.002 0.062,-0.003 0.094,-0.003c0.038,0 0.072,0.004 0.103,0.011c0.031,0.007 0.058,0.019 0.081,0.035c0.023,0.016 0.04,0.037 0.052,0.063c0.013,0.026 0.019,0.058 0.019,0.096c0,0.043 -0.008,0.079 -0.024,0.11c-0.016,0.03 -0.039,0.054 -0.068,0.072c-0.028,0.018 -0.061,0.029 -0.099,0.034c-0.016,0.002 -0.034,0.004 -0.053,0.005c-0.019,0.001 -0.041,0.001 -0.067,0.001c-0.024,-0 -0.053,-0.001 -0.086,-0.001l0,0.324Zm0,-0.382c0.008,0.001 0.021,0.001 0.04,0.002c0.018,0 0.037,0.001 0.056,0.001c0.019,-0 0.033,0 0.043,0c0.052,-0.001 0.094,-0.014 0.126,-0.041c0.032,-0.027 0.048,-0.067 0.048,-0.121c0,-0.035 -0.007,-0.064 -0.019,-0.086c-0.014,-0.021 -0.034,-0.037 -0.061,-0.047c-0.027,-0.01 -0.062,-0.015 -0.104,-0.015c-0.022,0 -0.045,0.001 -0.07,0.002c-0.024,0.001 -0.044,0.003 -0.059,0.006l0,0.299Zm0.355,0.382c-0.004,-0.005 -0.008,-0.011 -0.011,-0.018c-0.003,-0.007 -0.008,-0.018 -0.015,-0.032c-0.011,-0.023 -0.023,-0.049 -0.035,-0.079c-0.013,-0.03 -0.026,-0.059 -0.041,-0.088c-0.015,-0.029 -0.031,-0.054 -0.049,-0.074c-0.018,-0.02 -0.038,-0.032 -0.06,-0.035l0.034,-0.025l0.05,0.006c0.021,0.006 0.04,0.021 0.058,0.043c0.018,0.022 0.034,0.049 0.05,0.079c0.015,0.03 0.03,0.06 0.044,0.091c0.014,0.031 0.028,0.058 0.041,0.082c0.005,0.009 0.01,0.018 0.015,0.027c0.004,0.008 0.009,0.016 0.013,0.023l-0.094,0Z" style="fill:#5e5e5e;fill-rule:nonzero;"/></g><g transform="matrix(31.3808,0,0,31.3808,103.417,173.934)"><path d="M0.294,0.008c-0.044,0 -0.082,-0.008 -0.113,-0.024c-0.031,-0.016 -0.056,-0.038 -0.076,-0.066c-0.019,-0.027 -0.033,-0.059 -0.041,-0.094c-0.009,-0.036 -0.013,-0.074 -0.013,-0.113c0.001,-0.059 0.013,-0.109 0.035,-0.15c0.023,-0.041 0.053,-0.072 0.091,-0.093c0.038,-0.021 0.08,-0.032 0.127,-0.032c0.058,-0 0.105,0.013 0.141,0.04c0.036,0.027 0.062,0.063 0.078,0.108c0.016,0.044 0.024,0.093 0.023,0.145c-0.001,0.059 -0.012,0.11 -0.034,0.151c-0.022,0.042 -0.052,0.073 -0.09,0.095c-0.037,0.022 -0.08,0.033 -0.128,0.033Zm0.002,-0.058c0.053,0 0.094,-0.02 0.123,-0.06c0.029,-0.04 0.044,-0.095 0.044,-0.164c0,-0.043 -0.005,-0.081 -0.017,-0.116c-0.011,-0.035 -0.028,-0.063 -0.052,-0.084c-0.024,-0.02 -0.054,-0.031 -0.091,-0.031c-0.052,-0.001 -0.093,0.017 -0.123,0.055c-0.03,0.038 -0.045,0.092 -0.046,0.162c-0,0.042 0.006,0.081 0.017,0.117c0.011,0.036 0.029,0.065 0.053,0.087c0.024,0.022 0.054,0.033 0.092,0.034Z" style="fill:#5e5e5e;fill-rule:nonzero;"/></g><g transform="matrix(31.3808,0,0,31.3808,122.151,173.934)"><path d="M0.094,-0.811l0.079,0l0,0.232l-0.004,0.095l0.004,0.003l0,0.414l-0.079,0.036l0,-0.78Zm0.187,0.819c-0.02,-0 -0.041,-0.001 -0.061,-0.004c-0.02,-0.003 -0.039,-0.007 -0.056,-0.011c-0.017,-0.004 -0.032,-0.008 -0.044,-0.013c-0.013,-0.004 -0.021,-0.008 -0.026,-0.011l0.079,-0.045c0.01,0.007 0.025,0.013 0.046,0.017c0.021,0.005 0.045,0.007 0.071,0.007c0.033,-0 0.063,-0.009 0.092,-0.026c0.028,-0.017 0.051,-0.043 0.069,-0.078c0.018,-0.035 0.027,-0.079 0.027,-0.132c0.001,-0.069 -0.013,-0.122 -0.04,-0.158c-0.027,-0.036 -0.066,-0.054 -0.119,-0.054c-0.031,-0 -0.06,0.006 -0.086,0.019c-0.027,0.013 -0.047,0.025 -0.061,0.038l-0.013,-0.042c0.009,-0.009 0.021,-0.02 0.036,-0.032c0.016,-0.013 0.036,-0.024 0.06,-0.033c0.024,-0.009 0.053,-0.014 0.086,-0.014c0.041,-0 0.078,0.01 0.111,0.029c0.033,0.02 0.06,0.049 0.079,0.088c0.02,0.039 0.03,0.089 0.03,0.148c0,0.061 -0.012,0.114 -0.035,0.16c-0.024,0.046 -0.056,0.082 -0.099,0.108c-0.042,0.026 -0.09,0.039 -0.146,0.039Z" style="fill:#5e5e5e;fill-rule:nonzero;"/></g><g transform="matrix(31.3808,0,0,31.3808,141.011,173.934)"><path d="M0.295,0.008c-0.078,0 -0.138,-0.025 -0.18,-0.075c-0.041,-0.05 -0.062,-0.12 -0.062,-0.209c0,-0.056 0.01,-0.105 0.029,-0.148c0.019,-0.043 0.048,-0.077 0.085,-0.102c0.037,-0.025 0.082,-0.038 0.135,-0.038c0.03,-0.001 0.057,0.004 0.081,0.014c0.024,0.01 0.045,0.024 0.062,0.042c0.018,0.019 0.031,0.041 0.041,0.067c0.01,0.026 0.015,0.054 0.016,0.086c0,0.017 -0,0.033 -0,0.047c-0.001,0.014 -0.002,0.026 -0.004,0.038l-0.396,0l0.007,-0.055l0.316,0c0.002,-0.034 -0.001,-0.065 -0.008,-0.092c-0.008,-0.027 -0.021,-0.049 -0.04,-0.065c-0.02,-0.016 -0.046,-0.024 -0.08,-0.024c-0.032,0 -0.061,0.009 -0.086,0.026c-0.025,0.017 -0.045,0.044 -0.059,0.082c-0.014,0.038 -0.021,0.087 -0.019,0.148c0.002,0.048 0.011,0.086 0.027,0.114c0.016,0.029 0.037,0.05 0.064,0.063c0.027,0.013 0.058,0.019 0.092,0.019c0.017,-0 0.035,-0.002 0.055,-0.007c0.019,-0.004 0.038,-0.009 0.055,-0.016c0.017,-0.006 0.03,-0.013 0.04,-0.019l0.017,0.053c-0.012,0.01 -0.028,0.019 -0.049,0.026c-0.021,0.008 -0.043,0.014 -0.068,0.018c-0.024,0.005 -0.048,0.007 -0.071,0.007Z" style="fill:#5e5e5e;fill-rule:nonzero;"/></g><g transform="matrix(31.3808,0,0,31.3808,158.428,173.934)"><path d="M0.163,-0.423l-0.006,-0.054c0.006,-0.009 0.017,-0.021 0.035,-0.035c0.018,-0.013 0.039,-0.025 0.063,-0.036c0.024,-0.011 0.049,-0.016 0.075,-0.016c0.013,0 0.023,0.001 0.032,0.002c0.009,0.001 0.016,0.002 0.021,0.004l0,0.077c-0.005,-0.003 -0.012,-0.005 -0.022,-0.008c-0.01,-0.003 -0.025,-0.004 -0.046,-0.004c-0.023,0 -0.044,0.004 -0.064,0.012c-0.02,0.008 -0.037,0.017 -0.052,0.028c-0.015,0.011 -0.027,0.021 -0.036,0.03Zm-0.077,0.423l0,-0.556l0.07,0l0.005,0.079l0.007,0.035l-0,0.442l-0.082,0Z" style="fill:#5e5e5e;fill-rule:nonzero;"/></g><g transform="matrix(31.3808,0,0,31.3808,170.949,173.934)"><path d="M0.242,0.008c-0.023,0 -0.044,-0.003 -0.063,-0.01c-0.019,-0.007 -0.035,-0.021 -0.046,-0.041c-0.012,-0.019 -0.018,-0.049 -0.018,-0.089l0,-0.363l-0.077,0l-0,-0.045c0.018,-0.005 0.036,-0.009 0.053,-0.013c0.017,-0.003 0.028,-0.011 0.032,-0.022c0.002,-0.006 0.004,-0.015 0.007,-0.028c0.002,-0.013 0.005,-0.027 0.008,-0.042c0.003,-0.015 0.006,-0.028 0.009,-0.039l0.049,0l0,0.127l0.173,0l0,0.062l-0.173,0l0,0.317c0,0.037 0.002,0.064 0.007,0.081c0.005,0.017 0.012,0.027 0.023,0.032c0.011,0.005 0.026,0.007 0.044,0.007c0.011,0 0.024,-0.001 0.038,-0.004c0.014,-0.003 0.027,-0.007 0.039,-0.011c0.012,-0.004 0.022,-0.008 0.028,-0.012l0.014,0.047c-0.009,0.008 -0.022,0.015 -0.039,0.022c-0.017,0.007 -0.035,0.013 -0.054,0.017c-0.019,0.005 -0.037,0.007 -0.054,0.007Z" style="fill:#5e5e5e;fill-rule:nonzero;"/></g><g transform="matrix(31.3808,0,0,31.3808,189.808,173.934)"><path d="M0.094,-0l0,-0.743l0.016,0c0.008,0 0.017,-0 0.026,-0c0.009,-0 0.014,-0.001 0.016,-0.001c0.016,-0 0.033,-0.001 0.051,-0.002c0.018,-0.001 0.037,-0.002 0.056,-0.003c0.019,-0 0.039,-0.001 0.058,-0.001c0.118,0 0.206,0.031 0.265,0.094c0.058,0.063 0.087,0.15 0.087,0.263c0,0.081 -0.014,0.152 -0.042,0.213c-0.029,0.06 -0.07,0.107 -0.124,0.14c-0.054,0.033 -0.12,0.049 -0.197,0.048c-0.021,-0.001 -0.046,-0.002 -0.076,-0.004c-0.03,-0.002 -0.057,-0.003 -0.082,-0.003c-0.003,-0 -0.009,-0.001 -0.017,-0.001c-0.009,0 -0.017,0 -0.024,0l-0.013,0Zm0.082,-0.063c0.019,0.003 0.042,0.005 0.069,0.007c0.027,0.002 0.052,0.002 0.073,0.002c0.052,-0.001 0.098,-0.013 0.138,-0.036c0.039,-0.023 0.07,-0.058 0.093,-0.107c0.022,-0.048 0.034,-0.109 0.034,-0.184c0,-0.073 -0.01,-0.132 -0.031,-0.177c-0.022,-0.046 -0.054,-0.079 -0.096,-0.1c-0.042,-0.021 -0.095,-0.032 -0.158,-0.032c-0.023,0 -0.045,0.001 -0.066,0.002c-0.02,0.001 -0.039,0.003 -0.056,0.005l0,0.62Z" style="fill:#5e5e5e;fill-rule:nonzero;"/></g><g transform="matrix(31.3808,0,0,31.3808,212.246,173.934)"><path d="M0.098,-0l0,-0.556l0.081,0l0,0.556l-0.081,-0Zm0.036,-0.678c-0.014,0 -0.027,-0.005 -0.037,-0.014c-0.011,-0.01 -0.016,-0.024 -0.016,-0.041c0,-0.012 0.003,-0.023 0.009,-0.033c0.006,-0.009 0.014,-0.017 0.023,-0.022c0.009,-0.005 0.018,-0.008 0.028,-0.008c0.018,0 0.031,0.005 0.04,0.016c0.009,0.01 0.013,0.023 0.013,0.039c0,0.019 -0.006,0.034 -0.018,0.046c-0.012,0.011 -0.026,0.017 -0.042,0.017Z" style="fill:#5e5e5e;fill-rule:nonzero;"/></g><g transform="matrix(31.3808,0,0,31.3808,220.938,173.934)"><path d="M0.223,0.008c-0.033,0 -0.062,-0.006 -0.087,-0.019c-0.026,-0.012 -0.046,-0.03 -0.06,-0.053c-0.015,-0.023 -0.022,-0.051 -0.022,-0.083c-0,-0.037 0.01,-0.068 0.031,-0.093c0.02,-0.026 0.05,-0.046 0.089,-0.06c0.022,-0.008 0.046,-0.015 0.072,-0.02c0.026,-0.005 0.052,-0.008 0.078,-0.01c0.025,-0.002 0.048,-0.003 0.067,-0.003l0.018,0.023l-0.018,0.029c-0.013,0 -0.03,0.001 -0.051,0.003c-0.022,0.001 -0.043,0.004 -0.065,0.008c-0.022,0.004 -0.04,0.009 -0.056,0.015c-0.028,0.01 -0.049,0.024 -0.064,0.04c-0.014,0.016 -0.021,0.037 -0.021,0.062c-0,0.029 0.009,0.053 0.026,0.072c0.018,0.019 0.047,0.028 0.087,0.028c0.024,-0 0.046,-0.003 0.066,-0.01c0.021,-0.006 0.038,-0.013 0.052,-0.021c0.014,-0.008 0.023,-0.014 0.027,-0.018l0.018,0.016l-0.013,0.033c-0.015,0.014 -0.038,0.028 -0.068,0.041c-0.031,0.013 -0.066,0.02 -0.106,0.02Zm0.249,-0.008l-0.076,-0l-0,-0.079l-0.005,-0.001l-0,-0.311c-0,-0.043 -0.011,-0.071 -0.032,-0.086c-0.022,-0.014 -0.054,-0.021 -0.098,-0.021c-0.019,0 -0.038,0.002 -0.059,0.007c-0.021,0.005 -0.04,0.011 -0.058,0.019c-0.018,0.007 -0.031,0.014 -0.041,0.021l-0.02,-0.058c0.006,-0.004 0.02,-0.011 0.04,-0.02c0.02,-0.009 0.044,-0.017 0.072,-0.025c0.028,-0.007 0.057,-0.011 0.087,-0.011c0.038,0 0.071,0.005 0.1,0.015c0.028,0.01 0.05,0.028 0.066,0.054c0.016,0.025 0.024,0.061 0.024,0.108l-0,0.388Z" style="fill:#5e5e5e;fill-rule:nonzero;"/></g><g transform="matrix(31.3808,0,0,31.3808,238.48,173.934)"><path d="M0.094,-0.811l0.079,0l0,0.232l-0.004,0.095l0.004,0.003l0,0.414l-0.079,0.036l0,-0.78Zm0.187,0.819c-0.02,-0 -0.041,-0.001 -0.061,-0.004c-0.02,-0.003 -0.039,-0.007 -0.056,-0.011c-0.017,-0.004 -0.032,-0.008 -0.044,-0.013c-0.013,-0.004 -0.021,-0.008 -0.026,-0.011l0.079,-0.045c0.01,0.007 0.025,0.013 0.046,0.017c0.021,0.005 0.045,0.007 0.071,0.007c0.033,-0 0.063,-0.009 0.092,-0.026c0.028,-0.017 0.051,-0.043 0.069,-0.078c0.018,-0.035 0.027,-0.079 0.027,-0.132c0.001,-0.069 -0.013,-0.122 -0.04,-0.158c-0.027,-0.036 -0.066,-0.054 -0.119,-0.054c-0.031,-0 -0.06,0.006 -0.086,0.019c-0.027,0.013 -0.047,0.025 -0.061,0.038l-0.013,-0.042c0.009,-0.009 0.021,-0.02 0.036,-0.032c0.016,-0.013 0.036,-0.024 0.06,-0.033c0.024,-0.009 0.053,-0.014 0.086,-0.014c0.041,-0 0.078,0.01 0.111,0.029c0.033,0.02 0.06,0.049 0.079,0.088c0.02,0.039 0.03,0.089 0.03,0.148c0,0.061 -0.012,0.114 -0.035,0.16c-0.024,0.046 -0.056,0.082 -0.099,0.108c-0.042,0.026 -0.09,0.039 -0.146,0.039Z" style="fill:#5e5e5e;fill-rule:nonzero;"/></g><g transform="matrix(15.1044,0,0,15.1044,86.0195,198.478)"><path d="M0.442,-0l0,-0.077l-0.004,-0.002l0,-0.41l0.003,-0.002l-0.003,-0.088l0,-0.234l0.079,0l0,0.813l-0.075,-0Zm-0.172,0.008c-0.038,0 -0.074,-0.009 -0.107,-0.028c-0.034,-0.018 -0.061,-0.047 -0.082,-0.087c-0.021,-0.039 -0.031,-0.09 -0.031,-0.153c-0,-0.059 0.012,-0.112 0.035,-0.157c0.023,-0.046 0.055,-0.082 0.097,-0.108c0.042,-0.026 0.091,-0.039 0.147,-0.039c0.036,0 0.067,0.004 0.092,0.013c0.026,0.008 0.042,0.015 0.048,0.021l-0.03,0.053c-0.009,-0.008 -0.023,-0.015 -0.043,-0.02c-0.019,-0.005 -0.044,-0.008 -0.075,-0.008c-0.035,0 -0.067,0.009 -0.095,0.027c-0.028,0.019 -0.051,0.045 -0.067,0.08c-0.017,0.035 -0.025,0.077 -0.026,0.127c-0.001,0.072 0.013,0.126 0.041,0.162c0.029,0.035 0.068,0.053 0.118,0.053c0.033,-0 0.062,-0.007 0.088,-0.02c0.026,-0.013 0.046,-0.026 0.059,-0.037l0.013,0.042c-0.008,0.008 -0.02,0.018 -0.035,0.031c-0.015,0.012 -0.035,0.023 -0.059,0.033c-0.024,0.01 -0.054,0.015 -0.088,0.015Z" style="fill:#808080;fill-rule:nonzero;"/></g><g transform="matrix(15.1044,0,0,15.1044,95.1576,198.478)"><path d="M0.295,0.008c-0.078,0 -0.138,-0.025 -0.18,-0.075c-0.041,-0.05 -0.062,-0.12 -0.062,-0.209c0,-0.056 0.01,-0.105 0.029,-0.148c0.019,-0.043 0.048,-0.077 0.085,-0.102c0.037,-0.025 0.082,-0.038 0.135,-0.038c0.03,-0.001 0.057,0.004 0.081,0.014c0.024,0.01 0.045,0.024 0.062,0.042c0.018,0.019 0.031,0.041 0.041,0.067c0.01,0.026 0.015,0.054 0.016,0.086c0,0.017 -0,0.033 -0,0.047c-0.001,0.014 -0.002,0.026 -0.004,0.038l-0.396,0l0.007,-0.055l0.316,0c0.002,-0.034 -0.001,-0.065 -0.008,-0.092c-0.008,-0.027 -0.021,-0.049 -0.04,-0.065c-0.02,-0.016 -0.046,-0.024 -0.08,-0.024c-0.032,0 -0.061,0.009 -0.086,0.026c-0.025,0.017 -0.045,0.044 -0.059,0.082c-0.014,0.038 -0.021,0.087 -0.019,0.148c0.002,0.048 0.011,0.086 0.027,0.114c0.016,0.029 0.037,0.05 0.064,0.063c0.027,0.013 0.058,0.019 0.092,0.019c0.017,-0 0.035,-0.002 0.055,-0.007c0.019,-0.004 0.038,-0.009 0.055,-0.016c0.017,-0.006 0.03,-0.013 0.04,-0.019l0.017,0.053c-0.012,0.01 -0.028,0.019 -0.049,0.026c-0.021,0.008 -0.043,0.014 -0.068,0.018c-0.024,0.005 -0.048,0.007 -0.071,0.007Z" style="fill:#808080;fill-rule:nonzero;"/></g><g transform="matrix(15.1044,0,0,15.1044,103.541,198.478)"><path d="M0.052,-0.27c-0,-0.056 0.01,-0.106 0.03,-0.15c0.02,-0.045 0.05,-0.08 0.089,-0.105c0.039,-0.026 0.087,-0.039 0.143,-0.039c0.033,0 0.061,0.003 0.085,0.009c0.024,0.006 0.041,0.012 0.051,0.019l-0.014,0.065c-0.014,-0.01 -0.032,-0.017 -0.054,-0.022c-0.022,-0.005 -0.046,-0.008 -0.072,-0.008c-0.03,0 -0.059,0.008 -0.085,0.023c-0.027,0.016 -0.049,0.039 -0.066,0.071c-0.017,0.032 -0.027,0.072 -0.028,0.121c-0.001,0.052 0.006,0.095 0.022,0.129c0.016,0.035 0.037,0.06 0.064,0.077c0.027,0.017 0.056,0.026 0.088,0.026c0.032,-0 0.06,-0.005 0.085,-0.014c0.025,-0.009 0.043,-0.017 0.055,-0.024l0.017,0.047c-0.017,0.016 -0.041,0.029 -0.071,0.038c-0.03,0.01 -0.063,0.015 -0.099,0.015c-0.051,-0 -0.094,-0.012 -0.13,-0.037c-0.036,-0.024 -0.063,-0.057 -0.082,-0.099c-0.019,-0.042 -0.028,-0.089 -0.028,-0.142Z" style="fill:#808080;fill-rule:nonzero;"/></g><g transform="matrix(15.1044,0,0,15.1044,111.063,198.478)"><path d="M0.098,-0l0,-0.556l0.081,0l0,0.556l-0.081,-0Zm0.036,-0.678c-0.014,0 -0.027,-0.005 -0.037,-0.014c-0.011,-0.01 -0.016,-0.024 -0.016,-0.041c0,-0.012 0.003,-0.023 0.009,-0.033c0.006,-0.009 0.014,-0.017 0.023,-0.022c0.009,-0.005 0.018,-0.008 0.028,-0.008c0.018,0 0.031,0.005 0.04,0.016c0.009,0.01 0.013,0.023 0.013,0.039c0,0.019 -0.006,0.034 -0.018,0.046c-0.012,0.011 -0.026,0.017 -0.042,0.017Z" style="fill:#808080;fill-rule:nonzero;"/></g><g transform="matrix(15.1044,0,0,15.1044,115.246,198.478)"><path d="M0.091,0.247l0,-0.804l0.074,0l0,0.071l0.007,0.01l0,0.441l-0.001,0.011l0.001,0.092l0,0.179l-0.081,0Zm0.189,-0.239c-0.036,0 -0.066,-0.004 -0.091,-0.013c-0.025,-0.009 -0.041,-0.016 -0.047,-0.021l0.03,-0.054c0.009,0.008 0.023,0.015 0.042,0.02c0.019,0.005 0.043,0.008 0.073,0.008c0.036,0 0.068,-0.009 0.096,-0.027c0.028,-0.019 0.051,-0.045 0.067,-0.08c0.017,-0.035 0.025,-0.077 0.026,-0.126c0.001,-0.073 -0.013,-0.127 -0.042,-0.162c-0.028,-0.035 -0.067,-0.053 -0.117,-0.053c-0.032,0 -0.061,0.007 -0.087,0.02c-0.025,0.013 -0.044,0.025 -0.058,0.037l-0.013,-0.042c0.008,-0.008 0.019,-0.019 0.034,-0.031c0.015,-0.013 0.035,-0.024 0.059,-0.033c0.024,-0.01 0.053,-0.015 0.087,-0.015c0.038,0 0.074,0.009 0.107,0.028c0.034,0.018 0.061,0.047 0.082,0.086c0.021,0.04 0.031,0.091 0.031,0.154c0,0.059 -0.012,0.111 -0.035,0.157c-0.023,0.046 -0.055,0.082 -0.097,0.108c-0.042,0.026 -0.091,0.039 -0.147,0.039Z" style="fill:#808080;fill-rule:nonzero;"/></g><g transform="matrix(15.1044,0,0,15.1044,124.445,198.478)"><path d="M0.094,-0l0,-0.813l0.082,0l0,0.248l-0.005,0.086l-0.004,-0.006c0.013,-0.011 0.031,-0.023 0.053,-0.035c0.022,-0.012 0.047,-0.022 0.074,-0.031c0.027,-0.009 0.054,-0.013 0.082,-0.014c0.062,-0.001 0.106,0.016 0.133,0.051c0.027,0.035 0.04,0.096 0.039,0.183l0,0.331l-0.081,-0l0,-0.336c0,-0.061 -0.009,-0.103 -0.026,-0.127c-0.018,-0.024 -0.05,-0.036 -0.098,-0.034c-0.027,0.001 -0.056,0.008 -0.087,0.022c-0.031,0.014 -0.058,0.029 -0.08,0.046l0,0.429l-0.082,-0Z" style="fill:#808080;fill-rule:nonzero;"/></g><g transform="matrix(15.1044,0,0,15.1044,134.112,198.478)"><path d="M0.295,0.008c-0.078,0 -0.138,-0.025 -0.18,-0.075c-0.041,-0.05 -0.062,-0.12 -0.062,-0.209c0,-0.056 0.01,-0.105 0.029,-0.148c0.019,-0.043 0.048,-0.077 0.085,-0.102c0.037,-0.025 0.082,-0.038 0.135,-0.038c0.03,-0.001 0.057,0.004 0.081,0.014c0.024,0.01 0.045,0.024 0.062,0.042c0.018,0.019 0.031,0.041 0.041,0.067c0.01,0.026 0.015,0.054 0.016,0.086c0,0.017 -0,0.033 -0,0.047c-0.001,0.014 -0.002,0.026 -0.004,0.038l-0.396,0l0.007,-0.055l0.316,0c0.002,-0.034 -0.001,-0.065 -0.008,-0.092c-0.008,-0.027 -0.021,-0.049 -0.04,-0.065c-0.02,-0.016 -0.046,-0.024 -0.08,-0.024c-0.032,0 -0.061,0.009 -0.086,0.026c-0.025,0.017 -0.045,0.044 -0.059,0.082c-0.014,0.038 -0.021,0.087 -0.019,0.148c0.002,0.048 0.011,0.086 0.027,0.114c0.016,0.029 0.037,0.05 0.064,0.063c0.027,0.013 0.058,0.019 0.092,0.019c0.017,-0 0.035,-0.002 0.055,-0.007c0.019,-0.004 0.038,-0.009 0.055,-0.016c0.017,-0.006 0.03,-0.013 0.04,-0.019l0.017,0.053c-0.012,0.01 -0.028,0.019 -0.049,0.026c-0.021,0.008 -0.043,0.014 -0.068,0.018c-0.024,0.005 -0.048,0.007 -0.071,0.007Z" style="fill:#808080;fill-rule:nonzero;"/></g><g transform="matrix(15.1044,0,0,15.1044,142.495,198.478)"><path d="M0.163,-0.423l-0.006,-0.054c0.006,-0.009 0.017,-0.021 0.035,-0.035c0.018,-0.013 0.039,-0.025 0.063,-0.036c0.024,-0.011 0.049,-0.016 0.075,-0.016c0.013,0 0.023,0.001 0.032,0.002c0.009,0.001 0.016,0.002 0.021,0.004l0,0.077c-0.005,-0.003 -0.012,-0.005 -0.022,-0.008c-0.01,-0.003 -0.025,-0.004 -0.046,-0.004c-0.023,0 -0.044,0.004 -0.064,0.012c-0.02,0.008 -0.037,0.017 -0.052,0.028c-0.015,0.011 -0.027,0.021 -0.036,0.03Zm-0.077,0.423l0,-0.556l0.07,0l0.005,0.079l0.007,0.035l-0,0.442l-0.082,0Z" style="fill:#808080;fill-rule:nonzero;"/></g><g transform="matrix(15.1044,0,0,15.1044,148.521,198.478)"><path d="M0.098,-0l0,-0.556l0.081,0l0,0.556l-0.081,-0Zm0.036,-0.678c-0.014,0 -0.027,-0.005 -0.037,-0.014c-0.011,-0.01 -0.016,-0.024 -0.016,-0.041c0,-0.012 0.003,-0.023 0.009,-0.033c0.006,-0.009 0.014,-0.017 0.023,-0.022c0.009,-0.005 0.018,-0.008 0.028,-0.008c0.018,0 0.031,0.005 0.04,0.016c0.009,0.01 0.013,0.023 0.013,0.039c0,0.019 -0.006,0.034 -0.018,0.046c-0.012,0.011 -0.026,0.017 -0.042,0.017Z" style="fill:#808080;fill-rule:nonzero;"/></g><g transform="matrix(15.1044,0,0,15.1044,152.705,198.478)"><path d="M0.096,-0l0,-0.556l0.073,0l0,0.071c0.013,-0.01 0.031,-0.021 0.053,-0.033c0.022,-0.012 0.046,-0.023 0.072,-0.032c0.026,-0.009 0.053,-0.014 0.08,-0.015c0.061,-0.001 0.104,0.015 0.129,0.048c0.025,0.033 0.038,0.091 0.038,0.173l0,0.344l-0.082,-0l0,-0.345c0,-0.055 -0.008,-0.095 -0.024,-0.119c-0.015,-0.024 -0.047,-0.035 -0.095,-0.033c-0.017,0 -0.036,0.004 -0.055,0.011c-0.02,0.006 -0.039,0.015 -0.058,0.025c-0.019,0.01 -0.035,0.021 -0.049,0.032l0,0.429l-0.082,-0Z" style="fill:#808080;fill-rule:nonzero;"/></g><g transform="matrix(15.1044,0,0,15.1044,162.266,198.478)"><path d="M0.284,0.252c-0.07,0 -0.127,-0.012 -0.169,-0.037c-0.043,-0.025 -0.064,-0.065 -0.064,-0.12c-0,-0.021 0.005,-0.04 0.015,-0.057c0.01,-0.016 0.022,-0.03 0.036,-0.042c0.014,-0.011 0.026,-0.019 0.038,-0.024l0.055,0.008c-0.008,0.006 -0.017,0.013 -0.027,0.022c-0.01,0.009 -0.019,0.02 -0.026,0.034c-0.007,0.013 -0.011,0.03 -0.011,0.049c0,0.026 0.006,0.047 0.017,0.064c0.011,0.016 0.028,0.028 0.051,0.036c0.023,0.007 0.053,0.011 0.088,0.011c0.032,0 0.062,-0.004 0.091,-0.011c0.029,-0.008 0.052,-0.019 0.07,-0.035c0.018,-0.015 0.027,-0.035 0.027,-0.059c0,-0.021 -0.005,-0.039 -0.014,-0.052c-0.009,-0.013 -0.024,-0.023 -0.046,-0.029c-0.021,-0.007 -0.05,-0.01 -0.087,-0.01l-0.075,0c-0.019,0 -0.037,-0.001 -0.052,-0.002c-0.015,-0.002 -0.028,-0.004 -0.039,-0.006c-0.003,-0.001 -0.006,-0.002 -0.009,-0.004c-0.003,-0.002 -0.006,-0.003 -0.009,-0.004c-0.024,-0.008 -0.04,-0.02 -0.047,-0.037c-0.007,-0.017 -0.01,-0.035 -0.01,-0.053c0,-0.013 0.004,-0.026 0.011,-0.04c0.007,-0.013 0.017,-0.026 0.029,-0.039c0.012,-0.012 0.025,-0.023 0.039,-0.033l0.052,0.015c-0.011,0.005 -0.023,0.015 -0.037,0.029c-0.013,0.015 -0.02,0.031 -0.02,0.048c-0,0.023 0.006,0.039 0.018,0.049c0.012,0.008 0.033,0.013 0.062,0.013l0.121,0c0.04,0 0.072,0.004 0.097,0.012c0.025,0.007 0.044,0.018 0.058,0.031c0.014,0.013 0.023,0.028 0.028,0.044c0.005,0.016 0.008,0.033 0.008,0.051c-0,0.027 -0.007,0.052 -0.021,0.074c-0.014,0.022 -0.033,0.041 -0.058,0.056c-0.024,0.016 -0.053,0.028 -0.085,0.036c-0.033,0.008 -0.068,0.012 -0.105,0.012Zm-0.002,-0.438c-0.04,-0 -0.076,-0.008 -0.108,-0.023c-0.032,-0.015 -0.058,-0.036 -0.077,-0.064c-0.019,-0.027 -0.028,-0.06 -0.028,-0.097c-0,-0.044 0.01,-0.08 0.029,-0.109c0.02,-0.028 0.046,-0.049 0.078,-0.063c0.033,-0.014 0.069,-0.021 0.109,-0.022c0.039,-0.001 0.074,0.005 0.107,0.018c0.033,0.013 0.06,0.033 0.08,0.061c0.02,0.027 0.03,0.062 0.03,0.105c-0,0.042 -0.01,0.077 -0.03,0.106c-0.019,0.029 -0.046,0.051 -0.079,0.066c-0.033,0.015 -0.07,0.022 -0.111,0.022Zm0.001,-0.054c0.041,0 0.074,-0.01 0.099,-0.031c0.026,-0.021 0.039,-0.057 0.039,-0.106c-0,-0.045 -0.012,-0.078 -0.035,-0.099c-0.024,-0.022 -0.056,-0.033 -0.097,-0.033c-0.024,0 -0.047,0.005 -0.068,0.013c-0.021,0.008 -0.038,0.021 -0.051,0.041c-0.013,0.019 -0.02,0.046 -0.02,0.081c-0,0.038 0.011,0.07 0.034,0.096c0.023,0.025 0.056,0.038 0.099,0.038Zm0.155,-0.25l-0.029,-0.032c0.008,-0.008 0.023,-0.015 0.047,-0.022c0.024,-0.007 0.048,-0.011 0.073,-0.011l0.046,0l-0,0.065l-0.137,0Z" style="fill:#808080;fill-rule:nonzero;"/></g><g transform="matrix(15.1044,0,0,15.1044,174.048,198.478)"><path d="M0.223,0.008c-0.033,0 -0.062,-0.006 -0.087,-0.019c-0.026,-0.012 -0.046,-0.03 -0.06,-0.053c-0.015,-0.023 -0.022,-0.051 -0.022,-0.083c-0,-0.037 0.01,-0.068 0.031,-0.093c0.02,-0.026 0.05,-0.046 0.089,-0.06c0.022,-0.008 0.046,-0.015 0.072,-0.02c0.026,-0.005 0.052,-0.008 0.078,-0.01c0.025,-0.002 0.048,-0.003 0.067,-0.003l0.018,0.023l-0.018,0.029c-0.013,0 -0.03,0.001 -0.051,0.003c-0.022,0.001 -0.043,0.004 -0.065,0.008c-0.022,0.004 -0.04,0.009 -0.056,0.015c-0.028,0.01 -0.049,0.024 -0.064,0.04c-0.014,0.016 -0.021,0.037 -0.021,0.062c-0,0.029 0.009,0.053 0.026,0.072c0.018,0.019 0.047,0.028 0.087,0.028c0.024,-0 0.046,-0.003 0.066,-0.01c0.021,-0.006 0.038,-0.013 0.052,-0.021c0.014,-0.008 0.023,-0.014 0.027,-0.018l0.018,0.016l-0.013,0.033c-0.015,0.014 -0.038,0.028 -0.068,0.041c-0.031,0.013 -0.066,0.02 -0.106,0.02Zm0.249,-0.008l-0.076,-0l-0,-0.079l-0.005,-0.001l-0,-0.311c-0,-0.043 -0.011,-0.071 -0.032,-0.086c-0.022,-0.014 -0.054,-0.021 -0.098,-0.021c-0.019,0 -0.038,0.002 -0.059,0.007c-0.021,0.005 -0.04,0.011 -0.058,0.019c-0.018,0.007 -0.031,0.014 -0.041,0.021l-0.02,-0.058c0.006,-0.004 0.02,-0.011 0.04,-0.02c0.02,-0.009 0.044,-0.017 0.072,-0.025c0.028,-0.007 0.057,-0.011 0.087,-0.011c0.038,0 0.071,0.005 0.1,0.015c0.028,0.01 0.05,0.028 0.066,0.054c0.016,0.025 0.024,0.061 0.024,0.108l-0,0.388Z" style="fill:#808080;fill-rule:nonzero;"/></g><g transform="matrix(15.1044,0,0,15.1044,182.491,198.478)"><rect x="0.095" y="-0.813" width="0.082" height="0.813" style="fill:#808080;fill-rule:nonzero;"/></g><g transform="matrix(15.1044,0,0,15.1044,186.6,198.478)"><rect x="0.095" y="-0.813" width="0.082" height="0.813" style="fill:#808080;fill-rule:nonzero;"/></g><g transform="matrix(15.1044,0,0,15.1044,193.457,198.478)"><path d="M0.242,0.008c-0.023,0 -0.044,-0.003 -0.063,-0.01c-0.019,-0.007 -0.035,-0.021 -0.046,-0.041c-0.012,-0.019 -0.018,-0.049 -0.018,-0.089l0,-0.363l-0.077,0l-0,-0.045c0.018,-0.005 0.036,-0.009 0.053,-0.013c0.017,-0.003 0.028,-0.011 0.032,-0.022c0.002,-0.006 0.004,-0.015 0.007,-0.028c0.002,-0.013 0.005,-0.027 0.008,-0.042c0.003,-0.015 0.006,-0.028 0.009,-0.039l0.049,0l0,0.127l0.173,0l0,0.062l-0.173,0l0,0.317c0,0.037 0.002,0.064 0.007,0.081c0.005,0.017 0.012,0.027 0.023,0.032c0.011,0.005 0.026,0.007 0.044,0.007c0.011,0 0.024,-0.001 0.038,-0.004c0.014,-0.003 0.027,-0.007 0.039,-0.011c0.012,-0.004 0.022,-0.008 0.028,-0.012l0.014,0.047c-0.009,0.008 -0.022,0.015 -0.039,0.022c-0.017,0.007 -0.035,0.013 -0.054,0.017c-0.019,0.005 -0.037,0.007 -0.054,0.007Z" style="fill:#808080;fill-rule:nonzero;"/></g><g transform="matrix(15.1044,0,0,15.1044,199.786,198.478)"><path d="M0.094,-0l0,-0.813l0.082,0l0,0.248l-0.005,0.086l-0.004,-0.006c0.013,-0.011 0.031,-0.023 0.053,-0.035c0.022,-0.012 0.047,-0.022 0.074,-0.031c0.027,-0.009 0.054,-0.013 0.082,-0.014c0.062,-0.001 0.106,0.016 0.133,0.051c0.027,0.035 0.04,0.096 0.039,0.183l0,0.331l-0.081,-0l0,-0.336c0,-0.061 -0.009,-0.103 -0.026,-0.127c-0.018,-0.024 -0.05,-0.036 -0.098,-0.034c-0.027,0.001 -0.056,0.008 -0.087,0.022c-0.031,0.014 -0.058,0.029 -0.08,0.046l0,0.429l-0.082,-0Z" style="fill:#808080;fill-rule:nonzero;"/></g><g transform="matrix(15.1044,0,0,15.1044,209.452,198.478)"><path d="M0.295,0.008c-0.078,0 -0.138,-0.025 -0.18,-0.075c-0.041,-0.05 -0.062,-0.12 -0.062,-0.209c0,-0.056 0.01,-0.105 0.029,-0.148c0.019,-0.043 0.048,-0.077 0.085,-0.102c0.037,-0.025 0.082,-0.038 0.135,-0.038c0.03,-0.001 0.057,0.004 0.081,0.014c0.024,0.01 0.045,0.024 0.062,0.042c0.018,0.019 0.031,0.041 0.041,0.067c0.01,0.026 0.015,0.054 0.016,0.086c0,0.017 -0,0.033 -0,0.047c-0.001,0.014 -0.002,0.026 -0.004,0.038l-0.396,0l0.007,-0.055l0.316,0c0.002,-0.034 -0.001,-0.065 -0.008,-0.092c-0.008,-0.027 -0.021,-0.049 -0.04,-0.065c-0.02,-0.016 -0.046,-0.024 -0.08,-0.024c-0.032,0 -0.061,0.009 -0.086,0.026c-0.025,0.017 -0.045,0.044 -0.059,0.082c-0.014,0.038 -0.021,0.087 -0.019,0.148c0.002,0.048 0.011,0.086 0.027,0.114c0.016,0.029 0.037,0.05 0.064,0.063c0.027,0.013 0.058,0.019 0.092,0.019c0.017,-0 0.035,-0.002 0.055,-0.007c0.019,-0.004 0.038,-0.009 0.055,-0.016c0.017,-0.006 0.03,-0.013 0.04,-0.019l0.017,0.053c-0.012,0.01 -0.028,0.019 -0.049,0.026c-0.021,0.008 -0.043,0.014 -0.068,0.018c-0.024,0.005 -0.048,0.007 -0.071,0.007Z" style="fill:#808080;fill-rule:nonzero;"/></g><g transform="matrix(15.1044,0,0,15.1044,220.584,198.478)"><path d="M0.052,-0.27c-0,-0.056 0.01,-0.106 0.03,-0.15c0.02,-0.045 0.05,-0.08 0.089,-0.105c0.039,-0.026 0.087,-0.039 0.143,-0.039c0.033,0 0.061,0.003 0.085,0.009c0.024,0.006 0.041,0.012 0.051,0.019l-0.014,0.065c-0.014,-0.01 -0.032,-0.017 -0.054,-0.022c-0.022,-0.005 -0.046,-0.008 -0.072,-0.008c-0.03,0 -0.059,0.008 -0.085,0.023c-0.027,0.016 -0.049,0.039 -0.066,0.071c-0.017,0.032 -0.027,0.072 -0.028,0.121c-0.001,0.052 0.006,0.095 0.022,0.129c0.016,0.035 0.037,0.06 0.064,0.077c0.027,0.017 0.056,0.026 0.088,0.026c0.032,-0 0.06,-0.005 0.085,-0.014c0.025,-0.009 0.043,-0.017 0.055,-0.024l0.017,0.047c-0.017,0.016 -0.041,0.029 -0.071,0.038c-0.03,0.01 -0.063,0.015 -0.099,0.015c-0.051,-0 -0.094,-0.012 -0.13,-0.037c-0.036,-0.024 -0.063,-0.057 -0.082,-0.099c-0.019,-0.042 -0.028,-0.089 -0.028,-0.142Z" style="fill:#808080;fill-rule:nonzero;"/></g><g transform="matrix(15.1044,0,0,15.1044,228.106,198.478)"><path d="M0.294,0.008c-0.044,0 -0.082,-0.008 -0.113,-0.024c-0.031,-0.016 -0.056,-0.038 -0.076,-0.066c-0.019,-0.027 -0.033,-0.059 -0.041,-0.094c-0.009,-0.036 -0.013,-0.074 -0.013,-0.113c0.001,-0.059 0.013,-0.109 0.035,-0.15c0.023,-0.041 0.053,-0.072 0.091,-0.093c0.038,-0.021 0.08,-0.032 0.127,-0.032c0.058,-0 0.105,0.013 0.141,0.04c0.036,0.027 0.062,0.063 0.078,0.108c0.016,0.044 0.024,0.093 0.023,0.145c-0.001,0.059 -0.012,0.11 -0.034,0.151c-0.022,0.042 -0.052,0.073 -0.09,0.095c-0.037,0.022 -0.08,0.033 -0.128,0.033Zm0.002,-0.058c0.053,0 0.094,-0.02 0.123,-0.06c0.029,-0.04 0.044,-0.095 0.044,-0.164c0,-0.043 -0.005,-0.081 -0.017,-0.116c-0.011,-0.035 -0.028,-0.063 -0.052,-0.084c-0.024,-0.02 -0.054,-0.031 -0.091,-0.031c-0.052,-0.001 -0.093,0.017 -0.123,0.055c-0.03,0.038 -0.045,0.092 -0.046,0.162c-0,0.042 0.006,0.081 0.017,0.117c0.011,0.036 0.029,0.065 0.053,0.087c0.024,0.022 0.054,0.033 0.092,0.034Z" style="fill:#808080;fill-rule:nonzero;"/></g><g transform="matrix(15.1044,0,0,15.1044,237.124,198.478)"><path d="M0.442,-0l0,-0.077l-0.004,-0.002l0,-0.41l0.003,-0.002l-0.003,-0.088l0,-0.234l0.079,0l0,0.813l-0.075,-0Zm-0.172,0.008c-0.038,0 -0.074,-0.009 -0.107,-0.028c-0.034,-0.018 -0.061,-0.047 -0.082,-0.087c-0.021,-0.039 -0.031,-0.09 -0.031,-0.153c-0,-0.059 0.012,-0.112 0.035,-0.157c0.023,-0.046 0.055,-0.082 0.097,-0.108c0.042,-0.026 0.091,-0.039 0.147,-0.039c0.036,0 0.067,0.004 0.092,0.013c0.026,0.008 0.042,0.015 0.048,0.021l-0.03,0.053c-0.009,-0.008 -0.023,-0.015 -0.043,-0.02c-0.019,-0.005 -0.044,-0.008 -0.075,-0.008c-0.035,0 -0.067,0.009 -0.095,0.027c-0.028,0.019 -0.051,0.045 -0.067,0.08c-0.017,0.035 -0.025,0.077 -0.026,0.127c-0.001,0.072 0.013,0.126 0.041,0.162c0.029,0.035 0.068,0.053 0.118,0.053c0.033,-0 0.062,-0.007 0.088,-0.02c0.026,-0.013 0.046,-0.026 0.059,-0.037l0.013,0.042c-0.008,0.008 -0.02,0.018 -0.035,0.031c-0.015,0.012 -0.035,0.023 -0.059,0.033c-0.024,0.01 -0.054,0.015 -0.088,0.015Z" style="fill:#808080;fill-rule:nonzero;"/></g><g transform="matrix(15.1044,0,0,15.1044,246.262,198.478)"><path d="M0.295,0.008c-0.078,0 -0.138,-0.025 -0.18,-0.075c-0.041,-0.05 -0.062,-0.12 -0.062,-0.209c0,-0.056 0.01,-0.105 0.029,-0.148c0.019,-0.043 0.048,-0.077 0.085,-0.102c0.037,-0.025 0.082,-0.038 0.135,-0.038c0.03,-0.001 0.057,0.004 0.081,0.014c0.024,0.01 0.045,0.024 0.062,0.042c0.018,0.019 0.031,0.041 0.041,0.067c0.01,0.026 0.015,0.054 0.016,0.086c0,0.017 -0,0.033 -0,0.047c-0.001,0.014 -0.002,0.026 -0.004,0.038l-0.396,0l0.007,-0.055l0.316,0c0.002,-0.034 -0.001,-0.065 -0.008,-0.092c-0.008,-0.027 -0.021,-0.049 -0.04,-0.065c-0.02,-0.016 -0.046,-0.024 -0.08,-0.024c-0.032,0 -0.061,0.009 -0.086,0.026c-0.025,0.017 -0.045,0.044 -0.059,0.082c-0.014,0.038 -0.021,0.087 -0.019,0.148c0.002,0.048 0.011,0.086 0.027,0.114c0.016,0.029 0.037,0.05 0.064,0.063c0.027,0.013 0.058,0.019 0.092,0.019c0.017,-0 0.035,-0.002 0.055,-0.007c0.019,-0.004 0.038,-0.009 0.055,-0.016c0.017,-0.006 0.03,-0.013 0.04,-0.019l0.017,0.053c-0.012,0.01 -0.028,0.019 -0.049,0.026c-0.021,0.008 -0.043,0.014 -0.068,0.018c-0.024,0.005 -0.048,0.007 -0.071,0.007Z" style="fill:#808080;fill-rule:nonzero;"/></g></g></svg>