<?xml version="1.0" encoding="UTF-8" standalone="no"?><!DOCTYPE svg PUBLIC "-//W3C//DTD SVG 1.1//EN" "http://www.w3.org/Graphics/SVG/1.1/DTD/svg11.dtd"><svg width="100%" height="100%" viewBox="0 0 600 200" version="1.1" xmlns="http://www.w3.org/2000/svg" xmlns:xlink="http://www.w3.org/1999/xlink" xml:space="preserve" xmlns:serif="http://www.serif.com/" style="fill-rule:evenodd;clip-rule:evenodd;stroke-linejoin:round;stroke-miterlimit:2;"><g transform="matrix(1.02912,0,0,1.02912,-15.9271,-134.966)"><g transform="matrix(62.5,0,0,62.5,28.0598,205.053)"><path d="M0.152,-0l0,-0.043l0.116,-0.021l-0.016,0.022l0,-0.61l0.018,0.015l-0.193,0l0.02,-0.017l-0.02,0.127l-0.05,0l-0,-0.171l0.531,0l0,0.171l-0.05,0l-0.02,-0.125l0.02,0.015l-0.193,0l0.018,-0.015l0,0.61l-0.015,-0.022l0.115,0.021l0,0.043l-0.281,0Z" style="fill:#808080;fill-rule:nonzero;"/></g><g transform="matrix(62.5,0,0,62.5,61.4973,205.053)"><path d="M0.276,0.009c-0.045,0 -0.084,-0.01 -0.119,-0.031c-0.034,-0.02 -0.061,-0.05 -0.08,-0.089c-0.019,-0.039 -0.029,-0.087 -0.029,-0.144c-0,-0.058 0.01,-0.108 0.03,-0.15c0.02,-0.042 0.048,-0.075 0.085,-0.098c0.037,-0.023 0.08,-0.034 0.129,-0.034c0.047,0 0.085,0.01 0.115,0.029c0.031,0.02 0.053,0.047 0.069,0.082c0.014,0.035 0.022,0.074 0.022,0.119c-0,0.007 -0,0.015 -0.001,0.022c-0.001,0.007 -0.002,0.016 -0.003,0.027l-0.385,-0l-0,-0.057l0.315,-0l-0.009,0.006c0.001,-0.03 -0.003,-0.058 -0.011,-0.083c-0.008,-0.025 -0.022,-0.046 -0.041,-0.061c-0.019,-0.015 -0.045,-0.023 -0.077,-0.023c-0.034,-0 -0.063,0.009 -0.086,0.027c-0.023,0.018 -0.041,0.043 -0.052,0.074c-0.011,0.031 -0.017,0.068 -0.017,0.109c0,0.044 0.006,0.082 0.019,0.113c0.013,0.032 0.031,0.057 0.056,0.074c0.024,0.017 0.054,0.026 0.089,0.026c0.025,-0 0.052,-0.005 0.081,-0.015c0.029,-0.009 0.06,-0.024 0.091,-0.044l0.029,0.045c-0.037,0.025 -0.075,0.044 -0.112,0.057c-0.037,0.013 -0.073,0.019 -0.108,0.019Z" style="fill:#808080;fill-rule:nonzero;"/></g><g transform="matrix(62.5,0,0,62.5,95.6848,205.053)"><path d="M0.272,0.009c-0.043,0 -0.081,-0.011 -0.116,-0.032c-0.034,-0.021 -0.061,-0.051 -0.081,-0.091c-0.019,-0.04 -0.029,-0.088 -0.029,-0.144c-0,-0.049 0.007,-0.091 0.02,-0.126c0.014,-0.035 0.033,-0.063 0.056,-0.086c0.023,-0.023 0.05,-0.039 0.08,-0.05c0.031,-0.011 0.062,-0.017 0.095,-0.017c0.027,0 0.055,0.004 0.085,0.011c0.031,0.007 0.057,0.017 0.08,0.03l-0.004,0.125l-0.054,0l-0.013,-0.094l0.008,0.009c-0.017,-0.008 -0.034,-0.014 -0.053,-0.017c-0.019,-0.003 -0.035,-0.005 -0.05,-0.005c-0.035,-0 -0.065,0.009 -0.09,0.026c-0.025,0.018 -0.044,0.043 -0.057,0.075c-0.013,0.032 -0.02,0.07 -0.02,0.114c-0,0.045 0.007,0.084 0.021,0.115c0.014,0.031 0.033,0.055 0.057,0.071c0.025,0.016 0.052,0.024 0.083,0.024c0.024,-0 0.049,-0.005 0.076,-0.015c0.027,-0.01 0.054,-0.025 0.083,-0.045l0.028,0.044c-0.035,0.027 -0.069,0.046 -0.104,0.059c-0.035,0.013 -0.068,0.019 -0.101,0.019Z" style="fill:#808080;fill-rule:nonzero;"/></g><g transform="matrix(62.5,0,0,62.5,126.622,205.053)"><path d="M0.024,-0l0,-0.043l0.091,-0.02l-0.012,0.015l0,-0.67l0.012,0.016l-0.091,-0.02l0,-0.043l0.159,-0.007l0,0.338l-0.018,-0.004c0.033,-0.034 0.067,-0.059 0.104,-0.075c0.036,-0.016 0.07,-0.024 0.103,-0.024c0.029,0 0.056,0.006 0.079,0.018c0.023,0.012 0.041,0.03 0.055,0.055c0.013,0.024 0.019,0.055 0.019,0.092l0,0.324l-0.01,-0.014l0.088,0.019l0,0.043l-0.233,0l0,-0.043l0.086,-0.019l-0.011,0.015l0,-0.307c0.001,-0.041 -0.009,-0.072 -0.028,-0.091c-0.019,-0.019 -0.045,-0.029 -0.076,-0.029c-0.024,0 -0.051,0.007 -0.08,0.02c-0.029,0.013 -0.058,0.034 -0.085,0.063l0.007,-0.017l0,0.361l-0.01,-0.014l0.085,0.018l0,0.043l-0.234,0Z" style="fill:#808080;fill-rule:nonzero;"/></g><g transform="matrix(62.5,0,0,62.5,177.872,205.053)"><path d="M0.183,-0.051l-0.009,-0.011l0.087,0.019l0,0.043l-0.237,-0l0,-0.043l0.087,-0.019l-0.008,0.011l0,-0.662l0.008,0.009l-0.087,-0.018l-0,-0.043l0.159,-0.007l0,0.721Z" style="fill:#808080;fill-rule:nonzero;"/></g><g transform="matrix(62.5,0,0,62.5,194.872,205.053)"><path d="M0.449,-0.045l-0.013,-0.018l0.092,0.018l0,0.044l-0.14,0.006l-0.012,-0.096l0.007,0.003c-0.029,0.032 -0.061,0.056 -0.095,0.073c-0.034,0.016 -0.067,0.024 -0.099,0.024c-0.039,0 -0.071,-0.012 -0.098,-0.037c-0.027,-0.025 -0.04,-0.062 -0.04,-0.112c-0,-0.039 0.008,-0.07 0.025,-0.091c0.017,-0.02 0.04,-0.035 0.069,-0.044c0.029,-0.009 0.063,-0.013 0.102,-0.013l0.131,0l-0.009,0.01l0,-0.096c0,-0.037 -0.01,-0.063 -0.029,-0.079c-0.019,-0.015 -0.046,-0.023 -0.08,-0.023c-0.018,0 -0.037,0.002 -0.057,0.006c-0.021,0.003 -0.042,0.009 -0.065,0.017l0.012,-0.013l-0.01,0.091l-0.053,0l-0.008,-0.124c0.038,-0.013 0.074,-0.022 0.107,-0.028c0.033,-0.007 0.064,-0.01 0.092,-0.01c0.053,0 0.095,0.012 0.126,0.035c0.03,0.024 0.045,0.062 0.045,0.114l0,0.343Zm-0.317,-0.102c0,0.033 0.008,0.057 0.024,0.072c0.015,0.015 0.035,0.023 0.059,0.023c0.023,-0 0.049,-0.007 0.078,-0.022c0.028,-0.014 0.055,-0.033 0.082,-0.058l-0.006,0.021l0,-0.134l0.009,0.009l-0.119,-0c-0.047,-0 -0.08,0.007 -0.099,0.021c-0.019,0.015 -0.028,0.037 -0.028,0.068Z" style="fill:#808080;fill-rule:nonzero;"/></g><g transform="matrix(62.5,0,0,62.5,227.372,205.053)"><path d="M0.603,-0.525l0.201,-0.007l0,0.044l-0.07,0.017l0.014,-0.012l-0.137,0.485l-0.088,0l-0.13,-0.472l0.016,0l-0.138,0.472l-0.088,0l-0.131,-0.483l0.012,0.012l-0.069,-0.013l-0,-0.043l0.216,-0.007l-0,0.044l-0.091,0.016l0.009,-0.01l0.111,0.435l-0.013,0l0.134,-0.479l0.087,-0.006l0.129,0.488l-0.013,0l0.117,-0.436l0.009,0.011l-0.087,-0.013l-0,-0.043Z" style="fill:#808080;fill-rule:nonzero;"/></g><g transform="matrix(62.5,0,0,62.5,289.81,205.053)"><path d="M0.449,-0.045l-0.013,-0.018l0.092,0.018l0,0.044l-0.14,0.006l-0.012,-0.096l0.007,0.003c-0.029,0.032 -0.061,0.056 -0.095,0.073c-0.034,0.016 -0.067,0.024 -0.099,0.024c-0.039,0 -0.071,-0.012 -0.098,-0.037c-0.027,-0.025 -0.04,-0.062 -0.04,-0.112c-0,-0.039 0.008,-0.07 0.025,-0.091c0.017,-0.02 0.04,-0.035 0.069,-0.044c0.029,-0.009 0.063,-0.013 0.102,-0.013l0.131,0l-0.009,0.01l0,-0.096c0,-0.037 -0.01,-0.063 -0.029,-0.079c-0.019,-0.015 -0.046,-0.023 -0.08,-0.023c-0.018,0 -0.037,0.002 -0.057,0.006c-0.021,0.003 -0.042,0.009 -0.065,0.017l0.012,-0.013l-0.01,0.091l-0.053,0l-0.008,-0.124c0.038,-0.013 0.074,-0.022 0.107,-0.028c0.033,-0.007 0.064,-0.01 0.092,-0.01c0.053,0 0.095,0.012 0.126,0.035c0.03,0.024 0.045,0.062 0.045,0.114l0,0.343Zm-0.317,-0.102c0,0.033 0.008,0.057 0.024,0.072c0.015,0.015 0.035,0.023 0.059,0.023c0.023,-0 0.049,-0.007 0.078,-0.022c0.028,-0.014 0.055,-0.033 0.082,-0.058l-0.006,0.021l0,-0.134l0.009,0.009l-0.119,-0c-0.047,-0 -0.08,0.007 -0.099,0.021c-0.019,0.015 -0.028,0.037 -0.028,0.068Z" style="fill:#808080;fill-rule:nonzero;"/></g><g transform="matrix(62.5,0,0,62.5,323.997,205.053)"><path d="M0.038,-0l0,-0.043l0.09,-0.02l-0.012,0.015l0,-0.43l0.012,0.015l-0.09,-0.019l-0,-0.043l0.14,-0.007l0.011,0.098l-0.011,-0.004c0.033,-0.034 0.068,-0.059 0.105,-0.075c0.036,-0.016 0.07,-0.024 0.103,-0.024c0.044,0 0.08,0.014 0.109,0.041c0.03,0.027 0.044,0.068 0.043,0.125l0,0.323l-0.01,-0.014l0.088,0.019l0,0.043l-0.233,0l0,-0.043l0.087,-0.019l-0.012,0.015l0,-0.307c0,-0.041 -0.009,-0.072 -0.028,-0.091c-0.019,-0.019 -0.044,-0.029 -0.075,-0.029c-0.025,0 -0.051,0.007 -0.08,0.02c-0.029,0.013 -0.058,0.034 -0.086,0.062l0.007,-0.016l0,0.361l-0.01,-0.014l0.085,0.018l0,0.043l-0.233,0Z" style="fill:#808080;fill-rule:nonzero;"/></g><g transform="matrix(62.5,0,0,62.5,363.56,205.053)"><path d="M0.245,0.009c-0.037,0 -0.07,-0.01 -0.1,-0.031c-0.03,-0.02 -0.054,-0.05 -0.071,-0.09c-0.017,-0.039 -0.026,-0.087 -0.026,-0.144c0,-0.093 0.024,-0.163 0.071,-0.21c0.047,-0.047 0.112,-0.071 0.195,-0.071c0.017,-0 0.035,0.001 0.054,0.004c0.02,0.003 0.039,0.007 0.059,0.012l-0.016,0.009l0,-0.201l0.009,0.011l-0.092,-0.02l0,-0.043l0.163,-0.007l0,0.723l-0.012,-0.014l0.09,0.018l0,0.044l-0.14,0.006l-0.012,-0.086l0.01,0.004c-0.03,0.029 -0.06,0.05 -0.09,0.064c-0.031,0.015 -0.061,0.022 -0.092,0.022Zm0.028,-0.061c0.023,-0 0.048,-0.006 0.073,-0.019c0.025,-0.012 0.05,-0.03 0.075,-0.055l-0.01,0.027l0,-0.379l0.011,0.02c-0.041,-0.013 -0.078,-0.02 -0.111,-0.02c-0.059,-0 -0.103,0.019 -0.134,0.057c-0.031,0.038 -0.046,0.091 -0.046,0.158c0,0.044 0.006,0.082 0.018,0.113c0.013,0.032 0.03,0.056 0.051,0.073c0.022,0.017 0.046,0.025 0.073,0.025Z" style="fill:#808080;fill-rule:nonzero;"/></g><g transform="matrix(62.5,0,0,62.5,413.122,205.053)"><path d="M0.027,0.23l0,-0.043l0.091,-0.021l-0.013,0.015l0,-0.657l0.012,0.013l-0.09,-0.019l0,-0.043l0.14,-0.007l0.01,0.087l-0.009,-0.006c0.031,-0.029 0.061,-0.05 0.092,-0.064c0.031,-0.015 0.061,-0.022 0.091,-0.022c0.037,0 0.071,0.01 0.101,0.031c0.029,0.021 0.053,0.05 0.07,0.09c0.017,0.039 0.026,0.086 0.026,0.143c0,0.061 -0.011,0.113 -0.032,0.155c-0.021,0.042 -0.05,0.074 -0.088,0.096c-0.038,0.021 -0.083,0.032 -0.134,0.032c-0.019,0 -0.038,-0.002 -0.058,-0.005c-0.02,-0.003 -0.041,-0.008 -0.063,-0.013l0.012,-0.011l-0,0.2l-0.011,-0.014l0.103,0.02l0,0.043l-0.25,0Zm0.258,-0.28c0.059,0 0.103,-0.019 0.134,-0.057c0.031,-0.038 0.046,-0.091 0.046,-0.158c0,-0.044 -0.006,-0.082 -0.019,-0.113c-0.012,-0.031 -0.029,-0.055 -0.05,-0.073c-0.021,-0.017 -0.046,-0.025 -0.073,-0.025c-0.023,0 -0.047,0.006 -0.073,0.019c-0.024,0.012 -0.05,0.031 -0.075,0.056l0.01,-0.025l0,0.375l-0.011,-0.018c0.041,0.013 0.078,0.019 0.111,0.019Z" style="fill:#808080;fill-rule:nonzero;"/></g><g transform="matrix(62.5,0,0,62.5,450.372,205.053)"><path d="M0.294,-0.537c0.073,0 0.131,0.023 0.173,0.069c0.041,0.046 0.062,0.111 0.062,0.195c0,0.057 -0.01,0.106 -0.03,0.149c-0.021,0.042 -0.05,0.075 -0.087,0.098c-0.037,0.023 -0.082,0.035 -0.135,0.035c-0.072,0 -0.128,-0.022 -0.169,-0.067c-0.041,-0.045 -0.061,-0.11 -0.061,-0.195c0,-0.059 0.01,-0.109 0.03,-0.152c0.019,-0.042 0.048,-0.075 0.085,-0.098c0.037,-0.023 0.081,-0.034 0.132,-0.034Zm-0.004,0.059c-0.051,0 -0.091,0.019 -0.118,0.058c-0.027,0.039 -0.041,0.093 -0.041,0.163c0,0.069 0.013,0.12 0.039,0.155c0.026,0.035 0.063,0.052 0.112,0.052c0.035,-0 0.065,-0.009 0.09,-0.026c0.024,-0.018 0.042,-0.043 0.055,-0.076c0.012,-0.033 0.018,-0.072 0.018,-0.117c0,-0.068 -0.013,-0.12 -0.04,-0.155c-0.027,-0.036 -0.066,-0.054 -0.115,-0.054Z" style="fill:#808080;fill-rule:nonzero;"/></g><g transform="matrix(62.5,0,0,62.5,486.31,205.053)"><path d="M0.183,-0.051l-0.009,-0.011l0.087,0.019l0,0.043l-0.237,-0l0,-0.043l0.087,-0.019l-0.008,0.011l0,-0.662l0.008,0.009l-0.087,-0.018l-0,-0.043l0.159,-0.007l0,0.721Z" style="fill:#808080;fill-rule:nonzero;"/></g><g transform="matrix(62.5,0,0,62.5,504.122,205.053)"><path d="M0.196,-0.051l-0.009,-0.011l0.087,0.019l0,0.043l-0.236,-0l-0,-0.043l0.087,-0.019l-0.009,0.011l0,-0.422l0.008,0.009l-0.086,-0.018l0,-0.043l0.158,-0.006l0,0.48Zm-0.046,-0.588c-0.015,0 -0.028,-0.005 -0.038,-0.015c-0.01,-0.01 -0.015,-0.024 -0.015,-0.041c0,-0.018 0.005,-0.032 0.015,-0.041c0.011,-0.01 0.024,-0.015 0.039,-0.015c0.016,0 0.029,0.005 0.039,0.014c0.01,0.009 0.015,0.023 0.015,0.042c-0,0.018 -0.005,0.032 -0.016,0.042c-0.011,0.009 -0.024,0.014 -0.039,0.014Z" style="fill:#808080;fill-rule:nonzero;"/></g><g transform="matrix(62.5,0,0,62.5,522.747,205.053)"><path d="M0.272,0.009c-0.043,0 -0.081,-0.011 -0.116,-0.032c-0.034,-0.021 -0.061,-0.051 -0.081,-0.091c-0.019,-0.04 -0.029,-0.088 -0.029,-0.144c-0,-0.049 0.007,-0.091 0.02,-0.126c0.014,-0.035 0.033,-0.063 0.056,-0.086c0.023,-0.023 0.05,-0.039 0.08,-0.05c0.031,-0.011 0.062,-0.017 0.095,-0.017c0.027,0 0.055,0.004 0.085,0.011c0.031,0.007 0.057,0.017 0.08,0.03l-0.004,0.125l-0.054,0l-0.013,-0.094l0.008,0.009c-0.017,-0.008 -0.034,-0.014 -0.053,-0.017c-0.019,-0.003 -0.035,-0.005 -0.05,-0.005c-0.035,-0 -0.065,0.009 -0.09,0.026c-0.025,0.018 -0.044,0.043 -0.057,0.075c-0.013,0.032 -0.02,0.07 -0.02,0.114c-0,0.045 0.007,0.084 0.021,0.115c0.014,0.031 0.033,0.055 0.057,0.071c0.025,0.016 0.052,0.024 0.083,0.024c0.024,-0 0.049,-0.005 0.076,-0.015c0.027,-0.01 0.054,-0.025 0.083,-0.045l0.028,0.044c-0.035,0.027 -0.069,0.046 -0.104,0.059c-0.035,0.013 -0.068,0.019 -0.101,0.019Z" style="fill:#808080;fill-rule:nonzero;"/></g><g transform="matrix(62.5,0,0,62.5,553.747,205.053)"><path d="M0.015,0.234l0.007,-0.059c0.008,0.001 0.016,0.002 0.023,0.003c0.006,0.001 0.013,0.001 0.019,0.001c0.033,-0 0.059,-0.008 0.08,-0.023c0.02,-0.015 0.037,-0.037 0.051,-0.067c0.014,-0.03 0.028,-0.067 0.043,-0.112l-0.003,0.03l-0.187,-0.487l0.011,0.009l-0.065,-0.011l-0,-0.043l0.219,-0.007l-0,0.044l-0.09,0.015l0.006,-0.009l0.149,0.425l-0.018,-0.004l0.143,-0.419l0.006,0.009l-0.088,-0.011l-0,-0.043l0.212,-0.007l0,0.044l-0.07,0.016l0.014,-0.009l-0.176,0.483c-0.012,0.033 -0.025,0.064 -0.038,0.093c-0.013,0.029 -0.027,0.054 -0.044,0.076c-0.017,0.021 -0.037,0.038 -0.061,0.05c-0.024,0.012 -0.053,0.018 -0.087,0.018c-0.015,0 -0.034,-0.002 -0.056,-0.005Z" style="fill:#808080;fill-rule:nonzero;"/></g><g transform="matrix(16.1951,0,0,16.1951,23.5668,237.443)"><path d="M0.278,-0.044l-0.018,-0.022l0.134,0.021l0,0.045l-0.339,-0l0,-0.045l0.159,-0.02l-0.018,0.021l0,-0.585l0.022,0.002l-0.174,0.101l-0.027,-0.051l0.194,-0.124l0.067,0l0,0.657Z" style="fill:#ffd800;fill-rule:nonzero;"/></g><g transform="matrix(16.1951,0,0,16.1951,30.142,237.443)"><path d="M0.316,0.009c-0.057,0 -0.103,-0.013 -0.14,-0.039c-0.038,-0.026 -0.065,-0.065 -0.082,-0.117c-0.018,-0.052 -0.027,-0.117 -0.027,-0.196c0,-0.081 0.009,-0.149 0.028,-0.202c0.019,-0.054 0.048,-0.094 0.087,-0.121c0.039,-0.027 0.089,-0.041 0.148,-0.041c0.058,0 0.105,0.012 0.141,0.037c0.035,0.025 0.061,0.062 0.078,0.113c0.016,0.051 0.024,0.115 0.024,0.193c0,0.083 -0.009,0.152 -0.028,0.207c-0.019,0.055 -0.047,0.097 -0.085,0.125c-0.039,0.027 -0.087,0.041 -0.144,0.041Zm0.003,-0.064c0.039,0 0.07,-0.011 0.095,-0.033c0.025,-0.022 0.043,-0.055 0.055,-0.099c0.012,-0.045 0.018,-0.101 0.019,-0.169c0.001,-0.071 -0.005,-0.127 -0.017,-0.168c-0.012,-0.042 -0.03,-0.072 -0.054,-0.091c-0.024,-0.019 -0.054,-0.028 -0.09,-0.028c-0.04,0 -0.073,0.011 -0.099,0.032c-0.026,0.022 -0.045,0.055 -0.057,0.099c-0.013,0.043 -0.019,0.098 -0.019,0.165c0,0.067 0.006,0.121 0.018,0.164c0.012,0.043 0.03,0.075 0.055,0.096c0.025,0.021 0.056,0.032 0.094,0.032Z" style="fill:#ffd800;fill-rule:nonzero;"/></g><g transform="matrix(16.1951,0,0,16.1951,40.5231,237.443)"><path d="M0.316,0.009c-0.057,0 -0.103,-0.013 -0.14,-0.039c-0.038,-0.026 -0.065,-0.065 -0.082,-0.117c-0.018,-0.052 -0.027,-0.117 -0.027,-0.196c0,-0.081 0.009,-0.149 0.028,-0.202c0.019,-0.054 0.048,-0.094 0.087,-0.121c0.039,-0.027 0.089,-0.041 0.148,-0.041c0.058,0 0.105,0.012 0.141,0.037c0.035,0.025 0.061,0.062 0.078,0.113c0.016,0.051 0.024,0.115 0.024,0.193c0,0.083 -0.009,0.152 -0.028,0.207c-0.019,0.055 -0.047,0.097 -0.085,0.125c-0.039,0.027 -0.087,0.041 -0.144,0.041Zm0.003,-0.064c0.039,0 0.07,-0.011 0.095,-0.033c0.025,-0.022 0.043,-0.055 0.055,-0.099c0.012,-0.045 0.018,-0.101 0.019,-0.169c0.001,-0.071 -0.005,-0.127 -0.017,-0.168c-0.012,-0.042 -0.03,-0.072 -0.054,-0.091c-0.024,-0.019 -0.054,-0.028 -0.09,-0.028c-0.04,0 -0.073,0.011 -0.099,0.032c-0.026,0.022 -0.045,0.055 -0.057,0.099c-0.013,0.043 -0.019,0.098 -0.019,0.165c0,0.067 0.006,0.121 0.018,0.164c0.012,0.043 0.03,0.075 0.055,0.096c0.025,0.021 0.056,0.032 0.094,0.032Z" style="fill:#ffd800;fill-rule:nonzero;"/></g><g transform="matrix(16.1951,0,0,16.1951,50.8556,237.443)"><path d="M0.278,-0.044l-0.018,-0.022l0.134,0.021l0,0.045l-0.339,-0l0,-0.045l0.159,-0.02l-0.018,0.021l0,-0.585l0.022,0.002l-0.174,0.101l-0.027,-0.051l0.194,-0.124l0.067,0l0,0.657Z" style="fill:#ffd800;fill-rule:nonzero;"/></g><g transform="matrix(16.1951,0,0,16.1951,57.4308,237.443)"><path d="M0.278,-0.044l-0.018,-0.022l0.134,0.021l0,0.045l-0.339,-0l0,-0.045l0.159,-0.02l-0.018,0.021l0,-0.585l0.022,0.002l-0.174,0.101l-0.027,-0.051l0.194,-0.124l0.067,0l0,0.657Z" style="fill:#ffd800;fill-rule:nonzero;"/></g><g transform="matrix(16.1951,0,0,16.1951,64.006,237.443)"><path d="M0.316,0.009c-0.057,0 -0.103,-0.013 -0.14,-0.039c-0.038,-0.026 -0.065,-0.065 -0.082,-0.117c-0.018,-0.052 -0.027,-0.117 -0.027,-0.196c0,-0.081 0.009,-0.149 0.028,-0.202c0.019,-0.054 0.048,-0.094 0.087,-0.121c0.039,-0.027 0.089,-0.041 0.148,-0.041c0.058,0 0.105,0.012 0.141,0.037c0.035,0.025 0.061,0.062 0.078,0.113c0.016,0.051 0.024,0.115 0.024,0.193c0,0.083 -0.009,0.152 -0.028,0.207c-0.019,0.055 -0.047,0.097 -0.085,0.125c-0.039,0.027 -0.087,0.041 -0.144,0.041Zm0.003,-0.064c0.039,0 0.07,-0.011 0.095,-0.033c0.025,-0.022 0.043,-0.055 0.055,-0.099c0.012,-0.045 0.018,-0.101 0.019,-0.169c0.001,-0.071 -0.005,-0.127 -0.017,-0.168c-0.012,-0.042 -0.03,-0.072 -0.054,-0.091c-0.024,-0.019 -0.054,-0.028 -0.09,-0.028c-0.04,0 -0.073,0.011 -0.099,0.032c-0.026,0.022 -0.045,0.055 -0.057,0.099c-0.013,0.043 -0.019,0.098 -0.019,0.165c0,0.067 0.006,0.121 0.018,0.164c0.012,0.043 0.03,0.075 0.055,0.096c0.025,0.021 0.056,0.032 0.094,0.032Z" style="fill:#ffd800;fill-rule:nonzero;"/></g><g transform="matrix(16.1951,0,0,16.1951,74.3385,237.443)"><path d="M0.278,-0.044l-0.018,-0.022l0.134,0.021l0,0.045l-0.339,-0l0,-0.045l0.159,-0.02l-0.018,0.021l0,-0.585l0.022,0.002l-0.174,0.101l-0.027,-0.051l0.194,-0.124l0.067,0l0,0.657Z" style="fill:#ffd800;fill-rule:nonzero;"/></g><g transform="matrix(16.1951,0,0,16.1951,80.9137,237.443)"><path d="M0.316,0.009c-0.057,0 -0.103,-0.013 -0.14,-0.039c-0.038,-0.026 -0.065,-0.065 -0.082,-0.117c-0.018,-0.052 -0.027,-0.117 -0.027,-0.196c0,-0.081 0.009,-0.149 0.028,-0.202c0.019,-0.054 0.048,-0.094 0.087,-0.121c0.039,-0.027 0.089,-0.041 0.148,-0.041c0.058,0 0.105,0.012 0.141,0.037c0.035,0.025 0.061,0.062 0.078,0.113c0.016,0.051 0.024,0.115 0.024,0.193c0,0.083 -0.009,0.152 -0.028,0.207c-0.019,0.055 -0.047,0.097 -0.085,0.125c-0.039,0.027 -0.087,0.041 -0.144,0.041Zm0.003,-0.064c0.039,0 0.07,-0.011 0.095,-0.033c0.025,-0.022 0.043,-0.055 0.055,-0.099c0.012,-0.045 0.018,-0.101 0.019,-0.169c0.001,-0.071 -0.005,-0.127 -0.017,-0.168c-0.012,-0.042 -0.03,-0.072 -0.054,-0.091c-0.024,-0.019 -0.054,-0.028 -0.09,-0.028c-0.04,0 -0.073,0.011 -0.099,0.032c-0.026,0.022 -0.045,0.055 -0.057,0.099c-0.013,0.043 -0.019,0.098 -0.019,0.165c0,0.067 0.006,0.121 0.018,0.164c0.012,0.043 0.03,0.075 0.055,0.096c0.025,0.021 0.056,0.032 0.094,0.032Z" style="fill:#ffd800;fill-rule:nonzero;"/></g><g transform="matrix(16.1951,0,0,16.1951,91.2462,237.443)"><path d="M0.278,-0.044l-0.018,-0.022l0.134,0.021l0,0.045l-0.339,-0l0,-0.045l0.159,-0.02l-0.018,0.021l0,-0.585l0.022,0.002l-0.174,0.101l-0.027,-0.051l0.194,-0.124l0.067,0l0,0.657Z" style="fill:#ffd800;fill-rule:nonzero;"/></g><g transform="matrix(16.1951,0,0,16.1951,97.8214,237.443)"><path d="M0.278,-0.044l-0.018,-0.022l0.134,0.021l0,0.045l-0.339,-0l0,-0.045l0.159,-0.02l-0.018,0.021l0,-0.585l0.022,0.002l-0.174,0.101l-0.027,-0.051l0.194,-0.124l0.067,0l0,0.657Z" style="fill:#ffd800;fill-rule:nonzero;"/></g><g transform="matrix(16.1951,0,0,16.1951,104.397,237.443)"><path d="M0.316,0.009c-0.057,0 -0.103,-0.013 -0.14,-0.039c-0.038,-0.026 -0.065,-0.065 -0.082,-0.117c-0.018,-0.052 -0.027,-0.117 -0.027,-0.196c0,-0.081 0.009,-0.149 0.028,-0.202c0.019,-0.054 0.048,-0.094 0.087,-0.121c0.039,-0.027 0.089,-0.041 0.148,-0.041c0.058,0 0.105,0.012 0.141,0.037c0.035,0.025 0.061,0.062 0.078,0.113c0.016,0.051 0.024,0.115 0.024,0.193c0,0.083 -0.009,0.152 -0.028,0.207c-0.019,0.055 -0.047,0.097 -0.085,0.125c-0.039,0.027 -0.087,0.041 -0.144,0.041Zm0.003,-0.064c0.039,0 0.07,-0.011 0.095,-0.033c0.025,-0.022 0.043,-0.055 0.055,-0.099c0.012,-0.045 0.018,-0.101 0.019,-0.169c0.001,-0.071 -0.005,-0.127 -0.017,-0.168c-0.012,-0.042 -0.03,-0.072 -0.054,-0.091c-0.024,-0.019 -0.054,-0.028 -0.09,-0.028c-0.04,0 -0.073,0.011 -0.099,0.032c-0.026,0.022 -0.045,0.055 -0.057,0.099c-0.013,0.043 -0.019,0.098 -0.019,0.165c0,0.067 0.006,0.121 0.018,0.164c0.012,0.043 0.03,0.075 0.055,0.096c0.025,0.021 0.056,0.032 0.094,0.032Z" style="fill:#ffd800;fill-rule:nonzero;"/></g><g transform="matrix(16.1951,0,0,16.1951,114.729,237.443)"><path d="M0.278,-0.044l-0.018,-0.022l0.134,0.021l0,0.045l-0.339,-0l0,-0.045l0.159,-0.02l-0.018,0.021l0,-0.585l0.022,0.002l-0.174,0.101l-0.027,-0.051l0.194,-0.124l0.067,0l0,0.657Z" style="fill:#ffd800;fill-rule:nonzero;"/></g><g transform="matrix(16.1951,0,0,16.1951,121.304,237.443)"><path d="M0.316,0.009c-0.057,0 -0.103,-0.013 -0.14,-0.039c-0.038,-0.026 -0.065,-0.065 -0.082,-0.117c-0.018,-0.052 -0.027,-0.117 -0.027,-0.196c0,-0.081 0.009,-0.149 0.028,-0.202c0.019,-0.054 0.048,-0.094 0.087,-0.121c0.039,-0.027 0.089,-0.041 0.148,-0.041c0.058,0 0.105,0.012 0.141,0.037c0.035,0.025 0.061,0.062 0.078,0.113c0.016,0.051 0.024,0.115 0.024,0.193c0,0.083 -0.009,0.152 -0.028,0.207c-0.019,0.055 -0.047,0.097 -0.085,0.125c-0.039,0.027 -0.087,0.041 -0.144,0.041Zm0.003,-0.064c0.039,0 0.07,-0.011 0.095,-0.033c0.025,-0.022 0.043,-0.055 0.055,-0.099c0.012,-0.045 0.018,-0.101 0.019,-0.169c0.001,-0.071 -0.005,-0.127 -0.017,-0.168c-0.012,-0.042 -0.03,-0.072 -0.054,-0.091c-0.024,-0.019 -0.054,-0.028 -0.09,-0.028c-0.04,0 -0.073,0.011 -0.099,0.032c-0.026,0.022 -0.045,0.055 -0.057,0.099c-0.013,0.043 -0.019,0.098 -0.019,0.165c0,0.067 0.006,0.121 0.018,0.164c0.012,0.043 0.03,0.075 0.055,0.096c0.025,0.021 0.056,0.032 0.094,0.032Z" style="fill:#ffd800;fill-rule:nonzero;"/></g><g transform="matrix(16.1951,0,0,16.1951,131.637,237.443)"><path d="M0.278,-0.044l-0.018,-0.022l0.134,0.021l0,0.045l-0.339,-0l0,-0.045l0.159,-0.02l-0.018,0.021l0,-0.585l0.022,0.002l-0.174,0.101l-0.027,-0.051l0.194,-0.124l0.067,0l0,0.657Z" style="fill:#ffd800;fill-rule:nonzero;"/></g><g transform="matrix(16.1951,0,0,16.1951,138.212,237.443)"><path d="M0.316,0.009c-0.057,0 -0.103,-0.013 -0.14,-0.039c-0.038,-0.026 -0.065,-0.065 -0.082,-0.117c-0.018,-0.052 -0.027,-0.117 -0.027,-0.196c0,-0.081 0.009,-0.149 0.028,-0.202c0.019,-0.054 0.048,-0.094 0.087,-0.121c0.039,-0.027 0.089,-0.041 0.148,-0.041c0.058,0 0.105,0.012 0.141,0.037c0.035,0.025 0.061,0.062 0.078,0.113c0.016,0.051 0.024,0.115 0.024,0.193c0,0.083 -0.009,0.152 -0.028,0.207c-0.019,0.055 -0.047,0.097 -0.085,0.125c-0.039,0.027 -0.087,0.041 -0.144,0.041Zm0.003,-0.064c0.039,0 0.07,-0.011 0.095,-0.033c0.025,-0.022 0.043,-0.055 0.055,-0.099c0.012,-0.045 0.018,-0.101 0.019,-0.169c0.001,-0.071 -0.005,-0.127 -0.017,-0.168c-0.012,-0.042 -0.03,-0.072 -0.054,-0.091c-0.024,-0.019 -0.054,-0.028 -0.09,-0.028c-0.04,0 -0.073,0.011 -0.099,0.032c-0.026,0.022 -0.045,0.055 -0.057,0.099c-0.013,0.043 -0.019,0.098 -0.019,0.165c0,0.067 0.006,0.121 0.018,0.164c0.012,0.043 0.03,0.075 0.055,0.096c0.025,0.021 0.056,0.032 0.094,0.032Z" style="fill:#ffd800;fill-rule:nonzero;"/></g><g transform="matrix(16.1951,0,0,16.1951,148.593,237.443)"><path d="M0.316,0.009c-0.057,0 -0.103,-0.013 -0.14,-0.039c-0.038,-0.026 -0.065,-0.065 -0.082,-0.117c-0.018,-0.052 -0.027,-0.117 -0.027,-0.196c0,-0.081 0.009,-0.149 0.028,-0.202c0.019,-0.054 0.048,-0.094 0.087,-0.121c0.039,-0.027 0.089,-0.041 0.148,-0.041c0.058,0 0.105,0.012 0.141,0.037c0.035,0.025 0.061,0.062 0.078,0.113c0.016,0.051 0.024,0.115 0.024,0.193c0,0.083 -0.009,0.152 -0.028,0.207c-0.019,0.055 -0.047,0.097 -0.085,0.125c-0.039,0.027 -0.087,0.041 -0.144,0.041Zm0.003,-0.064c0.039,0 0.07,-0.011 0.095,-0.033c0.025,-0.022 0.043,-0.055 0.055,-0.099c0.012,-0.045 0.018,-0.101 0.019,-0.169c0.001,-0.071 -0.005,-0.127 -0.017,-0.168c-0.012,-0.042 -0.03,-0.072 -0.054,-0.091c-0.024,-0.019 -0.054,-0.028 -0.09,-0.028c-0.04,0 -0.073,0.011 -0.099,0.032c-0.026,0.022 -0.045,0.055 -0.057,0.099c-0.013,0.043 -0.019,0.098 -0.019,0.165c0,0.067 0.006,0.121 0.018,0.164c0.012,0.043 0.03,0.075 0.055,0.096c0.025,0.021 0.056,0.032 0.094,0.032Z" style="fill:#ffd800;fill-rule:nonzero;"/></g><g transform="matrix(16.1951,0,0,16.1951,158.926,237.443)"><path d="M0.278,-0.044l-0.018,-0.022l0.134,0.021l0,0.045l-0.339,-0l0,-0.045l0.159,-0.02l-0.018,0.021l0,-0.585l0.022,0.002l-0.174,0.101l-0.027,-0.051l0.194,-0.124l0.067,0l0,0.657Z" style="fill:#ffd800;fill-rule:nonzero;"/></g><g transform="matrix(16.1951,0,0,16.1951,165.501,237.443)"><path d="M0.278,-0.044l-0.018,-0.022l0.134,0.021l0,0.045l-0.339,-0l0,-0.045l0.159,-0.02l-0.018,0.021l0,-0.585l0.022,0.002l-0.174,0.101l-0.027,-0.051l0.194,-0.124l0.067,0l0,0.657Z" style="fill:#ffd800;fill-rule:nonzero;"/></g><g transform="matrix(16.1951,0,0,16.1951,172.076,237.443)"><path d="M0.316,0.009c-0.057,0 -0.103,-0.013 -0.14,-0.039c-0.038,-0.026 -0.065,-0.065 -0.082,-0.117c-0.018,-0.052 -0.027,-0.117 -0.027,-0.196c0,-0.081 0.009,-0.149 0.028,-0.202c0.019,-0.054 0.048,-0.094 0.087,-0.121c0.039,-0.027 0.089,-0.041 0.148,-0.041c0.058,0 0.105,0.012 0.141,0.037c0.035,0.025 0.061,0.062 0.078,0.113c0.016,0.051 0.024,0.115 0.024,0.193c0,0.083 -0.009,0.152 -0.028,0.207c-0.019,0.055 -0.047,0.097 -0.085,0.125c-0.039,0.027 -0.087,0.041 -0.144,0.041Zm0.003,-0.064c0.039,0 0.07,-0.011 0.095,-0.033c0.025,-0.022 0.043,-0.055 0.055,-0.099c0.012,-0.045 0.018,-0.101 0.019,-0.169c0.001,-0.071 -0.005,-0.127 -0.017,-0.168c-0.012,-0.042 -0.03,-0.072 -0.054,-0.091c-0.024,-0.019 -0.054,-0.028 -0.09,-0.028c-0.04,0 -0.073,0.011 -0.099,0.032c-0.026,0.022 -0.045,0.055 -0.057,0.099c-0.013,0.043 -0.019,0.098 -0.019,0.165c0,0.067 0.006,0.121 0.018,0.164c0.012,0.043 0.03,0.075 0.055,0.096c0.025,0.021 0.056,0.032 0.094,0.032Z" style="fill:#ffd800;fill-rule:nonzero;"/></g><g transform="matrix(16.1951,0,0,16.1951,182.457,237.443)"><path d="M0.316,0.009c-0.057,0 -0.103,-0.013 -0.14,-0.039c-0.038,-0.026 -0.065,-0.065 -0.082,-0.117c-0.018,-0.052 -0.027,-0.117 -0.027,-0.196c0,-0.081 0.009,-0.149 0.028,-0.202c0.019,-0.054 0.048,-0.094 0.087,-0.121c0.039,-0.027 0.089,-0.041 0.148,-0.041c0.058,0 0.105,0.012 0.141,0.037c0.035,0.025 0.061,0.062 0.078,0.113c0.016,0.051 0.024,0.115 0.024,0.193c0,0.083 -0.009,0.152 -0.028,0.207c-0.019,0.055 -0.047,0.097 -0.085,0.125c-0.039,0.027 -0.087,0.041 -0.144,0.041Zm0.003,-0.064c0.039,0 0.07,-0.011 0.095,-0.033c0.025,-0.022 0.043,-0.055 0.055,-0.099c0.012,-0.045 0.018,-0.101 0.019,-0.169c0.001,-0.071 -0.005,-0.127 -0.017,-0.168c-0.012,-0.042 -0.03,-0.072 -0.054,-0.091c-0.024,-0.019 -0.054,-0.028 -0.09,-0.028c-0.04,0 -0.073,0.011 -0.099,0.032c-0.026,0.022 -0.045,0.055 -0.057,0.099c-0.013,0.043 -0.019,0.098 -0.019,0.165c0,0.067 0.006,0.121 0.018,0.164c0.012,0.043 0.03,0.075 0.055,0.096c0.025,0.021 0.056,0.032 0.094,0.032Z" style="fill:#ffd800;fill-rule:nonzero;"/></g><g transform="matrix(16.1951,0,0,16.1951,192.79,237.443)"><path d="M0.278,-0.044l-0.018,-0.022l0.134,0.021l0,0.045l-0.339,-0l0,-0.045l0.159,-0.02l-0.018,0.021l0,-0.585l0.022,0.002l-0.174,0.101l-0.027,-0.051l0.194,-0.124l0.067,0l0,0.657Z" style="fill:#ffd800;fill-rule:nonzero;"/></g><g transform="matrix(16.1951,0,0,16.1951,199.365,237.443)"><path d="M0.278,-0.044l-0.018,-0.022l0.134,0.021l0,0.045l-0.339,-0l0,-0.045l0.159,-0.02l-0.018,0.021l0,-0.585l0.022,0.002l-0.174,0.101l-0.027,-0.051l0.194,-0.124l0.067,0l0,0.657Z" style="fill:#ffd800;fill-rule:nonzero;"/></g><g transform="matrix(16.1951,0,0,16.1951,205.94,237.443)"><path d="M0.316,0.009c-0.057,0 -0.103,-0.013 -0.14,-0.039c-0.038,-0.026 -0.065,-0.065 -0.082,-0.117c-0.018,-0.052 -0.027,-0.117 -0.027,-0.196c0,-0.081 0.009,-0.149 0.028,-0.202c0.019,-0.054 0.048,-0.094 0.087,-0.121c0.039,-0.027 0.089,-0.041 0.148,-0.041c0.058,0 0.105,0.012 0.141,0.037c0.035,0.025 0.061,0.062 0.078,0.113c0.016,0.051 0.024,0.115 0.024,0.193c0,0.083 -0.009,0.152 -0.028,0.207c-0.019,0.055 -0.047,0.097 -0.085,0.125c-0.039,0.027 -0.087,0.041 -0.144,0.041Zm0.003,-0.064c0.039,0 0.07,-0.011 0.095,-0.033c0.025,-0.022 0.043,-0.055 0.055,-0.099c0.012,-0.045 0.018,-0.101 0.019,-0.169c0.001,-0.071 -0.005,-0.127 -0.017,-0.168c-0.012,-0.042 -0.03,-0.072 -0.054,-0.091c-0.024,-0.019 -0.054,-0.028 -0.09,-0.028c-0.04,0 -0.073,0.011 -0.099,0.032c-0.026,0.022 -0.045,0.055 -0.057,0.099c-0.013,0.043 -0.019,0.098 -0.019,0.165c0,0.067 0.006,0.121 0.018,0.164c0.012,0.043 0.03,0.075 0.055,0.096c0.025,0.021 0.056,0.032 0.094,0.032Z" style="fill:#ffd800;fill-rule:nonzero;"/></g><g transform="matrix(16.1951,0,0,16.1951,216.273,237.443)"><path d="M0.278,-0.044l-0.018,-0.022l0.134,0.021l0,0.045l-0.339,-0l0,-0.045l0.159,-0.02l-0.018,0.021l0,-0.585l0.022,0.002l-0.174,0.101l-0.027,-0.051l0.194,-0.124l0.067,0l0,0.657Z" style="fill:#ffd800;fill-rule:nonzero;"/></g><g transform="matrix(16.1951,0,0,16.1951,222.848,237.443)"><path d="M0.316,0.009c-0.057,0 -0.103,-0.013 -0.14,-0.039c-0.038,-0.026 -0.065,-0.065 -0.082,-0.117c-0.018,-0.052 -0.027,-0.117 -0.027,-0.196c0,-0.081 0.009,-0.149 0.028,-0.202c0.019,-0.054 0.048,-0.094 0.087,-0.121c0.039,-0.027 0.089,-0.041 0.148,-0.041c0.058,0 0.105,0.012 0.141,0.037c0.035,0.025 0.061,0.062 0.078,0.113c0.016,0.051 0.024,0.115 0.024,0.193c0,0.083 -0.009,0.152 -0.028,0.207c-0.019,0.055 -0.047,0.097 -0.085,0.125c-0.039,0.027 -0.087,0.041 -0.144,0.041Zm0.003,-0.064c0.039,0 0.07,-0.011 0.095,-0.033c0.025,-0.022 0.043,-0.055 0.055,-0.099c0.012,-0.045 0.018,-0.101 0.019,-0.169c0.001,-0.071 -0.005,-0.127 -0.017,-0.168c-0.012,-0.042 -0.03,-0.072 -0.054,-0.091c-0.024,-0.019 -0.054,-0.028 -0.09,-0.028c-0.04,0 -0.073,0.011 -0.099,0.032c-0.026,0.022 -0.045,0.055 -0.057,0.099c-0.013,0.043 -0.019,0.098 -0.019,0.165c0,0.067 0.006,0.121 0.018,0.164c0.012,0.043 0.03,0.075 0.055,0.096c0.025,0.021 0.056,0.032 0.094,0.032Z" style="fill:#ffd800;fill-rule:nonzero;"/></g><g transform="matrix(16.1951,0,0,16.1951,233.18,237.443)"><path d="M0.278,-0.044l-0.018,-0.022l0.134,0.021l0,0.045l-0.339,-0l0,-0.045l0.159,-0.02l-0.018,0.021l0,-0.585l0.022,0.002l-0.174,0.101l-0.027,-0.051l0.194,-0.124l0.067,0l0,0.657Z" style="fill:#ffd800;fill-rule:nonzero;"/></g><g transform="matrix(16.1951,0,0,16.1951,239.755,237.443)"><path d="M0.278,-0.044l-0.018,-0.022l0.134,0.021l0,0.045l-0.339,-0l0,-0.045l0.159,-0.02l-0.018,0.021l0,-0.585l0.022,0.002l-0.174,0.101l-0.027,-0.051l0.194,-0.124l0.067,0l0,0.657Z" style="fill:#ffd800;fill-rule:nonzero;"/></g><g transform="matrix(16.1951,0,0,16.1951,246.331,237.443)"><path d="M0.316,0.009c-0.057,0 -0.103,-0.013 -0.14,-0.039c-0.038,-0.026 -0.065,-0.065 -0.082,-0.117c-0.018,-0.052 -0.027,-0.117 -0.027,-0.196c0,-0.081 0.009,-0.149 0.028,-0.202c0.019,-0.054 0.048,-0.094 0.087,-0.121c0.039,-0.027 0.089,-0.041 0.148,-0.041c0.058,0 0.105,0.012 0.141,0.037c0.035,0.025 0.061,0.062 0.078,0.113c0.016,0.051 0.024,0.115 0.024,0.193c0,0.083 -0.009,0.152 -0.028,0.207c-0.019,0.055 -0.047,0.097 -0.085,0.125c-0.039,0.027 -0.087,0.041 -0.144,0.041Zm0.003,-0.064c0.039,0 0.07,-0.011 0.095,-0.033c0.025,-0.022 0.043,-0.055 0.055,-0.099c0.012,-0.045 0.018,-0.101 0.019,-0.169c0.001,-0.071 -0.005,-0.127 -0.017,-0.168c-0.012,-0.042 -0.03,-0.072 -0.054,-0.091c-0.024,-0.019 -0.054,-0.028 -0.09,-0.028c-0.04,0 -0.073,0.011 -0.099,0.032c-0.026,0.022 -0.045,0.055 -0.057,0.099c-0.013,0.043 -0.019,0.098 -0.019,0.165c0,0.067 0.006,0.121 0.018,0.164c0.012,0.043 0.03,0.075 0.055,0.096c0.025,0.021 0.056,0.032 0.094,0.032Z" style="fill:#ffd800;fill-rule:nonzero;"/></g><g transform="matrix(16.1951,0,0,16.1951,256.663,237.443)"><path d="M0.278,-0.044l-0.018,-0.022l0.134,0.021l0,0.045l-0.339,-0l0,-0.045l0.159,-0.02l-0.018,0.021l0,-0.585l0.022,0.002l-0.174,0.101l-0.027,-0.051l0.194,-0.124l0.067,0l0,0.657Z" style="fill:#ffd800;fill-rule:nonzero;"/></g><g transform="matrix(16.1951,0,0,16.1951,263.238,237.443)"><path d="M0.316,0.009c-0.057,0 -0.103,-0.013 -0.14,-0.039c-0.038,-0.026 -0.065,-0.065 -0.082,-0.117c-0.018,-0.052 -0.027,-0.117 -0.027,-0.196c0,-0.081 0.009,-0.149 0.028,-0.202c0.019,-0.054 0.048,-0.094 0.087,-0.121c0.039,-0.027 0.089,-0.041 0.148,-0.041c0.058,0 0.105,0.012 0.141,0.037c0.035,0.025 0.061,0.062 0.078,0.113c0.016,0.051 0.024,0.115 0.024,0.193c0,0.083 -0.009,0.152 -0.028,0.207c-0.019,0.055 -0.047,0.097 -0.085,0.125c-0.039,0.027 -0.087,0.041 -0.144,0.041Zm0.003,-0.064c0.039,0 0.07,-0.011 0.095,-0.033c0.025,-0.022 0.043,-0.055 0.055,-0.099c0.012,-0.045 0.018,-0.101 0.019,-0.169c0.001,-0.071 -0.005,-0.127 -0.017,-0.168c-0.012,-0.042 -0.03,-0.072 -0.054,-0.091c-0.024,-0.019 -0.054,-0.028 -0.09,-0.028c-0.04,0 -0.073,0.011 -0.099,0.032c-0.026,0.022 -0.045,0.055 -0.057,0.099c-0.013,0.043 -0.019,0.098 -0.019,0.165c0,0.067 0.006,0.121 0.018,0.164c0.012,0.043 0.03,0.075 0.055,0.096c0.025,0.021 0.056,0.032 0.094,0.032Z" style="fill:#ffd800;fill-rule:nonzero;"/></g><g transform="matrix(16.1951,0,0,16.1951,273.571,237.443)"><path d="M0.278,-0.044l-0.018,-0.022l0.134,0.021l0,0.045l-0.339,-0l0,-0.045l0.159,-0.02l-0.018,0.021l0,-0.585l0.022,0.002l-0.174,0.101l-0.027,-0.051l0.194,-0.124l0.067,0l0,0.657Z" style="fill:#ffd800;fill-rule:nonzero;"/></g><g transform="matrix(16.1951,0,0,16.1951,280.146,237.443)"><path d="M0.316,0.009c-0.057,0 -0.103,-0.013 -0.14,-0.039c-0.038,-0.026 -0.065,-0.065 -0.082,-0.117c-0.018,-0.052 -0.027,-0.117 -0.027,-0.196c0,-0.081 0.009,-0.149 0.028,-0.202c0.019,-0.054 0.048,-0.094 0.087,-0.121c0.039,-0.027 0.089,-0.041 0.148,-0.041c0.058,0 0.105,0.012 0.141,0.037c0.035,0.025 0.061,0.062 0.078,0.113c0.016,0.051 0.024,0.115 0.024,0.193c0,0.083 -0.009,0.152 -0.028,0.207c-0.019,0.055 -0.047,0.097 -0.085,0.125c-0.039,0.027 -0.087,0.041 -0.144,0.041Zm0.003,-0.064c0.039,0 0.07,-0.011 0.095,-0.033c0.025,-0.022 0.043,-0.055 0.055,-0.099c0.012,-0.045 0.018,-0.101 0.019,-0.169c0.001,-0.071 -0.005,-0.127 -0.017,-0.168c-0.012,-0.042 -0.03,-0.072 -0.054,-0.091c-0.024,-0.019 -0.054,-0.028 -0.09,-0.028c-0.04,0 -0.073,0.011 -0.099,0.032c-0.026,0.022 -0.045,0.055 -0.057,0.099c-0.013,0.043 -0.019,0.098 -0.019,0.165c0,0.067 0.006,0.121 0.018,0.164c0.012,0.043 0.03,0.075 0.055,0.096c0.025,0.021 0.056,0.032 0.094,0.032Z" style="fill:#ffd800;fill-rule:nonzero;"/></g><g transform="matrix(16.1951,0,0,16.1951,290.527,237.443)"><path d="M0.316,0.009c-0.057,0 -0.103,-0.013 -0.14,-0.039c-0.038,-0.026 -0.065,-0.065 -0.082,-0.117c-0.018,-0.052 -0.027,-0.117 -0.027,-0.196c0,-0.081 0.009,-0.149 0.028,-0.202c0.019,-0.054 0.048,-0.094 0.087,-0.121c0.039,-0.027 0.089,-0.041 0.148,-0.041c0.058,0 0.105,0.012 0.141,0.037c0.035,0.025 0.061,0.062 0.078,0.113c0.016,0.051 0.024,0.115 0.024,0.193c0,0.083 -0.009,0.152 -0.028,0.207c-0.019,0.055 -0.047,0.097 -0.085,0.125c-0.039,0.027 -0.087,0.041 -0.144,0.041Zm0.003,-0.064c0.039,0 0.07,-0.011 0.095,-0.033c0.025,-0.022 0.043,-0.055 0.055,-0.099c0.012,-0.045 0.018,-0.101 0.019,-0.169c0.001,-0.071 -0.005,-0.127 -0.017,-0.168c-0.012,-0.042 -0.03,-0.072 -0.054,-0.091c-0.024,-0.019 -0.054,-0.028 -0.09,-0.028c-0.04,0 -0.073,0.011 -0.099,0.032c-0.026,0.022 -0.045,0.055 -0.057,0.099c-0.013,0.043 -0.019,0.098 -0.019,0.165c0,0.067 0.006,0.121 0.018,0.164c0.012,0.043 0.03,0.075 0.055,0.096c0.025,0.021 0.056,0.032 0.094,0.032Z" style="fill:#ffd800;fill-rule:nonzero;"/></g><g transform="matrix(16.1951,0,0,16.1951,300.86,237.443)"><path d="M0.278,-0.044l-0.018,-0.022l0.134,0.021l0,0.045l-0.339,-0l0,-0.045l0.159,-0.02l-0.018,0.021l0,-0.585l0.022,0.002l-0.174,0.101l-0.027,-0.051l0.194,-0.124l0.067,0l0,0.657Z" style="fill:#ffd800;fill-rule:nonzero;"/></g><g transform="matrix(16.1951,0,0,16.1951,307.435,237.443)"><path d="M0.278,-0.044l-0.018,-0.022l0.134,0.021l0,0.045l-0.339,-0l0,-0.045l0.159,-0.02l-0.018,0.021l0,-0.585l0.022,0.002l-0.174,0.101l-0.027,-0.051l0.194,-0.124l0.067,0l0,0.657Z" style="fill:#ffd800;fill-rule:nonzero;"/></g><g transform="matrix(16.1951,0,0,16.1951,314.01,237.443)"><path d="M0.316,0.009c-0.057,0 -0.103,-0.013 -0.14,-0.039c-0.038,-0.026 -0.065,-0.065 -0.082,-0.117c-0.018,-0.052 -0.027,-0.117 -0.027,-0.196c0,-0.081 0.009,-0.149 0.028,-0.202c0.019,-0.054 0.048,-0.094 0.087,-0.121c0.039,-0.027 0.089,-0.041 0.148,-0.041c0.058,0 0.105,0.012 0.141,0.037c0.035,0.025 0.061,0.062 0.078,0.113c0.016,0.051 0.024,0.115 0.024,0.193c0,0.083 -0.009,0.152 -0.028,0.207c-0.019,0.055 -0.047,0.097 -0.085,0.125c-0.039,0.027 -0.087,0.041 -0.144,0.041Zm0.003,-0.064c0.039,0 0.07,-0.011 0.095,-0.033c0.025,-0.022 0.043,-0.055 0.055,-0.099c0.012,-0.045 0.018,-0.101 0.019,-0.169c0.001,-0.071 -0.005,-0.127 -0.017,-0.168c-0.012,-0.042 -0.03,-0.072 -0.054,-0.091c-0.024,-0.019 -0.054,-0.028 -0.09,-0.028c-0.04,0 -0.073,0.011 -0.099,0.032c-0.026,0.022 -0.045,0.055 -0.057,0.099c-0.013,0.043 -0.019,0.098 -0.019,0.165c0,0.067 0.006,0.121 0.018,0.164c0.012,0.043 0.03,0.075 0.055,0.096c0.025,0.021 0.056,0.032 0.094,0.032Z" style="fill:#ffd800;fill-rule:nonzero;"/></g><g transform="matrix(16.1951,0,0,16.1951,324.391,237.443)"><path d="M0.316,0.009c-0.057,0 -0.103,-0.013 -0.14,-0.039c-0.038,-0.026 -0.065,-0.065 -0.082,-0.117c-0.018,-0.052 -0.027,-0.117 -0.027,-0.196c0,-0.081 0.009,-0.149 0.028,-0.202c0.019,-0.054 0.048,-0.094 0.087,-0.121c0.039,-0.027 0.089,-0.041 0.148,-0.041c0.058,0 0.105,0.012 0.141,0.037c0.035,0.025 0.061,0.062 0.078,0.113c0.016,0.051 0.024,0.115 0.024,0.193c0,0.083 -0.009,0.152 -0.028,0.207c-0.019,0.055 -0.047,0.097 -0.085,0.125c-0.039,0.027 -0.087,0.041 -0.144,0.041Zm0.003,-0.064c0.039,0 0.07,-0.011 0.095,-0.033c0.025,-0.022 0.043,-0.055 0.055,-0.099c0.012,-0.045 0.018,-0.101 0.019,-0.169c0.001,-0.071 -0.005,-0.127 -0.017,-0.168c-0.012,-0.042 -0.03,-0.072 -0.054,-0.091c-0.024,-0.019 -0.054,-0.028 -0.09,-0.028c-0.04,0 -0.073,0.011 -0.099,0.032c-0.026,0.022 -0.045,0.055 -0.057,0.099c-0.013,0.043 -0.019,0.098 -0.019,0.165c0,0.067 0.006,0.121 0.018,0.164c0.012,0.043 0.03,0.075 0.055,0.096c0.025,0.021 0.056,0.032 0.094,0.032Z" style="fill:#ffd800;fill-rule:nonzero;"/></g><g transform="matrix(16.1951,0,0,16.1951,334.724,237.443)"><path d="M0.278,-0.044l-0.018,-0.022l0.134,0.021l0,0.045l-0.339,-0l0,-0.045l0.159,-0.02l-0.018,0.021l0,-0.585l0.022,0.002l-0.174,0.101l-0.027,-0.051l0.194,-0.124l0.067,0l0,0.657Z" style="fill:#ffd800;fill-rule:nonzero;"/></g><g transform="matrix(16.1951,0,0,16.1951,341.299,237.443)"><path d="M0.278,-0.044l-0.018,-0.022l0.134,0.021l0,0.045l-0.339,-0l0,-0.045l0.159,-0.02l-0.018,0.021l0,-0.585l0.022,0.002l-0.174,0.101l-0.027,-0.051l0.194,-0.124l0.067,0l0,0.657Z" style="fill:#ffd800;fill-rule:nonzero;"/></g><g transform="matrix(16.1951,0,0,16.1951,347.874,237.443)"><path d="M0.316,0.009c-0.057,0 -0.103,-0.013 -0.14,-0.039c-0.038,-0.026 -0.065,-0.065 -0.082,-0.117c-0.018,-0.052 -0.027,-0.117 -0.027,-0.196c0,-0.081 0.009,-0.149 0.028,-0.202c0.019,-0.054 0.048,-0.094 0.087,-0.121c0.039,-0.027 0.089,-0.041 0.148,-0.041c0.058,0 0.105,0.012 0.141,0.037c0.035,0.025 0.061,0.062 0.078,0.113c0.016,0.051 0.024,0.115 0.024,0.193c0,0.083 -0.009,0.152 -0.028,0.207c-0.019,0.055 -0.047,0.097 -0.085,0.125c-0.039,0.027 -0.087,0.041 -0.144,0.041Zm0.003,-0.064c0.039,0 0.07,-0.011 0.095,-0.033c0.025,-0.022 0.043,-0.055 0.055,-0.099c0.012,-0.045 0.018,-0.101 0.019,-0.169c0.001,-0.071 -0.005,-0.127 -0.017,-0.168c-0.012,-0.042 -0.03,-0.072 -0.054,-0.091c-0.024,-0.019 -0.054,-0.028 -0.09,-0.028c-0.04,0 -0.073,0.011 -0.099,0.032c-0.026,0.022 -0.045,0.055 -0.057,0.099c-0.013,0.043 -0.019,0.098 -0.019,0.165c0,0.067 0.006,0.121 0.018,0.164c0.012,0.043 0.03,0.075 0.055,0.096c0.025,0.021 0.056,0.032 0.094,0.032Z" style="fill:#ffd800;fill-rule:nonzero;"/></g><g transform="matrix(16.1951,0,0,16.1951,358.207,237.443)"><path d="M0.278,-0.044l-0.018,-0.022l0.134,0.021l0,0.045l-0.339,-0l0,-0.045l0.159,-0.02l-0.018,0.021l0,-0.585l0.022,0.002l-0.174,0.101l-0.027,-0.051l0.194,-0.124l0.067,0l0,0.657Z" style="fill:#ffd800;fill-rule:nonzero;"/></g><g transform="matrix(16.1951,0,0,16.1951,364.782,237.443)"><path d="M0.316,0.009c-0.057,0 -0.103,-0.013 -0.14,-0.039c-0.038,-0.026 -0.065,-0.065 -0.082,-0.117c-0.018,-0.052 -0.027,-0.117 -0.027,-0.196c0,-0.081 0.009,-0.149 0.028,-0.202c0.019,-0.054 0.048,-0.094 0.087,-0.121c0.039,-0.027 0.089,-0.041 0.148,-0.041c0.058,0 0.105,0.012 0.141,0.037c0.035,0.025 0.061,0.062 0.078,0.113c0.016,0.051 0.024,0.115 0.024,0.193c0,0.083 -0.009,0.152 -0.028,0.207c-0.019,0.055 -0.047,0.097 -0.085,0.125c-0.039,0.027 -0.087,0.041 -0.144,0.041Zm0.003,-0.064c0.039,0 0.07,-0.011 0.095,-0.033c0.025,-0.022 0.043,-0.055 0.055,-0.099c0.012,-0.045 0.018,-0.101 0.019,-0.169c0.001,-0.071 -0.005,-0.127 -0.017,-0.168c-0.012,-0.042 -0.03,-0.072 -0.054,-0.091c-0.024,-0.019 -0.054,-0.028 -0.09,-0.028c-0.04,0 -0.073,0.011 -0.099,0.032c-0.026,0.022 -0.045,0.055 -0.057,0.099c-0.013,0.043 -0.019,0.098 -0.019,0.165c0,0.067 0.006,0.121 0.018,0.164c0.012,0.043 0.03,0.075 0.055,0.096c0.025,0.021 0.056,0.032 0.094,0.032Z" style="fill:#ffd800;fill-rule:nonzero;"/></g><g transform="matrix(16.1951,0,0,16.1951,375.114,237.443)"><path d="M0.278,-0.044l-0.018,-0.022l0.134,0.021l0,0.045l-0.339,-0l0,-0.045l0.159,-0.02l-0.018,0.021l0,-0.585l0.022,0.002l-0.174,0.101l-0.027,-0.051l0.194,-0.124l0.067,0l0,0.657Z" style="fill:#ffd800;fill-rule:nonzero;"/></g><g transform="matrix(16.1951,0,0,16.1951,381.689,237.443)"><path d="M0.278,-0.044l-0.018,-0.022l0.134,0.021l0,0.045l-0.339,-0l0,-0.045l0.159,-0.02l-0.018,0.021l0,-0.585l0.022,0.002l-0.174,0.101l-0.027,-0.051l0.194,-0.124l0.067,0l0,0.657Z" style="fill:#ffd800;fill-rule:nonzero;"/></g><g transform="matrix(16.1951,0,0,16.1951,388.265,237.443)"><path d="M0.316,0.009c-0.057,0 -0.103,-0.013 -0.14,-0.039c-0.038,-0.026 -0.065,-0.065 -0.082,-0.117c-0.018,-0.052 -0.027,-0.117 -0.027,-0.196c0,-0.081 0.009,-0.149 0.028,-0.202c0.019,-0.054 0.048,-0.094 0.087,-0.121c0.039,-0.027 0.089,-0.041 0.148,-0.041c0.058,0 0.105,0.012 0.141,0.037c0.035,0.025 0.061,0.062 0.078,0.113c0.016,0.051 0.024,0.115 0.024,0.193c0,0.083 -0.009,0.152 -0.028,0.207c-0.019,0.055 -0.047,0.097 -0.085,0.125c-0.039,0.027 -0.087,0.041 -0.144,0.041Zm0.003,-0.064c0.039,0 0.07,-0.011 0.095,-0.033c0.025,-0.022 0.043,-0.055 0.055,-0.099c0.012,-0.045 0.018,-0.101 0.019,-0.169c0.001,-0.071 -0.005,-0.127 -0.017,-0.168c-0.012,-0.042 -0.03,-0.072 -0.054,-0.091c-0.024,-0.019 -0.054,-0.028 -0.09,-0.028c-0.04,0 -0.073,0.011 -0.099,0.032c-0.026,0.022 -0.045,0.055 -0.057,0.099c-0.013,0.043 -0.019,0.098 -0.019,0.165c0,0.067 0.006,0.121 0.018,0.164c0.012,0.043 0.03,0.075 0.055,0.096c0.025,0.021 0.056,0.032 0.094,0.032Z" style="fill:#ffd800;fill-rule:nonzero;"/></g><g transform="matrix(16.1951,0,0,16.1951,398.597,237.443)"><path d="M0.278,-0.044l-0.018,-0.022l0.134,0.021l0,0.045l-0.339,-0l0,-0.045l0.159,-0.02l-0.018,0.021l0,-0.585l0.022,0.002l-0.174,0.101l-0.027,-0.051l0.194,-0.124l0.067,0l0,0.657Z" style="fill:#ffd800;fill-rule:nonzero;"/></g><g transform="matrix(16.1951,0,0,16.1951,405.172,237.443)"><path d="M0.316,0.009c-0.057,0 -0.103,-0.013 -0.14,-0.039c-0.038,-0.026 -0.065,-0.065 -0.082,-0.117c-0.018,-0.052 -0.027,-0.117 -0.027,-0.196c0,-0.081 0.009,-0.149 0.028,-0.202c0.019,-0.054 0.048,-0.094 0.087,-0.121c0.039,-0.027 0.089,-0.041 0.148,-0.041c0.058,0 0.105,0.012 0.141,0.037c0.035,0.025 0.061,0.062 0.078,0.113c0.016,0.051 0.024,0.115 0.024,0.193c0,0.083 -0.009,0.152 -0.028,0.207c-0.019,0.055 -0.047,0.097 -0.085,0.125c-0.039,0.027 -0.087,0.041 -0.144,0.041Zm0.003,-0.064c0.039,0 0.07,-0.011 0.095,-0.033c0.025,-0.022 0.043,-0.055 0.055,-0.099c0.012,-0.045 0.018,-0.101 0.019,-0.169c0.001,-0.071 -0.005,-0.127 -0.017,-0.168c-0.012,-0.042 -0.03,-0.072 -0.054,-0.091c-0.024,-0.019 -0.054,-0.028 -0.09,-0.028c-0.04,0 -0.073,0.011 -0.099,0.032c-0.026,0.022 -0.045,0.055 -0.057,0.099c-0.013,0.043 -0.019,0.098 -0.019,0.165c0,0.067 0.006,0.121 0.018,0.164c0.012,0.043 0.03,0.075 0.055,0.096c0.025,0.021 0.056,0.032 0.094,0.032Z" style="fill:#ffd800;fill-rule:nonzero;"/></g><g transform="matrix(16.1951,0,0,16.1951,415.505,237.443)"><path d="M0.278,-0.044l-0.018,-0.022l0.134,0.021l0,0.045l-0.339,-0l0,-0.045l0.159,-0.02l-0.018,0.021l0,-0.585l0.022,0.002l-0.174,0.101l-0.027,-0.051l0.194,-0.124l0.067,0l0,0.657Z" style="fill:#ffd800;fill-rule:nonzero;"/></g><g transform="matrix(16.1951,0,0,16.1951,422.08,237.443)"><path d="M0.316,0.009c-0.057,0 -0.103,-0.013 -0.14,-0.039c-0.038,-0.026 -0.065,-0.065 -0.082,-0.117c-0.018,-0.052 -0.027,-0.117 -0.027,-0.196c0,-0.081 0.009,-0.149 0.028,-0.202c0.019,-0.054 0.048,-0.094 0.087,-0.121c0.039,-0.027 0.089,-0.041 0.148,-0.041c0.058,0 0.105,0.012 0.141,0.037c0.035,0.025 0.061,0.062 0.078,0.113c0.016,0.051 0.024,0.115 0.024,0.193c0,0.083 -0.009,0.152 -0.028,0.207c-0.019,0.055 -0.047,0.097 -0.085,0.125c-0.039,0.027 -0.087,0.041 -0.144,0.041Zm0.003,-0.064c0.039,0 0.07,-0.011 0.095,-0.033c0.025,-0.022 0.043,-0.055 0.055,-0.099c0.012,-0.045 0.018,-0.101 0.019,-0.169c0.001,-0.071 -0.005,-0.127 -0.017,-0.168c-0.012,-0.042 -0.03,-0.072 -0.054,-0.091c-0.024,-0.019 -0.054,-0.028 -0.09,-0.028c-0.04,0 -0.073,0.011 -0.099,0.032c-0.026,0.022 -0.045,0.055 -0.057,0.099c-0.013,0.043 -0.019,0.098 -0.019,0.165c0,0.067 0.006,0.121 0.018,0.164c0.012,0.043 0.03,0.075 0.055,0.096c0.025,0.021 0.056,0.032 0.094,0.032Z" style="fill:#ffd800;fill-rule:nonzero;"/></g><g transform="matrix(16.1951,0,0,16.1951,432.461,237.443)"><path d="M0.316,0.009c-0.057,0 -0.103,-0.013 -0.14,-0.039c-0.038,-0.026 -0.065,-0.065 -0.082,-0.117c-0.018,-0.052 -0.027,-0.117 -0.027,-0.196c0,-0.081 0.009,-0.149 0.028,-0.202c0.019,-0.054 0.048,-0.094 0.087,-0.121c0.039,-0.027 0.089,-0.041 0.148,-0.041c0.058,0 0.105,0.012 0.141,0.037c0.035,0.025 0.061,0.062 0.078,0.113c0.016,0.051 0.024,0.115 0.024,0.193c0,0.083 -0.009,0.152 -0.028,0.207c-0.019,0.055 -0.047,0.097 -0.085,0.125c-0.039,0.027 -0.087,0.041 -0.144,0.041Zm0.003,-0.064c0.039,0 0.07,-0.011 0.095,-0.033c0.025,-0.022 0.043,-0.055 0.055,-0.099c0.012,-0.045 0.018,-0.101 0.019,-0.169c0.001,-0.071 -0.005,-0.127 -0.017,-0.168c-0.012,-0.042 -0.03,-0.072 -0.054,-0.091c-0.024,-0.019 -0.054,-0.028 -0.09,-0.028c-0.04,0 -0.073,0.011 -0.099,0.032c-0.026,0.022 -0.045,0.055 -0.057,0.099c-0.013,0.043 -0.019,0.098 -0.019,0.165c0,0.067 0.006,0.121 0.018,0.164c0.012,0.043 0.03,0.075 0.055,0.096c0.025,0.021 0.056,0.032 0.094,0.032Z" style="fill:#ffd800;fill-rule:nonzero;"/></g><g transform="matrix(16.1951,0,0,16.1951,442.794,237.443)"><path d="M0.278,-0.044l-0.018,-0.022l0.134,0.021l0,0.045l-0.339,-0l0,-0.045l0.159,-0.02l-0.018,0.021l0,-0.585l0.022,0.002l-0.174,0.101l-0.027,-0.051l0.194,-0.124l0.067,0l0,0.657Z" style="fill:#ffd800;fill-rule:nonzero;"/></g><g transform="matrix(16.1951,0,0,16.1951,449.369,237.443)"><path d="M0.278,-0.044l-0.018,-0.022l0.134,0.021l0,0.045l-0.339,-0l0,-0.045l0.159,-0.02l-0.018,0.021l0,-0.585l0.022,0.002l-0.174,0.101l-0.027,-0.051l0.194,-0.124l0.067,0l0,0.657Z" style="fill:#ffd800;fill-rule:nonzero;"/></g><g transform="matrix(16.1951,0,0,16.1951,455.944,237.443)"><path d="M0.316,0.009c-0.057,0 -0.103,-0.013 -0.14,-0.039c-0.038,-0.026 -0.065,-0.065 -0.082,-0.117c-0.018,-0.052 -0.027,-0.117 -0.027,-0.196c0,-0.081 0.009,-0.149 0.028,-0.202c0.019,-0.054 0.048,-0.094 0.087,-0.121c0.039,-0.027 0.089,-0.041 0.148,-0.041c0.058,0 0.105,0.012 0.141,0.037c0.035,0.025 0.061,0.062 0.078,0.113c0.016,0.051 0.024,0.115 0.024,0.193c0,0.083 -0.009,0.152 -0.028,0.207c-0.019,0.055 -0.047,0.097 -0.085,0.125c-0.039,0.027 -0.087,0.041 -0.144,0.041Zm0.003,-0.064c0.039,0 0.07,-0.011 0.095,-0.033c0.025,-0.022 0.043,-0.055 0.055,-0.099c0.012,-0.045 0.018,-0.101 0.019,-0.169c0.001,-0.071 -0.005,-0.127 -0.017,-0.168c-0.012,-0.042 -0.03,-0.072 -0.054,-0.091c-0.024,-0.019 -0.054,-0.028 -0.09,-0.028c-0.04,0 -0.073,0.011 -0.099,0.032c-0.026,0.022 -0.045,0.055 -0.057,0.099c-0.013,0.043 -0.019,0.098 -0.019,0.165c0,0.067 0.006,0.121 0.018,0.164c0.012,0.043 0.03,0.075 0.055,0.096c0.025,0.021 0.056,0.032 0.094,0.032Z" style="fill:#ffd800;fill-rule:nonzero;"/></g><g transform="matrix(16.1951,0,0,16.1951,466.325,237.443)"><path d="M0.316,0.009c-0.057,0 -0.103,-0.013 -0.14,-0.039c-0.038,-0.026 -0.065,-0.065 -0.082,-0.117c-0.018,-0.052 -0.027,-0.117 -0.027,-0.196c0,-0.081 0.009,-0.149 0.028,-0.202c0.019,-0.054 0.048,-0.094 0.087,-0.121c0.039,-0.027 0.089,-0.041 0.148,-0.041c0.058,0 0.105,0.012 0.141,0.037c0.035,0.025 0.061,0.062 0.078,0.113c0.016,0.051 0.024,0.115 0.024,0.193c0,0.083 -0.009,0.152 -0.028,0.207c-0.019,0.055 -0.047,0.097 -0.085,0.125c-0.039,0.027 -0.087,0.041 -0.144,0.041Zm0.003,-0.064c0.039,0 0.07,-0.011 0.095,-0.033c0.025,-0.022 0.043,-0.055 0.055,-0.099c0.012,-0.045 0.018,-0.101 0.019,-0.169c0.001,-0.071 -0.005,-0.127 -0.017,-0.168c-0.012,-0.042 -0.03,-0.072 -0.054,-0.091c-0.024,-0.019 -0.054,-0.028 -0.09,-0.028c-0.04,0 -0.073,0.011 -0.099,0.032c-0.026,0.022 -0.045,0.055 -0.057,0.099c-0.013,0.043 -0.019,0.098 -0.019,0.165c0,0.067 0.006,0.121 0.018,0.164c0.012,0.043 0.03,0.075 0.055,0.096c0.025,0.021 0.056,0.032 0.094,0.032Z" style="fill:#ffd800;fill-rule:nonzero;"/></g><g transform="matrix(16.1951,0,0,16.1951,476.658,237.443)"><path d="M0.278,-0.044l-0.018,-0.022l0.134,0.021l0,0.045l-0.339,-0l0,-0.045l0.159,-0.02l-0.018,0.021l0,-0.585l0.022,0.002l-0.174,0.101l-0.027,-0.051l0.194,-0.124l0.067,0l0,0.657Z" style="fill:#ffd800;fill-rule:nonzero;"/></g><g transform="matrix(16.1951,0,0,16.1951,483.233,237.443)"><path d="M0.278,-0.044l-0.018,-0.022l0.134,0.021l0,0.045l-0.339,-0l0,-0.045l0.159,-0.02l-0.018,0.021l0,-0.585l0.022,0.002l-0.174,0.101l-0.027,-0.051l0.194,-0.124l0.067,0l0,0.657Z" style="fill:#ffd800;fill-rule:nonzero;"/></g><g transform="matrix(16.1951,0,0,16.1951,489.808,237.443)"><path d="M0.316,0.009c-0.057,0 -0.103,-0.013 -0.14,-0.039c-0.038,-0.026 -0.065,-0.065 -0.082,-0.117c-0.018,-0.052 -0.027,-0.117 -0.027,-0.196c0,-0.081 0.009,-0.149 0.028,-0.202c0.019,-0.054 0.048,-0.094 0.087,-0.121c0.039,-0.027 0.089,-0.041 0.148,-0.041c0.058,0 0.105,0.012 0.141,0.037c0.035,0.025 0.061,0.062 0.078,0.113c0.016,0.051 0.024,0.115 0.024,0.193c0,0.083 -0.009,0.152 -0.028,0.207c-0.019,0.055 -0.047,0.097 -0.085,0.125c-0.039,0.027 -0.087,0.041 -0.144,0.041Zm0.003,-0.064c0.039,0 0.07,-0.011 0.095,-0.033c0.025,-0.022 0.043,-0.055 0.055,-0.099c0.012,-0.045 0.018,-0.101 0.019,-0.169c0.001,-0.071 -0.005,-0.127 -0.017,-0.168c-0.012,-0.042 -0.03,-0.072 -0.054,-0.091c-0.024,-0.019 -0.054,-0.028 -0.09,-0.028c-0.04,0 -0.073,0.011 -0.099,0.032c-0.026,0.022 -0.045,0.055 -0.057,0.099c-0.013,0.043 -0.019,0.098 -0.019,0.165c0,0.067 0.006,0.121 0.018,0.164c0.012,0.043 0.03,0.075 0.055,0.096c0.025,0.021 0.056,0.032 0.094,0.032Z" style="fill:#ffd800;fill-rule:nonzero;"/></g><g transform="matrix(16.1951,0,0,16.1951,500.141,237.443)"><path d="M0.278,-0.044l-0.018,-0.022l0.134,0.021l0,0.045l-0.339,-0l0,-0.045l0.159,-0.02l-0.018,0.021l0,-0.585l0.022,0.002l-0.174,0.101l-0.027,-0.051l0.194,-0.124l0.067,0l0,0.657Z" style="fill:#ffd800;fill-rule:nonzero;"/></g><g transform="matrix(16.1951,0,0,16.1951,506.716,237.443)"><path d="M0.316,0.009c-0.057,0 -0.103,-0.013 -0.14,-0.039c-0.038,-0.026 -0.065,-0.065 -0.082,-0.117c-0.018,-0.052 -0.027,-0.117 -0.027,-0.196c0,-0.081 0.009,-0.149 0.028,-0.202c0.019,-0.054 0.048,-0.094 0.087,-0.121c0.039,-0.027 0.089,-0.041 0.148,-0.041c0.058,0 0.105,0.012 0.141,0.037c0.035,0.025 0.061,0.062 0.078,0.113c0.016,0.051 0.024,0.115 0.024,0.193c0,0.083 -0.009,0.152 -0.028,0.207c-0.019,0.055 -0.047,0.097 -0.085,0.125c-0.039,0.027 -0.087,0.041 -0.144,0.041Zm0.003,-0.064c0.039,0 0.07,-0.011 0.095,-0.033c0.025,-0.022 0.043,-0.055 0.055,-0.099c0.012,-0.045 0.018,-0.101 0.019,-0.169c0.001,-0.071 -0.005,-0.127 -0.017,-0.168c-0.012,-0.042 -0.03,-0.072 -0.054,-0.091c-0.024,-0.019 -0.054,-0.028 -0.09,-0.028c-0.04,0 -0.073,0.011 -0.099,0.032c-0.026,0.022 -0.045,0.055 -0.057,0.099c-0.013,0.043 -0.019,0.098 -0.019,0.165c0,0.067 0.006,0.121 0.018,0.164c0.012,0.043 0.03,0.075 0.055,0.096c0.025,0.021 0.056,0.032 0.094,0.032Z" style="fill:#ffd800;fill-rule:nonzero;"/></g><g transform="matrix(16.1951,0,0,16.1951,517.048,237.443)"><path d="M0.278,-0.044l-0.018,-0.022l0.134,0.021l0,0.045l-0.339,-0l0,-0.045l0.159,-0.02l-0.018,0.021l0,-0.585l0.022,0.002l-0.174,0.101l-0.027,-0.051l0.194,-0.124l0.067,0l0,0.657Z" style="fill:#ffd800;fill-rule:nonzero;"/></g><g transform="matrix(16.1951,0,0,16.1951,523.623,237.443)"><path d="M0.278,-0.044l-0.018,-0.022l0.134,0.021l0,0.045l-0.339,-0l0,-0.045l0.159,-0.02l-0.018,0.021l0,-0.585l0.022,0.002l-0.174,0.101l-0.027,-0.051l0.194,-0.124l0.067,0l0,0.657Z" style="fill:#ffd800;fill-rule:nonzero;"/></g><g transform="matrix(16.1951,0,0,16.1951,530.199,237.443)"><path d="M0.316,0.009c-0.057,0 -0.103,-0.013 -0.14,-0.039c-0.038,-0.026 -0.065,-0.065 -0.082,-0.117c-0.018,-0.052 -0.027,-0.117 -0.027,-0.196c0,-0.081 0.009,-0.149 0.028,-0.202c0.019,-0.054 0.048,-0.094 0.087,-0.121c0.039,-0.027 0.089,-0.041 0.148,-0.041c0.058,0 0.105,0.012 0.141,0.037c0.035,0.025 0.061,0.062 0.078,0.113c0.016,0.051 0.024,0.115 0.024,0.193c0,0.083 -0.009,0.152 -0.028,0.207c-0.019,0.055 -0.047,0.097 -0.085,0.125c-0.039,0.027 -0.087,0.041 -0.144,0.041Zm0.003,-0.064c0.039,0 0.07,-0.011 0.095,-0.033c0.025,-0.022 0.043,-0.055 0.055,-0.099c0.012,-0.045 0.018,-0.101 0.019,-0.169c0.001,-0.071 -0.005,-0.127 -0.017,-0.168c-0.012,-0.042 -0.03,-0.072 -0.054,-0.091c-0.024,-0.019 -0.054,-0.028 -0.09,-0.028c-0.04,0 -0.073,0.011 -0.099,0.032c-0.026,0.022 -0.045,0.055 -0.057,0.099c-0.013,0.043 -0.019,0.098 -0.019,0.165c0,0.067 0.006,0.121 0.018,0.164c0.012,0.043 0.03,0.075 0.055,0.096c0.025,0.021 0.056,0.032 0.094,0.032Z" style="fill:#ffd800;fill-rule:nonzero;"/></g><g transform="matrix(16.1951,0,0,16.1951,540.531,237.443)"><path d="M0.278,-0.044l-0.018,-0.022l0.134,0.021l0,0.045l-0.339,-0l0,-0.045l0.159,-0.02l-0.018,0.021l0,-0.585l0.022,0.002l-0.174,0.101l-0.027,-0.051l0.194,-0.124l0.067,0l0,0.657Z" style="fill:#ffd800;fill-rule:nonzero;"/></g><g transform="matrix(16.1951,0,0,16.1951,547.106,237.443)"><path d="M0.316,0.009c-0.057,0 -0.103,-0.013 -0.14,-0.039c-0.038,-0.026 -0.065,-0.065 -0.082,-0.117c-0.018,-0.052 -0.027,-0.117 -0.027,-0.196c0,-0.081 0.009,-0.149 0.028,-0.202c0.019,-0.054 0.048,-0.094 0.087,-0.121c0.039,-0.027 0.089,-0.041 0.148,-0.041c0.058,0 0.105,0.012 0.141,0.037c0.035,0.025 0.061,0.062 0.078,0.113c0.016,0.051 0.024,0.115 0.024,0.193c0,0.083 -0.009,0.152 -0.028,0.207c-0.019,0.055 -0.047,0.097 -0.085,0.125c-0.039,0.027 -0.087,0.041 -0.144,0.041Zm0.003,-0.064c0.039,0 0.07,-0.011 0.095,-0.033c0.025,-0.022 0.043,-0.055 0.055,-0.099c0.012,-0.045 0.018,-0.101 0.019,-0.169c0.001,-0.071 -0.005,-0.127 -0.017,-0.168c-0.012,-0.042 -0.03,-0.072 -0.054,-0.091c-0.024,-0.019 -0.054,-0.028 -0.09,-0.028c-0.04,0 -0.073,0.011 -0.099,0.032c-0.026,0.022 -0.045,0.055 -0.057,0.099c-0.013,0.043 -0.019,0.098 -0.019,0.165c0,0.067 0.006,0.121 0.018,0.164c0.012,0.043 0.03,0.075 0.055,0.096c0.025,0.021 0.056,0.032 0.094,0.032Z" style="fill:#ffd800;fill-rule:nonzero;"/></g><g transform="matrix(16.1951,0,0,16.1951,557.439,237.443)"><path d="M0.278,-0.044l-0.018,-0.022l0.134,0.021l0,0.045l-0.339,-0l0,-0.045l0.159,-0.02l-0.018,0.021l0,-0.585l0.022,0.002l-0.174,0.101l-0.027,-0.051l0.194,-0.124l0.067,0l0,0.657Z" style="fill:#ffd800;fill-rule:nonzero;"/></g><g transform="matrix(16.1951,0,0,16.1951,564.014,237.443)"><path d="M0.316,0.009c-0.057,0 -0.103,-0.013 -0.14,-0.039c-0.038,-0.026 -0.065,-0.065 -0.082,-0.117c-0.018,-0.052 -0.027,-0.117 -0.027,-0.196c0,-0.081 0.009,-0.149 0.028,-0.202c0.019,-0.054 0.048,-0.094 0.087,-0.121c0.039,-0.027 0.089,-0.041 0.148,-0.041c0.058,0 0.105,0.012 0.141,0.037c0.035,0.025 0.061,0.062 0.078,0.113c0.016,0.051 0.024,0.115 0.024,0.193c0,0.083 -0.009,0.152 -0.028,0.207c-0.019,0.055 -0.047,0.097 -0.085,0.125c-0.039,0.027 -0.087,0.041 -0.144,0.041Zm0.003,-0.064c0.039,0 0.07,-0.011 0.095,-0.033c0.025,-0.022 0.043,-0.055 0.055,-0.099c0.012,-0.045 0.018,-0.101 0.019,-0.169c0.001,-0.071 -0.005,-0.127 -0.017,-0.168c-0.012,-0.042 -0.03,-0.072 -0.054,-0.091c-0.024,-0.019 -0.054,-0.028 -0.09,-0.028c-0.04,0 -0.073,0.011 -0.099,0.032c-0.026,0.022 -0.045,0.055 -0.057,0.099c-0.013,0.043 -0.019,0.098 -0.019,0.165c0,0.067 0.006,0.121 0.018,0.164c0.012,0.043 0.03,0.075 0.055,0.096c0.025,0.021 0.056,0.032 0.094,0.032Z" style="fill:#ffd800;fill-rule:nonzero;"/></g><g transform="matrix(16.1951,0,0,16.1951,574.395,237.443)"><path d="M0.316,0.009c-0.057,0 -0.103,-0.013 -0.14,-0.039c-0.038,-0.026 -0.065,-0.065 -0.082,-0.117c-0.018,-0.052 -0.027,-0.117 -0.027,-0.196c0,-0.081 0.009,-0.149 0.028,-0.202c0.019,-0.054 0.048,-0.094 0.087,-0.121c0.039,-0.027 0.089,-0.041 0.148,-0.041c0.058,0 0.105,0.012 0.141,0.037c0.035,0.025 0.061,0.062 0.078,0.113c0.016,0.051 0.024,0.115 0.024,0.193c0,0.083 -0.009,0.152 -0.028,0.207c-0.019,0.055 -0.047,0.097 -0.085,0.125c-0.039,0.027 -0.087,0.041 -0.144,0.041Zm0.003,-0.064c0.039,0 0.07,-0.011 0.095,-0.033c0.025,-0.022 0.043,-0.055 0.055,-0.099c0.012,-0.045 0.018,-0.101 0.019,-0.169c0.001,-0.071 -0.005,-0.127 -0.017,-0.168c-0.012,-0.042 -0.03,-0.072 -0.054,-0.091c-0.024,-0.019 -0.054,-0.028 -0.09,-0.028c-0.04,0 -0.073,0.011 -0.099,0.032c-0.026,0.022 -0.045,0.055 -0.057,0.099c-0.013,0.043 -0.019,0.098 -0.019,0.165c0,0.067 0.006,0.121 0.018,0.164c0.012,0.043 0.03,0.075 0.055,0.096c0.025,0.021 0.056,0.032 0.094,0.032Z" style="fill:#ffd800;fill-rule:nonzero;"/></g><g transform="matrix(16.1951,0,0,16.1951,584.728,237.443)"><path d="M0.278,-0.044l-0.018,-0.022l0.134,0.021l0,0.045l-0.339,-0l0,-0.045l0.159,-0.02l-0.018,0.021l0,-0.585l0.022,0.002l-0.174,0.101l-0.027,-0.051l0.194,-0.124l0.067,0l0,0.657Z" style="fill:#ffd800;fill-rule:nonzero;"/></g><g transform="matrix(56.375,0,0,56.375,154.01,293.818)"><path d="M0.049,-0l0,-0.043l0.099,-0.021l-0.013,0.018l0,-0.604l0.017,0.019l-0.103,-0.019l-0,-0.043l0.171,-0.005l0.117,0c0.075,0 0.132,0.016 0.171,0.047c0.039,0.031 0.058,0.077 0.058,0.136c0,0.055 -0.017,0.099 -0.052,0.134c-0.034,0.035 -0.086,0.056 -0.156,0.063l-0.001,-0.01c0.026,0.003 0.047,0.009 0.064,0.018c0.016,0.009 0.03,0.02 0.041,0.035c0.011,0.016 0.022,0.034 0.033,0.056l0.084,0.17l-0.025,-0.017l0.084,0.023l0,0.043l-0.123,0l-0.092,-0.197c-0.013,-0.029 -0.025,-0.051 -0.036,-0.067c-0.012,-0.015 -0.026,-0.026 -0.043,-0.033c-0.017,-0.007 -0.042,-0.01 -0.073,-0.01l-0.069,0.001l0.015,-0.014l0,0.274l-0.013,-0.018l0.116,0.021l0,0.043l-0.271,0Zm0.168,-0.344l-0.015,-0.022l0.095,0c0.059,0 0.105,-0.012 0.137,-0.036c0.032,-0.025 0.048,-0.061 0.048,-0.108c0,-0.041 -0.013,-0.073 -0.039,-0.094c-0.026,-0.022 -0.065,-0.033 -0.116,-0.033l-0.125,0l0.015,-0.015l0,0.308Z" style="fill:#333;fill-rule:nonzero;"/></g><g transform="matrix(56.375,0,0,56.375,188.85,293.818)"><path d="M0.294,-0.537c0.073,0 0.131,0.023 0.173,0.069c0.041,0.046 0.062,0.111 0.062,0.195c0,0.057 -0.01,0.106 -0.03,0.149c-0.021,0.042 -0.05,0.075 -0.087,0.098c-0.037,0.023 -0.082,0.035 -0.135,0.035c-0.072,0 -0.128,-0.022 -0.169,-0.067c-0.041,-0.045 -0.061,-0.11 -0.061,-0.195c0,-0.059 0.01,-0.109 0.03,-0.152c0.019,-0.042 0.048,-0.075 0.085,-0.098c0.037,-0.023 0.081,-0.034 0.132,-0.034Zm-0.004,0.059c-0.051,0 -0.091,0.019 -0.118,0.058c-0.027,0.039 -0.041,0.093 -0.041,0.163c0,0.069 0.013,0.12 0.039,0.155c0.026,0.035 0.063,0.052 0.112,0.052c0.035,-0 0.065,-0.009 0.09,-0.026c0.024,-0.018 0.042,-0.043 0.055,-0.076c0.012,-0.033 0.018,-0.072 0.018,-0.117c0,-0.068 -0.013,-0.12 -0.04,-0.155c-0.027,-0.036 -0.066,-0.054 -0.115,-0.054Z" style="fill:#333;fill-rule:nonzero;"/></g><g transform="matrix(56.375,0,0,56.375,220.251,293.818)"><path d="M0.25,0.009c-0.024,0 -0.049,-0.002 -0.076,-0.005c-0.027,-0.003 -0.056,-0.008 -0.086,-0.015l0,-0.714l0.016,0.023l-0.094,-0.02l0,-0.043l0.158,-0.007l0,0.329l-0.011,-0.012c0.028,-0.027 0.057,-0.047 0.087,-0.061c0.03,-0.014 0.06,-0.021 0.09,-0.021c0.037,0 0.071,0.01 0.101,0.031c0.029,0.021 0.053,0.051 0.07,0.09c0.017,0.039 0.026,0.088 0.026,0.145c0,0.043 -0.005,0.082 -0.016,0.117c-0.011,0.035 -0.028,0.064 -0.051,0.088c-0.023,0.024 -0.052,0.043 -0.087,0.056c-0.035,0.013 -0.078,0.019 -0.127,0.019Zm0.015,-0.059c0.059,0 0.105,-0.018 0.136,-0.055c0.031,-0.037 0.047,-0.09 0.047,-0.16c0,-0.044 -0.006,-0.082 -0.018,-0.113c-0.013,-0.031 -0.03,-0.055 -0.051,-0.073c-0.021,-0.017 -0.046,-0.025 -0.073,-0.025c-0.023,0 -0.047,0.006 -0.072,0.019c-0.025,0.012 -0.051,0.031 -0.076,0.056l0.01,-0.029l0,0.386l-0.011,-0.022c0.041,0.011 0.077,0.016 0.108,0.016Z" style="fill:#333;fill-rule:nonzero;"/></g><g transform="matrix(56.375,0,0,56.375,251.877,293.818)"><path d="M0.276,0.009c-0.045,0 -0.084,-0.01 -0.119,-0.031c-0.034,-0.02 -0.061,-0.05 -0.08,-0.089c-0.019,-0.039 -0.029,-0.087 -0.029,-0.144c-0,-0.058 0.01,-0.108 0.03,-0.15c0.02,-0.042 0.048,-0.075 0.085,-0.098c0.037,-0.023 0.08,-0.034 0.129,-0.034c0.047,0 0.085,0.01 0.115,0.029c0.031,0.02 0.053,0.047 0.069,0.082c0.014,0.035 0.022,0.074 0.022,0.119c-0,0.007 -0,0.015 -0.001,0.022c-0.001,0.007 -0.002,0.016 -0.003,0.027l-0.385,-0l-0,-0.057l0.315,-0l-0.009,0.006c0.001,-0.03 -0.003,-0.058 -0.011,-0.083c-0.008,-0.025 -0.022,-0.046 -0.041,-0.061c-0.019,-0.015 -0.045,-0.023 -0.077,-0.023c-0.034,-0 -0.063,0.009 -0.086,0.027c-0.023,0.018 -0.041,0.043 -0.052,0.074c-0.011,0.031 -0.017,0.068 -0.017,0.109c0,0.044 0.006,0.082 0.019,0.113c0.013,0.032 0.031,0.057 0.056,0.074c0.024,0.017 0.054,0.026 0.089,0.026c0.025,-0 0.052,-0.005 0.081,-0.015c0.029,-0.009 0.06,-0.024 0.091,-0.044l0.029,0.045c-0.037,0.025 -0.075,0.044 -0.112,0.057c-0.037,0.013 -0.073,0.019 -0.108,0.019Z" style="fill:#333;fill-rule:nonzero;"/></g><g transform="matrix(56.375,0,0,56.375,281.7,293.818)"><path d="M0.038,-0l0,-0.043l0.088,-0.019l-0.01,0.015l0,-0.431l0.011,0.015l-0.089,-0.019l-0,-0.043l0.14,-0.007l0.011,0.098l-0.011,-0.004c0.03,-0.031 0.059,-0.056 0.088,-0.073c0.029,-0.017 0.06,-0.026 0.094,-0.026c0.021,0 0.044,0.003 0.067,0.01l-0.006,0.146l-0.05,0l-0.012,-0.105l0.009,0.018c-0.005,-0.001 -0.01,-0.002 -0.015,-0.003c-0.005,-0.001 -0.011,-0.001 -0.016,-0.001c-0.027,-0 -0.052,0.008 -0.077,0.024c-0.025,0.016 -0.049,0.037 -0.072,0.062l0.008,-0.024l0,0.363l-0.012,-0.015l0.109,0.019l0,0.043l-0.255,-0Z" style="fill:#333;fill-rule:nonzero;"/></g><g transform="matrix(56.375,0,0,56.375,308.365,293.818)"><path d="M0.215,0.009c-0.035,0 -0.062,-0.011 -0.082,-0.033c-0.02,-0.021 -0.03,-0.054 -0.03,-0.098l0,-0.363l0.013,0.013l-0.103,-0l0,-0.044l0.104,-0.015l-0.014,0.016l0,-0.132l0.08,-0.013l0,0.145l-0.011,-0.013l0.157,0l-0.003,0.056l-0.154,0l0.011,-0.013l0,0.352c0,0.028 0.006,0.048 0.017,0.061c0.011,0.013 0.026,0.019 0.046,0.019c0.012,0 0.025,-0.002 0.039,-0.006c0.014,-0.004 0.029,-0.01 0.045,-0.017l0.017,0.046c-0.047,0.026 -0.091,0.039 -0.132,0.039Z" style="fill:#333;fill-rule:nonzero;"/></g><g transform="matrix(56.375,0,0,56.375,341.795,293.818)"><path d="M0.347,-0.698c0.045,0 0.086,0.007 0.124,0.021c0.037,0.013 0.07,0.034 0.098,0.062c0.028,0.027 0.05,0.062 0.066,0.104c0.016,0.043 0.024,0.093 0.024,0.151c0,0.079 -0.014,0.145 -0.042,0.198c-0.029,0.053 -0.068,0.094 -0.117,0.121c-0.049,0.027 -0.106,0.041 -0.169,0.041l-0.282,-0l0,-0.043l0.1,-0.021l-0.014,0.018l0,-0.604l0.014,0.019l-0.1,-0.019l0,-0.043l0.188,-0.005l0.11,-0Zm-0.013,0.637c0.031,-0 0.06,-0.005 0.088,-0.015c0.028,-0.01 0.053,-0.026 0.076,-0.049c0.023,-0.022 0.041,-0.052 0.054,-0.09c0.013,-0.037 0.019,-0.083 0.019,-0.138c0,-0.054 -0.006,-0.099 -0.019,-0.136c-0.013,-0.036 -0.03,-0.065 -0.051,-0.087c-0.021,-0.021 -0.045,-0.037 -0.072,-0.047c-0.027,-0.009 -0.055,-0.014 -0.084,-0.014l-0.143,0l0.015,-0.015l0,0.606l-0.015,-0.015l0.132,0Z" style="fill:#333;fill-rule:nonzero;"/></g><g transform="matrix(56.375,0,0,56.375,381.314,293.818)"><path d="M0.196,-0.051l-0.009,-0.011l0.087,0.019l0,0.043l-0.236,-0l-0,-0.043l0.087,-0.019l-0.009,0.011l0,-0.422l0.008,0.009l-0.086,-0.018l0,-0.043l0.158,-0.006l0,0.48Zm-0.046,-0.588c-0.015,0 -0.028,-0.005 -0.038,-0.015c-0.01,-0.01 -0.015,-0.024 -0.015,-0.041c0,-0.018 0.005,-0.032 0.015,-0.041c0.011,-0.01 0.024,-0.015 0.039,-0.015c0.016,0 0.029,0.005 0.039,0.014c0.01,0.009 0.015,0.023 0.015,0.042c-0,0.018 -0.005,0.032 -0.016,0.042c-0.011,0.009 -0.024,0.014 -0.039,0.014Z" style="fill:#333;fill-rule:nonzero;"/></g><g transform="matrix(56.375,0,0,56.375,397.381,293.818)"><path d="M0.449,-0.045l-0.013,-0.018l0.092,0.018l0,0.044l-0.14,0.006l-0.012,-0.096l0.007,0.003c-0.029,0.032 -0.061,0.056 -0.095,0.073c-0.034,0.016 -0.067,0.024 -0.099,0.024c-0.039,0 -0.071,-0.012 -0.098,-0.037c-0.027,-0.025 -0.04,-0.062 -0.04,-0.112c-0,-0.039 0.008,-0.07 0.025,-0.091c0.017,-0.02 0.04,-0.035 0.069,-0.044c0.029,-0.009 0.063,-0.013 0.102,-0.013l0.131,0l-0.009,0.01l0,-0.096c0,-0.037 -0.01,-0.063 -0.029,-0.079c-0.019,-0.015 -0.046,-0.023 -0.08,-0.023c-0.018,0 -0.037,0.002 -0.057,0.006c-0.021,0.003 -0.042,0.009 -0.065,0.017l0.012,-0.013l-0.01,0.091l-0.053,0l-0.008,-0.124c0.038,-0.013 0.074,-0.022 0.107,-0.028c0.033,-0.007 0.064,-0.01 0.092,-0.01c0.053,0 0.095,0.012 0.126,0.035c0.03,0.024 0.045,0.062 0.045,0.114l0,0.343Zm-0.317,-0.102c0,0.033 0.008,0.057 0.024,0.072c0.015,0.015 0.035,0.023 0.059,0.023c0.023,-0 0.049,-0.007 0.078,-0.022c0.028,-0.014 0.055,-0.033 0.082,-0.058l-0.006,0.021l0,-0.134l0.009,0.009l-0.119,-0c-0.047,-0 -0.08,0.007 -0.099,0.021c-0.019,0.015 -0.028,0.037 -0.028,0.068Z" style="fill:#333;fill-rule:nonzero;"/></g><g transform="matrix(56.375,0,0,56.375,428.218,293.818)"><path d="M0.25,0.009c-0.024,0 -0.049,-0.002 -0.076,-0.005c-0.027,-0.003 -0.056,-0.008 -0.086,-0.015l0,-0.714l0.016,0.023l-0.094,-0.02l0,-0.043l0.158,-0.007l0,0.329l-0.011,-0.012c0.028,-0.027 0.057,-0.047 0.087,-0.061c0.03,-0.014 0.06,-0.021 0.09,-0.021c0.037,0 0.071,0.01 0.101,0.031c0.029,0.021 0.053,0.051 0.07,0.09c0.017,0.039 0.026,0.088 0.026,0.145c0,0.043 -0.005,0.082 -0.016,0.117c-0.011,0.035 -0.028,0.064 -0.051,0.088c-0.023,0.024 -0.052,0.043 -0.087,0.056c-0.035,0.013 -0.078,0.019 -0.127,0.019Zm0.015,-0.059c0.059,0 0.105,-0.018 0.136,-0.055c0.031,-0.037 0.047,-0.09 0.047,-0.16c0,-0.044 -0.006,-0.082 -0.018,-0.113c-0.013,-0.031 -0.03,-0.055 -0.051,-0.073c-0.021,-0.017 -0.046,-0.025 -0.073,-0.025c-0.023,0 -0.047,0.006 -0.072,0.019c-0.025,0.012 -0.051,0.031 -0.076,0.056l0.01,-0.029l0,0.386l-0.011,-0.022c0.041,0.011 0.077,0.016 0.108,0.016Z" style="fill:#333;fill-rule:nonzero;"/></g></g></svg>