<?xml version="1.0" encoding="UTF-8" standalone="no"?><!DOCTYPE svg PUBLIC "-//W3C//DTD SVG 1.1//EN" "http://www.w3.org/Graphics/SVG/1.1/DTD/svg11.dtd"><svg width="100%" height="100%" viewBox="0 0 600 200" version="1.1" xmlns="http://www.w3.org/2000/svg" xmlns:xlink="http://www.w3.org/1999/xlink" xml:space="preserve" xmlns:serif="http://www.serif.com/" style="fill-rule:evenodd;clip-rule:evenodd;stroke-linejoin:round;stroke-miterlimit:2;"><g transform="matrix(0.996035,0,0,0.996035,4.4425,24.7566)"><text x="0px" y="0px" style="font-family:'Bitter-Regular', 'Bitter';font-size:16.733px;fill:#deddd9;">100110<tspan x="52.458px " y="0px ">1</tspan>0110<tspan x="94.19px " y="0px ">1</tspan>0100<tspan x="139.855px " y="0px ">1</tspan>100110<tspan x="199.106px " y="0px ">1</tspan>0110<tspan x="240.838px " y="0px ">1</tspan>0100<tspan x="286.503px " y="0px ">1</tspan>100110<tspan x="345.754px " y="0px ">1</tspan>0110<tspan x="387.486px " y="0px ">1</tspan>0100<tspan x="433.151px " y="0px ">1</tspan>100110<tspan x="492.402px " y="0px ">1</tspan>0110<tspan x="534.135px " y="0px ">1</tspan>0100<tspan x="579.799px " y="0px ">1</tspan></text><text x="0px" y="16.733px" style="font-family:'Bitter-Regular', 'Bitter';font-size:16.733px;fill:#deddd9;">1010<tspan x="34.939px " y="16.733px ">1</tspan>1010<tspan x="76.671px " y="16.733px ">1</tspan>00110<tspan x="129.129px " y="16.733px ">1</tspan>0110<tspan x="170.861px " y="16.733px ">1</tspan>0110<tspan x="212.593px " y="16.733px ">1</tspan>0100<tspan x="258.257px " y="16.733px ">1</tspan>1010<tspan x="299.989px " y="16.733px ">1</tspan>1010<tspan x="341.722px " y="16.733px ">1</tspan>001100<tspan x="404.905px " y="16.733px ">1</tspan>1010<tspan x="446.638px " y="16.733px ">1</tspan>1010<tspan x="488.37px " y="16.733px ">1</tspan>001100<tspan x="551.554px " y="16.733px ">1</tspan>011</text><text x="0px" y="33.466px" style="font-family:'Bitter-Regular', 'Bitter';font-size:16.733px;fill:#deddd9;">1010<tspan x="34.939px " y="33.466px ">1</tspan>1010<tspan x="76.671px " y="33.466px ">1</tspan>00110<tspan x="129.129px " y="33.466px ">1</tspan>0110<tspan x="170.861px " y="33.466px ">1</tspan>0110<tspan x="212.593px " y="33.466px ">1</tspan>0100<tspan x="258.257px " y="33.466px ">1</tspan>1010<tspan x="299.989px " y="33.466px ">1</tspan>1010<tspan x="341.722px " y="33.466px ">1</tspan>001100<tspan x="404.905px " y="33.466px ">1</tspan>1010<tspan x="446.638px " y="33.466px ">1</tspan>1010<tspan x="488.37px " y="33.466px ">1</tspan>0010<tspan x="534.034px " y="33.466px ">1</tspan>101100</text><text x="0px" y="50.199px" style="font-family:'Bitter-Regular', 'Bitter';font-size:16.733px;fill:#deddd9;">100110<tspan x="52.458px " y="50.199px ">1</tspan>0110<tspan x="94.19px " y="50.199px ">1</tspan>0100<tspan x="139.855px " y="50.199px ">1</tspan>100110<tspan x="199.106px " y="50.199px ">1</tspan>0110<tspan x="240.838px " y="50.199px ">1</tspan>0100<tspan x="286.503px " y="50.199px ">1</tspan>100110<tspan x="345.754px " y="50.199px ">1</tspan>0110<tspan x="387.486px " y="50.199px ">1</tspan>0100<tspan x="433.151px " y="50.199px ">1</tspan>100110<tspan x="492.402px " y="50.199px ">1</tspan>0110<tspan x="534.135px " y="50.199px ">1</tspan>0100<tspan x="579.799px " y="50.199px ">1</tspan></text><text x="0px" y="66.932px" style="font-family:'Bitter-Regular', 'Bitter';font-size:16.733px;fill:#deddd9;">1010<tspan x="34.939px " y="66.932px ">1</tspan>1010<tspan x="76.671px " y="66.932px ">1</tspan>00110<tspan x="129.129px " y="66.932px ">1</tspan>0110<tspan x="170.861px " y="66.932px ">1</tspan>0110<tspan x="212.593px " y="66.932px ">1</tspan>0100<tspan x="258.257px " y="66.932px ">1</tspan>1010<tspan x="299.989px " y="66.932px ">1</tspan>1010<tspan x="341.722px " y="66.932px ">1</tspan>001100<tspan x="404.905px " y="66.932px ">1</tspan>1010<tspan x="446.638px " y="66.932px ">1</tspan>1010<tspan x="488.37px " y="66.932px ">1</tspan>001100<tspan x="551.554px " y="66.932px ">1</tspan>011</text><text x="0px" y="83.665px" style="font-family:'Bitter-Regular', 'Bitter';font-size:16.733px;fill:#ffd800;">1010<tspan x="34.939px " y="83.665px ">1</tspan>1010<tspan x="76.671px " y="83.665px ">1</tspan>00110<tspan x="129.129px " y="83.665px ">1</tspan>0110<tspan x="170.861px " y="83.665px ">1</tspan>0110<tspan x="212.593px " y="83.665px ">1</tspan>0100<tspan x="258.257px " y="83.665px ">1</tspan>1010<tspan x="299.989px " y="83.665px ">1</tspan>1010<tspan x="341.722px " y="83.665px ">1</tspan>001100<tspan x="404.905px " y="83.665px ">1</tspan>1010<tspan x="446.638px " y="83.665px ">1</tspan>1010<tspan x="488.37px " y="83.665px ">1</tspan>0010<tspan x="534.034px " y="83.665px ">1</tspan>101100</text><text x="0px" y="100.398px" style="font-family:'Bitter-Regular', 'Bitter';font-size:16.733px;fill:#deddd9;">100110<tspan x="52.458px " y="100.398px ">1</tspan>0110<tspan x="94.19px " y="100.398px ">1</tspan>0100<tspan x="139.855px " y="100.398px ">1</tspan>100110<tspan x="199.106px " y="100.398px ">1</tspan>0110<tspan x="240.838px " y="100.398px ">1</tspan>0100<tspan x="286.503px " y="100.398px ">1</tspan>100110<tspan x="345.754px " y="100.398px ">1</tspan>0110<tspan x="387.486px " y="100.398px ">1</tspan>0100<tspan x="433.151px " y="100.398px ">1</tspan>100110<tspan x="492.402px " y="100.398px ">1</tspan>0110<tspan x="534.135px " y="100.398px ">1</tspan>0100<tspan x="579.799px " y="100.398px ">1</tspan></text><text x="0px" y="117.131px" style="font-family:'Bitter-Regular', 'Bitter';font-size:16.733px;fill:#deddd9;">1010<tspan x="34.939px " y="117.131px ">1</tspan>1010<tspan x="76.671px " y="117.131px ">1</tspan>00110<tspan x="129.129px " y="117.131px ">1</tspan>0110<tspan x="170.861px " y="117.131px ">1</tspan>0110<tspan x="212.593px " y="117.131px ">1</tspan>0100<tspan x="258.257px " y="117.131px ">1</tspan>1010<tspan x="299.989px " y="117.131px ">1</tspan>1010<tspan x="341.722px " y="117.131px ">1</tspan>001100<tspan x="404.905px " y="117.131px ">1</tspan>1010<tspan x="446.638px " y="117.131px ">1</tspan>1010<tspan x="488.37px " y="117.131px ">1</tspan>001100<tspan x="551.554px " y="117.131px ">1</tspan>011</text><text x="0px" y="133.864px" style="font-family:'Bitter-Regular', 'Bitter';font-size:16.733px;fill:#deddd9;">1010<tspan x="34.939px " y="133.864px ">1</tspan>1010<tspan x="76.671px " y="133.864px ">1</tspan>00110<tspan x="129.129px " y="133.864px ">1</tspan>0110<tspan x="170.861px " y="133.864px ">1</tspan>0110<tspan x="212.593px " y="133.864px ">1</tspan>0100<tspan x="258.257px " y="133.864px ">1</tspan>1010<tspan x="299.989px " y="133.864px ">1</tspan>1010<tspan x="341.722px " y="133.864px ">1</tspan>001100<tspan x="404.905px " y="133.864px ">1</tspan>1010<tspan x="446.638px " y="133.864px ">1</tspan>1010<tspan x="488.37px " y="133.864px ">1</tspan>0010<tspan x="534.034px " y="133.864px ">1</tspan>101100</text><text x="0px" y="150.597px" style="font-family:'Bitter-Regular', 'Bitter';font-size:16.733px;fill:#deddd9;">100110<tspan x="52.458px " y="150.597px ">1</tspan>0110<tspan x="94.19px " y="150.597px ">1</tspan>0100<tspan x="139.855px " y="150.597px ">1</tspan>100110<tspan x="199.106px " y="150.597px ">1</tspan>0110<tspan x="240.838px " y="150.597px ">1</tspan>0100<tspan x="286.503px " y="150.597px ">1</tspan>100110<tspan x="345.754px " y="150.597px ">1</tspan>0110<tspan x="387.486px " y="150.597px ">1</tspan>0100<tspan x="433.151px " y="150.597px ">1</tspan>100110<tspan x="492.402px " y="150.597px ">1</tspan>0110<tspan x="534.135px " y="150.597px ">1</tspan>0100<tspan x="579.799px " y="150.597px ">1</tspan></text><text x="0px" y="167.33px" style="font-family:'Bitter-Regular', 'Bitter';font-size:16.733px;fill:#deddd9;">1010<tspan x="34.939px " y="167.33px ">1</tspan>1010<tspan x="76.671px " y="167.33px ">1</tspan>00110<tspan x="129.129px " y="167.33px ">1</tspan>0110<tspan x="170.861px " y="167.33px ">1</tspan>0110<tspan x="212.593px " y="167.33px ">1</tspan>0100<tspan x="258.257px " y="167.33px ">1</tspan>1010<tspan x="299.989px " y="167.33px ">1</tspan>1010<tspan x="341.722px " y="167.33px ">1</tspan>001100<tspan x="404.905px " y="167.33px ">1</tspan>1010<tspan x="446.638px " y="167.33px ">1</tspan>1010<tspan x="488.37px " y="167.33px ">1</tspan>001100<tspan x="551.554px " y="167.33px ">1</tspan>011</text></g><g transform="matrix(1.02912,0,0,1.02912,-15.5582,-130.476)"><text x="25.813px" y="205.053px" style="font-family:'Bitter-Regular', 'Bitter';font-size:62.5px;fill:#808080;">T<tspan x="59.251px 93.438px 124.376px " y="205.053px 205.053px 205.053px ">ech</tspan> l<tspan x="192.626px 225.126px " y="205.053px 205.053px ">aw</tspan> and polic<tspan x="551.501px " y="205.053px ">y</tspan></text><text x="151.764px" y="277.623px" style="font-family:'Bitter-Regular', 'Bitter';font-size:56.375px;fill:#333;">R<tspan x="186.604px 218.004px 249.631px " y="277.623px 277.623px 277.623px ">obe</tspan></text><text x="279.453px" y="277.623px" style="font-family:'Bitter-Regular', 'Bitter';font-size:56.375px;fill:#333;">r<tspan x="306.119px " y="277.623px ">t</tspan></text><text x="339.549px" y="277.623px" style="font-family:'Bitter-Regular', 'Bitter';font-size:56.375px;fill:#333;">D<tspan x="379.068px 395.135px " y="277.623px 277.623px ">ia</tspan>b</text></g></svg>