<?xml version="1.0" encoding="UTF-8" standalone="no"?>
<!DOCTYPE svg PUBLIC "-//W3C//DTD SVG 1.1//EN" "http://www.w3.org/Graphics/SVG/1.1/DTD/svg11.dtd">
<svg width="100%" height="100%" viewBox="0 0 600 200" version="1.1" xmlns="http://www.w3.org/2000/svg" xmlns:xlink="http://www.w3.org/1999/xlink" xml:space="preserve" xmlns:serif="http://www.serif.com/" style="fill-rule:evenodd;clip-rule:evenodd;stroke-linejoin:round;stroke-miterlimit:2;">
    <g transform="matrix(1.02912,0,0,1.02912,-15.9271,-134.966)">
        <g transform="matrix(62.5,0,0,62.5,28.0598,205.053)">
            <path d="M0.152,-0L0.152,-0.043L0.268,-0.064L0.252,-0.042L0.252,-0.652L0.27,-0.637L0.077,-0.637L0.097,-0.654L0.077,-0.527L0.027,-0.527L0.027,-0.698L0.558,-0.698L0.558,-0.527L0.508,-0.527L0.488,-0.652L0.508,-0.637L0.315,-0.637L0.333,-0.652L0.333,-0.042L0.318,-0.064L0.433,-0.043L0.433,-0L0.152,-0Z" style="fill:rgb(128,128,128);fill-rule:nonzero;"/>
        </g>
        <g transform="matrix(62.5,0,0,62.5,61.4973,205.053)">
            <path d="M0.276,0.009C0.231,0.009 0.192,-0.001 0.158,-0.022C0.123,-0.042 0.096,-0.072 0.077,-0.111C0.058,-0.15 0.048,-0.198 0.048,-0.255C0.048,-0.313 0.058,-0.363 0.078,-0.405C0.098,-0.447 0.126,-0.48 0.163,-0.503C0.2,-0.526 0.243,-0.537 0.292,-0.537C0.339,-0.537 0.377,-0.527 0.408,-0.508C0.438,-0.488 0.46,-0.461 0.476,-0.426C0.491,-0.391 0.498,-0.352 0.498,-0.307C0.498,-0.3 0.498,-0.292 0.497,-0.285C0.496,-0.278 0.495,-0.269 0.494,-0.258L0.109,-0.258L0.109,-0.315L0.424,-0.315L0.415,-0.309C0.416,-0.339 0.412,-0.367 0.404,-0.392C0.396,-0.417 0.382,-0.438 0.363,-0.453C0.344,-0.468 0.318,-0.476 0.286,-0.476C0.252,-0.476 0.223,-0.467 0.2,-0.449C0.177,-0.431 0.159,-0.406 0.148,-0.375C0.137,-0.344 0.131,-0.307 0.131,-0.266C0.131,-0.222 0.137,-0.184 0.15,-0.153C0.163,-0.121 0.181,-0.096 0.206,-0.079C0.23,-0.062 0.26,-0.053 0.295,-0.053C0.32,-0.053 0.347,-0.058 0.376,-0.068C0.405,-0.077 0.436,-0.092 0.467,-0.112L0.496,-0.067C0.459,-0.042 0.421,-0.023 0.384,-0.01C0.347,0.003 0.311,0.009 0.276,0.009Z" style="fill:rgb(128,128,128);fill-rule:nonzero;"/>
        </g>
        <g transform="matrix(62.5,0,0,62.5,95.6848,205.053)">
            <path d="M0.272,0.009C0.229,0.009 0.191,-0.001 0.157,-0.023C0.122,-0.044 0.095,-0.074 0.076,-0.114C0.056,-0.154 0.046,-0.202 0.046,-0.258C0.046,-0.307 0.053,-0.349 0.067,-0.384C0.08,-0.419 0.099,-0.447 0.122,-0.47C0.145,-0.493 0.172,-0.509 0.203,-0.521C0.233,-0.532 0.264,-0.537 0.297,-0.537C0.324,-0.537 0.352,-0.533 0.383,-0.526C0.413,-0.519 0.439,-0.509 0.462,-0.496L0.458,-0.371L0.404,-0.371L0.391,-0.465L0.399,-0.456C0.382,-0.464 0.365,-0.47 0.346,-0.473C0.327,-0.476 0.311,-0.478 0.296,-0.478C0.261,-0.478 0.232,-0.469 0.207,-0.452C0.182,-0.434 0.162,-0.409 0.149,-0.377C0.136,-0.345 0.129,-0.307 0.129,-0.263C0.129,-0.218 0.136,-0.179 0.15,-0.148C0.164,-0.117 0.183,-0.093 0.208,-0.077C0.232,-0.061 0.259,-0.053 0.29,-0.053C0.314,-0.053 0.339,-0.058 0.366,-0.068C0.393,-0.078 0.42,-0.093 0.449,-0.113L0.477,-0.069C0.442,-0.042 0.408,-0.023 0.373,-0.01C0.338,0.003 0.305,0.009 0.272,0.009Z" style="fill:rgb(128,128,128);fill-rule:nonzero;"/>
        </g>
        <g transform="matrix(62.5,0,0,62.5,126.622,205.053)">
            <path d="M0.024,-0L0.024,-0.043L0.115,-0.063L0.103,-0.048L0.103,-0.718L0.115,-0.702L0.024,-0.722L0.024,-0.765L0.183,-0.772L0.183,-0.434L0.165,-0.438C0.198,-0.472 0.232,-0.497 0.269,-0.513C0.305,-0.529 0.339,-0.537 0.372,-0.537C0.401,-0.537 0.428,-0.531 0.451,-0.519C0.474,-0.507 0.493,-0.489 0.506,-0.465C0.519,-0.44 0.525,-0.409 0.525,-0.372L0.525,-0.048L0.515,-0.062L0.603,-0.043L0.603,-0L0.37,-0L0.37,-0.043L0.456,-0.062L0.445,-0.047L0.445,-0.354C0.446,-0.395 0.436,-0.426 0.417,-0.445C0.398,-0.464 0.372,-0.474 0.341,-0.474C0.317,-0.474 0.29,-0.467 0.261,-0.454C0.232,-0.441 0.203,-0.42 0.176,-0.391L0.183,-0.408L0.183,-0.047L0.173,-0.061L0.258,-0.043L0.258,-0L0.024,-0Z" style="fill:rgb(128,128,128);fill-rule:nonzero;"/>
        </g>
        <g transform="matrix(62.5,0,0,62.5,177.872,205.053)">
            <path d="M0.183,-0.051L0.174,-0.062L0.261,-0.043L0.261,-0L0.024,-0L0.024,-0.043L0.111,-0.062L0.103,-0.051L0.103,-0.713L0.111,-0.704L0.024,-0.722L0.024,-0.765L0.183,-0.772L0.183,-0.051Z" style="fill:rgb(128,128,128);fill-rule:nonzero;"/>
        </g>
        <g transform="matrix(62.5,0,0,62.5,194.872,205.053)">
            <path d="M0.449,-0.045L0.436,-0.063L0.528,-0.045L0.528,-0.001L0.388,0.005L0.376,-0.091L0.383,-0.088C0.354,-0.056 0.322,-0.032 0.288,-0.016C0.254,0.001 0.221,0.009 0.189,0.009C0.15,0.009 0.118,-0.003 0.091,-0.028C0.064,-0.053 0.051,-0.09 0.051,-0.14C0.051,-0.179 0.059,-0.21 0.076,-0.231C0.093,-0.252 0.116,-0.266 0.145,-0.275C0.174,-0.284 0.208,-0.288 0.247,-0.288L0.378,-0.288L0.369,-0.278L0.369,-0.374C0.369,-0.411 0.359,-0.437 0.34,-0.453C0.321,-0.468 0.294,-0.476 0.26,-0.476C0.242,-0.476 0.223,-0.474 0.203,-0.471C0.182,-0.467 0.161,-0.461 0.138,-0.453L0.15,-0.466L0.14,-0.375L0.087,-0.375L0.079,-0.499C0.117,-0.512 0.153,-0.521 0.186,-0.528C0.219,-0.534 0.25,-0.537 0.278,-0.537C0.331,-0.537 0.373,-0.525 0.404,-0.502C0.434,-0.478 0.449,-0.44 0.449,-0.388L0.449,-0.045ZM0.132,-0.147C0.132,-0.114 0.14,-0.09 0.156,-0.075C0.171,-0.06 0.191,-0.052 0.215,-0.052C0.238,-0.052 0.264,-0.059 0.293,-0.074C0.321,-0.088 0.348,-0.107 0.375,-0.132L0.369,-0.111L0.369,-0.245L0.378,-0.236L0.259,-0.236C0.212,-0.236 0.179,-0.229 0.16,-0.215C0.141,-0.2 0.132,-0.178 0.132,-0.147Z" style="fill:rgb(128,128,128);fill-rule:nonzero;"/>
        </g>
        <g transform="matrix(62.5,0,0,62.5,227.372,205.053)">
            <path d="M0.603,-0.525L0.804,-0.532L0.804,-0.488L0.734,-0.471L0.748,-0.483L0.611,0.002L0.523,0.002L0.393,-0.47L0.409,-0.47L0.271,0.002L0.183,0.002L0.052,-0.481L0.064,-0.469L-0.005,-0.482L-0.005,-0.525L0.211,-0.532L0.211,-0.488L0.12,-0.472L0.129,-0.482L0.24,-0.047L0.227,-0.047L0.361,-0.526L0.448,-0.532L0.577,-0.044L0.564,-0.044L0.681,-0.48L0.69,-0.469L0.603,-0.482L0.603,-0.525Z" style="fill:rgb(128,128,128);fill-rule:nonzero;"/>
        </g>
        <g transform="matrix(62.5,0,0,62.5,289.81,205.053)">
            <path d="M0.449,-0.045L0.436,-0.063L0.528,-0.045L0.528,-0.001L0.388,0.005L0.376,-0.091L0.383,-0.088C0.354,-0.056 0.322,-0.032 0.288,-0.016C0.254,0.001 0.221,0.009 0.189,0.009C0.15,0.009 0.118,-0.003 0.091,-0.028C0.064,-0.053 0.051,-0.09 0.051,-0.14C0.051,-0.179 0.059,-0.21 0.076,-0.231C0.093,-0.252 0.116,-0.266 0.145,-0.275C0.174,-0.284 0.208,-0.288 0.247,-0.288L0.378,-0.288L0.369,-0.278L0.369,-0.374C0.369,-0.411 0.359,-0.437 0.34,-0.453C0.321,-0.468 0.294,-0.476 0.26,-0.476C0.242,-0.476 0.223,-0.474 0.203,-0.471C0.182,-0.467 0.161,-0.461 0.138,-0.453L0.15,-0.466L0.14,-0.375L0.087,-0.375L0.079,-0.499C0.117,-0.512 0.153,-0.521 0.186,-0.528C0.219,-0.534 0.25,-0.537 0.278,-0.537C0.331,-0.537 0.373,-0.525 0.404,-0.502C0.434,-0.478 0.449,-0.44 0.449,-0.388L0.449,-0.045ZM0.132,-0.147C0.132,-0.114 0.14,-0.09 0.156,-0.075C0.171,-0.06 0.191,-0.052 0.215,-0.052C0.238,-0.052 0.264,-0.059 0.293,-0.074C0.321,-0.088 0.348,-0.107 0.375,-0.132L0.369,-0.111L0.369,-0.245L0.378,-0.236L0.259,-0.236C0.212,-0.236 0.179,-0.229 0.16,-0.215C0.141,-0.2 0.132,-0.178 0.132,-0.147Z" style="fill:rgb(128,128,128);fill-rule:nonzero;"/>
        </g>
        <g transform="matrix(62.5,0,0,62.5,323.997,205.053)">
            <path d="M0.038,-0L0.038,-0.043L0.128,-0.063L0.116,-0.048L0.116,-0.478L0.128,-0.463L0.038,-0.482L0.038,-0.525L0.178,-0.532L0.189,-0.434L0.178,-0.438C0.211,-0.472 0.246,-0.497 0.283,-0.513C0.319,-0.529 0.353,-0.537 0.386,-0.537C0.43,-0.537 0.466,-0.524 0.496,-0.497C0.525,-0.47 0.539,-0.428 0.538,-0.371L0.538,-0.048L0.528,-0.062L0.616,-0.043L0.616,-0L0.383,-0L0.383,-0.043L0.47,-0.062L0.458,-0.047L0.458,-0.354C0.458,-0.395 0.449,-0.426 0.43,-0.445C0.411,-0.464 0.386,-0.474 0.355,-0.474C0.33,-0.474 0.304,-0.467 0.275,-0.454C0.246,-0.441 0.217,-0.42 0.189,-0.392L0.196,-0.408L0.196,-0.047L0.186,-0.061L0.271,-0.043L0.271,-0L0.038,-0Z" style="fill:rgb(128,128,128);fill-rule:nonzero;"/>
        </g>
        <g transform="matrix(62.5,0,0,62.5,363.56,205.053)">
            <path d="M0.245,0.009C0.208,0.009 0.175,-0.001 0.145,-0.022C0.115,-0.042 0.091,-0.072 0.074,-0.112C0.057,-0.151 0.048,-0.199 0.048,-0.256C0.048,-0.349 0.072,-0.419 0.119,-0.466C0.166,-0.513 0.231,-0.537 0.314,-0.537C0.331,-0.537 0.349,-0.536 0.369,-0.533C0.388,-0.53 0.407,-0.526 0.427,-0.521L0.411,-0.512L0.411,-0.713L0.42,-0.702L0.328,-0.722L0.328,-0.765L0.491,-0.772L0.491,-0.049L0.479,-0.063L0.569,-0.045L0.569,-0.001L0.429,0.005L0.417,-0.081L0.427,-0.077C0.397,-0.048 0.367,-0.027 0.337,-0.013C0.306,0.002 0.276,0.009 0.245,0.009ZM0.273,-0.052C0.296,-0.052 0.321,-0.058 0.346,-0.071C0.371,-0.083 0.396,-0.101 0.421,-0.126L0.411,-0.099L0.411,-0.478L0.422,-0.458C0.381,-0.471 0.344,-0.478 0.311,-0.478C0.252,-0.478 0.208,-0.459 0.177,-0.421C0.146,-0.383 0.131,-0.33 0.131,-0.263C0.131,-0.219 0.137,-0.181 0.15,-0.15C0.162,-0.118 0.179,-0.094 0.201,-0.077C0.222,-0.06 0.246,-0.052 0.273,-0.052Z" style="fill:rgb(128,128,128);fill-rule:nonzero;"/>
        </g>
        <g transform="matrix(62.5,0,0,62.5,413.122,205.053)">
            <path d="M0.027,0.23L0.027,0.187L0.118,0.166L0.105,0.181L0.105,-0.476L0.117,-0.463L0.027,-0.482L0.027,-0.525L0.167,-0.532L0.177,-0.445L0.168,-0.451C0.199,-0.48 0.229,-0.501 0.26,-0.516C0.291,-0.53 0.321,-0.537 0.351,-0.537C0.388,-0.537 0.422,-0.527 0.452,-0.506C0.481,-0.485 0.505,-0.456 0.522,-0.417C0.539,-0.377 0.548,-0.33 0.548,-0.273C0.548,-0.212 0.538,-0.16 0.517,-0.118C0.496,-0.076 0.466,-0.044 0.428,-0.023C0.39,-0.001 0.345,0.01 0.294,0.01C0.275,0.01 0.256,0.008 0.236,0.005C0.216,0.002 0.195,-0.003 0.173,-0.008L0.185,-0.019L0.185,0.181L0.174,0.167L0.277,0.187L0.277,0.23L0.027,0.23ZM0.285,-0.05C0.344,-0.05 0.388,-0.069 0.419,-0.107C0.45,-0.145 0.465,-0.198 0.465,-0.265C0.465,-0.309 0.459,-0.347 0.447,-0.378C0.434,-0.409 0.417,-0.434 0.396,-0.451C0.375,-0.468 0.35,-0.476 0.323,-0.476C0.3,-0.476 0.276,-0.47 0.251,-0.458C0.226,-0.445 0.2,-0.426 0.175,-0.401L0.185,-0.426L0.185,-0.051L0.174,-0.069C0.215,-0.056 0.252,-0.05 0.285,-0.05Z" style="fill:rgb(128,128,128);fill-rule:nonzero;"/>
        </g>
        <g transform="matrix(62.5,0,0,62.5,450.372,205.053)">
            <path d="M0.294,-0.537C0.367,-0.537 0.425,-0.514 0.467,-0.468C0.508,-0.422 0.529,-0.357 0.529,-0.273C0.529,-0.216 0.519,-0.167 0.499,-0.125C0.478,-0.082 0.449,-0.049 0.412,-0.026C0.375,-0.003 0.33,0.009 0.277,0.009C0.205,0.009 0.149,-0.014 0.108,-0.059C0.067,-0.103 0.047,-0.168 0.047,-0.253C0.047,-0.312 0.057,-0.362 0.077,-0.405C0.096,-0.447 0.125,-0.48 0.162,-0.503C0.199,-0.526 0.243,-0.537 0.294,-0.537ZM0.29,-0.478C0.239,-0.478 0.199,-0.459 0.172,-0.42C0.145,-0.381 0.131,-0.327 0.131,-0.257C0.131,-0.188 0.144,-0.137 0.17,-0.102C0.196,-0.067 0.233,-0.05 0.282,-0.05C0.317,-0.05 0.347,-0.059 0.372,-0.077C0.396,-0.094 0.414,-0.119 0.427,-0.152C0.439,-0.185 0.445,-0.224 0.445,-0.269C0.445,-0.337 0.432,-0.389 0.405,-0.425C0.378,-0.46 0.339,-0.478 0.29,-0.478Z" style="fill:rgb(128,128,128);fill-rule:nonzero;"/>
        </g>
        <g transform="matrix(62.5,0,0,62.5,486.31,205.053)">
            <path d="M0.183,-0.051L0.174,-0.062L0.261,-0.043L0.261,-0L0.024,-0L0.024,-0.043L0.111,-0.062L0.103,-0.051L0.103,-0.713L0.111,-0.704L0.024,-0.722L0.024,-0.765L0.183,-0.772L0.183,-0.051Z" style="fill:rgb(128,128,128);fill-rule:nonzero;"/>
        </g>
        <g transform="matrix(62.5,0,0,62.5,504.122,205.053)">
            <path d="M0.196,-0.051L0.187,-0.062L0.274,-0.043L0.274,-0L0.038,-0L0.038,-0.043L0.125,-0.062L0.116,-0.051L0.116,-0.473L0.124,-0.464L0.038,-0.482L0.038,-0.525L0.196,-0.531L0.196,-0.051ZM0.15,-0.639C0.135,-0.639 0.122,-0.644 0.112,-0.654C0.102,-0.664 0.097,-0.678 0.097,-0.695C0.097,-0.713 0.102,-0.727 0.113,-0.737C0.123,-0.746 0.136,-0.751 0.151,-0.751C0.167,-0.751 0.18,-0.746 0.19,-0.737C0.2,-0.728 0.205,-0.714 0.205,-0.695C0.205,-0.677 0.2,-0.663 0.189,-0.654C0.178,-0.644 0.165,-0.639 0.15,-0.639Z" style="fill:rgb(128,128,128);fill-rule:nonzero;"/>
        </g>
        <g transform="matrix(62.5,0,0,62.5,522.747,205.053)">
            <path d="M0.272,0.009C0.229,0.009 0.191,-0.001 0.157,-0.023C0.122,-0.044 0.095,-0.074 0.076,-0.114C0.056,-0.154 0.046,-0.202 0.046,-0.258C0.046,-0.307 0.053,-0.349 0.067,-0.384C0.08,-0.419 0.099,-0.447 0.122,-0.47C0.145,-0.493 0.172,-0.509 0.203,-0.521C0.233,-0.532 0.264,-0.537 0.297,-0.537C0.324,-0.537 0.352,-0.533 0.383,-0.526C0.413,-0.519 0.439,-0.509 0.462,-0.496L0.458,-0.371L0.404,-0.371L0.391,-0.465L0.399,-0.456C0.382,-0.464 0.365,-0.47 0.346,-0.473C0.327,-0.476 0.311,-0.478 0.296,-0.478C0.261,-0.478 0.232,-0.469 0.207,-0.452C0.182,-0.434 0.162,-0.409 0.149,-0.377C0.136,-0.345 0.129,-0.307 0.129,-0.263C0.129,-0.218 0.136,-0.179 0.15,-0.148C0.164,-0.117 0.183,-0.093 0.208,-0.077C0.232,-0.061 0.259,-0.053 0.29,-0.053C0.314,-0.053 0.339,-0.058 0.366,-0.068C0.393,-0.078 0.42,-0.093 0.449,-0.113L0.477,-0.069C0.442,-0.042 0.408,-0.023 0.373,-0.01C0.338,0.003 0.305,0.009 0.272,0.009Z" style="fill:rgb(128,128,128);fill-rule:nonzero;"/>
        </g>
        <g transform="matrix(62.5,0,0,62.5,553.747,205.053)">
            <path d="M0.015,0.234L0.022,0.175C0.03,0.176 0.038,0.177 0.045,0.178C0.051,0.179 0.058,0.179 0.064,0.179C0.097,0.179 0.123,0.171 0.144,0.157C0.164,0.141 0.181,0.119 0.195,0.089C0.209,0.059 0.223,0.022 0.238,-0.023L0.235,0.007L0.048,-0.48L0.059,-0.471L-0.006,-0.482L-0.006,-0.525L0.213,-0.532L0.213,-0.488L0.123,-0.473L0.129,-0.482L0.278,-0.057L0.26,-0.061L0.403,-0.48L0.409,-0.471L0.321,-0.482L0.321,-0.525L0.533,-0.532L0.533,-0.488L0.463,-0.472L0.477,-0.481L0.301,0.002C0.289,0.035 0.277,0.066 0.264,0.095C0.251,0.124 0.236,0.149 0.219,0.171C0.202,0.192 0.182,0.209 0.158,0.221C0.134,0.233 0.105,0.239 0.071,0.239C0.056,0.239 0.037,0.237 0.015,0.234Z" style="fill:rgb(128,128,128);fill-rule:nonzero;"/>
        </g>
        <g transform="matrix(16.1951,0,0,16.1951,23.5668,237.443)">
            <path d="M0.278,-0.044L0.26,-0.066L0.394,-0.045L0.394,-0L0.055,-0L0.055,-0.045L0.214,-0.065L0.196,-0.044L0.196,-0.629L0.218,-0.627L0.044,-0.526L0.017,-0.577L0.211,-0.701L0.278,-0.701L0.278,-0.044Z" style="fill:rgb(255,216,0);fill-rule:nonzero;"/>
        </g>
        <g transform="matrix(16.1951,0,0,16.1951,30.142,237.443)">
            <path d="M0.316,0.009C0.259,0.009 0.213,-0.004 0.176,-0.03C0.138,-0.056 0.111,-0.095 0.094,-0.147C0.076,-0.199 0.067,-0.264 0.067,-0.343C0.067,-0.424 0.076,-0.492 0.095,-0.546C0.114,-0.599 0.143,-0.64 0.182,-0.667C0.221,-0.693 0.271,-0.707 0.33,-0.707C0.388,-0.707 0.435,-0.695 0.471,-0.67C0.506,-0.645 0.532,-0.608 0.549,-0.557C0.565,-0.506 0.573,-0.442 0.573,-0.364C0.573,-0.281 0.564,-0.212 0.545,-0.157C0.526,-0.102 0.498,-0.06 0.46,-0.033C0.421,-0.005 0.373,0.009 0.316,0.009ZM0.319,-0.055C0.358,-0.055 0.389,-0.066 0.414,-0.088C0.439,-0.11 0.457,-0.143 0.469,-0.188C0.481,-0.232 0.487,-0.288 0.488,-0.356C0.489,-0.427 0.483,-0.483 0.471,-0.525C0.459,-0.566 0.441,-0.596 0.417,-0.615C0.393,-0.634 0.363,-0.643 0.327,-0.643C0.287,-0.643 0.254,-0.632 0.228,-0.611C0.202,-0.589 0.183,-0.556 0.171,-0.513C0.158,-0.469 0.152,-0.414 0.152,-0.347C0.152,-0.28 0.158,-0.226 0.17,-0.183C0.182,-0.139 0.2,-0.108 0.225,-0.087C0.25,-0.066 0.281,-0.055 0.319,-0.055Z" style="fill:rgb(255,216,0);fill-rule:nonzero;"/>
        </g>
        <g transform="matrix(16.1951,0,0,16.1951,40.5231,237.443)">
            <path d="M0.316,0.009C0.259,0.009 0.213,-0.004 0.176,-0.03C0.138,-0.056 0.111,-0.095 0.094,-0.147C0.076,-0.199 0.067,-0.264 0.067,-0.343C0.067,-0.424 0.076,-0.492 0.095,-0.546C0.114,-0.599 0.143,-0.64 0.182,-0.667C0.221,-0.693 0.271,-0.707 0.33,-0.707C0.388,-0.707 0.435,-0.695 0.471,-0.67C0.506,-0.645 0.532,-0.608 0.549,-0.557C0.565,-0.506 0.573,-0.442 0.573,-0.364C0.573,-0.281 0.564,-0.212 0.545,-0.157C0.526,-0.102 0.498,-0.06 0.46,-0.033C0.421,-0.005 0.373,0.009 0.316,0.009ZM0.319,-0.055C0.358,-0.055 0.389,-0.066 0.414,-0.088C0.439,-0.11 0.457,-0.143 0.469,-0.188C0.481,-0.232 0.487,-0.288 0.488,-0.356C0.489,-0.427 0.483,-0.483 0.471,-0.525C0.459,-0.566 0.441,-0.596 0.417,-0.615C0.393,-0.634 0.363,-0.643 0.327,-0.643C0.287,-0.643 0.254,-0.632 0.228,-0.611C0.202,-0.589 0.183,-0.556 0.171,-0.513C0.158,-0.469 0.152,-0.414 0.152,-0.347C0.152,-0.28 0.158,-0.226 0.17,-0.183C0.182,-0.139 0.2,-0.108 0.225,-0.087C0.25,-0.066 0.281,-0.055 0.319,-0.055Z" style="fill:rgb(255,216,0);fill-rule:nonzero;"/>
        </g>
        <g transform="matrix(16.1951,0,0,16.1951,50.8556,237.443)">
            <path d="M0.278,-0.044L0.26,-0.066L0.394,-0.045L0.394,-0L0.055,-0L0.055,-0.045L0.214,-0.065L0.196,-0.044L0.196,-0.629L0.218,-0.627L0.044,-0.526L0.017,-0.577L0.211,-0.701L0.278,-0.701L0.278,-0.044Z" style="fill:rgb(255,216,0);fill-rule:nonzero;"/>
        </g>
        <g transform="matrix(16.1951,0,0,16.1951,57.4308,237.443)">
            <path d="M0.278,-0.044L0.26,-0.066L0.394,-0.045L0.394,-0L0.055,-0L0.055,-0.045L0.214,-0.065L0.196,-0.044L0.196,-0.629L0.218,-0.627L0.044,-0.526L0.017,-0.577L0.211,-0.701L0.278,-0.701L0.278,-0.044Z" style="fill:rgb(255,216,0);fill-rule:nonzero;"/>
        </g>
        <g transform="matrix(16.1951,0,0,16.1951,64.006,237.443)">
            <path d="M0.316,0.009C0.259,0.009 0.213,-0.004 0.176,-0.03C0.138,-0.056 0.111,-0.095 0.094,-0.147C0.076,-0.199 0.067,-0.264 0.067,-0.343C0.067,-0.424 0.076,-0.492 0.095,-0.546C0.114,-0.599 0.143,-0.64 0.182,-0.667C0.221,-0.693 0.271,-0.707 0.33,-0.707C0.388,-0.707 0.435,-0.695 0.471,-0.67C0.506,-0.645 0.532,-0.608 0.549,-0.557C0.565,-0.506 0.573,-0.442 0.573,-0.364C0.573,-0.281 0.564,-0.212 0.545,-0.157C0.526,-0.102 0.498,-0.06 0.46,-0.033C0.421,-0.005 0.373,0.009 0.316,0.009ZM0.319,-0.055C0.358,-0.055 0.389,-0.066 0.414,-0.088C0.439,-0.11 0.457,-0.143 0.469,-0.188C0.481,-0.232 0.487,-0.288 0.488,-0.356C0.489,-0.427 0.483,-0.483 0.471,-0.525C0.459,-0.566 0.441,-0.596 0.417,-0.615C0.393,-0.634 0.363,-0.643 0.327,-0.643C0.287,-0.643 0.254,-0.632 0.228,-0.611C0.202,-0.589 0.183,-0.556 0.171,-0.513C0.158,-0.469 0.152,-0.414 0.152,-0.347C0.152,-0.28 0.158,-0.226 0.17,-0.183C0.182,-0.139 0.2,-0.108 0.225,-0.087C0.25,-0.066 0.281,-0.055 0.319,-0.055Z" style="fill:rgb(255,216,0);fill-rule:nonzero;"/>
        </g>
        <g transform="matrix(16.1951,0,0,16.1951,74.3385,237.443)">
            <path d="M0.278,-0.044L0.26,-0.066L0.394,-0.045L0.394,-0L0.055,-0L0.055,-0.045L0.214,-0.065L0.196,-0.044L0.196,-0.629L0.218,-0.627L0.044,-0.526L0.017,-0.577L0.211,-0.701L0.278,-0.701L0.278,-0.044Z" style="fill:rgb(255,216,0);fill-rule:nonzero;"/>
        </g>
        <g transform="matrix(16.1951,0,0,16.1951,80.9137,237.443)">
            <path d="M0.316,0.009C0.259,0.009 0.213,-0.004 0.176,-0.03C0.138,-0.056 0.111,-0.095 0.094,-0.147C0.076,-0.199 0.067,-0.264 0.067,-0.343C0.067,-0.424 0.076,-0.492 0.095,-0.546C0.114,-0.599 0.143,-0.64 0.182,-0.667C0.221,-0.693 0.271,-0.707 0.33,-0.707C0.388,-0.707 0.435,-0.695 0.471,-0.67C0.506,-0.645 0.532,-0.608 0.549,-0.557C0.565,-0.506 0.573,-0.442 0.573,-0.364C0.573,-0.281 0.564,-0.212 0.545,-0.157C0.526,-0.102 0.498,-0.06 0.46,-0.033C0.421,-0.005 0.373,0.009 0.316,0.009ZM0.319,-0.055C0.358,-0.055 0.389,-0.066 0.414,-0.088C0.439,-0.11 0.457,-0.143 0.469,-0.188C0.481,-0.232 0.487,-0.288 0.488,-0.356C0.489,-0.427 0.483,-0.483 0.471,-0.525C0.459,-0.566 0.441,-0.596 0.417,-0.615C0.393,-0.634 0.363,-0.643 0.327,-0.643C0.287,-0.643 0.254,-0.632 0.228,-0.611C0.202,-0.589 0.183,-0.556 0.171,-0.513C0.158,-0.469 0.152,-0.414 0.152,-0.347C0.152,-0.28 0.158,-0.226 0.17,-0.183C0.182,-0.139 0.2,-0.108 0.225,-0.087C0.25,-0.066 0.281,-0.055 0.319,-0.055Z" style="fill:rgb(255,216,0);fill-rule:nonzero;"/>
        </g>
        <g transform="matrix(16.1951,0,0,16.1951,91.2462,237.443)">
            <path d="M0.278,-0.044L0.26,-0.066L0.394,-0.045L0.394,-0L0.055,-0L0.055,-0.045L0.214,-0.065L0.196,-0.044L0.196,-0.629L0.218,-0.627L0.044,-0.526L0.017,-0.577L0.211,-0.701L0.278,-0.701L0.278,-0.044Z" style="fill:rgb(255,216,0);fill-rule:nonzero;"/>
        </g>
        <g transform="matrix(16.1951,0,0,16.1951,97.8214,237.443)">
            <path d="M0.278,-0.044L0.26,-0.066L0.394,-0.045L0.394,-0L0.055,-0L0.055,-0.045L0.214,-0.065L0.196,-0.044L0.196,-0.629L0.218,-0.627L0.044,-0.526L0.017,-0.577L0.211,-0.701L0.278,-0.701L0.278,-0.044Z" style="fill:rgb(255,216,0);fill-rule:nonzero;"/>
        </g>
        <g transform="matrix(16.1951,0,0,16.1951,104.397,237.443)">
            <path d="M0.316,0.009C0.259,0.009 0.213,-0.004 0.176,-0.03C0.138,-0.056 0.111,-0.095 0.094,-0.147C0.076,-0.199 0.067,-0.264 0.067,-0.343C0.067,-0.424 0.076,-0.492 0.095,-0.546C0.114,-0.599 0.143,-0.64 0.182,-0.667C0.221,-0.693 0.271,-0.707 0.33,-0.707C0.388,-0.707 0.435,-0.695 0.471,-0.67C0.506,-0.645 0.532,-0.608 0.549,-0.557C0.565,-0.506 0.573,-0.442 0.573,-0.364C0.573,-0.281 0.564,-0.212 0.545,-0.157C0.526,-0.102 0.498,-0.06 0.46,-0.033C0.421,-0.005 0.373,0.009 0.316,0.009ZM0.319,-0.055C0.358,-0.055 0.389,-0.066 0.414,-0.088C0.439,-0.11 0.457,-0.143 0.469,-0.188C0.481,-0.232 0.487,-0.288 0.488,-0.356C0.489,-0.427 0.483,-0.483 0.471,-0.525C0.459,-0.566 0.441,-0.596 0.417,-0.615C0.393,-0.634 0.363,-0.643 0.327,-0.643C0.287,-0.643 0.254,-0.632 0.228,-0.611C0.202,-0.589 0.183,-0.556 0.171,-0.513C0.158,-0.469 0.152,-0.414 0.152,-0.347C0.152,-0.28 0.158,-0.226 0.17,-0.183C0.182,-0.139 0.2,-0.108 0.225,-0.087C0.25,-0.066 0.281,-0.055 0.319,-0.055Z" style="fill:rgb(255,216,0);fill-rule:nonzero;"/>
        </g>
        <g transform="matrix(16.1951,0,0,16.1951,114.729,237.443)">
            <path d="M0.278,-0.044L0.26,-0.066L0.394,-0.045L0.394,-0L0.055,-0L0.055,-0.045L0.214,-0.065L0.196,-0.044L0.196,-0.629L0.218,-0.627L0.044,-0.526L0.017,-0.577L0.211,-0.701L0.278,-0.701L0.278,-0.044Z" style="fill:rgb(255,216,0);fill-rule:nonzero;"/>
        </g>
        <g transform="matrix(16.1951,0,0,16.1951,121.304,237.443)">
            <path d="M0.316,0.009C0.259,0.009 0.213,-0.004 0.176,-0.03C0.138,-0.056 0.111,-0.095 0.094,-0.147C0.076,-0.199 0.067,-0.264 0.067,-0.343C0.067,-0.424 0.076,-0.492 0.095,-0.546C0.114,-0.599 0.143,-0.64 0.182,-0.667C0.221,-0.693 0.271,-0.707 0.33,-0.707C0.388,-0.707 0.435,-0.695 0.471,-0.67C0.506,-0.645 0.532,-0.608 0.549,-0.557C0.565,-0.506 0.573,-0.442 0.573,-0.364C0.573,-0.281 0.564,-0.212 0.545,-0.157C0.526,-0.102 0.498,-0.06 0.46,-0.033C0.421,-0.005 0.373,0.009 0.316,0.009ZM0.319,-0.055C0.358,-0.055 0.389,-0.066 0.414,-0.088C0.439,-0.11 0.457,-0.143 0.469,-0.188C0.481,-0.232 0.487,-0.288 0.488,-0.356C0.489,-0.427 0.483,-0.483 0.471,-0.525C0.459,-0.566 0.441,-0.596 0.417,-0.615C0.393,-0.634 0.363,-0.643 0.327,-0.643C0.287,-0.643 0.254,-0.632 0.228,-0.611C0.202,-0.589 0.183,-0.556 0.171,-0.513C0.158,-0.469 0.152,-0.414 0.152,-0.347C0.152,-0.28 0.158,-0.226 0.17,-0.183C0.182,-0.139 0.2,-0.108 0.225,-0.087C0.25,-0.066 0.281,-0.055 0.319,-0.055Z" style="fill:rgb(255,216,0);fill-rule:nonzero;"/>
        </g>
        <g transform="matrix(16.1951,0,0,16.1951,131.637,237.443)">
            <path d="M0.278,-0.044L0.26,-0.066L0.394,-0.045L0.394,-0L0.055,-0L0.055,-0.045L0.214,-0.065L0.196,-0.044L0.196,-0.629L0.218,-0.627L0.044,-0.526L0.017,-0.577L0.211,-0.701L0.278,-0.701L0.278,-0.044Z" style="fill:rgb(255,216,0);fill-rule:nonzero;"/>
        </g>
        <g transform="matrix(16.1951,0,0,16.1951,138.212,237.443)">
            <path d="M0.316,0.009C0.259,0.009 0.213,-0.004 0.176,-0.03C0.138,-0.056 0.111,-0.095 0.094,-0.147C0.076,-0.199 0.067,-0.264 0.067,-0.343C0.067,-0.424 0.076,-0.492 0.095,-0.546C0.114,-0.599 0.143,-0.64 0.182,-0.667C0.221,-0.693 0.271,-0.707 0.33,-0.707C0.388,-0.707 0.435,-0.695 0.471,-0.67C0.506,-0.645 0.532,-0.608 0.549,-0.557C0.565,-0.506 0.573,-0.442 0.573,-0.364C0.573,-0.281 0.564,-0.212 0.545,-0.157C0.526,-0.102 0.498,-0.06 0.46,-0.033C0.421,-0.005 0.373,0.009 0.316,0.009ZM0.319,-0.055C0.358,-0.055 0.389,-0.066 0.414,-0.088C0.439,-0.11 0.457,-0.143 0.469,-0.188C0.481,-0.232 0.487,-0.288 0.488,-0.356C0.489,-0.427 0.483,-0.483 0.471,-0.525C0.459,-0.566 0.441,-0.596 0.417,-0.615C0.393,-0.634 0.363,-0.643 0.327,-0.643C0.287,-0.643 0.254,-0.632 0.228,-0.611C0.202,-0.589 0.183,-0.556 0.171,-0.513C0.158,-0.469 0.152,-0.414 0.152,-0.347C0.152,-0.28 0.158,-0.226 0.17,-0.183C0.182,-0.139 0.2,-0.108 0.225,-0.087C0.25,-0.066 0.281,-0.055 0.319,-0.055Z" style="fill:rgb(255,216,0);fill-rule:nonzero;"/>
        </g>
        <g transform="matrix(16.1951,0,0,16.1951,148.593,237.443)">
            <path d="M0.316,0.009C0.259,0.009 0.213,-0.004 0.176,-0.03C0.138,-0.056 0.111,-0.095 0.094,-0.147C0.076,-0.199 0.067,-0.264 0.067,-0.343C0.067,-0.424 0.076,-0.492 0.095,-0.546C0.114,-0.599 0.143,-0.64 0.182,-0.667C0.221,-0.693 0.271,-0.707 0.33,-0.707C0.388,-0.707 0.435,-0.695 0.471,-0.67C0.506,-0.645 0.532,-0.608 0.549,-0.557C0.565,-0.506 0.573,-0.442 0.573,-0.364C0.573,-0.281 0.564,-0.212 0.545,-0.157C0.526,-0.102 0.498,-0.06 0.46,-0.033C0.421,-0.005 0.373,0.009 0.316,0.009ZM0.319,-0.055C0.358,-0.055 0.389,-0.066 0.414,-0.088C0.439,-0.11 0.457,-0.143 0.469,-0.188C0.481,-0.232 0.487,-0.288 0.488,-0.356C0.489,-0.427 0.483,-0.483 0.471,-0.525C0.459,-0.566 0.441,-0.596 0.417,-0.615C0.393,-0.634 0.363,-0.643 0.327,-0.643C0.287,-0.643 0.254,-0.632 0.228,-0.611C0.202,-0.589 0.183,-0.556 0.171,-0.513C0.158,-0.469 0.152,-0.414 0.152,-0.347C0.152,-0.28 0.158,-0.226 0.17,-0.183C0.182,-0.139 0.2,-0.108 0.225,-0.087C0.25,-0.066 0.281,-0.055 0.319,-0.055Z" style="fill:rgb(255,216,0);fill-rule:nonzero;"/>
        </g>
        <g transform="matrix(16.1951,0,0,16.1951,158.926,237.443)">
            <path d="M0.278,-0.044L0.26,-0.066L0.394,-0.045L0.394,-0L0.055,-0L0.055,-0.045L0.214,-0.065L0.196,-0.044L0.196,-0.629L0.218,-0.627L0.044,-0.526L0.017,-0.577L0.211,-0.701L0.278,-0.701L0.278,-0.044Z" style="fill:rgb(255,216,0);fill-rule:nonzero;"/>
        </g>
        <g transform="matrix(16.1951,0,0,16.1951,165.501,237.443)">
            <path d="M0.278,-0.044L0.26,-0.066L0.394,-0.045L0.394,-0L0.055,-0L0.055,-0.045L0.214,-0.065L0.196,-0.044L0.196,-0.629L0.218,-0.627L0.044,-0.526L0.017,-0.577L0.211,-0.701L0.278,-0.701L0.278,-0.044Z" style="fill:rgb(255,216,0);fill-rule:nonzero;"/>
        </g>
        <g transform="matrix(16.1951,0,0,16.1951,172.076,237.443)">
            <path d="M0.316,0.009C0.259,0.009 0.213,-0.004 0.176,-0.03C0.138,-0.056 0.111,-0.095 0.094,-0.147C0.076,-0.199 0.067,-0.264 0.067,-0.343C0.067,-0.424 0.076,-0.492 0.095,-0.546C0.114,-0.599 0.143,-0.64 0.182,-0.667C0.221,-0.693 0.271,-0.707 0.33,-0.707C0.388,-0.707 0.435,-0.695 0.471,-0.67C0.506,-0.645 0.532,-0.608 0.549,-0.557C0.565,-0.506 0.573,-0.442 0.573,-0.364C0.573,-0.281 0.564,-0.212 0.545,-0.157C0.526,-0.102 0.498,-0.06 0.46,-0.033C0.421,-0.005 0.373,0.009 0.316,0.009ZM0.319,-0.055C0.358,-0.055 0.389,-0.066 0.414,-0.088C0.439,-0.11 0.457,-0.143 0.469,-0.188C0.481,-0.232 0.487,-0.288 0.488,-0.356C0.489,-0.427 0.483,-0.483 0.471,-0.525C0.459,-0.566 0.441,-0.596 0.417,-0.615C0.393,-0.634 0.363,-0.643 0.327,-0.643C0.287,-0.643 0.254,-0.632 0.228,-0.611C0.202,-0.589 0.183,-0.556 0.171,-0.513C0.158,-0.469 0.152,-0.414 0.152,-0.347C0.152,-0.28 0.158,-0.226 0.17,-0.183C0.182,-0.139 0.2,-0.108 0.225,-0.087C0.25,-0.066 0.281,-0.055 0.319,-0.055Z" style="fill:rgb(255,216,0);fill-rule:nonzero;"/>
        </g>
        <g transform="matrix(16.1951,0,0,16.1951,182.457,237.443)">
            <path d="M0.316,0.009C0.259,0.009 0.213,-0.004 0.176,-0.03C0.138,-0.056 0.111,-0.095 0.094,-0.147C0.076,-0.199 0.067,-0.264 0.067,-0.343C0.067,-0.424 0.076,-0.492 0.095,-0.546C0.114,-0.599 0.143,-0.64 0.182,-0.667C0.221,-0.693 0.271,-0.707 0.33,-0.707C0.388,-0.707 0.435,-0.695 0.471,-0.67C0.506,-0.645 0.532,-0.608 0.549,-0.557C0.565,-0.506 0.573,-0.442 0.573,-0.364C0.573,-0.281 0.564,-0.212 0.545,-0.157C0.526,-0.102 0.498,-0.06 0.46,-0.033C0.421,-0.005 0.373,0.009 0.316,0.009ZM0.319,-0.055C0.358,-0.055 0.389,-0.066 0.414,-0.088C0.439,-0.11 0.457,-0.143 0.469,-0.188C0.481,-0.232 0.487,-0.288 0.488,-0.356C0.489,-0.427 0.483,-0.483 0.471,-0.525C0.459,-0.566 0.441,-0.596 0.417,-0.615C0.393,-0.634 0.363,-0.643 0.327,-0.643C0.287,-0.643 0.254,-0.632 0.228,-0.611C0.202,-0.589 0.183,-0.556 0.171,-0.513C0.158,-0.469 0.152,-0.414 0.152,-0.347C0.152,-0.28 0.158,-0.226 0.17,-0.183C0.182,-0.139 0.2,-0.108 0.225,-0.087C0.25,-0.066 0.281,-0.055 0.319,-0.055Z" style="fill:rgb(255,216,0);fill-rule:nonzero;"/>
        </g>
        <g transform="matrix(16.1951,0,0,16.1951,192.79,237.443)">
            <path d="M0.278,-0.044L0.26,-0.066L0.394,-0.045L0.394,-0L0.055,-0L0.055,-0.045L0.214,-0.065L0.196,-0.044L0.196,-0.629L0.218,-0.627L0.044,-0.526L0.017,-0.577L0.211,-0.701L0.278,-0.701L0.278,-0.044Z" style="fill:rgb(255,216,0);fill-rule:nonzero;"/>
        </g>
        <g transform="matrix(16.1951,0,0,16.1951,199.365,237.443)">
            <path d="M0.278,-0.044L0.26,-0.066L0.394,-0.045L0.394,-0L0.055,-0L0.055,-0.045L0.214,-0.065L0.196,-0.044L0.196,-0.629L0.218,-0.627L0.044,-0.526L0.017,-0.577L0.211,-0.701L0.278,-0.701L0.278,-0.044Z" style="fill:rgb(255,216,0);fill-rule:nonzero;"/>
        </g>
        <g transform="matrix(16.1951,0,0,16.1951,205.94,237.443)">
            <path d="M0.316,0.009C0.259,0.009 0.213,-0.004 0.176,-0.03C0.138,-0.056 0.111,-0.095 0.094,-0.147C0.076,-0.199 0.067,-0.264 0.067,-0.343C0.067,-0.424 0.076,-0.492 0.095,-0.546C0.114,-0.599 0.143,-0.64 0.182,-0.667C0.221,-0.693 0.271,-0.707 0.33,-0.707C0.388,-0.707 0.435,-0.695 0.471,-0.67C0.506,-0.645 0.532,-0.608 0.549,-0.557C0.565,-0.506 0.573,-0.442 0.573,-0.364C0.573,-0.281 0.564,-0.212 0.545,-0.157C0.526,-0.102 0.498,-0.06 0.46,-0.033C0.421,-0.005 0.373,0.009 0.316,0.009ZM0.319,-0.055C0.358,-0.055 0.389,-0.066 0.414,-0.088C0.439,-0.11 0.457,-0.143 0.469,-0.188C0.481,-0.232 0.487,-0.288 0.488,-0.356C0.489,-0.427 0.483,-0.483 0.471,-0.525C0.459,-0.566 0.441,-0.596 0.417,-0.615C0.393,-0.634 0.363,-0.643 0.327,-0.643C0.287,-0.643 0.254,-0.632 0.228,-0.611C0.202,-0.589 0.183,-0.556 0.171,-0.513C0.158,-0.469 0.152,-0.414 0.152,-0.347C0.152,-0.28 0.158,-0.226 0.17,-0.183C0.182,-0.139 0.2,-0.108 0.225,-0.087C0.25,-0.066 0.281,-0.055 0.319,-0.055Z" style="fill:rgb(255,216,0);fill-rule:nonzero;"/>
        </g>
        <g transform="matrix(16.1951,0,0,16.1951,216.273,237.443)">
            <path d="M0.278,-0.044L0.26,-0.066L0.394,-0.045L0.394,-0L0.055,-0L0.055,-0.045L0.214,-0.065L0.196,-0.044L0.196,-0.629L0.218,-0.627L0.044,-0.526L0.017,-0.577L0.211,-0.701L0.278,-0.701L0.278,-0.044Z" style="fill:rgb(255,216,0);fill-rule:nonzero;"/>
        </g>
        <g transform="matrix(16.1951,0,0,16.1951,222.848,237.443)">
            <path d="M0.316,0.009C0.259,0.009 0.213,-0.004 0.176,-0.03C0.138,-0.056 0.111,-0.095 0.094,-0.147C0.076,-0.199 0.067,-0.264 0.067,-0.343C0.067,-0.424 0.076,-0.492 0.095,-0.546C0.114,-0.599 0.143,-0.64 0.182,-0.667C0.221,-0.693 0.271,-0.707 0.33,-0.707C0.388,-0.707 0.435,-0.695 0.471,-0.67C0.506,-0.645 0.532,-0.608 0.549,-0.557C0.565,-0.506 0.573,-0.442 0.573,-0.364C0.573,-0.281 0.564,-0.212 0.545,-0.157C0.526,-0.102 0.498,-0.06 0.46,-0.033C0.421,-0.005 0.373,0.009 0.316,0.009ZM0.319,-0.055C0.358,-0.055 0.389,-0.066 0.414,-0.088C0.439,-0.11 0.457,-0.143 0.469,-0.188C0.481,-0.232 0.487,-0.288 0.488,-0.356C0.489,-0.427 0.483,-0.483 0.471,-0.525C0.459,-0.566 0.441,-0.596 0.417,-0.615C0.393,-0.634 0.363,-0.643 0.327,-0.643C0.287,-0.643 0.254,-0.632 0.228,-0.611C0.202,-0.589 0.183,-0.556 0.171,-0.513C0.158,-0.469 0.152,-0.414 0.152,-0.347C0.152,-0.28 0.158,-0.226 0.17,-0.183C0.182,-0.139 0.2,-0.108 0.225,-0.087C0.25,-0.066 0.281,-0.055 0.319,-0.055Z" style="fill:rgb(255,216,0);fill-rule:nonzero;"/>
        </g>
        <g transform="matrix(16.1951,0,0,16.1951,233.18,237.443)">
            <path d="M0.278,-0.044L0.26,-0.066L0.394,-0.045L0.394,-0L0.055,-0L0.055,-0.045L0.214,-0.065L0.196,-0.044L0.196,-0.629L0.218,-0.627L0.044,-0.526L0.017,-0.577L0.211,-0.701L0.278,-0.701L0.278,-0.044Z" style="fill:rgb(255,216,0);fill-rule:nonzero;"/>
        </g>
        <g transform="matrix(16.1951,0,0,16.1951,239.755,237.443)">
            <path d="M0.278,-0.044L0.26,-0.066L0.394,-0.045L0.394,-0L0.055,-0L0.055,-0.045L0.214,-0.065L0.196,-0.044L0.196,-0.629L0.218,-0.627L0.044,-0.526L0.017,-0.577L0.211,-0.701L0.278,-0.701L0.278,-0.044Z" style="fill:rgb(255,216,0);fill-rule:nonzero;"/>
        </g>
        <g transform="matrix(16.1951,0,0,16.1951,246.331,237.443)">
            <path d="M0.316,0.009C0.259,0.009 0.213,-0.004 0.176,-0.03C0.138,-0.056 0.111,-0.095 0.094,-0.147C0.076,-0.199 0.067,-0.264 0.067,-0.343C0.067,-0.424 0.076,-0.492 0.095,-0.546C0.114,-0.599 0.143,-0.64 0.182,-0.667C0.221,-0.693 0.271,-0.707 0.33,-0.707C0.388,-0.707 0.435,-0.695 0.471,-0.67C0.506,-0.645 0.532,-0.608 0.549,-0.557C0.565,-0.506 0.573,-0.442 0.573,-0.364C0.573,-0.281 0.564,-0.212 0.545,-0.157C0.526,-0.102 0.498,-0.06 0.46,-0.033C0.421,-0.005 0.373,0.009 0.316,0.009ZM0.319,-0.055C0.358,-0.055 0.389,-0.066 0.414,-0.088C0.439,-0.11 0.457,-0.143 0.469,-0.188C0.481,-0.232 0.487,-0.288 0.488,-0.356C0.489,-0.427 0.483,-0.483 0.471,-0.525C0.459,-0.566 0.441,-0.596 0.417,-0.615C0.393,-0.634 0.363,-0.643 0.327,-0.643C0.287,-0.643 0.254,-0.632 0.228,-0.611C0.202,-0.589 0.183,-0.556 0.171,-0.513C0.158,-0.469 0.152,-0.414 0.152,-0.347C0.152,-0.28 0.158,-0.226 0.17,-0.183C0.182,-0.139 0.2,-0.108 0.225,-0.087C0.25,-0.066 0.281,-0.055 0.319,-0.055Z" style="fill:rgb(255,216,0);fill-rule:nonzero;"/>
        </g>
        <g transform="matrix(16.1951,0,0,16.1951,256.663,237.443)">
            <path d="M0.278,-0.044L0.26,-0.066L0.394,-0.045L0.394,-0L0.055,-0L0.055,-0.045L0.214,-0.065L0.196,-0.044L0.196,-0.629L0.218,-0.627L0.044,-0.526L0.017,-0.577L0.211,-0.701L0.278,-0.701L0.278,-0.044Z" style="fill:rgb(255,216,0);fill-rule:nonzero;"/>
        </g>
        <g transform="matrix(16.1951,0,0,16.1951,263.238,237.443)">
            <path d="M0.316,0.009C0.259,0.009 0.213,-0.004 0.176,-0.03C0.138,-0.056 0.111,-0.095 0.094,-0.147C0.076,-0.199 0.067,-0.264 0.067,-0.343C0.067,-0.424 0.076,-0.492 0.095,-0.546C0.114,-0.599 0.143,-0.64 0.182,-0.667C0.221,-0.693 0.271,-0.707 0.33,-0.707C0.388,-0.707 0.435,-0.695 0.471,-0.67C0.506,-0.645 0.532,-0.608 0.549,-0.557C0.565,-0.506 0.573,-0.442 0.573,-0.364C0.573,-0.281 0.564,-0.212 0.545,-0.157C0.526,-0.102 0.498,-0.06 0.46,-0.033C0.421,-0.005 0.373,0.009 0.316,0.009ZM0.319,-0.055C0.358,-0.055 0.389,-0.066 0.414,-0.088C0.439,-0.11 0.457,-0.143 0.469,-0.188C0.481,-0.232 0.487,-0.288 0.488,-0.356C0.489,-0.427 0.483,-0.483 0.471,-0.525C0.459,-0.566 0.441,-0.596 0.417,-0.615C0.393,-0.634 0.363,-0.643 0.327,-0.643C0.287,-0.643 0.254,-0.632 0.228,-0.611C0.202,-0.589 0.183,-0.556 0.171,-0.513C0.158,-0.469 0.152,-0.414 0.152,-0.347C0.152,-0.28 0.158,-0.226 0.17,-0.183C0.182,-0.139 0.2,-0.108 0.225,-0.087C0.25,-0.066 0.281,-0.055 0.319,-0.055Z" style="fill:rgb(255,216,0);fill-rule:nonzero;"/>
        </g>
        <g transform="matrix(16.1951,0,0,16.1951,273.571,237.443)">
            <path d="M0.278,-0.044L0.26,-0.066L0.394,-0.045L0.394,-0L0.055,-0L0.055,-0.045L0.214,-0.065L0.196,-0.044L0.196,-0.629L0.218,-0.627L0.044,-0.526L0.017,-0.577L0.211,-0.701L0.278,-0.701L0.278,-0.044Z" style="fill:rgb(255,216,0);fill-rule:nonzero;"/>
        </g>
        <g transform="matrix(16.1951,0,0,16.1951,280.146,237.443)">
            <path d="M0.316,0.009C0.259,0.009 0.213,-0.004 0.176,-0.03C0.138,-0.056 0.111,-0.095 0.094,-0.147C0.076,-0.199 0.067,-0.264 0.067,-0.343C0.067,-0.424 0.076,-0.492 0.095,-0.546C0.114,-0.599 0.143,-0.64 0.182,-0.667C0.221,-0.693 0.271,-0.707 0.33,-0.707C0.388,-0.707 0.435,-0.695 0.471,-0.67C0.506,-0.645 0.532,-0.608 0.549,-0.557C0.565,-0.506 0.573,-0.442 0.573,-0.364C0.573,-0.281 0.564,-0.212 0.545,-0.157C0.526,-0.102 0.498,-0.06 0.46,-0.033C0.421,-0.005 0.373,0.009 0.316,0.009ZM0.319,-0.055C0.358,-0.055 0.389,-0.066 0.414,-0.088C0.439,-0.11 0.457,-0.143 0.469,-0.188C0.481,-0.232 0.487,-0.288 0.488,-0.356C0.489,-0.427 0.483,-0.483 0.471,-0.525C0.459,-0.566 0.441,-0.596 0.417,-0.615C0.393,-0.634 0.363,-0.643 0.327,-0.643C0.287,-0.643 0.254,-0.632 0.228,-0.611C0.202,-0.589 0.183,-0.556 0.171,-0.513C0.158,-0.469 0.152,-0.414 0.152,-0.347C0.152,-0.28 0.158,-0.226 0.17,-0.183C0.182,-0.139 0.2,-0.108 0.225,-0.087C0.25,-0.066 0.281,-0.055 0.319,-0.055Z" style="fill:rgb(255,216,0);fill-rule:nonzero;"/>
        </g>
        <g transform="matrix(16.1951,0,0,16.1951,290.527,237.443)">
            <path d="M0.316,0.009C0.259,0.009 0.213,-0.004 0.176,-0.03C0.138,-0.056 0.111,-0.095 0.094,-0.147C0.076,-0.199 0.067,-0.264 0.067,-0.343C0.067,-0.424 0.076,-0.492 0.095,-0.546C0.114,-0.599 0.143,-0.64 0.182,-0.667C0.221,-0.693 0.271,-0.707 0.33,-0.707C0.388,-0.707 0.435,-0.695 0.471,-0.67C0.506,-0.645 0.532,-0.608 0.549,-0.557C0.565,-0.506 0.573,-0.442 0.573,-0.364C0.573,-0.281 0.564,-0.212 0.545,-0.157C0.526,-0.102 0.498,-0.06 0.46,-0.033C0.421,-0.005 0.373,0.009 0.316,0.009ZM0.319,-0.055C0.358,-0.055 0.389,-0.066 0.414,-0.088C0.439,-0.11 0.457,-0.143 0.469,-0.188C0.481,-0.232 0.487,-0.288 0.488,-0.356C0.489,-0.427 0.483,-0.483 0.471,-0.525C0.459,-0.566 0.441,-0.596 0.417,-0.615C0.393,-0.634 0.363,-0.643 0.327,-0.643C0.287,-0.643 0.254,-0.632 0.228,-0.611C0.202,-0.589 0.183,-0.556 0.171,-0.513C0.158,-0.469 0.152,-0.414 0.152,-0.347C0.152,-0.28 0.158,-0.226 0.17,-0.183C0.182,-0.139 0.2,-0.108 0.225,-0.087C0.25,-0.066 0.281,-0.055 0.319,-0.055Z" style="fill:rgb(255,216,0);fill-rule:nonzero;"/>
        </g>
        <g transform="matrix(16.1951,0,0,16.1951,300.86,237.443)">
            <path d="M0.278,-0.044L0.26,-0.066L0.394,-0.045L0.394,-0L0.055,-0L0.055,-0.045L0.214,-0.065L0.196,-0.044L0.196,-0.629L0.218,-0.627L0.044,-0.526L0.017,-0.577L0.211,-0.701L0.278,-0.701L0.278,-0.044Z" style="fill:rgb(255,216,0);fill-rule:nonzero;"/>
        </g>
        <g transform="matrix(16.1951,0,0,16.1951,307.435,237.443)">
            <path d="M0.278,-0.044L0.26,-0.066L0.394,-0.045L0.394,-0L0.055,-0L0.055,-0.045L0.214,-0.065L0.196,-0.044L0.196,-0.629L0.218,-0.627L0.044,-0.526L0.017,-0.577L0.211,-0.701L0.278,-0.701L0.278,-0.044Z" style="fill:rgb(255,216,0);fill-rule:nonzero;"/>
        </g>
        <g transform="matrix(16.1951,0,0,16.1951,314.01,237.443)">
            <path d="M0.316,0.009C0.259,0.009 0.213,-0.004 0.176,-0.03C0.138,-0.056 0.111,-0.095 0.094,-0.147C0.076,-0.199 0.067,-0.264 0.067,-0.343C0.067,-0.424 0.076,-0.492 0.095,-0.546C0.114,-0.599 0.143,-0.64 0.182,-0.667C0.221,-0.693 0.271,-0.707 0.33,-0.707C0.388,-0.707 0.435,-0.695 0.471,-0.67C0.506,-0.645 0.532,-0.608 0.549,-0.557C0.565,-0.506 0.573,-0.442 0.573,-0.364C0.573,-0.281 0.564,-0.212 0.545,-0.157C0.526,-0.102 0.498,-0.06 0.46,-0.033C0.421,-0.005 0.373,0.009 0.316,0.009ZM0.319,-0.055C0.358,-0.055 0.389,-0.066 0.414,-0.088C0.439,-0.11 0.457,-0.143 0.469,-0.188C0.481,-0.232 0.487,-0.288 0.488,-0.356C0.489,-0.427 0.483,-0.483 0.471,-0.525C0.459,-0.566 0.441,-0.596 0.417,-0.615C0.393,-0.634 0.363,-0.643 0.327,-0.643C0.287,-0.643 0.254,-0.632 0.228,-0.611C0.202,-0.589 0.183,-0.556 0.171,-0.513C0.158,-0.469 0.152,-0.414 0.152,-0.347C0.152,-0.28 0.158,-0.226 0.17,-0.183C0.182,-0.139 0.2,-0.108 0.225,-0.087C0.25,-0.066 0.281,-0.055 0.319,-0.055Z" style="fill:rgb(255,216,0);fill-rule:nonzero;"/>
        </g>
        <g transform="matrix(16.1951,0,0,16.1951,324.391,237.443)">
            <path d="M0.316,0.009C0.259,0.009 0.213,-0.004 0.176,-0.03C0.138,-0.056 0.111,-0.095 0.094,-0.147C0.076,-0.199 0.067,-0.264 0.067,-0.343C0.067,-0.424 0.076,-0.492 0.095,-0.546C0.114,-0.599 0.143,-0.64 0.182,-0.667C0.221,-0.693 0.271,-0.707 0.33,-0.707C0.388,-0.707 0.435,-0.695 0.471,-0.67C0.506,-0.645 0.532,-0.608 0.549,-0.557C0.565,-0.506 0.573,-0.442 0.573,-0.364C0.573,-0.281 0.564,-0.212 0.545,-0.157C0.526,-0.102 0.498,-0.06 0.46,-0.033C0.421,-0.005 0.373,0.009 0.316,0.009ZM0.319,-0.055C0.358,-0.055 0.389,-0.066 0.414,-0.088C0.439,-0.11 0.457,-0.143 0.469,-0.188C0.481,-0.232 0.487,-0.288 0.488,-0.356C0.489,-0.427 0.483,-0.483 0.471,-0.525C0.459,-0.566 0.441,-0.596 0.417,-0.615C0.393,-0.634 0.363,-0.643 0.327,-0.643C0.287,-0.643 0.254,-0.632 0.228,-0.611C0.202,-0.589 0.183,-0.556 0.171,-0.513C0.158,-0.469 0.152,-0.414 0.152,-0.347C0.152,-0.28 0.158,-0.226 0.17,-0.183C0.182,-0.139 0.2,-0.108 0.225,-0.087C0.25,-0.066 0.281,-0.055 0.319,-0.055Z" style="fill:rgb(255,216,0);fill-rule:nonzero;"/>
        </g>
        <g transform="matrix(16.1951,0,0,16.1951,334.724,237.443)">
            <path d="M0.278,-0.044L0.26,-0.066L0.394,-0.045L0.394,-0L0.055,-0L0.055,-0.045L0.214,-0.065L0.196,-0.044L0.196,-0.629L0.218,-0.627L0.044,-0.526L0.017,-0.577L0.211,-0.701L0.278,-0.701L0.278,-0.044Z" style="fill:rgb(255,216,0);fill-rule:nonzero;"/>
        </g>
        <g transform="matrix(16.1951,0,0,16.1951,341.299,237.443)">
            <path d="M0.278,-0.044L0.26,-0.066L0.394,-0.045L0.394,-0L0.055,-0L0.055,-0.045L0.214,-0.065L0.196,-0.044L0.196,-0.629L0.218,-0.627L0.044,-0.526L0.017,-0.577L0.211,-0.701L0.278,-0.701L0.278,-0.044Z" style="fill:rgb(255,216,0);fill-rule:nonzero;"/>
        </g>
        <g transform="matrix(16.1951,0,0,16.1951,347.874,237.443)">
            <path d="M0.316,0.009C0.259,0.009 0.213,-0.004 0.176,-0.03C0.138,-0.056 0.111,-0.095 0.094,-0.147C0.076,-0.199 0.067,-0.264 0.067,-0.343C0.067,-0.424 0.076,-0.492 0.095,-0.546C0.114,-0.599 0.143,-0.64 0.182,-0.667C0.221,-0.693 0.271,-0.707 0.33,-0.707C0.388,-0.707 0.435,-0.695 0.471,-0.67C0.506,-0.645 0.532,-0.608 0.549,-0.557C0.565,-0.506 0.573,-0.442 0.573,-0.364C0.573,-0.281 0.564,-0.212 0.545,-0.157C0.526,-0.102 0.498,-0.06 0.46,-0.033C0.421,-0.005 0.373,0.009 0.316,0.009ZM0.319,-0.055C0.358,-0.055 0.389,-0.066 0.414,-0.088C0.439,-0.11 0.457,-0.143 0.469,-0.188C0.481,-0.232 0.487,-0.288 0.488,-0.356C0.489,-0.427 0.483,-0.483 0.471,-0.525C0.459,-0.566 0.441,-0.596 0.417,-0.615C0.393,-0.634 0.363,-0.643 0.327,-0.643C0.287,-0.643 0.254,-0.632 0.228,-0.611C0.202,-0.589 0.183,-0.556 0.171,-0.513C0.158,-0.469 0.152,-0.414 0.152,-0.347C0.152,-0.28 0.158,-0.226 0.17,-0.183C0.182,-0.139 0.2,-0.108 0.225,-0.087C0.25,-0.066 0.281,-0.055 0.319,-0.055Z" style="fill:rgb(255,216,0);fill-rule:nonzero;"/>
        </g>
        <g transform="matrix(16.1951,0,0,16.1951,358.207,237.443)">
            <path d="M0.278,-0.044L0.26,-0.066L0.394,-0.045L0.394,-0L0.055,-0L0.055,-0.045L0.214,-0.065L0.196,-0.044L0.196,-0.629L0.218,-0.627L0.044,-0.526L0.017,-0.577L0.211,-0.701L0.278,-0.701L0.278,-0.044Z" style="fill:rgb(255,216,0);fill-rule:nonzero;"/>
        </g>
        <g transform="matrix(16.1951,0,0,16.1951,364.782,237.443)">
            <path d="M0.316,0.009C0.259,0.009 0.213,-0.004 0.176,-0.03C0.138,-0.056 0.111,-0.095 0.094,-0.147C0.076,-0.199 0.067,-0.264 0.067,-0.343C0.067,-0.424 0.076,-0.492 0.095,-0.546C0.114,-0.599 0.143,-0.64 0.182,-0.667C0.221,-0.693 0.271,-0.707 0.33,-0.707C0.388,-0.707 0.435,-0.695 0.471,-0.67C0.506,-0.645 0.532,-0.608 0.549,-0.557C0.565,-0.506 0.573,-0.442 0.573,-0.364C0.573,-0.281 0.564,-0.212 0.545,-0.157C0.526,-0.102 0.498,-0.06 0.46,-0.033C0.421,-0.005 0.373,0.009 0.316,0.009ZM0.319,-0.055C0.358,-0.055 0.389,-0.066 0.414,-0.088C0.439,-0.11 0.457,-0.143 0.469,-0.188C0.481,-0.232 0.487,-0.288 0.488,-0.356C0.489,-0.427 0.483,-0.483 0.471,-0.525C0.459,-0.566 0.441,-0.596 0.417,-0.615C0.393,-0.634 0.363,-0.643 0.327,-0.643C0.287,-0.643 0.254,-0.632 0.228,-0.611C0.202,-0.589 0.183,-0.556 0.171,-0.513C0.158,-0.469 0.152,-0.414 0.152,-0.347C0.152,-0.28 0.158,-0.226 0.17,-0.183C0.182,-0.139 0.2,-0.108 0.225,-0.087C0.25,-0.066 0.281,-0.055 0.319,-0.055Z" style="fill:rgb(255,216,0);fill-rule:nonzero;"/>
        </g>
        <g transform="matrix(16.1951,0,0,16.1951,375.114,237.443)">
            <path d="M0.278,-0.044L0.26,-0.066L0.394,-0.045L0.394,-0L0.055,-0L0.055,-0.045L0.214,-0.065L0.196,-0.044L0.196,-0.629L0.218,-0.627L0.044,-0.526L0.017,-0.577L0.211,-0.701L0.278,-0.701L0.278,-0.044Z" style="fill:rgb(255,216,0);fill-rule:nonzero;"/>
        </g>
        <g transform="matrix(16.1951,0,0,16.1951,381.689,237.443)">
            <path d="M0.278,-0.044L0.26,-0.066L0.394,-0.045L0.394,-0L0.055,-0L0.055,-0.045L0.214,-0.065L0.196,-0.044L0.196,-0.629L0.218,-0.627L0.044,-0.526L0.017,-0.577L0.211,-0.701L0.278,-0.701L0.278,-0.044Z" style="fill:rgb(255,216,0);fill-rule:nonzero;"/>
        </g>
        <g transform="matrix(16.1951,0,0,16.1951,388.265,237.443)">
            <path d="M0.316,0.009C0.259,0.009 0.213,-0.004 0.176,-0.03C0.138,-0.056 0.111,-0.095 0.094,-0.147C0.076,-0.199 0.067,-0.264 0.067,-0.343C0.067,-0.424 0.076,-0.492 0.095,-0.546C0.114,-0.599 0.143,-0.64 0.182,-0.667C0.221,-0.693 0.271,-0.707 0.33,-0.707C0.388,-0.707 0.435,-0.695 0.471,-0.67C0.506,-0.645 0.532,-0.608 0.549,-0.557C0.565,-0.506 0.573,-0.442 0.573,-0.364C0.573,-0.281 0.564,-0.212 0.545,-0.157C0.526,-0.102 0.498,-0.06 0.46,-0.033C0.421,-0.005 0.373,0.009 0.316,0.009ZM0.319,-0.055C0.358,-0.055 0.389,-0.066 0.414,-0.088C0.439,-0.11 0.457,-0.143 0.469,-0.188C0.481,-0.232 0.487,-0.288 0.488,-0.356C0.489,-0.427 0.483,-0.483 0.471,-0.525C0.459,-0.566 0.441,-0.596 0.417,-0.615C0.393,-0.634 0.363,-0.643 0.327,-0.643C0.287,-0.643 0.254,-0.632 0.228,-0.611C0.202,-0.589 0.183,-0.556 0.171,-0.513C0.158,-0.469 0.152,-0.414 0.152,-0.347C0.152,-0.28 0.158,-0.226 0.17,-0.183C0.182,-0.139 0.2,-0.108 0.225,-0.087C0.25,-0.066 0.281,-0.055 0.319,-0.055Z" style="fill:rgb(255,216,0);fill-rule:nonzero;"/>
        </g>
        <g transform="matrix(16.1951,0,0,16.1951,398.597,237.443)">
            <path d="M0.278,-0.044L0.26,-0.066L0.394,-0.045L0.394,-0L0.055,-0L0.055,-0.045L0.214,-0.065L0.196,-0.044L0.196,-0.629L0.218,-0.627L0.044,-0.526L0.017,-0.577L0.211,-0.701L0.278,-0.701L0.278,-0.044Z" style="fill:rgb(255,216,0);fill-rule:nonzero;"/>
        </g>
        <g transform="matrix(16.1951,0,0,16.1951,405.172,237.443)">
            <path d="M0.316,0.009C0.259,0.009 0.213,-0.004 0.176,-0.03C0.138,-0.056 0.111,-0.095 0.094,-0.147C0.076,-0.199 0.067,-0.264 0.067,-0.343C0.067,-0.424 0.076,-0.492 0.095,-0.546C0.114,-0.599 0.143,-0.64 0.182,-0.667C0.221,-0.693 0.271,-0.707 0.33,-0.707C0.388,-0.707 0.435,-0.695 0.471,-0.67C0.506,-0.645 0.532,-0.608 0.549,-0.557C0.565,-0.506 0.573,-0.442 0.573,-0.364C0.573,-0.281 0.564,-0.212 0.545,-0.157C0.526,-0.102 0.498,-0.06 0.46,-0.033C0.421,-0.005 0.373,0.009 0.316,0.009ZM0.319,-0.055C0.358,-0.055 0.389,-0.066 0.414,-0.088C0.439,-0.11 0.457,-0.143 0.469,-0.188C0.481,-0.232 0.487,-0.288 0.488,-0.356C0.489,-0.427 0.483,-0.483 0.471,-0.525C0.459,-0.566 0.441,-0.596 0.417,-0.615C0.393,-0.634 0.363,-0.643 0.327,-0.643C0.287,-0.643 0.254,-0.632 0.228,-0.611C0.202,-0.589 0.183,-0.556 0.171,-0.513C0.158,-0.469 0.152,-0.414 0.152,-0.347C0.152,-0.28 0.158,-0.226 0.17,-0.183C0.182,-0.139 0.2,-0.108 0.225,-0.087C0.25,-0.066 0.281,-0.055 0.319,-0.055Z" style="fill:rgb(255,216,0);fill-rule:nonzero;"/>
        </g>
        <g transform="matrix(16.1951,0,0,16.1951,415.505,237.443)">
            <path d="M0.278,-0.044L0.26,-0.066L0.394,-0.045L0.394,-0L0.055,-0L0.055,-0.045L0.214,-0.065L0.196,-0.044L0.196,-0.629L0.218,-0.627L0.044,-0.526L0.017,-0.577L0.211,-0.701L0.278,-0.701L0.278,-0.044Z" style="fill:rgb(255,216,0);fill-rule:nonzero;"/>
        </g>
        <g transform="matrix(16.1951,0,0,16.1951,422.08,237.443)">
            <path d="M0.316,0.009C0.259,0.009 0.213,-0.004 0.176,-0.03C0.138,-0.056 0.111,-0.095 0.094,-0.147C0.076,-0.199 0.067,-0.264 0.067,-0.343C0.067,-0.424 0.076,-0.492 0.095,-0.546C0.114,-0.599 0.143,-0.64 0.182,-0.667C0.221,-0.693 0.271,-0.707 0.33,-0.707C0.388,-0.707 0.435,-0.695 0.471,-0.67C0.506,-0.645 0.532,-0.608 0.549,-0.557C0.565,-0.506 0.573,-0.442 0.573,-0.364C0.573,-0.281 0.564,-0.212 0.545,-0.157C0.526,-0.102 0.498,-0.06 0.46,-0.033C0.421,-0.005 0.373,0.009 0.316,0.009ZM0.319,-0.055C0.358,-0.055 0.389,-0.066 0.414,-0.088C0.439,-0.11 0.457,-0.143 0.469,-0.188C0.481,-0.232 0.487,-0.288 0.488,-0.356C0.489,-0.427 0.483,-0.483 0.471,-0.525C0.459,-0.566 0.441,-0.596 0.417,-0.615C0.393,-0.634 0.363,-0.643 0.327,-0.643C0.287,-0.643 0.254,-0.632 0.228,-0.611C0.202,-0.589 0.183,-0.556 0.171,-0.513C0.158,-0.469 0.152,-0.414 0.152,-0.347C0.152,-0.28 0.158,-0.226 0.17,-0.183C0.182,-0.139 0.2,-0.108 0.225,-0.087C0.25,-0.066 0.281,-0.055 0.319,-0.055Z" style="fill:rgb(255,216,0);fill-rule:nonzero;"/>
        </g>
        <g transform="matrix(16.1951,0,0,16.1951,432.461,237.443)">
            <path d="M0.316,0.009C0.259,0.009 0.213,-0.004 0.176,-0.03C0.138,-0.056 0.111,-0.095 0.094,-0.147C0.076,-0.199 0.067,-0.264 0.067,-0.343C0.067,-0.424 0.076,-0.492 0.095,-0.546C0.114,-0.599 0.143,-0.64 0.182,-0.667C0.221,-0.693 0.271,-0.707 0.33,-0.707C0.388,-0.707 0.435,-0.695 0.471,-0.67C0.506,-0.645 0.532,-0.608 0.549,-0.557C0.565,-0.506 0.573,-0.442 0.573,-0.364C0.573,-0.281 0.564,-0.212 0.545,-0.157C0.526,-0.102 0.498,-0.06 0.46,-0.033C0.421,-0.005 0.373,0.009 0.316,0.009ZM0.319,-0.055C0.358,-0.055 0.389,-0.066 0.414,-0.088C0.439,-0.11 0.457,-0.143 0.469,-0.188C0.481,-0.232 0.487,-0.288 0.488,-0.356C0.489,-0.427 0.483,-0.483 0.471,-0.525C0.459,-0.566 0.441,-0.596 0.417,-0.615C0.393,-0.634 0.363,-0.643 0.327,-0.643C0.287,-0.643 0.254,-0.632 0.228,-0.611C0.202,-0.589 0.183,-0.556 0.171,-0.513C0.158,-0.469 0.152,-0.414 0.152,-0.347C0.152,-0.28 0.158,-0.226 0.17,-0.183C0.182,-0.139 0.2,-0.108 0.225,-0.087C0.25,-0.066 0.281,-0.055 0.319,-0.055Z" style="fill:rgb(255,216,0);fill-rule:nonzero;"/>
        </g>
        <g transform="matrix(16.1951,0,0,16.1951,442.794,237.443)">
            <path d="M0.278,-0.044L0.26,-0.066L0.394,-0.045L0.394,-0L0.055,-0L0.055,-0.045L0.214,-0.065L0.196,-0.044L0.196,-0.629L0.218,-0.627L0.044,-0.526L0.017,-0.577L0.211,-0.701L0.278,-0.701L0.278,-0.044Z" style="fill:rgb(255,216,0);fill-rule:nonzero;"/>
        </g>
        <g transform="matrix(16.1951,0,0,16.1951,449.369,237.443)">
            <path d="M0.278,-0.044L0.26,-0.066L0.394,-0.045L0.394,-0L0.055,-0L0.055,-0.045L0.214,-0.065L0.196,-0.044L0.196,-0.629L0.218,-0.627L0.044,-0.526L0.017,-0.577L0.211,-0.701L0.278,-0.701L0.278,-0.044Z" style="fill:rgb(255,216,0);fill-rule:nonzero;"/>
        </g>
        <g transform="matrix(16.1951,0,0,16.1951,455.944,237.443)">
            <path d="M0.316,0.009C0.259,0.009 0.213,-0.004 0.176,-0.03C0.138,-0.056 0.111,-0.095 0.094,-0.147C0.076,-0.199 0.067,-0.264 0.067,-0.343C0.067,-0.424 0.076,-0.492 0.095,-0.546C0.114,-0.599 0.143,-0.64 0.182,-0.667C0.221,-0.693 0.271,-0.707 0.33,-0.707C0.388,-0.707 0.435,-0.695 0.471,-0.67C0.506,-0.645 0.532,-0.608 0.549,-0.557C0.565,-0.506 0.573,-0.442 0.573,-0.364C0.573,-0.281 0.564,-0.212 0.545,-0.157C0.526,-0.102 0.498,-0.06 0.46,-0.033C0.421,-0.005 0.373,0.009 0.316,0.009ZM0.319,-0.055C0.358,-0.055 0.389,-0.066 0.414,-0.088C0.439,-0.11 0.457,-0.143 0.469,-0.188C0.481,-0.232 0.487,-0.288 0.488,-0.356C0.489,-0.427 0.483,-0.483 0.471,-0.525C0.459,-0.566 0.441,-0.596 0.417,-0.615C0.393,-0.634 0.363,-0.643 0.327,-0.643C0.287,-0.643 0.254,-0.632 0.228,-0.611C0.202,-0.589 0.183,-0.556 0.171,-0.513C0.158,-0.469 0.152,-0.414 0.152,-0.347C0.152,-0.28 0.158,-0.226 0.17,-0.183C0.182,-0.139 0.2,-0.108 0.225,-0.087C0.25,-0.066 0.281,-0.055 0.319,-0.055Z" style="fill:rgb(255,216,0);fill-rule:nonzero;"/>
        </g>
        <g transform="matrix(16.1951,0,0,16.1951,466.325,237.443)">
            <path d="M0.316,0.009C0.259,0.009 0.213,-0.004 0.176,-0.03C0.138,-0.056 0.111,-0.095 0.094,-0.147C0.076,-0.199 0.067,-0.264 0.067,-0.343C0.067,-0.424 0.076,-0.492 0.095,-0.546C0.114,-0.599 0.143,-0.64 0.182,-0.667C0.221,-0.693 0.271,-0.707 0.33,-0.707C0.388,-0.707 0.435,-0.695 0.471,-0.67C0.506,-0.645 0.532,-0.608 0.549,-0.557C0.565,-0.506 0.573,-0.442 0.573,-0.364C0.573,-0.281 0.564,-0.212 0.545,-0.157C0.526,-0.102 0.498,-0.06 0.46,-0.033C0.421,-0.005 0.373,0.009 0.316,0.009ZM0.319,-0.055C0.358,-0.055 0.389,-0.066 0.414,-0.088C0.439,-0.11 0.457,-0.143 0.469,-0.188C0.481,-0.232 0.487,-0.288 0.488,-0.356C0.489,-0.427 0.483,-0.483 0.471,-0.525C0.459,-0.566 0.441,-0.596 0.417,-0.615C0.393,-0.634 0.363,-0.643 0.327,-0.643C0.287,-0.643 0.254,-0.632 0.228,-0.611C0.202,-0.589 0.183,-0.556 0.171,-0.513C0.158,-0.469 0.152,-0.414 0.152,-0.347C0.152,-0.28 0.158,-0.226 0.17,-0.183C0.182,-0.139 0.2,-0.108 0.225,-0.087C0.25,-0.066 0.281,-0.055 0.319,-0.055Z" style="fill:rgb(255,216,0);fill-rule:nonzero;"/>
        </g>
        <g transform="matrix(16.1951,0,0,16.1951,476.658,237.443)">
            <path d="M0.278,-0.044L0.26,-0.066L0.394,-0.045L0.394,-0L0.055,-0L0.055,-0.045L0.214,-0.065L0.196,-0.044L0.196,-0.629L0.218,-0.627L0.044,-0.526L0.017,-0.577L0.211,-0.701L0.278,-0.701L0.278,-0.044Z" style="fill:rgb(255,216,0);fill-rule:nonzero;"/>
        </g>
        <g transform="matrix(16.1951,0,0,16.1951,483.233,237.443)">
            <path d="M0.278,-0.044L0.26,-0.066L0.394,-0.045L0.394,-0L0.055,-0L0.055,-0.045L0.214,-0.065L0.196,-0.044L0.196,-0.629L0.218,-0.627L0.044,-0.526L0.017,-0.577L0.211,-0.701L0.278,-0.701L0.278,-0.044Z" style="fill:rgb(255,216,0);fill-rule:nonzero;"/>
        </g>
        <g transform="matrix(16.1951,0,0,16.1951,489.808,237.443)">
            <path d="M0.316,0.009C0.259,0.009 0.213,-0.004 0.176,-0.03C0.138,-0.056 0.111,-0.095 0.094,-0.147C0.076,-0.199 0.067,-0.264 0.067,-0.343C0.067,-0.424 0.076,-0.492 0.095,-0.546C0.114,-0.599 0.143,-0.64 0.182,-0.667C0.221,-0.693 0.271,-0.707 0.33,-0.707C0.388,-0.707 0.435,-0.695 0.471,-0.67C0.506,-0.645 0.532,-0.608 0.549,-0.557C0.565,-0.506 0.573,-0.442 0.573,-0.364C0.573,-0.281 0.564,-0.212 0.545,-0.157C0.526,-0.102 0.498,-0.06 0.46,-0.033C0.421,-0.005 0.373,0.009 0.316,0.009ZM0.319,-0.055C0.358,-0.055 0.389,-0.066 0.414,-0.088C0.439,-0.11 0.457,-0.143 0.469,-0.188C0.481,-0.232 0.487,-0.288 0.488,-0.356C0.489,-0.427 0.483,-0.483 0.471,-0.525C0.459,-0.566 0.441,-0.596 0.417,-0.615C0.393,-0.634 0.363,-0.643 0.327,-0.643C0.287,-0.643 0.254,-0.632 0.228,-0.611C0.202,-0.589 0.183,-0.556 0.171,-0.513C0.158,-0.469 0.152,-0.414 0.152,-0.347C0.152,-0.28 0.158,-0.226 0.17,-0.183C0.182,-0.139 0.2,-0.108 0.225,-0.087C0.25,-0.066 0.281,-0.055 0.319,-0.055Z" style="fill:rgb(255,216,0);fill-rule:nonzero;"/>
        </g>
        <g transform="matrix(16.1951,0,0,16.1951,500.141,237.443)">
            <path d="M0.278,-0.044L0.26,-0.066L0.394,-0.045L0.394,-0L0.055,-0L0.055,-0.045L0.214,-0.065L0.196,-0.044L0.196,-0.629L0.218,-0.627L0.044,-0.526L0.017,-0.577L0.211,-0.701L0.278,-0.701L0.278,-0.044Z" style="fill:rgb(255,216,0);fill-rule:nonzero;"/>
        </g>
        <g transform="matrix(16.1951,0,0,16.1951,506.716,237.443)">
            <path d="M0.316,0.009C0.259,0.009 0.213,-0.004 0.176,-0.03C0.138,-0.056 0.111,-0.095 0.094,-0.147C0.076,-0.199 0.067,-0.264 0.067,-0.343C0.067,-0.424 0.076,-0.492 0.095,-0.546C0.114,-0.599 0.143,-0.64 0.182,-0.667C0.221,-0.693 0.271,-0.707 0.33,-0.707C0.388,-0.707 0.435,-0.695 0.471,-0.67C0.506,-0.645 0.532,-0.608 0.549,-0.557C0.565,-0.506 0.573,-0.442 0.573,-0.364C0.573,-0.281 0.564,-0.212 0.545,-0.157C0.526,-0.102 0.498,-0.06 0.46,-0.033C0.421,-0.005 0.373,0.009 0.316,0.009ZM0.319,-0.055C0.358,-0.055 0.389,-0.066 0.414,-0.088C0.439,-0.11 0.457,-0.143 0.469,-0.188C0.481,-0.232 0.487,-0.288 0.488,-0.356C0.489,-0.427 0.483,-0.483 0.471,-0.525C0.459,-0.566 0.441,-0.596 0.417,-0.615C0.393,-0.634 0.363,-0.643 0.327,-0.643C0.287,-0.643 0.254,-0.632 0.228,-0.611C0.202,-0.589 0.183,-0.556 0.171,-0.513C0.158,-0.469 0.152,-0.414 0.152,-0.347C0.152,-0.28 0.158,-0.226 0.17,-0.183C0.182,-0.139 0.2,-0.108 0.225,-0.087C0.25,-0.066 0.281,-0.055 0.319,-0.055Z" style="fill:rgb(255,216,0);fill-rule:nonzero;"/>
        </g>
        <g transform="matrix(16.1951,0,0,16.1951,517.048,237.443)">
            <path d="M0.278,-0.044L0.26,-0.066L0.394,-0.045L0.394,-0L0.055,-0L0.055,-0.045L0.214,-0.065L0.196,-0.044L0.196,-0.629L0.218,-0.627L0.044,-0.526L0.017,-0.577L0.211,-0.701L0.278,-0.701L0.278,-0.044Z" style="fill:rgb(255,216,0);fill-rule:nonzero;"/>
        </g>
        <g transform="matrix(16.1951,0,0,16.1951,523.623,237.443)">
            <path d="M0.278,-0.044L0.26,-0.066L0.394,-0.045L0.394,-0L0.055,-0L0.055,-0.045L0.214,-0.065L0.196,-0.044L0.196,-0.629L0.218,-0.627L0.044,-0.526L0.017,-0.577L0.211,-0.701L0.278,-0.701L0.278,-0.044Z" style="fill:rgb(255,216,0);fill-rule:nonzero;"/>
        </g>
        <g transform="matrix(16.1951,0,0,16.1951,530.199,237.443)">
            <path d="M0.316,0.009C0.259,0.009 0.213,-0.004 0.176,-0.03C0.138,-0.056 0.111,-0.095 0.094,-0.147C0.076,-0.199 0.067,-0.264 0.067,-0.343C0.067,-0.424 0.076,-0.492 0.095,-0.546C0.114,-0.599 0.143,-0.64 0.182,-0.667C0.221,-0.693 0.271,-0.707 0.33,-0.707C0.388,-0.707 0.435,-0.695 0.471,-0.67C0.506,-0.645 0.532,-0.608 0.549,-0.557C0.565,-0.506 0.573,-0.442 0.573,-0.364C0.573,-0.281 0.564,-0.212 0.545,-0.157C0.526,-0.102 0.498,-0.06 0.46,-0.033C0.421,-0.005 0.373,0.009 0.316,0.009ZM0.319,-0.055C0.358,-0.055 0.389,-0.066 0.414,-0.088C0.439,-0.11 0.457,-0.143 0.469,-0.188C0.481,-0.232 0.487,-0.288 0.488,-0.356C0.489,-0.427 0.483,-0.483 0.471,-0.525C0.459,-0.566 0.441,-0.596 0.417,-0.615C0.393,-0.634 0.363,-0.643 0.327,-0.643C0.287,-0.643 0.254,-0.632 0.228,-0.611C0.202,-0.589 0.183,-0.556 0.171,-0.513C0.158,-0.469 0.152,-0.414 0.152,-0.347C0.152,-0.28 0.158,-0.226 0.17,-0.183C0.182,-0.139 0.2,-0.108 0.225,-0.087C0.25,-0.066 0.281,-0.055 0.319,-0.055Z" style="fill:rgb(255,216,0);fill-rule:nonzero;"/>
        </g>
        <g transform="matrix(16.1951,0,0,16.1951,540.531,237.443)">
            <path d="M0.278,-0.044L0.26,-0.066L0.394,-0.045L0.394,-0L0.055,-0L0.055,-0.045L0.214,-0.065L0.196,-0.044L0.196,-0.629L0.218,-0.627L0.044,-0.526L0.017,-0.577L0.211,-0.701L0.278,-0.701L0.278,-0.044Z" style="fill:rgb(255,216,0);fill-rule:nonzero;"/>
        </g>
        <g transform="matrix(16.1951,0,0,16.1951,547.106,237.443)">
            <path d="M0.316,0.009C0.259,0.009 0.213,-0.004 0.176,-0.03C0.138,-0.056 0.111,-0.095 0.094,-0.147C0.076,-0.199 0.067,-0.264 0.067,-0.343C0.067,-0.424 0.076,-0.492 0.095,-0.546C0.114,-0.599 0.143,-0.64 0.182,-0.667C0.221,-0.693 0.271,-0.707 0.33,-0.707C0.388,-0.707 0.435,-0.695 0.471,-0.67C0.506,-0.645 0.532,-0.608 0.549,-0.557C0.565,-0.506 0.573,-0.442 0.573,-0.364C0.573,-0.281 0.564,-0.212 0.545,-0.157C0.526,-0.102 0.498,-0.06 0.46,-0.033C0.421,-0.005 0.373,0.009 0.316,0.009ZM0.319,-0.055C0.358,-0.055 0.389,-0.066 0.414,-0.088C0.439,-0.11 0.457,-0.143 0.469,-0.188C0.481,-0.232 0.487,-0.288 0.488,-0.356C0.489,-0.427 0.483,-0.483 0.471,-0.525C0.459,-0.566 0.441,-0.596 0.417,-0.615C0.393,-0.634 0.363,-0.643 0.327,-0.643C0.287,-0.643 0.254,-0.632 0.228,-0.611C0.202,-0.589 0.183,-0.556 0.171,-0.513C0.158,-0.469 0.152,-0.414 0.152,-0.347C0.152,-0.28 0.158,-0.226 0.17,-0.183C0.182,-0.139 0.2,-0.108 0.225,-0.087C0.25,-0.066 0.281,-0.055 0.319,-0.055Z" style="fill:rgb(255,216,0);fill-rule:nonzero;"/>
        </g>
        <g transform="matrix(16.1951,0,0,16.1951,557.439,237.443)">
            <path d="M0.278,-0.044L0.26,-0.066L0.394,-0.045L0.394,-0L0.055,-0L0.055,-0.045L0.214,-0.065L0.196,-0.044L0.196,-0.629L0.218,-0.627L0.044,-0.526L0.017,-0.577L0.211,-0.701L0.278,-0.701L0.278,-0.044Z" style="fill:rgb(255,216,0);fill-rule:nonzero;"/>
        </g>
        <g transform="matrix(16.1951,0,0,16.1951,564.014,237.443)">
            <path d="M0.316,0.009C0.259,0.009 0.213,-0.004 0.176,-0.03C0.138,-0.056 0.111,-0.095 0.094,-0.147C0.076,-0.199 0.067,-0.264 0.067,-0.343C0.067,-0.424 0.076,-0.492 0.095,-0.546C0.114,-0.599 0.143,-0.64 0.182,-0.667C0.221,-0.693 0.271,-0.707 0.33,-0.707C0.388,-0.707 0.435,-0.695 0.471,-0.67C0.506,-0.645 0.532,-0.608 0.549,-0.557C0.565,-0.506 0.573,-0.442 0.573,-0.364C0.573,-0.281 0.564,-0.212 0.545,-0.157C0.526,-0.102 0.498,-0.06 0.46,-0.033C0.421,-0.005 0.373,0.009 0.316,0.009ZM0.319,-0.055C0.358,-0.055 0.389,-0.066 0.414,-0.088C0.439,-0.11 0.457,-0.143 0.469,-0.188C0.481,-0.232 0.487,-0.288 0.488,-0.356C0.489,-0.427 0.483,-0.483 0.471,-0.525C0.459,-0.566 0.441,-0.596 0.417,-0.615C0.393,-0.634 0.363,-0.643 0.327,-0.643C0.287,-0.643 0.254,-0.632 0.228,-0.611C0.202,-0.589 0.183,-0.556 0.171,-0.513C0.158,-0.469 0.152,-0.414 0.152,-0.347C0.152,-0.28 0.158,-0.226 0.17,-0.183C0.182,-0.139 0.2,-0.108 0.225,-0.087C0.25,-0.066 0.281,-0.055 0.319,-0.055Z" style="fill:rgb(255,216,0);fill-rule:nonzero;"/>
        </g>
        <g transform="matrix(16.1951,0,0,16.1951,574.395,237.443)">
            <path d="M0.316,0.009C0.259,0.009 0.213,-0.004 0.176,-0.03C0.138,-0.056 0.111,-0.095 0.094,-0.147C0.076,-0.199 0.067,-0.264 0.067,-0.343C0.067,-0.424 0.076,-0.492 0.095,-0.546C0.114,-0.599 0.143,-0.64 0.182,-0.667C0.221,-0.693 0.271,-0.707 0.33,-0.707C0.388,-0.707 0.435,-0.695 0.471,-0.67C0.506,-0.645 0.532,-0.608 0.549,-0.557C0.565,-0.506 0.573,-0.442 0.573,-0.364C0.573,-0.281 0.564,-0.212 0.545,-0.157C0.526,-0.102 0.498,-0.06 0.46,-0.033C0.421,-0.005 0.373,0.009 0.316,0.009ZM0.319,-0.055C0.358,-0.055 0.389,-0.066 0.414,-0.088C0.439,-0.11 0.457,-0.143 0.469,-0.188C0.481,-0.232 0.487,-0.288 0.488,-0.356C0.489,-0.427 0.483,-0.483 0.471,-0.525C0.459,-0.566 0.441,-0.596 0.417,-0.615C0.393,-0.634 0.363,-0.643 0.327,-0.643C0.287,-0.643 0.254,-0.632 0.228,-0.611C0.202,-0.589 0.183,-0.556 0.171,-0.513C0.158,-0.469 0.152,-0.414 0.152,-0.347C0.152,-0.28 0.158,-0.226 0.17,-0.183C0.182,-0.139 0.2,-0.108 0.225,-0.087C0.25,-0.066 0.281,-0.055 0.319,-0.055Z" style="fill:rgb(255,216,0);fill-rule:nonzero;"/>
        </g>
        <g transform="matrix(16.1951,0,0,16.1951,584.728,237.443)">
            <path d="M0.278,-0.044L0.26,-0.066L0.394,-0.045L0.394,-0L0.055,-0L0.055,-0.045L0.214,-0.065L0.196,-0.044L0.196,-0.629L0.218,-0.627L0.044,-0.526L0.017,-0.577L0.211,-0.701L0.278,-0.701L0.278,-0.044Z" style="fill:rgb(255,216,0);fill-rule:nonzero;"/>
        </g>
        <g transform="matrix(56.375,0,0,56.375,154.01,293.818)">
            <path d="M0.049,-0L0.049,-0.043L0.148,-0.064L0.135,-0.046L0.135,-0.65L0.152,-0.631L0.049,-0.65L0.049,-0.693L0.22,-0.698L0.337,-0.698C0.412,-0.698 0.469,-0.682 0.508,-0.651C0.547,-0.62 0.566,-0.574 0.566,-0.515C0.566,-0.46 0.549,-0.416 0.515,-0.381C0.48,-0.346 0.428,-0.325 0.358,-0.318L0.357,-0.328C0.383,-0.325 0.404,-0.32 0.421,-0.311C0.437,-0.302 0.451,-0.29 0.462,-0.275C0.473,-0.26 0.484,-0.241 0.495,-0.219L0.579,-0.049L0.554,-0.066L0.638,-0.043L0.638,-0L0.515,-0L0.423,-0.197C0.41,-0.226 0.398,-0.248 0.387,-0.264C0.375,-0.279 0.361,-0.29 0.344,-0.297C0.327,-0.304 0.302,-0.307 0.271,-0.307L0.202,-0.306L0.217,-0.32L0.217,-0.046L0.204,-0.064L0.32,-0.043L0.32,-0L0.049,-0ZM0.217,-0.344L0.202,-0.366L0.297,-0.366C0.356,-0.366 0.402,-0.378 0.434,-0.403C0.466,-0.427 0.482,-0.463 0.482,-0.51C0.482,-0.551 0.469,-0.583 0.443,-0.605C0.417,-0.626 0.378,-0.637 0.327,-0.637L0.202,-0.637L0.217,-0.652L0.217,-0.344Z" style="fill:rgb(51,51,51);fill-rule:nonzero;"/>
        </g>
        <g transform="matrix(56.375,0,0,56.375,188.85,293.818)">
            <path d="M0.294,-0.537C0.367,-0.537 0.425,-0.514 0.467,-0.468C0.508,-0.422 0.529,-0.357 0.529,-0.273C0.529,-0.216 0.519,-0.167 0.499,-0.125C0.478,-0.082 0.449,-0.049 0.412,-0.026C0.375,-0.003 0.33,0.009 0.277,0.009C0.205,0.009 0.149,-0.014 0.108,-0.059C0.067,-0.103 0.047,-0.168 0.047,-0.253C0.047,-0.312 0.057,-0.362 0.077,-0.405C0.096,-0.447 0.125,-0.48 0.162,-0.503C0.199,-0.526 0.243,-0.537 0.294,-0.537ZM0.29,-0.478C0.239,-0.478 0.199,-0.459 0.172,-0.42C0.145,-0.381 0.131,-0.327 0.131,-0.257C0.131,-0.188 0.144,-0.137 0.17,-0.102C0.196,-0.067 0.233,-0.05 0.282,-0.05C0.317,-0.05 0.347,-0.059 0.372,-0.077C0.396,-0.094 0.414,-0.119 0.427,-0.152C0.439,-0.185 0.445,-0.224 0.445,-0.269C0.445,-0.337 0.432,-0.389 0.405,-0.425C0.378,-0.46 0.339,-0.478 0.29,-0.478Z" style="fill:rgb(51,51,51);fill-rule:nonzero;"/>
        </g>
        <g transform="matrix(56.375,0,0,56.375,220.251,293.818)">
            <path d="M0.25,0.009C0.226,0.009 0.201,0.007 0.174,0.004C0.147,0.001 0.118,-0.004 0.088,-0.011L0.088,-0.725L0.104,-0.702L0.01,-0.722L0.01,-0.765L0.168,-0.772L0.168,-0.443L0.157,-0.455C0.185,-0.482 0.214,-0.502 0.244,-0.516C0.274,-0.53 0.304,-0.537 0.334,-0.537C0.371,-0.537 0.405,-0.527 0.435,-0.506C0.464,-0.485 0.488,-0.455 0.505,-0.416C0.522,-0.377 0.531,-0.328 0.531,-0.271C0.531,-0.228 0.526,-0.189 0.515,-0.154C0.503,-0.119 0.487,-0.09 0.464,-0.066C0.441,-0.042 0.412,-0.023 0.377,-0.011C0.342,0.003 0.299,0.009 0.25,0.009ZM0.265,-0.05C0.324,-0.05 0.37,-0.068 0.401,-0.105C0.432,-0.142 0.448,-0.195 0.448,-0.265C0.448,-0.309 0.442,-0.347 0.43,-0.378C0.417,-0.409 0.4,-0.434 0.379,-0.451C0.358,-0.468 0.333,-0.476 0.306,-0.476C0.283,-0.476 0.259,-0.47 0.234,-0.458C0.209,-0.445 0.183,-0.426 0.158,-0.401L0.168,-0.43L0.168,-0.044L0.157,-0.066C0.198,-0.055 0.234,-0.05 0.265,-0.05Z" style="fill:rgb(51,51,51);fill-rule:nonzero;"/>
        </g>
        <g transform="matrix(56.375,0,0,56.375,251.877,293.818)">
            <path d="M0.276,0.009C0.231,0.009 0.192,-0.001 0.158,-0.022C0.123,-0.042 0.096,-0.072 0.077,-0.111C0.058,-0.15 0.048,-0.198 0.048,-0.255C0.048,-0.313 0.058,-0.363 0.078,-0.405C0.098,-0.447 0.126,-0.48 0.163,-0.503C0.2,-0.526 0.243,-0.537 0.292,-0.537C0.339,-0.537 0.377,-0.527 0.408,-0.508C0.438,-0.488 0.46,-0.461 0.476,-0.426C0.491,-0.391 0.498,-0.352 0.498,-0.307C0.498,-0.3 0.498,-0.292 0.497,-0.285C0.496,-0.278 0.495,-0.269 0.494,-0.258L0.109,-0.258L0.109,-0.315L0.424,-0.315L0.415,-0.309C0.416,-0.339 0.412,-0.367 0.404,-0.392C0.396,-0.417 0.382,-0.438 0.363,-0.453C0.344,-0.468 0.318,-0.476 0.286,-0.476C0.252,-0.476 0.223,-0.467 0.2,-0.449C0.177,-0.431 0.159,-0.406 0.148,-0.375C0.137,-0.344 0.131,-0.307 0.131,-0.266C0.131,-0.222 0.137,-0.184 0.15,-0.153C0.163,-0.121 0.181,-0.096 0.206,-0.079C0.23,-0.062 0.26,-0.053 0.295,-0.053C0.32,-0.053 0.347,-0.058 0.376,-0.068C0.405,-0.077 0.436,-0.092 0.467,-0.112L0.496,-0.067C0.459,-0.042 0.421,-0.023 0.384,-0.01C0.347,0.003 0.311,0.009 0.276,0.009Z" style="fill:rgb(51,51,51);fill-rule:nonzero;"/>
        </g>
        <g transform="matrix(56.375,0,0,56.375,281.7,293.818)">
            <path d="M0.038,-0L0.038,-0.043L0.126,-0.062L0.116,-0.047L0.116,-0.478L0.127,-0.463L0.038,-0.482L0.038,-0.525L0.178,-0.532L0.189,-0.434L0.178,-0.438C0.208,-0.469 0.237,-0.494 0.266,-0.511C0.295,-0.528 0.326,-0.537 0.36,-0.537C0.381,-0.537 0.404,-0.534 0.427,-0.527L0.421,-0.381L0.371,-0.381L0.359,-0.486L0.368,-0.468C0.363,-0.469 0.358,-0.47 0.353,-0.471C0.348,-0.472 0.342,-0.472 0.337,-0.472C0.31,-0.472 0.284,-0.464 0.26,-0.448C0.235,-0.432 0.211,-0.411 0.188,-0.386L0.196,-0.41L0.196,-0.047L0.184,-0.062L0.293,-0.043L0.293,-0L0.038,-0Z" style="fill:rgb(51,51,51);fill-rule:nonzero;"/>
        </g>
        <g transform="matrix(56.375,0,0,56.375,308.365,293.818)">
            <path d="M0.215,0.009C0.18,0.009 0.153,-0.002 0.133,-0.024C0.113,-0.045 0.103,-0.078 0.103,-0.122L0.103,-0.485L0.116,-0.472L0.013,-0.472L0.013,-0.516L0.117,-0.531L0.103,-0.515L0.103,-0.647L0.183,-0.66L0.183,-0.515L0.172,-0.528L0.329,-0.528L0.326,-0.472L0.172,-0.472L0.183,-0.485L0.183,-0.133C0.183,-0.105 0.189,-0.085 0.2,-0.072C0.211,-0.059 0.226,-0.053 0.246,-0.053C0.258,-0.053 0.271,-0.055 0.285,-0.059C0.299,-0.063 0.314,-0.069 0.33,-0.076L0.347,-0.03C0.3,-0.004 0.256,0.009 0.215,0.009Z" style="fill:rgb(51,51,51);fill-rule:nonzero;"/>
        </g>
        <g transform="matrix(56.375,0,0,56.375,341.795,293.818)">
            <path d="M0.347,-0.698C0.392,-0.698 0.433,-0.691 0.471,-0.678C0.508,-0.664 0.541,-0.643 0.569,-0.616C0.597,-0.588 0.619,-0.553 0.635,-0.511C0.651,-0.468 0.659,-0.418 0.659,-0.36C0.659,-0.281 0.645,-0.215 0.617,-0.162C0.588,-0.109 0.549,-0.068 0.5,-0.041C0.451,-0.014 0.394,-0 0.331,-0L0.049,-0L0.049,-0.043L0.149,-0.064L0.135,-0.046L0.135,-0.65L0.149,-0.631L0.049,-0.65L0.049,-0.693L0.237,-0.698L0.347,-0.698ZM0.334,-0.061C0.365,-0.061 0.394,-0.066 0.422,-0.076C0.45,-0.086 0.475,-0.102 0.498,-0.125C0.521,-0.147 0.539,-0.177 0.552,-0.215C0.565,-0.252 0.571,-0.298 0.571,-0.353C0.571,-0.407 0.565,-0.452 0.552,-0.489C0.539,-0.525 0.522,-0.554 0.501,-0.576C0.48,-0.597 0.456,-0.613 0.429,-0.623C0.402,-0.632 0.374,-0.637 0.345,-0.637L0.202,-0.637L0.217,-0.652L0.217,-0.046L0.202,-0.061L0.334,-0.061Z" style="fill:rgb(51,51,51);fill-rule:nonzero;"/>
        </g>
        <g transform="matrix(56.375,0,0,56.375,381.314,293.818)">
            <path d="M0.196,-0.051L0.187,-0.062L0.274,-0.043L0.274,-0L0.038,-0L0.038,-0.043L0.125,-0.062L0.116,-0.051L0.116,-0.473L0.124,-0.464L0.038,-0.482L0.038,-0.525L0.196,-0.531L0.196,-0.051ZM0.15,-0.639C0.135,-0.639 0.122,-0.644 0.112,-0.654C0.102,-0.664 0.097,-0.678 0.097,-0.695C0.097,-0.713 0.102,-0.727 0.113,-0.737C0.123,-0.746 0.136,-0.751 0.151,-0.751C0.167,-0.751 0.18,-0.746 0.19,-0.737C0.2,-0.728 0.205,-0.714 0.205,-0.695C0.205,-0.677 0.2,-0.663 0.189,-0.654C0.178,-0.644 0.165,-0.639 0.15,-0.639Z" style="fill:rgb(51,51,51);fill-rule:nonzero;"/>
        </g>
        <g transform="matrix(56.375,0,0,56.375,397.381,293.818)">
            <path d="M0.449,-0.045L0.436,-0.063L0.528,-0.045L0.528,-0.001L0.388,0.005L0.376,-0.091L0.383,-0.088C0.354,-0.056 0.322,-0.032 0.288,-0.016C0.254,0.001 0.221,0.009 0.189,0.009C0.15,0.009 0.118,-0.003 0.091,-0.028C0.064,-0.053 0.051,-0.09 0.051,-0.14C0.051,-0.179 0.059,-0.21 0.076,-0.231C0.093,-0.252 0.116,-0.266 0.145,-0.275C0.174,-0.284 0.208,-0.288 0.247,-0.288L0.378,-0.288L0.369,-0.278L0.369,-0.374C0.369,-0.411 0.359,-0.437 0.34,-0.453C0.321,-0.468 0.294,-0.476 0.26,-0.476C0.242,-0.476 0.223,-0.474 0.203,-0.471C0.182,-0.467 0.161,-0.461 0.138,-0.453L0.15,-0.466L0.14,-0.375L0.087,-0.375L0.079,-0.499C0.117,-0.512 0.153,-0.521 0.186,-0.528C0.219,-0.534 0.25,-0.537 0.278,-0.537C0.331,-0.537 0.373,-0.525 0.404,-0.502C0.434,-0.478 0.449,-0.44 0.449,-0.388L0.449,-0.045ZM0.132,-0.147C0.132,-0.114 0.14,-0.09 0.156,-0.075C0.171,-0.06 0.191,-0.052 0.215,-0.052C0.238,-0.052 0.264,-0.059 0.293,-0.074C0.321,-0.088 0.348,-0.107 0.375,-0.132L0.369,-0.111L0.369,-0.245L0.378,-0.236L0.259,-0.236C0.212,-0.236 0.179,-0.229 0.16,-0.215C0.141,-0.2 0.132,-0.178 0.132,-0.147Z" style="fill:rgb(51,51,51);fill-rule:nonzero;"/>
        </g>
        <g transform="matrix(56.375,0,0,56.375,428.218,293.818)">
            <path d="M0.25,0.009C0.226,0.009 0.201,0.007 0.174,0.004C0.147,0.001 0.118,-0.004 0.088,-0.011L0.088,-0.725L0.104,-0.702L0.01,-0.722L0.01,-0.765L0.168,-0.772L0.168,-0.443L0.157,-0.455C0.185,-0.482 0.214,-0.502 0.244,-0.516C0.274,-0.53 0.304,-0.537 0.334,-0.537C0.371,-0.537 0.405,-0.527 0.435,-0.506C0.464,-0.485 0.488,-0.455 0.505,-0.416C0.522,-0.377 0.531,-0.328 0.531,-0.271C0.531,-0.228 0.526,-0.189 0.515,-0.154C0.503,-0.119 0.487,-0.09 0.464,-0.066C0.441,-0.042 0.412,-0.023 0.377,-0.011C0.342,0.003 0.299,0.009 0.25,0.009ZM0.265,-0.05C0.324,-0.05 0.37,-0.068 0.401,-0.105C0.432,-0.142 0.448,-0.195 0.448,-0.265C0.448,-0.309 0.442,-0.347 0.43,-0.378C0.417,-0.409 0.4,-0.434 0.379,-0.451C0.358,-0.468 0.333,-0.476 0.306,-0.476C0.283,-0.476 0.259,-0.47 0.234,-0.458C0.209,-0.445 0.183,-0.426 0.158,-0.401L0.168,-0.43L0.168,-0.044L0.157,-0.066C0.198,-0.055 0.234,-0.05 0.265,-0.05Z" style="fill:rgb(51,51,51);fill-rule:nonzero;"/>
        </g>
    </g>
</svg>
